<svg width="113" height="38" viewBox="0 0 113 38" fill="none" xmlns="http://www.w3.org/2000/svg">
<path d="M24.2926 28.6684C25.6589 28.6684 26.6252 28.835 27.1917 29.1683C27.7916 29.4682 28.1915 29.9514 28.3914 30.6178C28.5913 31.251 28.6913 32.1007 28.6913 33.1671C28.6913 34.2001 28.5747 35.0332 28.3414 35.6663C28.1415 36.2995 27.7916 36.7327 27.2917 36.966C26.5586 37.3658 25.5256 37.5658 24.1926 37.5658H4.64835C3.4487 37.5658 2.41567 37.1159 1.54925 36.2162C0.68284 35.3164 0.249634 34.2668 0.249634 33.0671C0.249634 31.2676 0.86612 29.6181 2.09909 28.1186C3.36539 26.5857 4.88161 25.2861 6.64776 24.2197C8.41391 23.12 10.1801 22.0537 11.9462 21.0206C13.7124 19.9543 15.2119 18.7546 16.4449 17.4217C17.7112 16.0887 18.3443 14.6725 18.3443 13.1729C18.3443 12.873 18.2277 12.4565 17.9944 11.9233C17.7612 11.3568 17.4946 10.9069 17.1947 10.5737C16.9281 10.2071 16.4949 9.8739 15.8951 9.57399C15.2952 9.27408 14.4621 9.12412 13.3958 9.12412C12.3294 9.12412 11.3964 9.524 10.5966 10.3238C9.83016 11.0902 9.39696 11.8567 9.29698 12.6231L9.09704 13.7728V14.0727C9.09704 14.8058 9.06372 15.3556 8.99707 15.7222C8.96375 16.0887 8.81379 16.5053 8.5472 16.9718C8.04735 17.7716 6.74773 18.1715 4.64835 18.1715C2.3157 18.1715 0.932767 17.5383 0.499561 16.272C0.332943 15.7388 0.249634 14.8891 0.249634 13.7228C0.249634 10.2571 1.48261 7.15803 3.94855 4.4255C6.44782 1.65964 9.69687 0.276712 13.6957 0.276712C17.7278 0.276712 20.9936 1.6763 23.4928 4.47548C25.9921 7.24134 27.2417 10.4071 27.2417 13.9727C27.2417 15.8721 26.8252 17.6716 25.9921 19.3711C25.159 21.0706 24.1593 22.4369 22.993 23.4699C20.527 25.6693 18.3277 27.1522 16.3949 27.9186L15.1453 28.4185V28.6684H24.2926ZM40.0567 14.6225C41.6229 12.2565 43.5057 11.0736 45.7051 11.0736C49.1041 11.0736 51.6367 12.5231 53.3028 15.4223C53.6694 14.9224 54.1026 14.4059 54.6025 13.8727C55.1356 13.3062 55.9687 12.7064 57.1017 12.0733C58.2347 11.4068 59.4011 11.0736 60.6007 11.0736C63.2666 11.0736 65.4993 12.1066 67.2987 14.1726C69.0982 16.2054 69.998 19.5877 69.998 24.3197V33.0671C69.998 33.8336 69.9646 34.4167 69.898 34.8166C69.8647 35.1832 69.7147 35.6164 69.4481 36.1162C69.0149 37.016 67.732 37.4658 65.5992 37.4658C63.4999 37.4658 62.2169 36.9993 61.7504 36.0662C61.5171 35.5664 61.3672 35.1332 61.3005 34.7666C61.2672 34.3667 61.2505 33.7836 61.2505 33.0171V24.2697C61.2505 21.3705 60.2175 19.921 58.1514 19.921C56.9851 19.921 56.1853 20.3042 55.7521 21.0706C55.3522 21.8371 55.1523 22.9201 55.1523 24.3197V33.0671C55.1523 33.8669 55.119 34.45 55.0523 34.8166C55.019 35.1832 54.8691 35.6164 54.6025 36.1162C54.1359 37.016 52.8363 37.4658 50.7036 37.4658C48.6042 37.4658 47.3213 36.9993 46.8547 36.0662C46.6215 35.5664 46.4715 35.1332 46.4049 34.7666C46.3715 34.3667 46.3549 33.7836 46.3549 33.0171V24.2697C46.3549 21.3705 45.3218 19.921 43.2558 19.921C41.2564 19.921 40.2567 21.3705 40.2567 24.2697V33.1171C40.2567 33.8835 40.2233 34.4667 40.1567 34.8666C40.1234 35.2331 39.9734 35.6663 39.7068 36.1662C39.207 37.0326 37.9074 37.4658 35.808 37.4658C33.7086 37.4658 32.4256 37.016 31.9591 36.1162C31.7258 35.6164 31.5759 35.1832 31.5092 34.8166C31.4759 34.45 31.4592 33.8669 31.4592 33.0671V15.4723C31.4592 14.7058 31.4759 14.1393 31.5092 13.7728C31.5759 13.3729 31.7425 12.9397 32.0091 12.4731C32.5089 11.5734 33.6919 11.1235 35.558 11.1235C37.4242 11.1235 38.6405 11.4234 39.207 12.0233C39.7735 12.6231 40.0567 13.4895 40.0567 14.6225ZM82.5736 14.6225C84.1398 12.2565 86.0226 11.0736 88.2219 11.0736C91.6209 11.0736 94.1535 12.5231 95.8197 15.4223C96.1862 14.9224 96.6195 14.4059 97.1193 13.8727C97.6525 13.3062 98.4856 12.7064 99.6186 12.0733C100.752 11.4068 101.918 11.0736 103.118 11.0736C105.783 11.0736 108.016 12.1066 109.816 14.1726C111.615 16.2054 112.515 19.5877 112.515 24.3197V33.0671C112.515 33.8336 112.481 34.4167 112.415 34.8166C112.382 35.1832 112.232 35.6164 111.965 36.1162C111.532 37.016 110.249 37.4658 108.116 37.4658C106.017 37.4658 104.734 36.9993 104.267 36.0662C104.034 35.5664 103.884 35.1332 103.817 34.7666C103.784 34.3667 103.767 33.7836 103.767 33.0171V24.2697C103.767 21.3705 102.734 19.921 100.668 19.921C99.5019 19.921 98.7022 20.3042 98.269 21.0706C97.8691 21.8371 97.6691 22.9201 97.6691 24.3197V33.0671C97.6691 33.8669 97.6358 34.45 97.5692 34.8166C97.5359 35.1832 97.3859 35.6164 97.1193 36.1162C96.6528 37.016 95.3532 37.4658 93.2204 37.4658C91.1211 37.4658 89.8381 36.9993 89.3716 36.0662C89.1383 35.5664 88.9884 35.1332 88.9217 34.7666C88.8884 34.3667 88.8717 33.7836 88.8717 33.0171V24.2697C88.8717 21.3705 87.8387 19.921 85.7726 19.921C83.7732 19.921 82.7735 21.3705 82.7735 24.2697V33.1171C82.7735 33.8835 82.7402 34.4667 82.6735 34.8666C82.6402 35.2331 82.4903 35.6663 82.2237 36.1662C81.7238 37.0326 80.4242 37.4658 78.3248 37.4658C76.2254 37.4658 74.9425 37.016 74.4759 36.1162C74.2427 35.6164 74.0927 35.1832 74.0261 34.8166C73.9927 34.45 73.9761 33.8669 73.9761 33.0671V15.4723C73.9761 14.7058 73.9927 14.1393 74.0261 13.7728C74.0927 13.3729 74.2593 12.9397 74.5259 12.4731C75.0258 11.5734 76.2088 11.1235 78.0749 11.1235C79.941 11.1235 81.1573 11.4234 81.7238 12.0233C82.2903 12.6231 82.5736 13.4895 82.5736 14.6225Z" fill="#415DE9"/>
</svg>
