<svg width="346" height="175" viewBox="0 0 346 175" fill="none" xmlns="http://www.w3.org/2000/svg">
<path d="M1.34764 164.038C0.762772 162.628 0.354412 161.126 0.150112 159.56L1.14171 159.43C1.04826 158.714 1 157.983 1 157.24V155.189H0V151.087H1V146.984H0V142.882H1V138.779H0V134.677H1V130.575H0V126.472H1V122.37H0V118.268H1V114.165H0V110.063H1V105.961H0V101.858H1V97.7559H0V93.6535H1V89.5512H0V85.4488H1V81.3465H0V77.2441H1V73.1418H0V69.0394H1V64.937H0V60.8347H1V56.7323H0V52.63H1V48.5276H0V44.4253H1V40.3229H0V36.2206H1V32.1182H0V28.0159H1V23.9135H0V19.8112H1V17.76C1 17.0172 1.04826 16.2861 1.14171 15.5697L0.150113 15.4404C0.354413 13.8742 0.762773 12.3721 1.34764 10.9617L2.27137 11.3447C2.83617 9.98273 3.57565 8.71091 4.46215 7.55731L3.66923 6.94799C4.61469 5.71766 5.71766 4.61468 6.948 3.66922L7.55732 4.46214C8.71092 3.57565 9.98274 2.83616 11.3447 2.27136L10.9617 1.34764C12.3721 0.762772 13.8742 0.354412 15.4404 0.150112L15.5697 1.14171C16.2861 1.04826 17.0172 1 17.76 1H19.7503V0H23.7308V1H27.7113V0H31.6918V1H35.6723V0H39.6528V1H43.6333V0H47.6138V1H51.5943V0H55.5748V1H59.5553V0H63.5358V1H67.5163V0H71.4968V1H75.4773V0H79.4579V1H83.4384V0H87.4189V1H91.3994V0H95.3799V1H99.3604V0H103.341V1H107.321V0H111.302V1H115.282V0H119.263V1H123.243V0H127.224V1H131.205V0H135.185V1H139.166V0H143.146V1H147.127V0H151.107V1H155.088V0H159.068V1H163.049V0H167.029V1H171.01V0H174.99V1H178.971V0H182.951V1H186.932V0H190.912V1H194.893V0H198.873V1H202.854V0H206.834V1H210.815V0H214.795V1H218.776V0H222.756V1H226.737V0H230.717V1H234.698V0H238.678V1H242.659V0H246.639V1H250.62V0H254.6V1H258.581V0H262.562V1H266.542V0H270.523V1H274.503V0H278.484V1H282.464V0H286.445V1H290.425V0H294.406V1H298.386V0H302.367V1H306.347V0H310.328V1H314.308V0H318.289V1H322.269V0H326.25V1H328.24C328.983 1 329.714 1.04826 330.43 1.14171L330.56 0.150113C332.126 0.354412 333.628 0.762771 335.038 1.34763L334.655 2.27136C336.017 2.83616 337.289 3.57565 338.443 4.46214L339.052 3.66922C340.282 4.61468 341.385 5.71766 342.331 6.94799L341.538 7.55732C342.424 8.71092 343.164 9.98274 343.729 11.3447L344.652 10.9617C345.237 12.3721 345.646 13.8742 345.85 15.4404L344.858 15.5697C344.952 16.2861 345 17.0172 345 17.76V19.8111H346V23.9135H345V28.0159H346V32.1182H345V36.2206H346V40.3229H345V44.4253H346V48.5276H345V52.63H346V56.7323H345V60.8347H346V64.9371H345V69.0394H346V73.1418H345V77.2441H346V81.3465H345V85.4488H346V89.5512H345V93.6535H346V97.7559H345V101.858H346V105.961H345V110.063H346V114.165H345V118.268H346V122.37H345V126.472H346V130.575H345V134.677H346V138.779H345V142.882H346V146.984H345V151.086H346V155.189H345V157.24C345 157.983 344.952 158.714 344.858 159.43L345.85 159.56C345.646 161.126 345.237 162.628 344.652 164.038L343.729 163.655C343.164 165.017 342.424 166.289 341.538 167.443L342.331 168.052C341.385 169.282 340.282 170.385 339.052 171.331L338.443 170.538C337.289 171.424 336.017 172.164 334.655 172.729L335.038 173.652C333.628 174.237 332.126 174.646 330.56 174.85L330.43 173.858C329.714 173.952 328.983 174 328.24 174H326.25V175H322.269V174H318.289V175H314.308V174H310.328V175H306.347V174H302.367V175H298.386V174H294.406V175H290.425V174H286.445V175H282.464V174H278.484V175H274.503V174H270.523V175H266.542V174H262.562V175H258.581V174H254.601V175H250.62V174H246.64V175H242.659V174H238.679V175H234.698V174H230.718V175H226.737V174H222.756V175H218.776V174H214.795V175H210.815V174H206.834V175H202.854V174H198.873V175H194.893V174H190.912V175H186.932V174H182.951V175H178.971V174H174.99V175H171.01V174H167.029V175H163.049V174H159.068V175H155.088V174H151.107V175H147.127V174H143.146V175H139.166V174H135.185V175H131.205V174H127.224V175H123.244V174H119.263V175H115.283V174H111.302V175H107.322V174H103.341V175H99.3605V174H95.38V175H91.3995V174H87.419V175H83.4385V174H79.458V175H75.4775V174H71.4969V175H67.5164V174H63.5359V175H59.5554V174H55.5749V175H51.5944V174H47.6138V175H43.6333V174H39.6528V175H35.6723V174H31.6918V175H27.7113V174H23.7308V175H19.7503V174H17.76C17.0172 174 16.2861 173.952 15.5697 173.858L15.4404 174.85C13.8742 174.646 12.3721 174.237 10.9617 173.652L11.3447 172.729C9.98274 172.164 8.71093 171.424 7.55733 170.538L6.948 171.331C5.71767 170.385 4.61469 169.282 3.66923 168.052L4.46215 167.443C3.57565 166.289 2.83617 165.017 2.27137 163.655L1.34764 164.038Z" stroke="#0057FF" stroke-width="2" stroke-dasharray="4 4"/>
<path d="M324.136 16.3614L324.882 16.2868L324.136 16.3614ZM323.984 15.5416L323.317 15.8854V15.8854L323.984 15.5416ZM324.431 17.8179L325.027 17.363L325.027 17.363L324.431 17.8179ZM325.359 18.2025L325.259 17.4592H325.259L325.359 18.2025ZM326.598 17.3811L327.073 17.9616L327.073 17.9616L326.598 17.3811ZM327.285 16.9092L327.514 17.6236L327.285 16.9092ZM327.987 16.9442L328.285 16.256L328.285 16.256L327.987 16.9442ZM328.624 17.4822L328.094 18.0125V18.0125L328.624 17.4822ZM329.518 18.3757L330.048 17.8453V17.8453L329.518 18.3757ZM330.056 19.0128L330.744 18.7146L330.744 18.7146L330.056 19.0128ZM330.091 19.7146L330.805 19.9429L330.805 19.9429L330.091 19.7146ZM329.619 20.4021L329.038 19.9272L329.038 19.9272L329.619 20.4021ZM328.797 21.6406L328.054 21.5406V21.5406L328.797 21.6406ZM329.182 22.5689L328.727 23.1652V23.1652L329.182 22.5689ZM330.639 22.8639L330.713 22.1176L330.639 22.8639ZM331.458 23.0162L331.802 22.3497L331.802 22.3497L331.458 23.0162ZM331.93 23.5373L332.627 23.2615V23.2615L331.93 23.5373ZM331.93 26.4626L331.232 26.1869L331.232 26.1869L331.93 26.4626ZM331.458 26.9838L331.802 27.6504V27.6504L331.458 26.9838ZM330.639 27.1361L330.564 26.3899L330.54 26.3923L330.515 26.3963L330.639 27.1361ZM330.639 27.1361L330.713 27.8824L330.738 27.88L330.762 27.8759L330.639 27.1361ZM329.183 27.4309L328.728 26.8345V26.8345L329.183 27.4309ZM328.798 28.3596L328.055 28.4597V28.4597L328.798 28.3596ZM329.619 29.5976L329.039 30.0725V30.0725L329.619 29.5976ZM330.091 30.2848L329.376 30.5131V30.5131L330.091 30.2848ZM330.056 30.9869L329.368 30.6886L329.368 30.6887L330.056 30.9869ZM329.518 31.6238L330.048 32.1541H330.048L329.518 31.6238ZM328.624 32.5174L328.094 31.987L328.094 31.987L328.624 32.5174ZM327.987 33.0554L328.285 33.7435L328.285 33.7435L327.987 33.0554ZM327.285 33.0904L327.057 33.8048H327.057L327.285 33.0904ZM326.598 32.6184L327.073 32.0379L327.066 32.0328L326.598 32.6184ZM326.598 32.6184L326.123 33.1989L326.129 33.2041L326.598 32.6184ZM325.359 31.7971L325.459 31.0538H325.459L325.359 31.7971ZM324.431 32.1816L325.027 32.6365L325.027 32.6365L324.431 32.1816ZM324.136 33.6383L323.39 33.5637L324.136 33.6383ZM323.984 34.4585L323.317 34.1146L323.317 34.1146L323.984 34.4585ZM323.463 34.9299L323.187 34.2325H323.187L323.463 34.9299ZM320.537 34.9299L320.813 34.2325L320.537 34.9299ZM320.016 34.4584L320.683 34.1146V34.1146L320.016 34.4584ZM319.864 33.6385L319.118 33.7132V33.7132L319.864 33.6385ZM319.569 32.182L318.973 32.6369L318.973 32.6369L319.569 32.182ZM318.641 31.7975L318.541 31.0542H318.541L318.641 31.7975ZM317.402 32.6189L316.927 32.0384L316.915 32.0481L316.904 32.0583L317.402 32.6189ZM317.402 32.6189L317.877 33.1993L317.889 33.1896L317.9 33.1794L317.402 32.6189ZM316.715 33.0908L316.943 33.8053H316.943L316.715 33.0908ZM316.013 33.0558L315.715 33.744H315.715L316.013 33.0558ZM315.376 32.5178L315.906 31.9875H315.906L315.376 32.5178ZM314.482 31.6243L313.952 32.1547L313.952 32.1547L314.482 31.6243ZM313.944 30.9873L314.632 30.6891H314.632L313.944 30.9873ZM313.909 30.2854L314.624 30.5136L314.624 30.5136L313.909 30.2854ZM314.381 29.5979L314.962 30.0728L314.962 30.0728L314.381 29.5979ZM315.202 28.3594L315.946 28.4594L315.202 28.3594ZM314.818 27.4311L315.273 26.8348L315.273 26.8348L314.818 27.4311ZM313.361 27.1361L313.287 27.8824H313.287L313.361 27.1361ZM312.542 26.9838L312.885 26.3172H312.885L312.542 26.9838ZM312.07 26.4627L311.373 26.7384L311.373 26.7385L312.07 26.4627ZM312.07 23.5372L311.373 23.2614L311.373 23.2614L312.07 23.5372ZM312.542 23.0163L312.198 22.3498L312.198 22.3498L312.542 23.0163ZM313.362 22.8638V22.1138H313.324L313.287 22.1176L313.362 22.8638ZM313.362 22.8638V23.6138H313.399L313.436 23.6101L313.362 22.8638ZM314.818 22.5688L314.363 21.9726L314.363 21.9726L314.818 22.5688ZM315.203 21.6407L315.946 21.5408V21.5408L315.203 21.6407ZM314.381 20.4018L314.962 19.9269H314.962L314.381 20.4018ZM313.909 19.7141L314.624 19.4859H314.624L313.909 19.7141ZM313.944 19.0124L313.256 18.7143L313.256 18.7143L313.944 19.0124ZM314.482 18.3751L315.013 18.9054L315.013 18.9054L314.482 18.3751ZM315.376 17.4818L314.845 16.9514L315.376 17.4818ZM316.013 16.9437L315.715 16.2555L315.715 16.2555L316.013 16.9437ZM316.715 16.9087L316.943 16.1943L316.943 16.1943L316.715 16.9087ZM317.402 17.3808L317.877 16.8003V16.8003L317.402 17.3808ZM318.64 18.2021L318.741 17.4588V17.4588L318.64 18.2021ZM319.569 17.8174L318.973 17.3626L319.569 17.8174ZM319.864 16.3613L320.61 16.4359V16.4359L319.864 16.3613ZM320.016 15.5417L319.35 15.198L319.35 15.198L320.016 15.5417ZM320.537 15.07L320.813 15.7675L320.813 15.7675L320.537 15.07ZM323.463 15.07L323.738 14.3726L323.738 14.3726L323.463 15.07ZM324.882 16.2868C324.862 16.0799 324.843 15.8882 324.816 15.7282C324.788 15.5608 324.744 15.3794 324.65 15.1978L323.317 15.8854C323.311 15.8732 323.321 15.8848 323.337 15.9766C323.353 16.0758 323.367 16.2093 323.39 16.4361L324.882 16.2868ZM325.027 17.363C325.053 17.3971 325.025 17.3849 324.988 17.1802C324.953 16.9828 324.925 16.7098 324.882 16.2868L323.39 16.4361C323.43 16.8339 323.463 17.1766 323.512 17.4459C323.559 17.708 323.637 18.0136 323.835 18.2728L325.027 17.363ZM325.259 17.4592C325.17 17.4711 325.082 17.4344 325.027 17.363L323.835 18.2728C324.216 18.7727 324.836 19.0296 325.459 18.9458L325.259 17.4592ZM326.123 16.8007C325.794 17.0699 325.581 17.2432 325.416 17.3577C325.246 17.4763 325.217 17.4649 325.259 17.4592L325.459 18.9458C325.783 18.9023 326.054 18.7414 326.273 18.5894C326.497 18.4333 326.763 18.2148 327.073 17.9616L326.123 16.8007ZM327.057 16.1948C326.863 16.2569 326.703 16.3541 326.565 16.4526C326.433 16.5467 326.284 16.669 326.123 16.8007L327.073 17.9616C327.249 17.8173 327.353 17.7326 327.435 17.6742C327.511 17.6202 327.527 17.6194 327.514 17.6236L327.057 16.1948ZM328.285 16.256C327.897 16.0877 327.46 16.0659 327.057 16.1948L327.514 17.6236C327.571 17.6052 327.634 17.6083 327.689 17.6324L328.285 16.256ZM329.155 16.9519C329.008 16.8048 328.872 16.6684 328.75 16.5615C328.622 16.4498 328.473 16.3372 328.285 16.256L327.689 17.6324C327.676 17.6269 327.692 17.6292 327.762 17.6905C327.838 17.7567 327.933 17.8514 328.094 18.0125L329.155 16.9519ZM330.048 17.8453L329.155 16.9519L328.094 18.0125L328.987 18.906L330.048 17.8453ZM330.744 18.7146C330.663 18.5271 330.55 18.3782 330.438 18.2504C330.332 18.1283 330.195 17.9924 330.048 17.8453L328.987 18.906C329.149 19.0671 329.243 19.1623 329.309 19.238C329.371 19.3081 329.373 19.3236 329.368 19.3109L330.744 18.7146ZM330.805 19.9429C330.934 19.5395 330.912 19.1031 330.744 18.7146L329.368 19.3109C329.392 19.3664 329.395 19.4288 329.376 19.4864L330.805 19.9429ZM330.199 20.877C330.331 20.7161 330.453 20.5673 330.547 20.4351C330.646 20.2969 330.743 20.1374 330.805 19.9429L329.376 19.4864C329.381 19.4733 329.38 19.4889 329.326 19.5647C329.267 19.6466 329.183 19.7508 329.038 19.9272L330.199 20.877ZM329.541 21.7405C329.535 21.783 329.524 21.7543 329.642 21.5835C329.757 21.4188 329.93 21.2061 330.199 20.877L329.038 19.9272C328.785 20.2366 328.567 20.5028 328.411 20.7275C328.259 20.9462 328.098 21.2174 328.054 21.5406L329.541 21.7405ZM329.637 21.9726C329.565 21.9182 329.529 21.8296 329.541 21.7405L328.054 21.5406C327.97 22.1637 328.227 22.7839 328.727 23.1652L329.637 21.9726ZM330.713 22.1176C330.29 22.0753 330.017 22.0474 329.82 22.0119C329.615 21.9751 329.603 21.9467 329.637 21.9726L328.727 23.1652C328.986 23.363 329.292 23.441 329.554 23.4882C329.823 23.5366 330.166 23.5703 330.564 23.6101L330.713 22.1176ZM331.802 22.3497C331.621 22.256 331.439 22.212 331.272 22.1839C331.112 22.157 330.92 22.1383 330.713 22.1176L330.564 23.6101C330.791 23.6328 330.924 23.6466 331.023 23.6632C331.115 23.6786 331.127 23.6891 331.115 23.6828L331.802 22.3497ZM332.627 23.2615C332.472 22.8678 332.179 22.5438 331.802 22.3497L331.115 23.6828C331.168 23.7105 331.21 23.7568 331.232 23.8131L332.627 23.2615ZM332.75 24.3682C332.75 24.1603 332.75 23.9677 332.74 23.8058C332.728 23.6364 332.703 23.4515 332.627 23.2615L331.232 23.8131C331.227 23.8003 331.237 23.8129 331.243 23.9057C331.25 24.0061 331.25 24.1404 331.25 24.3682H332.75ZM332.75 25.6319V24.3682H331.25V25.6319H332.75ZM332.627 26.7383C332.703 26.5484 332.728 26.3635 332.74 26.1942C332.75 26.0324 332.75 25.8398 332.75 25.6319H331.25C331.25 25.8597 331.25 25.9939 331.243 26.0943C331.237 26.1871 331.227 26.1997 331.232 26.1869L332.627 26.7383ZM331.802 27.6504C332.178 27.4563 332.472 27.1322 332.627 26.7383L331.232 26.1869C331.21 26.2432 331.168 26.2895 331.115 26.3172L331.802 27.6504ZM330.713 27.8824C330.92 27.8617 331.112 27.8429 331.272 27.8161C331.439 27.788 331.621 27.744 331.802 27.6504L331.115 26.3172C331.127 26.3109 331.115 26.3214 331.023 26.3368C330.924 26.3534 330.791 26.3672 330.564 26.3899L330.713 27.8824ZM330.762 27.8759L330.762 27.8759L330.515 26.3963L330.515 26.3963L330.762 27.8759ZM329.637 28.0273C329.603 28.0533 329.615 28.0249 329.82 27.9881C330.017 27.9525 330.29 27.9247 330.713 27.8824L330.564 26.3899C330.166 26.4296 329.824 26.4633 329.554 26.5118C329.292 26.5589 328.987 26.6369 328.728 26.8345L329.637 28.0273ZM329.541 28.2595C329.529 28.1704 329.566 28.0818 329.637 28.0273L328.728 26.8345C328.228 27.2159 327.971 27.8364 328.055 28.4597L329.541 28.2595ZM330.199 29.1227C329.93 28.7937 329.757 28.5811 329.643 28.4164C329.524 28.2458 329.535 28.2171 329.541 28.2595L328.055 28.4597C328.098 28.7828 328.259 29.0539 328.411 29.2725C328.567 29.4971 328.785 29.7632 329.039 30.0725L330.199 29.1227ZM330.805 30.0565C330.743 29.862 330.646 29.7026 330.547 29.5644C330.453 29.4323 330.331 29.2835 330.199 29.1227L329.039 30.0725C329.183 30.2488 329.267 30.3529 329.326 30.4348C329.38 30.5106 329.381 30.5262 329.376 30.5131L330.805 30.0565ZM330.744 31.2852C330.912 30.8965 330.934 30.46 330.805 30.0565L329.376 30.5131C329.395 30.5708 329.392 30.6331 329.368 30.6886L330.744 31.2852ZM330.048 32.1541C330.195 32.0071 330.332 31.8712 330.438 31.7492C330.55 31.6215 330.663 31.4726 330.744 31.2852L329.368 30.6887C329.373 30.676 329.371 30.6915 329.309 30.7615C329.243 30.8372 329.149 30.9324 328.988 31.0934L330.048 32.1541ZM329.155 33.0477L330.048 32.1541L328.988 31.0934L328.094 31.987L329.155 33.0477ZM328.285 33.7435C328.473 33.6623 328.622 33.5498 328.75 33.438C328.872 33.3312 329.008 33.1947 329.155 33.0477L328.094 31.987C327.933 32.1482 327.838 32.2428 327.762 32.309C327.692 32.3703 327.676 32.3727 327.689 32.3672L328.285 33.7435ZM327.057 33.8048C327.46 33.9337 327.897 33.9119 328.285 33.7435L327.689 32.3672C327.634 32.3912 327.571 32.3944 327.514 32.3759L327.057 33.8048ZM326.123 33.1989C326.284 33.3306 326.433 33.4528 326.565 33.547C326.703 33.6455 326.863 33.7426 327.057 33.8048L327.514 32.3759C327.527 32.3801 327.511 32.3793 327.435 32.3253C327.353 32.267 327.249 32.1823 327.073 32.038L326.123 33.1989ZM326.129 33.2041L326.129 33.2041L327.066 32.0328L327.066 32.0328L326.129 33.2041ZM325.26 32.5404C325.217 32.5347 325.246 32.5232 325.417 32.6419C325.581 32.7564 325.794 32.9297 326.123 33.1989L327.073 32.0379C326.763 31.7848 326.497 31.5663 326.273 31.4101C326.054 31.2582 325.783 31.0972 325.459 31.0538L325.26 32.5404ZM325.027 32.6365C325.082 32.5651 325.17 32.5284 325.26 32.5404L325.459 31.0538C324.836 30.9699 324.216 31.2268 323.835 31.7267L325.027 32.6365ZM324.882 33.7129C324.925 33.2899 324.953 33.0169 324.988 32.8194C325.025 32.6147 325.053 32.6025 325.027 32.6365L323.835 31.7267C323.637 31.986 323.559 32.2916 323.512 32.5537C323.463 32.823 323.43 33.1658 323.39 33.5637L324.882 33.7129ZM324.65 34.8024C324.744 34.6208 324.788 34.4392 324.816 34.2718C324.843 34.1117 324.862 33.92 324.882 33.7129L323.39 33.5637C323.367 33.7905 323.353 33.9242 323.337 34.0234C323.321 34.1152 323.311 34.1269 323.317 34.1146L324.65 34.8024ZM323.739 35.6273C324.132 35.4717 324.456 35.1786 324.65 34.8024L323.317 34.1146C323.289 34.1684 323.243 34.2102 323.187 34.2325L323.739 35.6273ZM322.632 35.75C322.84 35.75 323.032 35.7504 323.194 35.7396C323.364 35.7283 323.549 35.7025 323.739 35.6273L323.187 34.2325C323.2 34.2274 323.187 34.2367 323.094 34.2429C322.994 34.2496 322.86 34.25 322.632 34.25V35.75ZM321.368 35.75H322.632V34.25H321.368V35.75ZM320.262 35.6274C320.451 35.7025 320.636 35.7283 320.806 35.7396C320.968 35.7504 321.16 35.75 321.368 35.75V34.25C321.14 34.25 321.006 34.2496 320.906 34.2429C320.813 34.2367 320.8 34.2274 320.813 34.2325L320.262 35.6274ZM319.35 34.8022C319.544 35.1785 319.868 35.4717 320.262 35.6274L320.813 34.2325C320.757 34.2102 320.711 34.1684 320.683 34.1146L319.35 34.8022ZM319.118 33.7132C319.138 33.9201 319.157 34.1118 319.184 34.2718C319.212 34.4392 319.256 34.6207 319.35 34.8022L320.683 34.1146C320.689 34.1268 320.679 34.1152 320.663 34.0234C320.647 33.9242 320.633 33.7907 320.61 33.5639L319.118 33.7132ZM318.973 32.6369C318.947 32.6029 318.975 32.6151 319.012 32.8197C319.047 33.0172 319.075 33.2901 319.118 33.7132L320.61 33.5639C320.57 33.1661 320.537 32.8233 320.488 32.5541C320.441 32.2919 320.363 31.9863 320.165 31.7271L318.973 32.6369ZM318.741 32.5408C318.83 32.5288 318.918 32.5655 318.973 32.6369L320.165 31.7271C319.784 31.2272 319.164 30.9704 318.541 31.0542L318.741 32.5408ZM317.877 33.1993C318.206 32.9301 318.419 32.7568 318.584 32.6423C318.754 32.5236 318.783 32.5351 318.741 32.5408L318.541 31.0542C318.217 31.0976 317.946 31.2586 317.727 31.4105C317.503 31.5667 317.237 31.7852 316.927 32.0384L317.877 33.1993ZM317.9 33.1794L317.9 33.1794L316.904 32.0583L316.904 32.0583L317.9 33.1794ZM316.943 33.8053C317.137 33.7431 317.297 33.6459 317.435 33.5474C317.567 33.4533 317.716 33.331 317.877 33.1993L316.927 32.0384C316.751 32.1827 316.647 32.2674 316.565 32.3258C316.489 32.3798 316.473 32.3806 316.486 32.3764L316.943 33.8053ZM315.715 33.744C316.103 33.9124 316.539 33.9341 316.943 33.8053L316.486 32.3764C316.429 32.3948 316.366 32.3917 316.311 32.3677L315.715 33.744ZM314.845 33.0481C314.992 33.1952 315.128 33.3316 315.25 33.4385C315.378 33.5502 315.527 33.6628 315.715 33.744L316.311 32.3677C316.324 32.3731 316.308 32.3708 316.238 32.3095C316.162 32.2433 316.067 32.1486 315.906 31.9875L314.845 33.0481ZM313.952 32.1547L314.845 33.0481L315.906 31.9875L315.012 31.094L313.952 32.1547ZM313.256 31.2854C313.337 31.4729 313.45 31.6219 313.561 31.7496C313.668 31.8717 313.805 32.0076 313.952 32.1547L315.012 31.094C314.851 30.9329 314.757 30.8377 314.69 30.762C314.629 30.6919 314.627 30.6765 314.632 30.6891L313.256 31.2854ZM313.195 30.0571C313.066 30.4605 313.088 30.8969 313.256 31.2854L314.632 30.6891C314.608 30.6336 314.605 30.5712 314.624 30.5136L313.195 30.0571ZM313.801 29.123C313.669 29.2839 313.547 29.4328 313.453 29.5649C313.354 29.7031 313.257 29.8626 313.195 30.0571L314.624 30.5136C314.619 30.5267 314.62 30.5111 314.674 30.4353C314.733 30.3534 314.817 30.2492 314.962 30.0728L313.801 29.123ZM314.459 28.2595C314.465 28.217 314.476 28.2457 314.358 28.4165C314.243 28.5812 314.07 28.7939 313.801 29.123L314.962 30.0728C315.215 29.7634 315.433 29.4972 315.589 29.2725C315.741 29.0538 315.902 28.7826 315.946 28.4594L314.459 28.2595ZM314.363 28.0274C314.434 28.0818 314.471 28.1704 314.459 28.2595L315.946 28.4594C316.03 27.8363 315.773 27.2161 315.273 26.8348L314.363 28.0274ZM313.287 27.8824C313.71 27.9247 313.983 27.9526 314.18 27.9881C314.385 28.0249 314.397 28.0533 314.363 28.0274L315.273 26.8348C315.014 26.637 314.708 26.559 314.446 26.5118C314.177 26.4634 313.834 26.4296 313.436 26.3899L313.287 27.8824ZM312.198 27.6503C312.379 27.744 312.561 27.788 312.728 27.8161C312.888 27.8429 313.08 27.8617 313.287 27.8824L313.436 26.3899C313.209 26.3672 313.076 26.3534 312.977 26.3368C312.885 26.3214 312.873 26.3109 312.885 26.3172L312.198 27.6503ZM311.373 26.7385C311.528 27.1322 311.821 27.4562 312.198 27.6503L312.885 26.3172C312.832 26.2895 312.79 26.2432 312.768 26.1869L311.373 26.7385ZM311.25 25.6318C311.25 25.8397 311.25 26.0323 311.26 26.1942C311.272 26.3635 311.297 26.5485 311.373 26.7384L312.768 26.1869C312.773 26.1997 312.763 26.1871 312.757 26.0943C312.75 25.9939 312.75 25.8597 312.75 25.6318H311.25ZM311.25 24.3683V25.6318H312.75V24.3683H311.25ZM311.373 23.2614C311.298 23.4514 311.272 23.6364 311.26 23.8058C311.25 23.9677 311.25 24.1603 311.25 24.3683H312.75C312.75 24.1404 312.75 24.0061 312.757 23.9057C312.763 23.8128 312.773 23.8003 312.768 23.813L311.373 23.2614ZM312.198 22.3498C311.821 22.5438 311.528 22.8677 311.373 23.2614L312.768 23.813C312.79 23.7568 312.832 23.7105 312.885 23.6828L312.198 22.3498ZM313.287 22.1176C313.08 22.1383 312.888 22.157 312.728 22.1839C312.561 22.212 312.379 22.2561 312.198 22.3498L312.885 23.6828C312.873 23.6891 312.885 23.6786 312.977 23.6632C313.076 23.6466 313.209 23.6328 313.436 23.6101L313.287 22.1176ZM313.362 22.1138H313.362V23.6138H313.362V22.1138ZM313.362 22.1138H313.362V23.6138H313.362V22.1138ZM314.363 21.9726C314.397 21.9466 314.385 21.975 314.181 22.0118C313.983 22.0474 313.71 22.0753 313.287 22.1176L313.436 23.6101C313.834 23.5703 314.177 23.5366 314.446 23.4881C314.708 23.4409 315.014 23.3629 315.273 23.165L314.363 21.9726ZM314.46 21.7405C314.472 21.8295 314.435 21.9181 314.363 21.9726L315.273 23.165C315.773 22.7837 316.03 22.1637 315.946 21.5408L314.46 21.7405ZM313.801 20.8767C314.07 21.2059 314.243 21.4186 314.358 21.5835C314.477 21.7543 314.465 21.783 314.46 21.7405L315.946 21.5408C315.903 21.2175 315.742 20.9462 315.59 20.7274C315.434 20.5027 315.215 20.2364 314.962 19.9269L313.801 20.8767ZM313.195 19.9422C313.257 20.1368 313.354 20.2964 313.453 20.4346C313.547 20.5668 313.669 20.7157 313.801 20.8767L314.962 19.9269C314.817 19.7504 314.733 19.6462 314.674 19.5643C314.62 19.4884 314.619 19.4728 314.624 19.4859L313.195 19.9422ZM313.256 18.7143C313.088 19.1027 313.066 19.539 313.195 19.9422L314.624 19.4859C314.605 19.4283 314.608 19.366 314.632 19.3105L313.256 18.7143ZM313.952 17.8448C313.805 17.9919 313.668 18.1278 313.562 18.25C313.45 18.3778 313.337 18.5268 313.256 18.7143L314.632 19.3105C314.627 19.3231 314.629 19.3077 314.691 19.2376C314.757 19.1619 314.851 19.0666 315.013 18.9054L313.952 17.8448ZM314.845 16.9514L313.952 17.8448L315.013 18.9054L315.906 18.0121L314.845 16.9514ZM314.845 16.9514L314.845 16.9514L315.906 18.0121L315.906 18.0121L314.845 16.9514ZM315.715 16.2555C315.527 16.3368 315.378 16.4493 315.25 16.5611C315.128 16.6679 314.992 16.8044 314.845 16.9514L315.906 18.0121C316.067 17.851 316.162 17.7563 316.238 17.6901C316.308 17.6288 316.324 17.6264 316.311 17.6319L315.715 16.2555ZM316.943 16.1943C316.54 16.0654 316.103 16.0872 315.715 16.2555L316.311 17.6319C316.366 17.6079 316.429 17.6047 316.486 17.6232L316.943 16.1943ZM317.877 16.8003C317.716 16.6686 317.567 16.5463 317.435 16.4521C317.297 16.3537 317.137 16.2564 316.943 16.1943L316.486 17.6232C316.473 17.619 316.489 17.6198 316.565 17.6738C316.647 17.7322 316.751 17.8169 316.927 17.9612L317.877 16.8003ZM318.741 17.4588C318.783 17.4645 318.754 17.4759 318.584 17.3573C318.419 17.2428 318.206 17.0695 317.877 16.8003L316.927 17.9612C317.237 18.2144 317.503 18.4329 317.727 18.589C317.946 18.7409 318.217 18.9018 318.54 18.9454L318.741 17.4588ZM318.973 17.3626C318.918 17.4341 318.83 17.4708 318.741 17.4588L318.54 18.9454C319.164 19.0293 319.784 18.7723 320.165 18.2722L318.973 17.3626ZM319.118 16.2867C319.075 16.7096 319.047 16.9824 319.012 17.1799C318.975 17.3844 318.947 17.3967 318.973 17.3626L320.165 18.2722C320.363 18.013 320.441 17.7075 320.488 17.4455C320.537 17.1763 320.57 16.8337 320.61 16.4359L319.118 16.2867ZM319.35 15.198C319.256 15.3795 319.212 15.5609 319.184 15.7282C319.157 15.8882 319.138 16.0798 319.118 16.2867L320.61 16.4359C320.633 16.2092 320.647 16.0757 320.663 15.9766C320.679 15.8848 320.689 15.8732 320.683 15.8854L319.35 15.198ZM320.262 14.3725C319.868 14.5282 319.544 14.8215 319.35 15.198L320.683 15.8854C320.711 15.8316 320.757 15.7897 320.813 15.7675L320.262 14.3725ZM321.368 14.25C321.16 14.25 320.968 14.2496 320.806 14.2604C320.637 14.2717 320.452 14.2975 320.262 14.3725L320.813 15.7675C320.8 15.7726 320.813 15.7633 320.906 15.7571C321.006 15.7504 321.14 15.75 321.368 15.75V14.25ZM322.632 14.25H321.368V15.75H322.632V14.25ZM323.738 14.3726C323.549 14.2975 323.364 14.2717 323.194 14.2604C323.032 14.2496 322.84 14.25 322.632 14.25V15.75C322.86 15.75 322.994 15.7504 323.094 15.7571C323.187 15.7633 323.2 15.7726 323.187 15.7675L323.738 14.3726ZM324.65 15.1978C324.456 14.8215 324.132 14.5283 323.738 14.3726L323.187 15.7675C323.243 15.7898 323.289 15.8316 323.317 15.8854L324.65 15.1978ZM325.25 25C325.25 26.7949 323.795 28.25 322 28.25V29.75C324.623 29.75 326.75 27.6234 326.75 25H325.25ZM322 21.75C323.795 21.75 325.25 23.2051 325.25 25H326.75C326.75 22.3766 324.623 20.25 322 20.25V21.75ZM318.75 25C318.75 23.2051 320.205 21.75 322 21.75V20.25C319.377 20.25 317.25 22.3766 317.25 25H318.75ZM322 28.25C320.205 28.25 318.75 26.7949 318.75 25H317.25C317.25 27.6234 319.377 29.75 322 29.75V28.25Z" fill="white"/>
<line x1="173.8" y1="48" x2="173.8" y2="80.7857" stroke="#0057FF" stroke-width="3"/>
<line x1="189.786" y1="64.7988" x2="157" y2="64.7988" stroke="#0057FF" stroke-width="3"/>
<path d="M113.446 111.602H116.149V114.819C116.149 118.26 117.11 121.544 119.88 123.063L118.294 125.252C116.551 124.269 115.456 122.638 114.786 120.628C114.094 122.862 112.865 124.738 111.078 125.833L109.357 123.778C112.329 121.99 113.446 118.438 113.446 115.02V111.602ZM119.924 128.961V110.172H122.516V117.656H124.259V109.837H126.895V129.877H124.259V119.89H122.516V128.961H119.924ZM136.244 111.714H150.229V114.06C150.229 116.852 150.229 119.6 149.514 123.733L146.744 123.487C147.481 119.622 147.481 116.763 147.481 114.06V113.948H136.244V111.714ZM134.367 127.24V124.984H152.485V127.24H134.367ZM153.893 119.555H172.034V121.722H164.304V123.51H161.556V121.722H153.893V119.555ZM156.127 112.25V110.15H169.822V115.288H158.898V116.45H170.18V118.505H156.15V113.345H167.074V112.25H156.127ZM156.15 129.653V122.616H158.898V124.291H167.141V122.616H169.867V129.653H156.15ZM158.898 127.553H167.141V126.302H158.898V127.553ZM179.149 111.49H188.666V121.164H179.149V111.49ZM181.428 129.519V123.04H184.198V127.285H195.011V129.519H181.428ZM181.875 118.952H185.918V113.702H181.875V118.952ZM191.526 124.47V109.86H194.296V115.668H196.977V117.924H194.296V124.47H191.526ZM198.117 117.679H216.212V119.868H198.117V117.679ZM200.172 123.152V121.052H214.001V126.302H202.942V127.576H214.515V129.698H200.217V124.336H211.253V123.152H200.172ZM200.351 116.539V110.262H213.911V112.473H203.121V114.372H214.068V116.539H200.351ZM231.538 109.837H234.309V129.877H231.538V109.837ZM217.732 124.269C222.848 121.812 225.104 118.595 225.529 114.149H218.76V111.915H228.366C228.366 118.036 226.244 123.04 219.184 126.459L217.732 124.269Z" fill="#0057FF"/>
</svg>
