<svg width="105" height="105" viewBox="0 0 105 105" fill="none" xmlns="http://www.w3.org/2000/svg">
<circle cx="52.1278" cy="52.1278" r="38.1602" transform="rotate(-30 52.1278 52.1278)" fill="url(#paint0_linear_172_2350)"/>
<path d="M68.5 39.25C69.6051 39.25 70.6649 39.689 71.4463 40.4704C72.2277 41.2518 72.6667 42.3116 72.6667 43.4167V67.0271C72.6667 68.1321 72.2277 69.192 71.4463 69.9734C70.6649 70.7548 69.6051 71.1937 68.5 71.1937H41.4167C40.3116 71.1937 39.2518 70.7548 38.4704 69.9734C37.689 69.192 37.25 68.1321 37.25 67.0271V43.4167C37.25 42.3116 37.689 41.2518 38.4704 40.4704C39.2518 39.689 40.3116 39.25 41.4167 39.25H68.5ZM51.275 55.8L41.7 65.375L41.5625 65.5L41.4167 65.6125V67.0292H68.5V65.6125L68.3542 65.5021L68.2167 65.3771L63.55 60.7104L62.8146 61.4479L62.9292 61.5625C63.3028 61.9374 63.5197 62.4405 63.5359 62.9695C63.552 63.4986 63.3662 64.014 63.0161 64.411C62.6661 64.808 62.178 65.0569 61.6511 65.1071C61.1242 65.1573 60.5979 65.005 60.1792 64.6812L59.9833 64.5083L51.275 55.8ZM62.25 33C63.3012 32.9997 64.3137 33.3967 65.0845 34.1115C65.8553 34.8262 66.3274 35.8059 66.4062 36.8542L66.4167 37.1667H37.25C36.7397 37.1667 36.2472 37.3541 35.8659 37.6932C35.4846 38.0322 35.241 38.4995 35.1812 39.0062L35.1667 39.25V64.25C34.1155 64.2503 33.103 63.8533 32.3322 63.1385C31.5614 62.4238 31.0893 61.4441 31.0104 60.3958L31 60.0833V39.25C30.9999 37.6558 31.609 36.1218 32.7027 34.962C33.7963 33.8021 35.2919 33.1039 36.8833 33.0104L37.25 33H62.25ZM68.5 43.4167H41.4167V59.7667L49.4333 51.75C49.6752 51.5081 49.9623 51.3162 50.2783 51.1853C50.5943 51.0544 50.933 50.987 51.275 50.987C51.617 50.987 51.9557 51.0544 52.2717 51.1853C52.5877 51.3162 52.8748 51.5081 53.1167 51.75L59.8687 58.5L61.7104 56.6604C61.9522 56.4185 62.2394 56.2266 62.5554 56.0957C62.8713 55.9648 63.21 55.8974 63.5521 55.8974C63.8941 55.8974 64.2328 55.9648 64.5488 56.0957C64.8648 56.2266 65.1519 56.4185 65.3937 56.6604L68.5 59.7667V43.4167ZM61.2083 46.5417C61.6187 46.5417 62.0251 46.6225 62.4042 46.7795C62.7834 46.9366 63.1279 47.1668 63.418 47.457C63.7082 47.7471 63.9384 48.0916 64.0955 48.4708C64.2525 48.8499 64.3333 49.2563 64.3333 49.6667C64.3333 50.077 64.2525 50.4834 64.0955 50.8626C63.9384 51.2417 63.7082 51.5862 63.418 51.8764C63.1279 52.1666 62.7834 52.3967 62.4042 52.5538C62.0251 52.7108 61.6187 52.7917 61.2083 52.7917C60.3795 52.7917 59.5847 52.4624 58.9986 51.8764C58.4126 51.2903 58.0833 50.4955 58.0833 49.6667C58.0833 48.8379 58.4126 48.043 58.9986 47.457C59.5847 46.8709 60.3795 46.5417 61.2083 46.5417Z" fill="#F8F8F8"/>
<defs>
<linearGradient id="paint0_linear_172_2350" x1="52.1278" y1="13.9676" x2="52.1278" y2="90.2879" gradientUnits="userSpaceOnUse">
<stop stop-color="#3493FF"/>
<stop offset="1" stop-color="#483BDB"/>
</linearGradient>
</defs>
</svg>
