<svg width="105" height="105" viewBox="0 0 105 105" fill="none" xmlns="http://www.w3.org/2000/svg">
<circle cx="52.1278" cy="52.1278" r="38.1602" transform="rotate(-30 52.1278 52.1278)" fill="url(#paint0_linear_172_2337)"/>
<path fill-rule="evenodd" clip-rule="evenodd" d="M32 44.6801C32 43.6061 32.4214 42.5762 33.1716 41.8168C33.9217 41.0575 34.9391 40.6309 36 40.6309H68C69.0609 40.6309 70.0783 41.0575 70.8284 41.8168C71.5786 42.5762 72 43.6061 72 44.6801V66.9506C72 68.0245 71.5786 69.0544 70.8284 69.8138C70.0783 70.5732 69.0609 70.9998 68 70.9998H36C34.9391 70.9998 33.9217 70.5732 33.1716 69.8138C32.4214 69.0544 32 68.0245 32 66.9506V44.6801ZM68 44.6801H36V66.9506H68V44.6801Z" fill="#F8F8F8"/>
<path fill-rule="evenodd" clip-rule="evenodd" d="M43.4999 49.742C43.4999 49.3393 43.658 48.953 43.9393 48.6683C44.2206 48.3835 44.6021 48.2235 44.9999 48.2235H58.9999C59.3977 48.2235 59.7793 48.3835 60.0606 48.6683C60.3419 48.953 60.4999 49.3393 60.4999 49.742C60.4999 50.1447 60.3419 50.5309 60.0606 50.8157C59.7793 51.1004 59.3977 51.2604 58.9999 51.2604H44.9999C44.6021 51.2604 44.2206 51.1004 43.9393 50.8157C43.658 50.5309 43.4999 50.1447 43.4999 49.742ZM41.4999 55.8158C41.4999 55.413 41.658 55.0268 41.9393 54.7421C42.2206 54.4573 42.6021 54.2973 42.9999 54.2973H60.9999C61.3977 54.2973 61.7793 54.4573 62.0606 54.7421C62.3419 55.0268 62.4999 55.413 62.4999 55.8158C62.4999 56.2185 62.3419 56.6047 62.0606 56.8895C61.7793 57.1742 61.3977 57.3342 60.9999 57.3342H42.9999C42.6021 57.3342 42.2206 57.1742 41.9393 56.8895C41.658 56.6047 41.4999 56.2185 41.4999 55.8158ZM43.4999 61.8895C43.4999 61.4868 43.658 61.1006 43.9393 60.8158C44.2206 60.5311 44.6021 60.3711 44.9999 60.3711H58.9999C59.3977 60.3711 59.7793 60.5311 60.0606 60.8158C60.3419 61.1006 60.4999 61.4868 60.4999 61.8895C60.4999 62.2923 60.3419 62.6785 60.0606 62.9633C59.7793 63.248 59.3977 63.408 58.9999 63.408H44.9999C44.6021 63.408 44.2206 63.248 43.9393 62.9633C43.658 62.6785 43.4999 62.2923 43.4999 61.8895ZM54.8279 36.2339C54.0778 35.4748 53.0606 35.0483 51.9999 35.0483C50.9393 35.0483 49.922 35.4748 49.1719 36.2339L41.4139 44.0893C41.2281 44.2773 41.0075 44.4264 40.7648 44.528C40.5221 44.6297 40.2619 44.682 39.9992 44.6819C39.7365 44.6818 39.4764 44.6293 39.2337 44.5275C38.9911 44.4256 38.7706 44.2764 38.5849 44.0883C38.3992 43.9002 38.252 43.6769 38.1515 43.4312C38.0511 43.1855 37.9994 42.9221 37.9995 42.6562C37.9996 42.3903 38.0514 42.127 38.1521 41.8813C38.2527 41.6357 38.4001 41.4125 38.5859 41.2245L46.3439 33.3711C47.8441 31.8529 49.8786 31 51.9999 31C54.1212 31 56.1557 31.8529 57.6559 33.3711L65.4159 41.2245C65.7909 41.6044 66.0015 42.1195 66.0013 42.6566C66.0011 43.1937 65.7902 43.7087 65.4149 44.0883C65.0396 44.4679 64.5308 44.6811 64.0002 44.6809C63.4697 44.6807 62.9609 44.4672 62.5859 44.0873L54.8279 36.2339Z" fill="#F8F8F8"/>
<defs>
<linearGradient id="paint0_linear_172_2337" x1="52.1278" y1="13.9676" x2="52.1278" y2="90.2879" gradientUnits="userSpaceOnUse">
<stop stop-color="#3493FF"/>
<stop offset="1" stop-color="#483BDB"/>
</linearGradient>
</defs>
</svg>
