<svg width="390" height="64" viewBox="0 0 390 64" fill="none" xmlns="http://www.w3.org/2000/svg">
<rect width="390" height="64" fill="white"/>
<path d="M181.49 27.37H183.36V27.634C183.36 30.582 181.358 32.958 177.75 33.772L176.804 31.968C179.796 31.352 181.49 29.592 181.49 27.634V27.37ZM181.93 27.37H183.8V27.634C183.8 29.482 185.472 31.088 188.398 31.704L187.474 33.486C183.932 32.716 181.93 30.45 181.93 27.634V27.37ZM177.288 25.874H187.98V27.656H177.288V25.874ZM181.468 23.762H183.8V27.128H181.468V23.762ZM181.49 35.18H183.8V43.232H181.49V35.18ZM190.334 23.718H192.622V43.826H190.334V23.718ZM176.298 36.83L176.012 34.916C179.752 34.916 184.724 34.894 189.036 34.322L189.19 35.994C184.746 36.764 179.972 36.83 176.298 36.83ZM196.69 39.426H214.906V41.318H196.69V39.426ZM204.544 34.74H206.832V39.998H204.544V34.74ZM204.478 24.95H206.48V26.468C206.48 30.758 202.806 34.256 198.23 35.158L197.262 33.244C201.266 32.562 204.478 29.548 204.478 26.468V24.95ZM204.896 24.95H206.92V26.468C206.92 29.592 210.132 32.562 214.136 33.244L213.168 35.158C208.57 34.256 204.896 30.78 204.896 26.468V24.95Z" fill="#0085FF"/>
</svg>
