<svg width="27" height="16" viewBox="0 0 27 16" fill="none" xmlns="http://www.w3.org/2000/svg">
<path d="M11.8393 0.783999H13.1193V15.248H11.8393V0.783999ZM5.56725 6.688H9.21525V7.76H5.56725V6.688ZM8.83125 1.152H10.0793V14.512H8.83125V1.152ZM5.74325 2.608H7.02325C7.02325 6.4 5.50325 9.808 1.59925 12.128L0.81525 11.184C4.22325 9.136 5.74325 6.256 5.74325 2.848V2.608ZM1.45525 2.608H6.23925V3.696H1.45525V2.608ZM18.858 2.032H19.946V4.624C19.946 7.952 18.154 11.04 15.786 12.24L14.97 11.152C17.114 10.128 18.858 7.36 18.858 4.624V2.032ZM19.082 2.032H20.17V4.624C20.17 7.264 21.898 9.92 24.042 10.912L23.242 11.968C20.89 10.816 19.082 7.84 19.082 4.624V2.032ZM25.546 0.768H26.874V15.264H25.546V0.768Z" fill="#0085FF"/>
</svg>
