<svg width="256" height="51" viewBox="0 0 256 51" fill="none" xmlns="http://www.w3.org/2000/svg">
<rect width="256" height="51" rx="10" fill="url(#paint0_linear_232_1070)"/>
<path d="M97.54 25.376H103.714V23.99H99.412V17.78H101.626V19.238H108.07V17.78H110.302V23.99H105.928V25.376H112.156V27.176H97.54V25.376ZM99.178 30.092V28.31H110.392V33.53H108.142V30.092H99.178ZM101.626 22.226H108.07V20.912H101.626V22.226ZM116.944 18.626H119.194V21.038C119.194 23.936 120.4 26.87 122.938 28.112L121.588 29.894C119.914 29.03 118.744 27.428 118.078 25.484C117.376 27.572 116.116 29.3 114.316 30.2L112.984 28.382C115.666 27.122 116.944 24.044 116.944 21.038V18.626ZM123.658 33.53V17.384H125.908V23.612H128.266V25.484H125.908V33.53H123.658ZM139.427 17.384H141.641V23.72H143.999V25.574H141.641V33.53H139.427V17.384ZM128.951 21.578V19.796H132.533V17.636H134.801V19.796H138.347V21.578H128.951ZM129.617 26.348C129.617 24.098 131.345 22.514 133.667 22.514C136.007 22.514 137.753 24.098 137.753 26.348C137.753 28.598 136.007 30.182 133.667 30.182C131.345 30.182 129.617 28.598 129.617 26.348ZM131.741 26.348C131.741 27.59 132.569 28.364 133.667 28.364C134.801 28.364 135.629 27.59 135.629 26.348C135.629 25.106 134.801 24.332 133.667 24.332C132.569 24.332 131.741 25.106 131.741 26.348ZM155.969 17.366H158.201V33.512H155.969V17.366ZM144.845 28.994C148.967 27.014 150.785 24.422 151.127 20.84H145.673V19.04H153.413C153.413 23.972 151.703 28.004 146.015 30.758L144.845 28.994Z" fill="white"/>
<defs>
<linearGradient id="paint0_linear_232_1070" x1="128" y1="0" x2="128" y2="51" gradientUnits="userSpaceOnUse">
<stop stop-color="#378AFC"/>
<stop offset="1" stop-color="#4745DF"/>
</linearGradient>
</defs>
</svg>
