<svg width="198" height="23" viewBox="0 0 198 23" fill="none" xmlns="http://www.w3.org/2000/svg">
<path d="M13.64 0.487999H16.64V4.544H19.52V6.992H16.64V11.144H13.64V0.487999ZM0.608 10.52V1.448H3.584V8.072C6.152 8.024 8.936 7.784 11.864 7.208L12.2 9.608C8.696 10.352 5.432 10.52 2.408 10.52H0.608ZM2.48 14.384V12.032H16.64V17.936H5.504V19.424H17.264V21.776H2.528V15.728H13.64V14.384H2.48ZM35.2646 0.511999H38.2646V8.624H40.6406V11.096H38.2646V22.04H35.2646V15.32L33.4646 17.48C32.0726 16.4 31.2326 14.768 30.7286 12.872C30.1766 14.84 29.2406 16.568 27.7526 17.672C26.2406 16.544 25.3286 14.84 24.7766 12.872C24.2966 14.768 23.4566 16.4 22.1126 17.48L20.2646 15.296C22.9046 13.256 23.3126 9.44 23.3126 5.912V4.76H21.0566V2.384H27.3926V4.76H26.1206V5.912C26.1206 8.432 26.3366 11.384 27.7526 13.664C29.1206 11.408 29.3606 8.48 29.3606 5.912V4.76H28.1366V2.384H34.1126V4.76H32.1926V5.912C32.1926 9.488 32.6246 13.256 35.2646 15.272V0.511999ZM41.6971 10.184H61.1851V12.344H41.6971V10.184ZM43.9051 15.512V13.52H58.8571V18.536H46.8811V19.832H59.4571V21.848H43.9291V16.664H55.9291V15.512H43.9051ZM44.0971 2.888V0.895998H58.8091V5.912H47.0731V7.112H59.1931V9.128H44.1211V4.04H55.8571V2.888H44.0971ZM79.1969 5.144H83.2049V0.511999H86.2049V16.4H83.2049V7.544H79.1969V5.144ZM68.1089 11.408C71.6369 10.232 73.1969 7.256 73.1969 4.184V1.832H76.1969V4.208C76.1969 6.992 77.7089 9.776 81.0449 10.952L79.4849 13.232C77.2289 12.392 75.6449 10.808 74.7569 8.816C73.8449 11.072 72.1649 12.848 69.6929 13.76L68.1089 11.408ZM71.9969 21.632V14.792H74.9969V19.232H86.6609V21.632H71.9969ZM89.9255 1.952H98.3975V4.328H92.8055V6.176H98.1575V8.432H92.8055V10.352C95.1815 10.328 96.9095 10.232 98.9015 9.896L99.1655 12.272C96.7175 12.704 94.6295 12.752 91.4135 12.752H89.9255V1.952ZM92.7335 16.952V14.552H107.494V22.04H104.518V16.952H92.7335ZM100.054 13.496V0.895998H102.838V5.816H104.662V0.487999H107.494V13.616H104.662V8.192H102.838V13.496H100.054ZM110.158 3.776H113.878V1.088H116.83V3.776H120.478V6.152H110.158V3.776ZM110.638 12.248C110.638 9.272 112.63 7.16 115.342 7.16C118.102 7.16 120.07 9.272 120.07 12.248C120.07 15.272 118.102 17.336 115.342 17.336C112.63 17.336 110.638 15.272 110.638 12.248ZM113.278 12.248C113.278 13.928 114.142 14.888 115.342 14.888C116.566 14.888 117.406 13.928 117.406 12.248C117.406 10.64 116.566 9.656 115.342 9.656C114.142 9.656 113.278 10.64 113.278 12.248ZM121.27 21.08V0.92H124.054V9.272H125.806V0.487999H128.614V22.016H125.806V11.672H124.054V21.08H121.27ZM131.135 12.392H150.599V14.792H142.271V22.016H139.295V14.792H131.135V12.392ZM132.095 8.792C136.439 8.24 138.839 6.104 139.151 3.968H132.863V1.616H148.823V3.968H142.607C142.919 6.104 145.295 8.24 149.663 8.792L148.559 11.12C144.839 10.592 142.151 8.96 140.879 6.752C139.607 8.96 136.919 10.592 133.199 11.12L132.095 8.792ZM160.583 7.784H163.367V0.847999H166.151V21.032H163.367V10.208H160.583V7.784ZM151.751 15.464C154.895 13.544 156.071 9.728 156.071 6.056V2.384H158.975V5.912C158.975 9.392 159.935 13.016 162.863 14.888L161.255 17.24C159.407 16.088 158.231 14.216 157.535 12.008C156.791 14.456 155.519 16.496 153.551 17.696L151.751 15.464ZM167.759 22.016V0.487999H170.591V22.016H167.759ZM173.088 17.096H177.432V11.768C175.776 10.76 174.792 9.248 174.792 7.352C174.792 3.848 178.176 1.592 182.808 1.592C187.44 1.592 190.848 3.848 190.848 7.352C190.848 9.224 189.864 10.76 188.208 11.768V17.096H192.576V19.52H173.088V17.096ZM177.744 7.352C177.744 9.488 179.784 10.784 182.808 10.784C185.856 10.784 187.872 9.488 187.872 7.352C187.872 5.192 185.856 3.92 182.808 3.92C179.784 3.92 177.744 5.192 177.744 7.352ZM180.384 17.096H185.256V12.848C184.488 13.016 183.672 13.088 182.808 13.088C181.944 13.088 181.152 13.016 180.384 12.872V17.096ZM194.544 17.648H197.568V20.576H194.544V17.648Z" fill="#282828"/>
</svg>
