<svg width="330" height="100" viewBox="0 0 330 100" fill="none" xmlns="http://www.w3.org/2000/svg">
<rect width="330" height="100" rx="10" fill="url(#paint0_linear_391_1381)"/>
<path d="M105.4 42.312V45.672C105.4 46.952 105.6 48.208 106 49.44C106.416 50.672 107.008 51.776 107.776 52.752C108.544 53.712 109.464 54.456 110.536 54.984L108.928 57.072C107.808 56.496 106.84 55.68 106.024 54.624C105.208 53.568 104.568 52.344 104.104 50.952C103.624 52.44 102.952 53.752 102.088 54.888C101.224 56.024 100.2 56.888 99.016 57.48L97.432 55.344C98.536 54.816 99.488 54.048 100.288 53.04C101.104 52.016 101.72 50.864 102.136 49.584C102.568 48.304 102.784 47 102.784 45.672V42.312H105.4ZM111.76 40.584H114.424V48.96H117.688V51.168H114.424V61.944H111.76V40.584ZM131.297 42.168V44.28H126.833V44.88C126.833 46.272 127.281 47.552 128.177 48.72C129.089 49.872 130.361 50.72 131.993 51.264L130.649 53.304C129.465 52.92 128.441 52.344 127.577 51.576C126.713 50.808 126.033 49.896 125.537 48.84C125.057 49.976 124.369 50.96 123.473 51.792C122.593 52.624 121.529 53.256 120.281 53.688L118.937 51.624C120.585 51.064 121.865 50.168 122.777 48.936C123.689 47.704 124.145 46.352 124.145 44.88V44.28H119.657V42.168H131.297ZM122.393 54.648H125.033V59.4H137.009V61.512H122.393V54.648ZM133.769 40.584H136.433V56.088H133.769V40.584ZM161.932 40.536V48.648H165.172V50.832H161.932V61.968H159.268V40.536H161.932ZM146.164 42.6H156.124V44.712H148.804V54.552C150.596 54.536 152.164 54.48 153.508 54.384C154.868 54.288 156.236 54.112 157.612 53.856L157.876 56.064C156.372 56.336 154.868 56.52 153.364 56.616C151.876 56.712 150.06 56.76 147.916 56.76H146.164V42.6ZM185.621 51.144V53.232H177.437V57.168H174.749V53.232H166.277V51.144H185.621ZM168.317 45.408C168.317 44.528 168.629 43.76 169.253 43.104C169.893 42.432 170.789 41.92 171.941 41.568C173.093 41.2 174.421 41.016 175.925 41.016C177.445 41.016 178.773 41.2 179.909 41.568C181.061 41.92 181.949 42.432 182.573 43.104C183.213 43.76 183.533 44.528 183.533 45.408C183.533 46.288 183.213 47.064 182.573 47.736C181.949 48.392 181.061 48.896 179.909 49.248C178.773 49.6 177.445 49.776 175.925 49.776C174.405 49.776 173.069 49.6 171.917 49.248C170.781 48.896 169.893 48.392 169.253 47.736C168.629 47.064 168.317 46.288 168.317 45.408ZM168.605 55.176H171.269V59.376H183.485V61.512H168.605V55.176ZM171.149 45.408C171.149 46.112 171.573 46.664 172.421 47.064C173.285 47.464 174.453 47.664 175.925 47.664C177.397 47.664 178.557 47.464 179.405 47.064C180.269 46.664 180.701 46.112 180.701 45.408C180.701 44.688 180.269 44.128 179.405 43.728C178.557 43.328 177.397 43.128 175.925 43.128C174.453 43.128 173.285 43.328 172.421 43.728C171.573 44.128 171.149 44.688 171.149 45.408ZM195.582 57.312V53.808H189.558V46.8H201.726V44.112H189.51V42.024H204.342V48.888H192.15V51.696H204.822V53.808H198.198V57.312H206.598V59.448H187.254V57.312H195.582ZM225.246 42.384V44.544H213.174V50.568H225.438V52.68H210.558V42.384H225.246ZM208.23 57.072H227.574V59.232H208.23V57.072ZM251.37 40.584V49.08H254.61V51.264H251.37V61.944H248.73V40.584H251.37ZM234.618 43.824H239.586V40.896H242.25V43.824H247.146V45.936H234.618V43.824ZM235.602 52.392C235.602 51.432 235.834 50.568 236.298 49.8C236.762 49.032 237.394 48.44 238.194 48.024C239.01 47.592 239.922 47.376 240.93 47.376C241.954 47.376 242.874 47.592 243.69 48.024C244.506 48.44 245.138 49.032 245.586 49.8C246.05 50.552 246.282 51.416 246.282 52.392C246.282 53.368 246.05 54.24 245.586 55.008C245.122 55.76 244.482 56.352 243.666 56.784C242.866 57.2 241.954 57.408 240.93 57.408C239.922 57.408 239.01 57.2 238.194 56.784C237.394 56.352 236.762 55.752 236.298 54.984C235.834 54.216 235.602 53.352 235.602 52.392ZM238.146 52.392C238.146 53.256 238.402 53.952 238.914 54.48C239.426 54.992 240.098 55.248 240.93 55.248C241.762 55.248 242.434 54.992 242.946 54.48C243.474 53.952 243.738 53.256 243.738 52.392C243.738 51.528 243.474 50.832 242.946 50.304C242.434 49.776 241.762 49.512 240.93 49.512C240.114 49.512 239.442 49.776 238.914 50.304C238.402 50.832 238.146 51.528 238.146 52.392ZM273.378 40.56V61.92H270.738V40.56H273.378ZM255.834 56.088C258.554 54.776 260.594 53.208 261.954 51.384C263.314 49.56 264.114 47.408 264.354 44.928H256.89V42.792H267.066C267.066 46.216 266.306 49.208 264.786 51.768C263.266 54.328 260.738 56.464 257.202 58.176L255.834 56.088Z" fill="white"/>
<path d="M69 56.5L59.625 47.125L62.25 44.4062L67.125 49.2812V34H70.875V49.2812L75.75 44.4062L78.375 47.125L69 56.5ZM57.75 64C56.7188 64 55.8356 63.6325 55.1006 62.8975C54.3656 62.1625 53.9988 61.28 54 60.25V54.625H57.75V60.25H80.25V54.625H84V60.25C84 61.2812 83.6325 62.1644 82.8975 62.8994C82.1625 63.6344 81.28 64.0012 80.25 64H57.75Z" fill="white"/>
<defs>
<linearGradient id="paint0_linear_391_1381" x1="165" y1="0" x2="165" y2="100" gradientUnits="userSpaceOnUse">
<stop stop-color="#3690FE"/>
<stop offset="1" stop-color="#464AE1"/>
</linearGradient>
</defs>
</svg>
