<svg width="33" height="13" viewBox="0 0 33 13" fill="none" xmlns="http://www.w3.org/2000/svg">
<path d="M8.1 0.943999H9.708V12.092H8.1V0.943999ZM3.72 1.724C5.4 1.724 6.636 3.26 6.636 5.684C6.636 8.132 5.4 9.668 3.72 9.668C2.04 9.668 0.804 8.132 0.804 5.684C0.804 3.26 2.04 1.724 3.72 1.724ZM3.72 3.176C2.892 3.176 2.328 4.052 2.328 5.684C2.328 7.34 2.892 8.228 3.72 8.228C4.548 8.228 5.1 7.34 5.1 5.684C5.1 4.052 4.548 3.176 3.72 3.176ZM13.4631 4.028H14.6631V4.316C14.6631 6.62 13.9911 8.936 12.2151 9.956L11.3151 8.756C12.8991 7.832 13.4631 6.02 13.4631 4.316V4.028ZM13.7751 4.028H14.9751V4.316C14.9751 5.984 15.5511 7.676 17.1231 8.516L16.2591 9.692C14.4591 8.756 13.7751 6.584 13.7751 4.316V4.028ZM11.6871 2.828H16.7391V4.112H11.6871V2.828ZM13.4631 1.328H14.9751V3.86H13.4631V1.328ZM19.6311 0.956H21.1431V12.068H19.6311V0.956ZM18.2991 5.216H20.1471V6.512H18.2991V5.216ZM17.2431 1.124H18.7311V11.564H17.2431V1.124ZM27.5861 2.504H30.8501V3.776H27.5861V2.504ZM27.5861 5.204H30.8501V6.476H27.5861V5.204ZM30.2621 0.968H31.8581V9.092H30.2621V0.968ZM24.5261 10.604H32.1101V11.876H24.5261V10.604ZM24.5261 8.288H26.1221V11.264H24.5261V8.288ZM25.6301 1.616C27.2741 1.616 28.5581 2.816 28.5581 4.496C28.5581 6.152 27.2741 7.364 25.6301 7.364C23.9741 7.364 22.6901 6.152 22.6901 4.496C22.6901 2.816 23.9741 1.616 25.6301 1.616ZM25.6301 3.02C24.8141 3.02 24.2141 3.572 24.2141 4.496C24.2141 5.42 24.8141 5.972 25.6301 5.972C26.4341 5.972 27.0461 5.42 27.0461 4.496C27.0461 3.572 26.4341 3.02 25.6301 3.02Z" fill="black"/>
</svg>
