<svg width="41" height="28" viewBox="0 0 41 28" fill="none" xmlns="http://www.w3.org/2000/svg">
<path d="M15.29 3.67V7.15L4.85 25.12L1.7 23.5L11.03 7.18H0.29V3.67H15.29ZM36.3781 0.639999H40.0981V16.24H36.3781V15.37H31.5781V13.12H36.3781V0.639999ZM17.5381 10.12C22.7281 10.12 29.0581 10.12 34.7581 9.58L34.9381 11.86C32.5981 12.22 30.1981 12.43 27.8281 12.55V16.27H24.0781V12.7C21.9181 12.76 19.8481 12.76 17.9281 12.76L17.5381 10.12ZM19.3681 5.08C19.3681 2.59 22.0381 1.03 26.0881 1.03C30.0781 1.03 32.7781 2.59 32.7781 5.08C32.7781 7.54 30.0781 9.07 26.0881 9.07C22.0381 9.07 19.3681 7.54 19.3681 5.08ZM21.4081 19.57V17.08H40.0981V23.29H25.0981V24.76H40.7581V27.34H21.4381V20.92H36.4081V19.57H21.4081ZM22.8481 5.08C22.8481 6.1 24.0781 6.64 26.0881 6.64C28.0381 6.64 29.2981 6.1 29.2981 5.08C29.2981 4.06 28.0381 3.49 26.0881 3.49C24.0781 3.49 22.8481 4.06 22.8481 5.08Z" fill="#0057FF"/>
</svg>
