<svg width="24" height="24" viewBox="0 0 24 24" fill="none" xmlns="http://www.w3.org/2000/svg">
<path d="M8.87518 21.1004L17.3002 12.7004C17.4002 12.6004 17.4712 12.4921 17.5132 12.3754C17.5552 12.2587 17.5758 12.1337 17.5752 12.0004C17.5752 11.8671 17.5545 11.7421 17.5132 11.6254C17.4718 11.5087 17.4008 11.4004 17.3002 11.3004L8.87518 2.87539C8.64185 2.64206 8.35018 2.52539 8.00018 2.52539C7.65018 2.52539 7.35018 2.65039 7.10018 2.90039C6.85018 3.15039 6.72518 3.44206 6.72518 3.77539C6.72518 4.10872 6.85018 4.40039 7.10018 4.65039L14.4502 12.0004L7.10018 19.3504C6.86685 19.5837 6.75018 19.8714 6.75018 20.2134C6.75018 20.5554 6.87518 20.8511 7.12518 21.1004C7.37518 21.3504 7.66685 21.4754 8.00018 21.4754C8.33351 21.4754 8.62518 21.3504 8.87518 21.1004Z" fill="#1A1E27"/>
</svg>
