<svg width="33" height="13" viewBox="0 0 33 13" fill="none" xmlns="http://www.w3.org/2000/svg">
<path d="M4.656 1.592H6.336C6.336 4.544 4.452 6.548 1.14 7.4L0.54 6.152C3.264 5.468 4.656 4.052 4.656 2.384V1.592ZM1.176 1.592H5.688V2.84H1.176V1.592ZM8.112 0.956H9.72V7.148H8.112V0.956ZM2.364 7.616H9.72V11.948H2.364V7.616ZM8.148 8.876H3.936V10.688H8.148V8.876ZM17.1231 4.424H20.0511V5.708H17.1231V4.424ZM14.0991 1.808H15.3951V3.416C15.3951 6.212 14.4471 8.792 12.3591 9.836L11.3631 8.552C13.2591 7.676 14.0991 5.528 14.0991 3.416V1.808ZM14.4351 1.808H15.7071V3.416C15.7071 5.528 16.5111 7.556 18.3471 8.372L17.3991 9.644C15.3111 8.636 14.4351 6.188 14.4351 3.416V1.808ZM19.2591 0.943999H20.8431V12.092H19.2591V0.943999ZM25.2581 2.192H26.5781V3.128C26.5781 5.228 25.5581 7.124 23.4221 7.82L22.6061 6.572C24.4541 5.972 25.2581 4.532 25.2581 3.128V2.192ZM25.5821 2.192H26.8901V3.128C26.8901 4.448 27.6821 5.804 29.4941 6.38L28.6781 7.616C26.5901 6.956 25.5821 5.144 25.5821 3.128V2.192ZM23.0261 1.748H29.0741V3.008H23.0261V1.748ZM30.1901 0.968H31.7981V8.984H30.1901V0.968ZM24.3941 10.604H32.0741V11.876H24.3941V10.604ZM24.3941 8.264H25.9901V11.24H24.3941V8.264Z" fill="black"/>
</svg>
