<svg width="105" height="105" viewBox="0 0 105 105" fill="none" xmlns="http://www.w3.org/2000/svg">
<g id="Group 2242">
<g id="Group 2241">
<g id="Group 2239">
<g id="Group 2237">
<circle id="Ellipse 67" cx="52.1278" cy="52.1278" r="38.1602" transform="rotate(-30 52.1278 52.1278)" fill="url(#paint0_linear_172_2364)"/>
</g>
</g>
</g>
<path id="Vector" d="M64.875 36.75H61.125V34.875C61.125 34.3777 60.9275 33.9008 60.5758 33.5492C60.2242 33.1975 59.7473 33 59.25 33C58.7527 33 58.2758 33.1975 57.9242 33.5492C57.5725 33.9008 57.375 34.3777 57.375 34.875V36.75H46.125V34.875C46.125 34.3777 45.9275 33.9008 45.5758 33.5492C45.2242 33.1975 44.7473 33 44.25 33C43.7527 33 43.2758 33.1975 42.9242 33.5492C42.5725 33.9008 42.375 34.3777 42.375 34.875V36.75H38.625C37.1332 36.75 35.7024 37.3426 34.6475 38.3975C33.5926 39.4524 33 40.8832 33 42.375V64.875C33 66.3668 33.5926 67.7976 34.6475 68.8525C35.7024 69.9074 37.1332 70.5 38.625 70.5H64.875C66.3668 70.5 67.7976 69.9074 68.8525 68.8525C69.9074 67.7976 70.5 66.3668 70.5 64.875V42.375C70.5 40.8832 69.9074 39.4524 68.8525 38.3975C67.7976 37.3426 66.3668 36.75 64.875 36.75ZM66.75 64.875C66.75 65.3723 66.5525 65.8492 66.2008 66.2008C65.8492 66.5525 65.3723 66.75 64.875 66.75H38.625C38.1277 66.75 37.6508 66.5525 37.2992 66.2008C36.9475 65.8492 36.75 65.3723 36.75 64.875V51.75H66.75V64.875ZM66.75 48H36.75V42.375C36.75 41.8777 36.9475 41.4008 37.2992 41.0492C37.6508 40.6975 38.1277 40.5 38.625 40.5H42.375V42.375C42.375 42.8723 42.5725 43.3492 42.9242 43.7008C43.2758 44.0525 43.7527 44.25 44.25 44.25C44.7473 44.25 45.2242 44.0525 45.5758 43.7008C45.9275 43.3492 46.125 42.8723 46.125 42.375V40.5H57.375V42.375C57.375 42.8723 57.5725 43.3492 57.9242 43.7008C58.2758 44.0525 58.7527 44.25 59.25 44.25C59.7473 44.25 60.2242 44.0525 60.5758 43.7008C60.9275 43.3492 61.125 42.8723 61.125 42.375V40.5H64.875C65.3723 40.5 65.8492 40.6975 66.2008 41.0492C66.5525 41.4008 66.75 41.8777 66.75 42.375V48Z" fill="#F8F8F8"/>
</g>
<defs>
<linearGradient id="paint0_linear_172_2364" x1="52.1278" y1="13.9676" x2="52.1278" y2="90.2879" gradientUnits="userSpaceOnUse">
<stop stop-color="#3493FF"/>
<stop offset="1" stop-color="#483BDB"/>
</linearGradient>
</defs>
</svg>
