<svg width="199" height="23" viewBox="0 0 199 23" fill="none" xmlns="http://www.w3.org/2000/svg">
<path d="M5.616 2.168H8.616V5.384C8.616 9.248 10.224 13.16 13.608 14.816L11.808 17.192C9.576 16.04 8.016 13.904 7.128 11.312C6.192 14.096 4.512 16.4 2.112 17.6L0.336 15.176C3.912 13.496 5.616 9.392 5.616 5.384V2.168ZM14.568 22.04V0.511999H17.568V8.816H20.712V11.312H17.568V22.04H14.568ZM22.6326 2.072H34.3446V4.424H30.0486V4.76C30.0486 7.352 31.6806 9.968 35.1366 11.072L33.6246 13.376C31.2246 12.608 29.5446 11.072 28.5846 9.104C27.6246 11.24 25.8966 12.944 23.3766 13.784L21.8646 11.432C25.4166 10.28 27.0006 7.496 27.0006 4.76V4.424H22.6326V2.072ZM25.3206 21.632V14.672H28.2726V19.232H40.1286V21.632H25.3206ZM36.6006 16.064V0.511999H39.5766V16.064H36.6006ZM52.4171 0.823999C57.3371 0.823999 60.1691 2.096 60.1691 4.496C60.1691 6.872 57.3371 8.192 52.4171 8.192C47.5211 8.192 44.6651 6.872 44.6651 4.496C44.6651 2.096 47.5211 0.823999 52.4171 0.823999ZM42.6731 11.576V9.224H62.1611V11.576H42.6731ZM44.9291 15.032V12.848H59.7851V18.296H47.9051V19.616H60.3371V21.872H44.9771V16.208H56.8331V15.032H44.9291ZM47.7611 4.496C47.7611 5.528 49.2971 5.984 52.4171 5.984C55.5611 5.984 57.0731 5.528 57.0731 4.496C57.0731 3.512 55.5611 3.008 52.4171 3.008C49.2971 3.008 47.7611 3.512 47.7611 4.496ZM80.1969 5.144H84.2049V0.511999H87.2049V16.4H84.2049V7.544H80.1969V5.144ZM69.1089 11.408C72.6369 10.232 74.1969 7.256 74.1969 4.184V1.832H77.1969V4.208C77.1969 6.992 78.7089 9.776 82.0449 10.952L80.4849 13.232C78.2289 12.392 76.6449 10.808 75.7569 8.816C74.8449 11.072 73.1649 12.848 70.6929 13.76L69.1089 11.408ZM72.9969 21.632V14.792H75.9969V19.232H87.6609V21.632H72.9969ZM90.9255 1.952H99.3975V4.328H93.8055V6.176H99.1575V8.432H93.8055V10.352C96.1815 10.328 97.9095 10.232 99.9015 9.896L100.166 12.272C97.7175 12.704 95.6295 12.752 92.4135 12.752H90.9255V1.952ZM93.7335 16.952V14.552H108.494V22.04H105.518V16.952H93.7335ZM101.054 13.496V0.895998H103.838V5.816H105.662V0.487999H108.494V13.616H105.662V8.192H103.838V13.496H101.054ZM111.158 3.776H114.878V1.088H117.83V3.776H121.478V6.152H111.158V3.776ZM111.638 12.248C111.638 9.272 113.63 7.16 116.342 7.16C119.102 7.16 121.07 9.272 121.07 12.248C121.07 15.272 119.102 17.336 116.342 17.336C113.63 17.336 111.638 15.272 111.638 12.248ZM114.278 12.248C114.278 13.928 115.142 14.888 116.342 14.888C117.566 14.888 118.406 13.928 118.406 12.248C118.406 10.64 117.566 9.656 116.342 9.656C115.142 9.656 114.278 10.64 114.278 12.248ZM122.27 21.08V0.92H125.054V9.272H126.806V0.487999H129.614V22.016H126.806V11.672H125.054V21.08H122.27ZM132.135 12.392H151.599V14.792H143.271V22.016H140.295V14.792H132.135V12.392ZM133.095 8.792C137.439 8.24 139.839 6.104 140.151 3.968H133.863V1.616H149.823V3.968H143.607C143.919 6.104 146.295 8.24 150.663 8.792L149.559 11.12C145.839 10.592 143.151 8.96 141.879 6.752C140.607 8.96 137.919 10.592 134.199 11.12L133.095 8.792ZM161.583 7.784H164.367V0.847999H167.151V21.032H164.367V10.208H161.583V7.784ZM152.751 15.464C155.895 13.544 157.071 9.728 157.071 6.056V2.384H159.975V5.912C159.975 9.392 160.935 13.016 163.863 14.888L162.255 17.24C160.407 16.088 159.231 14.216 158.535 12.008C157.791 14.456 156.519 16.496 154.551 17.696L152.751 15.464ZM168.759 22.016V0.487999H171.591V22.016H168.759ZM174.088 17.096H178.432V11.768C176.776 10.76 175.792 9.248 175.792 7.352C175.792 3.848 179.176 1.592 183.808 1.592C188.44 1.592 191.848 3.848 191.848 7.352C191.848 9.224 190.864 10.76 189.208 11.768V17.096H193.576V19.52H174.088V17.096ZM178.744 7.352C178.744 9.488 180.784 10.784 183.808 10.784C186.856 10.784 188.872 9.488 188.872 7.352C188.872 5.192 186.856 3.92 183.808 3.92C180.784 3.92 178.744 5.192 178.744 7.352ZM181.384 17.096H186.256V12.848C185.488 13.016 184.672 13.088 183.808 13.088C182.944 13.088 182.152 13.016 181.384 12.872V17.096ZM195.544 17.648H198.568V20.576H195.544V17.648Z" fill="#282828"/>
</svg>
