<svg width="390" height="55" viewBox="0 0 390 55" fill="none" xmlns="http://www.w3.org/2000/svg">
<rect width="390" height="55" fill="url(#paint0_linear_116_1188)"/>
<path d="M143.272 18.6C147.352 18.6 149.972 19.98 149.972 22.22C149.972 24.46 147.352 25.82 143.272 25.82C139.192 25.82 136.572 24.46 136.572 22.22C136.572 19.98 139.192 18.6 143.272 18.6ZM143.272 20.66C140.732 20.66 139.312 21.16 139.312 22.22C139.312 23.26 140.732 23.78 143.272 23.78C145.792 23.78 147.232 23.26 147.232 22.22C147.232 21.16 145.792 20.66 143.272 20.66ZM136.832 30.26H149.632V36.58H136.832V30.26ZM147.032 32.36H139.452V34.48H147.032V32.36ZM134.892 26.88H151.632V28.98H134.892V26.88ZM157.09 19.22H159.31V20.88C159.31 24.6 157.65 27.86 154.01 29.08L152.63 26.94C155.79 25.92 157.09 23.42 157.09 20.88V19.22ZM157.65 19.22H159.79V20.76C159.79 23.22 160.99 25.5 163.93 26.44L162.55 28.52C159.13 27.34 157.65 24.36 157.65 20.76V19.22ZM165.63 18.26H168.29V29.1H165.63V18.26ZM162.01 29.58C165.93 29.58 168.35 30.92 168.35 33.18C168.35 35.46 165.93 36.78 162.01 36.78C158.09 36.78 155.67 35.46 155.67 33.18C155.67 30.92 158.09 29.58 162.01 29.58ZM162.01 31.64C159.61 31.64 158.33 32.14 158.33 33.18C158.33 34.22 159.61 34.74 162.01 34.74C164.43 34.74 165.71 34.22 165.71 33.18C165.71 32.14 164.43 31.64 162.01 31.64ZM162.25 21.62H166.01V23.78H162.25V21.62ZM179.069 19.18C182.969 19.18 185.989 21.32 185.989 24.54C185.989 27.78 182.969 29.9 179.069 29.9C175.169 29.9 172.149 27.78 172.149 24.54C172.149 21.32 175.169 19.18 179.069 19.18ZM179.069 21.34C176.549 21.34 174.749 22.54 174.749 24.54C174.749 26.52 176.549 27.72 179.069 27.72C181.589 27.72 183.389 26.52 183.389 24.54C183.389 22.54 181.589 21.34 179.069 21.34ZM170.709 32.38H187.469V34.56H170.709V32.38ZM188.607 32.58H205.367V34.74H188.607V32.58ZM195.627 29.08H198.287V33.46H195.627V29.08ZM190.487 19.46H203.487V25.62H193.167V28.74H190.527V23.54H200.847V21.56H190.487V19.46ZM190.527 27.68H203.907V29.82H190.527V27.68ZM223.334 18.26H226.014V28.22H223.334V18.26ZM213.694 29.02H216.314V30.74H223.374V29.02H226.014V36.58H213.694V29.02ZM216.314 32.78V34.46H223.374V32.78H216.314ZM215.934 19.02C218.814 19.02 220.954 20.84 220.954 23.4C220.954 25.96 218.814 27.78 215.934 27.78C213.054 27.78 210.894 25.96 210.894 23.4C210.894 20.84 213.054 19.02 215.934 19.02ZM215.934 21.22C214.514 21.22 213.494 22.04 213.494 23.4C213.494 24.78 214.514 25.58 215.934 25.58C217.334 25.58 218.354 24.78 218.354 23.4C218.354 22.04 217.334 21.22 215.934 21.22ZM229.213 27.08H230.633C234.073 27.08 235.873 27.02 237.973 26.64L238.233 28.74C236.073 29.14 234.173 29.2 230.633 29.2H229.213V27.08ZM229.193 19.32H237.333V25.16H231.853V28.48H229.213V23.18H234.693V21.42H229.193V19.32ZM241.353 18.28H244.013V29.68H241.353V18.28ZM238.393 20.82H241.833V22.94H238.393V20.82ZM238.393 24.76H241.833V26.88H238.393V24.76ZM231.333 30.52H244.013V36.8H241.353V32.64H231.333V30.52ZM258.291 18.26H260.931V36.78H258.291V18.26ZM260.331 25.48H263.611V27.7H260.331V25.48ZM246.331 21H257.111V23.12H246.331V21ZM251.751 24.16C254.451 24.16 256.451 26 256.451 28.58C256.451 31.16 254.451 33 251.751 33C249.051 33 247.051 31.16 247.051 28.58C247.051 26 249.051 24.16 251.751 24.16ZM251.751 26.32C250.491 26.32 249.591 27.16 249.591 28.58C249.591 30 250.491 30.84 251.751 30.84C253.011 30.84 253.911 30 253.911 28.58C253.911 27.16 253.011 26.32 251.751 26.32ZM250.411 18.56H253.071V21.8H250.411V18.56ZM277.07 18.26H279.75V36.78H277.07V18.26ZM271.61 20.18H274.25C274.25 25.84 272.33 30.48 265.75 33.66L264.37 31.54C269.69 28.98 271.61 25.62 271.61 20.66V20.18ZM265.35 20.18H272.87V22.28H265.35V20.18Z" fill="white"/>
<path d="M116.4 20.8002C116.4 19.8454 116.779 18.9297 117.454 18.2546C118.129 17.5795 119.045 17.2002 120 17.2002C120.955 17.2002 121.87 17.5795 122.545 18.2546C123.221 18.9297 123.6 19.8454 123.6 20.8002V28.0002C123.6 28.955 123.221 29.8706 122.545 30.5458C121.87 31.2209 120.955 31.6002 120 31.6002C119.045 31.6002 118.129 31.2209 117.454 30.5458C116.779 29.8706 116.4 28.955 116.4 28.0002V20.8002Z" fill="#F8F8F8"/>
<path d="M114.6 27.5719C114.6 27.3332 114.505 27.1043 114.336 26.9355C114.167 26.7667 113.938 26.6719 113.7 26.6719C113.461 26.6719 113.232 26.7667 113.063 26.9355C112.895 27.1043 112.8 27.3332 112.8 27.5719V28.0003C112.8 31.6723 115.548 34.7023 119.1 35.1451V37.0003H117.3C117.061 37.0003 116.832 37.0951 116.663 37.2639C116.495 37.4327 116.4 37.6616 116.4 37.9003C116.4 38.139 116.495 38.3679 116.663 38.5367C116.832 38.7055 117.061 38.8003 117.3 38.8003H122.7C122.939 38.8003 123.167 38.7055 123.336 38.5367C123.505 38.3679 123.6 38.139 123.6 37.9003C123.6 37.6616 123.505 37.4327 123.336 37.2639C123.167 37.0951 122.939 37.0003 122.7 37.0003H120.9V35.1451C122.64 34.9256 124.24 34.0786 125.4 32.7632C126.56 31.4477 127.2 29.7541 127.2 28.0003V27.5719C127.2 27.3332 127.105 27.1043 126.936 26.9355C126.767 26.7667 126.538 26.6719 126.3 26.6719C126.061 26.6719 125.832 26.7667 125.663 26.9355C125.495 27.1043 125.4 27.3332 125.4 27.5719V28.0003C125.4 29.4324 124.831 30.806 123.818 31.8187C122.805 32.8313 121.432 33.4003 120 33.4003C118.568 33.4003 117.194 32.8313 116.181 31.8187C115.169 30.806 114.6 29.4324 114.6 28.0003V27.5719Z" fill="#F8F8F8"/>
<defs>
<linearGradient id="paint0_linear_116_1188" x1="195" y1="0" x2="195" y2="55" gradientUnits="userSpaceOnUse">
<stop stop-color="#378DFD"/>
<stop offset="1" stop-color="#464FE3"/>
</linearGradient>
</defs>
</svg>
