<svg width="289" height="57" viewBox="0 0 289 57" fill="none" xmlns="http://www.w3.org/2000/svg">
<path d="M14.568 0.464H17.568V8.768H20.592V11.216H17.568V22.016H14.568V0.464ZM0.576 15.992C5.616 13.4 8.28 9.92 8.832 5.12H1.728V2.696H11.856C11.856 9.152 9.36 14.672 2.232 18.272L0.576 15.992ZM23.4966 1.304H39.4086V3.656H33.5766C34.0566 5.24 36.2646 6.8 40.3206 7.16L39.2646 9.488C35.2566 9.104 32.5686 7.544 31.4406 5.408C30.3126 7.544 27.6006 9.104 23.6166 9.488L22.5606 7.16C26.5926 6.776 28.8246 5.24 29.3286 3.656H23.4966V1.304ZM21.6966 13.376V11H29.9286V8.192H32.8806V11H41.2086V13.376H21.6966ZM23.8806 17.336V14.96H38.8326V22.04H35.8326V17.336H23.8806ZM42.7211 8.912H62.1611V11.264H42.7211V8.912ZM44.9291 14.792V12.536H59.7851V18.176H47.9051V19.544H60.3371V21.824H44.9771V16.064H56.8331V14.792H44.9291ZM45.1211 7.688V0.943999H59.6891V3.32H48.0971V5.36H59.8571V7.688H45.1211ZM64.5617 2.648H75.6257V4.352C75.6257 6.416 75.6257 9.032 75.0497 12.656L72.1457 12.368C72.6497 9.296 72.6977 6.92 72.6977 5.024H64.5617V2.648ZM63.4817 15.224C64.6817 15.224 66.0257 15.224 67.4177 15.2V8.816H70.3217V15.104C72.4337 15.032 74.5937 14.888 76.5617 14.624L76.7057 16.808C72.3377 17.552 67.4897 17.648 63.7457 17.648L63.4817 15.224ZM77.5697 22.016V0.487999H80.5457V9.176H83.4977V11.648H80.5457V22.016H77.5697ZM99.7815 13.904C104.438 13.904 107.414 15.44 107.414 17.984C107.414 20.48 104.438 22.016 99.7815 22.016C95.1735 22.016 92.1975 20.48 92.1975 17.984C92.1975 15.44 95.1735 13.904 99.7815 13.904ZM90.2295 12.512V10.136H97.4775V6.368H100.454V10.136H109.598V12.512H90.2295ZM92.4135 3.824V1.472H107.27V3.248C107.27 4.952 107.27 6.752 106.694 8.984L103.742 8.696C104.246 6.752 104.318 5.288 104.318 3.824H92.4135ZM95.1735 17.984C95.1735 19.136 96.8295 19.76 99.7815 19.76C102.758 19.76 104.462 19.136 104.462 17.984C104.462 16.76 102.758 16.16 99.7815 16.16C96.8295 16.16 95.1735 16.76 95.1735 17.984ZM111.158 12.488H130.646V14.912H126.062V22.016H123.038V14.912H118.646V22.016H115.622V14.912H111.158V12.488ZM113.126 6.056C113.126 3.104 116.27 1.232 120.854 1.232C125.438 1.232 128.582 3.104 128.582 6.056C128.582 8.96 125.438 10.832 120.854 10.832C116.27 10.832 113.126 8.96 113.126 6.056ZM116.174 6.056C116.174 7.592 117.998 8.456 120.854 8.456C123.71 8.456 125.534 7.592 125.534 6.056C125.534 4.496 123.71 3.608 120.854 3.608C117.998 3.608 116.174 4.496 116.174 6.056ZM146.007 0.511999H148.959V8.96H152.103V11.432H148.959V22.04H146.007V0.511999ZM132.039 6.104V3.728H136.815V0.847999H139.839V3.728H144.567V6.104H132.039ZM132.927 12.464C132.927 9.464 135.231 7.352 138.327 7.352C141.447 7.352 143.775 9.464 143.775 12.464C143.775 15.464 141.447 17.576 138.327 17.576C135.231 17.576 132.927 15.464 132.927 12.464ZM135.759 12.464C135.759 14.12 136.863 15.152 138.327 15.152C139.839 15.152 140.943 14.12 140.943 12.464C140.943 10.808 139.839 9.776 138.327 9.776C136.863 9.776 135.759 10.808 135.759 12.464ZM155.103 2.36H170.679V4.424C170.679 7.112 170.679 10.136 169.815 14.72L166.863 14.36C167.655 10.28 167.679 7.256 167.679 4.736H155.103V2.36ZM153.111 19.4V16.976H160.071V9.56H163.071V16.976H172.575V19.4H153.111ZM194.499 0.511999H197.499V12.44H194.499V0.511999ZM179.547 9.8C183.123 8.696 184.731 5.984 184.731 3.32V1.28H187.755V3.32C187.755 5.912 189.363 8.432 192.843 9.416L191.403 11.768C188.955 11.024 187.275 9.536 186.291 7.616C185.331 9.704 183.555 11.336 180.987 12.128L179.547 9.8ZM182.763 21.776V19.424H185.571V15.8H183.003V13.448H197.595V15.8H195.051V19.424H197.811V21.776H182.763ZM188.475 19.424H192.099V15.8H188.475V19.424ZM200.572 11.504H220.06V13.88H200.572V11.504ZM202.564 5.552C202.564 2.84 205.636 1.16 210.316 1.16C214.996 1.16 218.068 2.84 218.068 5.552C218.068 8.312 214.996 9.968 210.316 9.968C205.636 9.968 202.564 8.312 202.564 5.552ZM202.972 21.632V15.368H205.924V19.232H217.852V21.632H202.972ZM205.636 5.552C205.636 6.896 207.388 7.592 210.316 7.592C213.268 7.592 214.996 6.896 214.996 5.552C214.996 4.208 213.268 3.512 210.316 3.512C207.388 3.512 205.636 4.208 205.636 5.552ZM242.679 0.487999H245.511V22.016H242.679V11.24H240.639V20.984H237.855V0.895998H240.639V8.84H242.679V0.487999ZM227.967 16.736V2.912H230.943V14.168C232.647 14.12 234.567 13.976 236.631 13.568L236.919 16.112C234.111 16.64 231.639 16.736 229.455 16.736H227.967ZM248.056 10.76H252.496V8.144C250.936 7.424 250.048 6.32 250.048 4.928C250.048 2.384 253.072 0.823999 257.8 0.823999C262.528 0.823999 265.552 2.384 265.552 4.928C265.552 6.344 264.64 7.448 263.056 8.144V10.76H267.544V13.112H248.056V10.76ZM250.312 18.128C250.312 15.656 253.096 14.24 257.752 14.24C262.408 14.24 265.216 15.656 265.216 18.128C265.216 20.624 262.408 22.04 257.752 22.04C253.096 22.04 250.312 20.624 250.312 18.128ZM253.12 4.928C253.12 6.176 254.824 6.8 257.8 6.8C260.8 6.8 262.48 6.176 262.48 4.928C262.48 3.728 260.8 3.104 257.8 3.104C254.824 3.104 253.12 3.728 253.12 4.928ZM253.312 18.128C253.312 19.232 254.848 19.76 257.752 19.76C260.68 19.76 262.192 19.232 262.192 18.128C262.192 17.024 260.68 16.472 257.752 16.472C254.848 16.472 253.312 17.024 253.312 18.128ZM255.472 10.76H260.08V8.912C259.384 9.008 258.616 9.056 257.8 9.056C256.96 9.056 256.192 9.008 255.472 8.912V10.76ZM278.777 0.823999C283.697 0.823999 286.529 2.096 286.529 4.496C286.529 6.872 283.697 8.192 278.777 8.192C273.881 8.192 271.025 6.872 271.025 4.496C271.025 2.096 273.881 0.823999 278.777 0.823999ZM269.033 11.576V9.224H288.521V11.576H269.033ZM271.289 15.032V12.848H286.145V18.296H274.265V19.616H286.697V21.872H271.337V16.208H283.193V15.032H271.289ZM274.121 4.496C274.121 5.528 275.657 5.984 278.777 5.984C281.921 5.984 283.433 5.528 283.433 4.496C283.433 3.512 281.921 3.008 278.777 3.008C275.657 3.008 274.121 3.512 274.121 4.496ZM1.248 35.784H12.864V38.16H8.616C8.64 40.704 10.152 43.272 13.56 44.4L12.048 46.728C9.696 45.96 8.064 44.424 7.128 42.48C6.192 44.592 4.488 46.272 1.992 47.088L0.456 44.784C3.984 43.632 5.568 40.872 5.592 38.16H1.248V35.784ZM3.336 50.808V48.408H17.664V56.04H14.664V50.808H3.336ZM14.664 47.472V34.512H17.664V39.744H20.544V42.216H17.664V47.472H14.664ZM26.7846 35.64H29.8086V37.464C29.8086 40.344 31.2726 42.984 34.6566 44.064L33.0966 46.416C30.8166 45.624 29.2806 44.136 28.3686 42.216C27.4086 44.424 25.6806 46.176 23.1126 47.064L21.5766 44.664C25.2006 43.464 26.7846 40.56 26.7846 37.584V35.64ZM25.1046 51.84C25.1046 49.224 27.9126 47.664 32.4486 47.664C36.9846 47.664 39.7926 49.224 39.7926 51.84C39.7926 54.48 36.9846 56.04 32.4486 56.04C27.9126 56.04 25.1046 54.48 25.1046 51.84ZM28.0566 51.84C28.0566 53.088 29.5926 53.712 32.4486 53.712C35.3046 53.712 36.8166 53.088 36.8166 51.84C36.8166 50.592 35.3046 49.992 32.4486 49.992C29.5926 49.992 28.0566 50.592 28.0566 51.84ZM32.7366 40.896V38.472H36.7206V34.512H39.7206V47.112H36.7206V40.896H32.7366ZM42.6971 37.776H46.4171V35.088H49.3691V37.776H53.0171V40.152H42.6971V37.776ZM43.1771 46.248C43.1771 43.272 45.1691 41.16 47.8811 41.16C50.6411 41.16 52.6091 43.272 52.6091 46.248C52.6091 49.272 50.6411 51.336 47.8811 51.336C45.1691 51.336 43.1771 49.272 43.1771 46.248ZM45.8171 46.248C45.8171 47.928 46.6811 48.888 47.8811 48.888C49.1051 48.888 49.9451 47.928 49.9451 46.248C49.9451 44.64 49.1051 43.656 47.8811 43.656C46.6811 43.656 45.8171 44.64 45.8171 46.248ZM53.8091 55.08V34.92H56.5931V43.272H58.3451V34.488H61.1531V56.016H58.3451V45.672H56.5931V55.08H53.8091ZM63.6737 46.392H83.1377V48.792H74.8097V56.016H71.8337V48.792H63.6737V46.392ZM64.6337 42.792C68.9777 42.24 71.3777 40.104 71.6897 37.968H65.4017V35.616H81.3617V37.968H75.1457C75.4577 40.104 77.8337 42.24 82.2017 42.792L81.0977 45.12C77.3777 44.592 74.6897 42.96 73.4177 40.752C72.1457 42.96 69.4577 44.592 65.7377 45.12L64.6337 42.792ZM93.1223 41.784H95.9062V34.848H98.6903V55.032H95.9062V44.208H93.1223V41.784ZM84.2903 49.464C87.4342 47.544 88.6103 43.728 88.6103 40.056V36.384H91.5143V39.912C91.5143 43.392 92.4743 47.016 95.4023 48.888L93.7943 51.24C91.9463 50.088 90.7703 48.216 90.0742 46.008C89.3303 48.456 88.0583 50.496 86.0903 51.696L84.2903 49.464ZM100.298 56.016V34.488H103.13V56.016H100.298ZM105.627 51.096H109.971V45.768C108.315 44.76 107.331 43.248 107.331 41.352C107.331 37.848 110.715 35.592 115.347 35.592C119.979 35.592 123.387 37.848 123.387 41.352C123.387 43.224 122.403 44.76 120.747 45.768V51.096H125.115V53.52H105.627V51.096ZM110.283 41.352C110.283 43.488 112.323 44.784 115.347 44.784C118.395 44.784 120.411 43.488 120.411 41.352C120.411 39.192 118.395 37.92 115.347 37.92C112.323 37.92 110.283 39.192 110.283 41.352ZM112.923 51.096H117.795V46.848C117.027 47.016 116.211 47.088 115.347 47.088C114.483 47.088 113.691 47.016 112.923 46.872V51.096ZM127.083 51.648H130.107V54.576H127.083V51.648Z" fill="#282828"/>
</svg>
