<svg width="238" height="22" viewBox="0 0 238 22" fill="none" xmlns="http://www.w3.org/2000/svg">
<path d="M10.76 1.76V3.344H14.936V0.584H17.552V12.704H14.936V9.392H10.76V11.048H0.752V1.76H10.76ZM2.264 19.904C3.592 19.776 4.768 19.512 5.792 19.112C6.816 18.696 7.616 18.216 8.192 17.672C8.768 17.112 9.088 16.536 9.152 15.944H3.104V14H9.2V12.152H11.864V14H17.936V15.944H11.912C11.976 16.52 12.296 17.088 12.872 17.648C13.448 18.192 14.24 18.672 15.248 19.088C16.272 19.488 17.44 19.76 18.752 19.904L17.888 21.872C16.192 21.68 14.704 21.272 13.424 20.648C12.16 20.024 11.2 19.256 10.544 18.344C9.888 19.256 8.912 20.024 7.616 20.648C6.32 21.272 4.824 21.68 3.128 21.872L2.264 19.904ZM8.192 8.984V3.824H3.32V8.984H8.192ZM14.936 7.4V5.336H10.76V7.4H14.936ZM44.0838 0.559999V13.016H41.4438V12.176H37.5078V10.544H41.4438V0.559999H44.0838ZM26.2758 8.288C29.0438 8.288 31.5238 8.264 33.7158 8.216C35.9078 8.152 38.0118 8.016 40.0278 7.808L40.1958 9.44C38.4358 9.696 36.4758 9.88 34.3158 9.992V13.064H31.6758V10.088C30.4758 10.12 28.7798 10.136 26.5878 10.136L26.2758 8.288ZM27.7878 4.112C27.7878 3.136 28.2678 2.36 29.2278 1.784C30.2038 1.208 31.4918 0.92 33.0918 0.92C34.6918 0.92 35.9718 1.208 36.9318 1.784C37.9078 2.36 38.3958 3.136 38.3958 4.112C38.3958 5.088 37.9078 5.864 36.9318 6.44C35.9718 7.016 34.6918 7.304 33.0918 7.304C31.4918 7.304 30.2038 7.016 29.2278 6.44C28.2678 5.864 27.7878 5.088 27.7878 4.112ZM29.3958 13.712H44.0838V18.488H32.0598V19.904H44.6838V21.752H29.4198V16.808H41.4918V15.536H29.3958V13.712ZM30.2598 4.112C30.2598 4.576 30.5078 4.936 31.0038 5.192C31.5158 5.448 32.2118 5.576 33.0918 5.576C33.9718 5.576 34.6678 5.448 35.1798 5.192C35.6918 4.936 35.9478 4.576 35.9478 4.112C35.9478 3.664 35.6918 3.312 35.1798 3.056C34.6678 2.8 33.9718 2.672 33.0918 2.672C32.2278 2.672 31.5398 2.8 31.0278 3.056C30.5158 3.312 30.2598 3.664 30.2598 4.112ZM65.5404 0.559999V21.92H63.0444V0.559999H65.5404ZM47.4924 9.8C47.4924 8.248 47.6764 6.896 48.0444 5.744C48.4284 4.592 48.9644 3.712 49.6524 3.104C50.3404 2.48 51.1484 2.168 52.0764 2.168C53.3564 2.168 54.4044 2.744 55.2204 3.896C56.0364 5.032 56.5164 6.6 56.6604 8.6H58.7244V0.967999H61.1964V20.912H58.7244V10.736H56.6844C56.5724 12.832 56.1004 14.48 55.2684 15.68C54.4524 16.864 53.3884 17.456 52.0764 17.456C51.1484 17.456 50.3404 17.152 49.6524 16.544C48.9644 15.92 48.4284 15.032 48.0444 13.88C47.6764 12.728 47.4924 11.368 47.4924 9.8ZM49.8924 9.8C49.8924 11.464 50.0844 12.744 50.4684 13.64C50.8524 14.536 51.3884 14.984 52.0764 14.984C52.7804 14.984 53.3244 14.536 53.7084 13.64C54.0924 12.744 54.2844 11.464 54.2844 9.8C54.2844 8.136 54.0924 6.864 53.7084 5.984C53.3244 5.104 52.7804 4.664 52.0764 4.664C51.3884 4.664 50.8524 5.112 50.4684 6.008C50.0844 6.888 49.8924 8.152 49.8924 9.8ZM81.3442 13.616V14.48C81.3442 15.424 81.5602 16.328 81.9922 17.192C82.4242 18.04 83.0802 18.744 83.9602 19.304C84.8402 18.696 85.5042 17.96 85.9522 17.096C86.4162 16.216 86.6482 15.344 86.6482 14.48V13.616H89.2162V14.48C89.2162 15.648 89.5682 16.704 90.2722 17.648C90.9762 18.576 91.9922 19.256 93.3202 19.688L92.0482 21.632C91.0562 21.296 90.2082 20.8 89.5042 20.144C88.8002 19.504 88.2642 18.744 87.8962 17.864C87.5282 18.76 87.0162 19.552 86.3602 20.24C85.7202 20.928 84.9442 21.464 84.0322 21.848C82.1602 21.144 80.8402 19.84 80.0722 17.936C79.6882 18.784 79.1522 19.52 78.4642 20.144C77.7922 20.784 76.9762 21.28 76.0162 21.632L74.7202 19.688C76.0482 19.224 77.0642 18.512 77.7682 17.552C78.4722 16.592 78.8242 15.568 78.8242 14.48V13.616H81.3442ZM74.1922 6.8C74.1922 5.824 74.4402 4.952 74.9362 4.184C75.4322 3.416 76.1122 2.816 76.9762 2.384C77.8402 1.952 78.8162 1.736 79.9042 1.736C80.9922 1.736 81.9682 1.952 82.8322 2.384C83.6962 2.816 84.3762 3.416 84.8722 4.184C85.3682 4.952 85.6162 5.824 85.6162 6.8C85.6162 7.776 85.3682 8.648 84.8722 9.416C84.3762 10.184 83.6962 10.784 82.8322 11.216C81.9682 11.632 80.9922 11.84 79.9042 11.84C78.8162 11.84 77.8402 11.632 76.9762 11.216C76.1122 10.784 75.4322 10.184 74.9362 9.416C74.4402 8.648 74.1922 7.776 74.1922 6.8ZM76.7602 6.8C76.7602 7.68 77.0562 8.384 77.6482 8.912C78.2402 9.424 78.9922 9.68 79.9042 9.68C80.8322 9.68 81.5842 9.424 82.1602 8.912C82.7522 8.384 83.0482 7.68 83.0482 6.8C83.0482 5.936 82.7522 5.24 82.1602 4.712C81.5842 4.184 80.8322 3.92 79.9042 3.92C78.9922 3.92 78.2402 4.184 77.6482 4.712C77.0562 5.24 76.7602 5.936 76.7602 6.8ZM88.8082 0.584H91.4722V12.704H88.8082V0.584ZM99.8728 1.328V6.584H111.945V8.696H97.2568V1.328H99.8728ZM94.7848 11.168H114.129V13.28H94.7848V11.168ZM97.0888 15.128H99.7048V19.328H112.065V21.464H97.0888V15.128ZM127.269 1.256C128.341 1.256 129.309 1.464 130.173 1.88C131.037 2.28 131.709 2.848 132.189 3.584C132.685 4.32 132.933 5.152 132.933 6.08C132.933 7.008 132.685 7.84 132.189 8.576C131.709 9.296 131.037 9.864 130.173 10.28C129.309 10.68 128.341 10.88 127.269 10.88C126.213 10.88 125.253 10.68 124.389 10.28C123.541 9.864 122.869 9.296 122.373 8.576C121.893 7.84 121.653 7.008 121.653 6.08C121.653 5.152 121.893 4.32 122.373 3.584C122.869 2.848 123.541 2.28 124.389 1.88C125.253 1.464 126.213 1.256 127.269 1.256ZM124.197 6.08C124.197 6.896 124.485 7.544 125.061 8.024C125.637 8.504 126.373 8.744 127.269 8.744C128.181 8.744 128.925 8.504 129.501 8.024C130.077 7.544 130.365 6.896 130.365 6.08C130.365 5.264 130.077 4.616 129.501 4.136C128.925 3.64 128.181 3.392 127.269 3.392C126.373 3.392 125.637 3.64 125.061 4.136C124.485 4.616 124.197 5.264 124.197 6.08ZM124.869 12.296H138.933V17.888H127.485V19.616H139.533V21.68H124.917V15.968H136.317V14.336H124.869V12.296ZM136.293 0.584H138.933V11.36H136.293V0.584ZM157.365 5.888V0.584H160.005V13.256H157.365V8.024H153.741V5.888H157.365ZM142.221 11.12C143.853 10.544 145.117 9.624 146.013 8.36C146.925 7.08 147.381 5.696 147.381 4.208V4.088H142.941V1.976H154.413V4.088H150.045V4.208C150.045 5.568 150.477 6.832 151.341 8C152.205 9.168 153.429 10.024 155.013 10.568L153.693 12.632C152.541 12.232 151.549 11.656 150.717 10.904C149.885 10.136 149.237 9.232 148.773 8.192C148.293 9.36 147.605 10.384 146.709 11.264C145.829 12.128 144.773 12.776 143.541 13.208L142.221 11.12ZM145.605 17.888C145.605 16.624 146.253 15.632 147.549 14.912C148.845 14.176 150.613 13.808 152.853 13.808C155.093 13.808 156.853 14.176 158.133 14.912C159.429 15.632 160.077 16.624 160.077 17.888C160.077 19.168 159.429 20.16 158.133 20.864C156.853 21.584 155.093 21.944 152.853 21.944C150.597 21.944 148.821 21.584 147.525 20.864C146.245 20.16 145.605 19.168 145.605 17.888ZM148.245 17.888C148.245 18.544 148.645 19.048 149.445 19.4C150.245 19.752 151.381 19.928 152.853 19.928C154.325 19.928 155.461 19.752 156.261 19.4C157.061 19.048 157.461 18.544 157.461 17.888C157.461 17.216 157.061 16.704 156.261 16.352C155.461 16 154.325 15.824 152.853 15.824C151.365 15.824 150.221 16 149.421 16.352C148.637 16.704 148.245 17.216 148.245 17.888ZM180.886 0.584V16.016H178.246V0.584H180.886ZM163.606 7.352C163.606 6.328 163.854 5.408 164.35 4.592C164.862 3.76 165.55 3.12 166.414 2.672C167.294 2.208 168.262 1.976 169.318 1.976C170.39 1.976 171.358 2.208 172.222 2.672C173.102 3.12 173.79 3.76 174.286 4.592C174.782 5.408 175.03 6.328 175.03 7.352C175.03 8.36 174.782 9.272 174.286 10.088C173.79 10.904 173.102 11.544 172.222 12.008C171.358 12.472 170.39 12.704 169.318 12.704C168.262 12.704 167.294 12.472 166.414 12.008C165.55 11.544 164.862 10.904 164.35 10.088C163.854 9.272 163.606 8.36 163.606 7.352ZM166.174 7.352C166.174 8.264 166.47 9 167.062 9.56C167.67 10.12 168.422 10.4 169.318 10.4C170.214 10.4 170.958 10.12 171.55 9.56C172.158 9 172.462 8.264 172.462 7.352C172.462 6.424 172.166 5.68 171.574 5.12C170.982 4.544 170.23 4.256 169.318 4.256C168.406 4.256 167.654 4.544 167.062 5.12C166.47 5.68 166.174 6.424 166.174 7.352ZM166.87 14.48H169.486V19.4H181.462V21.512H166.87V14.48ZM200.83 0.535999V8.912H203.974V11.096H200.83V21.92H198.166V0.535999H200.83ZM184.126 16.088C186.702 14.76 188.686 13.176 190.078 11.336C191.47 9.496 192.294 7.36 192.55 4.928H185.254V2.792H195.214C195.214 9.768 192.014 14.864 185.614 18.08L184.126 16.088ZM209.639 17.192V11.744C208.775 11.248 208.111 10.624 207.647 9.872C207.183 9.12 206.951 8.28 206.951 7.352C206.951 6.232 207.287 5.248 207.959 4.4C208.647 3.536 209.583 2.872 210.767 2.408C211.967 1.944 213.327 1.712 214.847 1.712C216.367 1.712 217.727 1.944 218.927 2.408C220.127 2.872 221.063 3.536 221.735 4.4C222.407 5.248 222.743 6.232 222.743 7.352C222.743 8.28 222.511 9.12 222.047 9.872C221.583 10.624 220.927 11.248 220.079 11.744V17.192H224.543V19.328H205.199V17.192H209.639ZM209.543 7.352C209.543 8.456 210.023 9.328 210.983 9.968C211.959 10.608 213.247 10.928 214.847 10.928C216.447 10.928 217.727 10.608 218.687 9.968C219.663 9.328 220.151 8.456 220.151 7.352C220.151 6.264 219.663 5.4 218.687 4.76C217.711 4.104 216.431 3.776 214.847 3.776C213.263 3.776 211.983 4.104 211.007 4.76C210.031 5.4 209.543 6.264 209.543 7.352ZM217.439 17.192V12.728C216.607 12.904 215.743 12.992 214.847 12.992C213.967 12.992 213.111 12.904 212.279 12.728V17.192H217.439ZM231.599 20.576C231.151 20.576 230.783 20.432 230.495 20.144C230.223 19.872 230.087 19.512 230.087 19.064C230.087 18.616 230.223 18.256 230.495 17.984C230.783 17.712 231.151 17.576 231.599 17.576C232.047 17.576 232.407 17.712 232.679 17.984C232.951 18.256 233.087 18.616 233.087 19.064C233.087 19.512 232.951 19.872 232.679 20.144C232.407 20.432 232.047 20.576 231.599 20.576ZM226.367 5.576C226.815 4.392 227.559 3.424 228.599 2.672C229.655 1.904 230.783 1.52 231.983 1.52C233.087 1.52 234.063 1.744 234.911 2.192C235.759 2.624 236.415 3.24 236.879 4.04C237.343 4.84 237.575 5.752 237.575 6.776C237.575 7.72 237.319 8.632 236.807 9.512C236.311 10.392 235.479 11.264 234.311 12.128C233.895 12.432 233.583 12.712 233.375 12.968C233.183 13.224 233.047 13.528 232.967 13.88C232.887 14.232 232.855 14.712 232.871 15.32L230.279 15.344C230.263 14.112 230.447 13.088 230.831 12.272C231.231 11.44 231.879 10.696 232.775 10.04C233.655 9.384 234.239 8.824 234.527 8.36C234.831 7.88 234.983 7.352 234.983 6.776C234.983 5.976 234.703 5.328 234.143 4.832C233.583 4.336 232.863 4.088 231.983 4.088C231.311 4.088 230.671 4.312 230.063 4.76C229.471 5.192 229.039 5.76 228.767 6.464L226.367 5.576Z" fill="#282828"/>
</svg>
