<svg width="233" height="22" viewBox="0 0 233 22" fill="none" xmlns="http://www.w3.org/2000/svg">
<path d="M10.616 2.528V5.504H14.96V0.535999H17.6V21.968H14.96V13.448H10.616V16.664H0.608V2.528H10.616ZM8.024 14.576V4.616H3.224V14.576H8.024ZM14.96 11.312V7.64H10.616V11.312H14.96ZM38.4326 0.584V11.768H35.7686V0.584H38.4326ZM21.0326 9.68C22.5526 9.28 23.7606 8.632 24.6566 7.736C25.5526 6.84 26.0646 5.824 26.1926 4.688H21.6806V2.6H26.2166V0.439999H28.8566V2.6H33.3446V4.688H28.8566C28.9846 5.76 29.4966 6.728 30.3926 7.592C31.3046 8.44 32.5206 9.048 34.0406 9.416L32.9126 11.432C31.6646 11.144 30.5926 10.672 29.6966 10.016C28.8006 9.344 28.0966 8.544 27.5846 7.616C27.0886 8.608 26.3766 9.456 25.4486 10.16C24.5366 10.864 23.4486 11.376 22.1846 11.696L21.0326 9.68ZM24.3686 12.68H38.4326V18.056H26.9846V19.736H39.0326V21.752H24.4166V16.184H35.8166V14.672H24.3686V12.68ZM60.0091 0.559999V21.92H57.5131V0.559999H60.0091ZM41.9611 9.8C41.9611 8.248 42.1451 6.896 42.5131 5.744C42.8971 4.592 43.4331 3.712 44.1211 3.104C44.8091 2.48 45.6171 2.168 46.5451 2.168C47.8251 2.168 48.8731 2.744 49.6891 3.896C50.5051 5.032 50.9851 6.6 51.1291 8.6H53.1931V0.967999H55.6651V20.912H53.1931V10.736H51.1531C51.0411 12.832 50.5691 14.48 49.7371 15.68C48.9211 16.864 47.8571 17.456 46.5451 17.456C45.6171 17.456 44.8091 17.152 44.1211 16.544C43.4331 15.92 42.8971 15.032 42.5131 13.88C42.1451 12.728 41.9611 11.368 41.9611 9.8ZM44.3611 9.8C44.3611 11.464 44.5531 12.744 44.9371 13.64C45.3211 14.536 45.8571 14.984 46.5451 14.984C47.2491 14.984 47.7931 14.536 48.1771 13.64C48.5611 12.744 48.7531 11.464 48.7531 9.8C48.7531 8.136 48.5611 6.864 48.1771 5.984C47.7931 5.104 47.2491 4.664 46.5451 4.664C45.8571 4.664 45.3211 5.112 44.9371 6.008C44.5531 6.888 44.3611 8.152 44.3611 9.8ZM75.8129 13.616V14.48C75.8129 15.424 76.0289 16.328 76.4609 17.192C76.8929 18.04 77.5489 18.744 78.4289 19.304C79.3089 18.696 79.9729 17.96 80.4209 17.096C80.8849 16.216 81.1169 15.344 81.1169 14.48V13.616H83.6849V14.48C83.6849 15.648 84.0369 16.704 84.7409 17.648C85.4449 18.576 86.4609 19.256 87.7889 19.688L86.5169 21.632C85.5249 21.296 84.6769 20.8 83.9729 20.144C83.2689 19.504 82.7329 18.744 82.3649 17.864C81.9969 18.76 81.4849 19.552 80.8289 20.24C80.1889 20.928 79.4129 21.464 78.5009 21.848C76.6289 21.144 75.3089 19.84 74.5409 17.936C74.1569 18.784 73.6209 19.52 72.9329 20.144C72.2609 20.784 71.4449 21.28 70.4849 21.632L69.1889 19.688C70.5169 19.224 71.5329 18.512 72.2369 17.552C72.9409 16.592 73.2929 15.568 73.2929 14.48V13.616H75.8129ZM68.6609 6.8C68.6609 5.824 68.9089 4.952 69.4049 4.184C69.9009 3.416 70.5809 2.816 71.4449 2.384C72.3089 1.952 73.2849 1.736 74.3729 1.736C75.4609 1.736 76.4369 1.952 77.3009 2.384C78.1649 2.816 78.8449 3.416 79.3409 4.184C79.8369 4.952 80.0849 5.824 80.0849 6.8C80.0849 7.776 79.8369 8.648 79.3409 9.416C78.8449 10.184 78.1649 10.784 77.3009 11.216C76.4369 11.632 75.4609 11.84 74.3729 11.84C73.2849 11.84 72.3089 11.632 71.4449 11.216C70.5809 10.784 69.9009 10.184 69.4049 9.416C68.9089 8.648 68.6609 7.776 68.6609 6.8ZM71.2289 6.8C71.2289 7.68 71.5249 8.384 72.1169 8.912C72.7089 9.424 73.4609 9.68 74.3729 9.68C75.3009 9.68 76.0529 9.424 76.6289 8.912C77.2209 8.384 77.5169 7.68 77.5169 6.8C77.5169 5.936 77.2209 5.24 76.6289 4.712C76.0529 4.184 75.3009 3.92 74.3729 3.92C73.4609 3.92 72.7089 4.184 72.1169 4.712C71.5249 5.24 71.2289 5.936 71.2289 6.8ZM83.2769 0.584H85.9409V12.704H83.2769V0.584ZM94.3415 1.328V6.584H106.414V8.696H91.7255V1.328H94.3415ZM89.2535 11.168H108.598V13.28H89.2535V11.168ZM91.5575 15.128H94.1735V19.328H106.534V21.464H91.5575V15.128ZM121.737 1.256C122.809 1.256 123.777 1.464 124.641 1.88C125.505 2.28 126.177 2.848 126.657 3.584C127.153 4.32 127.401 5.152 127.401 6.08C127.401 7.008 127.153 7.84 126.657 8.576C126.177 9.296 125.505 9.864 124.641 10.28C123.777 10.68 122.809 10.88 121.737 10.88C120.681 10.88 119.721 10.68 118.857 10.28C118.009 9.864 117.337 9.296 116.841 8.576C116.361 7.84 116.121 7.008 116.121 6.08C116.121 5.152 116.361 4.32 116.841 3.584C117.337 2.848 118.009 2.28 118.857 1.88C119.721 1.464 120.681 1.256 121.737 1.256ZM118.665 6.08C118.665 6.896 118.953 7.544 119.529 8.024C120.105 8.504 120.841 8.744 121.737 8.744C122.649 8.744 123.393 8.504 123.969 8.024C124.545 7.544 124.833 6.896 124.833 6.08C124.833 5.264 124.545 4.616 123.969 4.136C123.393 3.64 122.649 3.392 121.737 3.392C120.841 3.392 120.105 3.64 119.529 4.136C118.953 4.616 118.665 5.264 118.665 6.08ZM119.337 12.296H133.401V17.888H121.953V19.616H134.001V21.68H119.385V15.968H130.785V14.336H119.337V12.296ZM130.761 0.584H133.401V11.36H130.761V0.584ZM151.834 5.888V0.584H154.474V13.256H151.834V8.024H148.21V5.888H151.834ZM136.69 11.12C138.322 10.544 139.586 9.624 140.482 8.36C141.394 7.08 141.85 5.696 141.85 4.208V4.088H137.41V1.976H148.882V4.088H144.514V4.208C144.514 5.568 144.946 6.832 145.81 8C146.674 9.168 147.898 10.024 149.482 10.568L148.162 12.632C147.01 12.232 146.018 11.656 145.186 10.904C144.354 10.136 143.706 9.232 143.242 8.192C142.762 9.36 142.074 10.384 141.178 11.264C140.298 12.128 139.242 12.776 138.01 13.208L136.69 11.12ZM140.074 17.888C140.074 16.624 140.722 15.632 142.018 14.912C143.314 14.176 145.082 13.808 147.322 13.808C149.562 13.808 151.322 14.176 152.602 14.912C153.898 15.632 154.546 16.624 154.546 17.888C154.546 19.168 153.898 20.16 152.602 20.864C151.322 21.584 149.562 21.944 147.322 21.944C145.066 21.944 143.29 21.584 141.994 20.864C140.714 20.16 140.074 19.168 140.074 17.888ZM142.714 17.888C142.714 18.544 143.114 19.048 143.914 19.4C144.714 19.752 145.85 19.928 147.322 19.928C148.794 19.928 149.93 19.752 150.73 19.4C151.53 19.048 151.93 18.544 151.93 17.888C151.93 17.216 151.53 16.704 150.73 16.352C149.93 16 148.794 15.824 147.322 15.824C145.834 15.824 144.69 16 143.89 16.352C143.106 16.704 142.714 17.216 142.714 17.888ZM175.354 0.584V16.016H172.714V0.584H175.354ZM158.074 7.352C158.074 6.328 158.322 5.408 158.818 4.592C159.33 3.76 160.018 3.12 160.882 2.672C161.762 2.208 162.73 1.976 163.786 1.976C164.858 1.976 165.826 2.208 166.69 2.672C167.57 3.12 168.258 3.76 168.754 4.592C169.25 5.408 169.498 6.328 169.498 7.352C169.498 8.36 169.25 9.272 168.754 10.088C168.258 10.904 167.57 11.544 166.69 12.008C165.826 12.472 164.858 12.704 163.786 12.704C162.73 12.704 161.762 12.472 160.882 12.008C160.018 11.544 159.33 10.904 158.818 10.088C158.322 9.272 158.074 8.36 158.074 7.352ZM160.642 7.352C160.642 8.264 160.938 9 161.53 9.56C162.138 10.12 162.89 10.4 163.786 10.4C164.682 10.4 165.426 10.12 166.018 9.56C166.626 9 166.93 8.264 166.93 7.352C166.93 6.424 166.634 5.68 166.042 5.12C165.45 4.544 164.698 4.256 163.786 4.256C162.874 4.256 162.122 4.544 161.53 5.12C160.938 5.68 160.642 6.424 160.642 7.352ZM161.338 14.48H163.954V19.4H175.93V21.512H161.338V14.48ZM195.299 0.535999V8.912H198.443V11.096H195.299V21.92H192.635V0.535999H195.299ZM178.595 16.088C181.171 14.76 183.155 13.176 184.547 11.336C185.939 9.496 186.763 7.36 187.019 4.928H179.723V2.792H189.683C189.683 9.768 186.483 14.864 180.083 18.08L178.595 16.088ZM204.108 17.192V11.744C203.244 11.248 202.58 10.624 202.116 9.872C201.652 9.12 201.42 8.28 201.42 7.352C201.42 6.232 201.756 5.248 202.428 4.4C203.116 3.536 204.052 2.872 205.236 2.408C206.436 1.944 207.796 1.712 209.316 1.712C210.836 1.712 212.196 1.944 213.396 2.408C214.596 2.872 215.532 3.536 216.204 4.4C216.876 5.248 217.212 6.232 217.212 7.352C217.212 8.28 216.98 9.12 216.516 9.872C216.052 10.624 215.396 11.248 214.548 11.744V17.192H219.012V19.328H199.668V17.192H204.108ZM204.012 7.352C204.012 8.456 204.492 9.328 205.452 9.968C206.428 10.608 207.716 10.928 209.316 10.928C210.916 10.928 212.196 10.608 213.156 9.968C214.132 9.328 214.62 8.456 214.62 7.352C214.62 6.264 214.132 5.4 213.156 4.76C212.18 4.104 210.9 3.776 209.316 3.776C207.732 3.776 206.452 4.104 205.476 4.76C204.5 5.4 204.012 6.264 204.012 7.352ZM211.908 17.192V12.728C211.076 12.904 210.212 12.992 209.316 12.992C208.436 12.992 207.58 12.904 206.748 12.728V17.192H211.908ZM226.068 20.576C225.62 20.576 225.252 20.432 224.964 20.144C224.692 19.872 224.556 19.512 224.556 19.064C224.556 18.616 224.692 18.256 224.964 17.984C225.252 17.712 225.62 17.576 226.068 17.576C226.516 17.576 226.876 17.712 227.148 17.984C227.42 18.256 227.556 18.616 227.556 19.064C227.556 19.512 227.42 19.872 227.148 20.144C226.876 20.432 226.516 20.576 226.068 20.576ZM220.836 5.576C221.284 4.392 222.028 3.424 223.068 2.672C224.124 1.904 225.252 1.52 226.452 1.52C227.556 1.52 228.532 1.744 229.38 2.192C230.228 2.624 230.884 3.24 231.348 4.04C231.812 4.84 232.044 5.752 232.044 6.776C232.044 7.72 231.788 8.632 231.276 9.512C230.78 10.392 229.948 11.264 228.78 12.128C228.364 12.432 228.052 12.712 227.844 12.968C227.652 13.224 227.516 13.528 227.436 13.88C227.356 14.232 227.324 14.712 227.34 15.32L224.748 15.344C224.732 14.112 224.916 13.088 225.3 12.272C225.7 11.44 226.348 10.696 227.244 10.04C228.124 9.384 228.708 8.824 228.996 8.36C229.3 7.88 229.452 7.352 229.452 6.776C229.452 5.976 229.172 5.328 228.612 4.832C228.052 4.336 227.332 4.088 226.452 4.088C225.78 4.088 225.14 4.312 224.532 4.76C223.94 5.192 223.508 5.76 223.236 6.464L220.836 5.576Z" fill="#282828"/>
</svg>
