<svg width="330" height="78" viewBox="0 0 330 78" fill="none" xmlns="http://www.w3.org/2000/svg">
<rect width="330" height="78" rx="10" fill="url(#paint0_linear_396_1321)"/>
<path d="M140.448 28.536V36.648H143.688V38.832H140.448V49.968H137.784V28.536H140.448ZM124.68 30.6H134.64V32.712H127.32V42.552C129.112 42.536 130.68 42.48 132.024 42.384C133.384 42.288 134.752 42.112 136.128 41.856L136.392 44.064C134.888 44.336 133.384 44.52 131.88 44.616C130.392 44.712 128.576 44.76 126.432 44.76H124.68V30.6ZM154.441 29.016C155.993 29.016 157.345 29.184 158.497 29.52C159.649 29.84 160.537 30.312 161.161 30.936C161.785 31.544 162.097 32.272 162.097 33.12C162.097 33.968 161.785 34.704 161.161 35.328C160.537 35.936 159.649 36.408 158.497 36.744C157.345 37.064 155.993 37.224 154.441 37.224C152.889 37.224 151.537 37.064 150.385 36.744C149.233 36.408 148.345 35.936 147.721 35.328C147.097 34.704 146.785 33.968 146.785 33.12C146.785 32.272 147.097 31.544 147.721 30.936C148.345 30.312 149.233 29.84 150.385 29.52C151.537 29.184 152.889 29.016 154.441 29.016ZM144.793 38.688H164.089V40.776H144.793V38.688ZM147.073 42.504H161.761V49.68H147.073V42.504ZM149.497 33.12C149.497 33.792 149.929 34.304 150.793 34.656C151.657 35.008 152.873 35.184 154.441 35.184C156.009 35.184 157.217 35.008 158.065 34.656C158.929 34.304 159.361 33.792 159.361 33.12C159.361 32.448 158.929 31.936 158.065 31.584C157.217 31.232 156.009 31.056 154.441 31.056C152.857 31.056 151.633 31.232 150.769 31.584C149.921 31.936 149.497 32.448 149.497 33.12ZM159.169 47.592V44.592H149.665V47.592H159.169ZM175.417 29.736C176.905 29.736 178.249 29.992 179.449 30.504C180.649 31 181.593 31.712 182.281 32.64C182.969 33.552 183.313 34.6 183.313 35.784C183.313 36.984 182.969 38.048 182.281 38.976C181.593 39.888 180.649 40.6 179.449 41.112C178.249 41.608 176.905 41.856 175.417 41.856C173.929 41.856 172.585 41.608 171.385 41.112C170.185 40.6 169.241 39.888 168.553 38.976C167.865 38.048 167.521 36.984 167.521 35.784C167.521 34.6 167.865 33.552 168.553 32.64C169.241 31.712 170.185 31 171.385 30.504C172.585 29.992 173.929 29.736 175.417 29.736ZM165.769 45.072H185.113V47.232H165.769V45.072ZM170.089 35.784C170.089 36.984 170.585 37.936 171.577 38.64C172.569 39.344 173.849 39.696 175.417 39.696C176.985 39.696 178.265 39.344 179.257 38.64C180.249 37.936 180.745 36.984 180.745 35.784C180.745 35 180.513 34.312 180.049 33.72C179.601 33.128 178.969 32.672 178.153 32.352C177.353 32.032 176.441 31.872 175.417 31.872C174.393 31.872 173.473 32.032 172.657 32.352C171.857 32.672 171.225 33.128 170.761 33.72C170.313 34.312 170.089 35 170.089 35.784ZM195.074 45.312V41.808H189.05V34.8H201.218V32.112H189.002V30.024H203.834V36.888H191.642V39.696H204.314V41.808H197.69V45.312H206.09V47.448H186.746V45.312H195.074Z" fill="white"/>
<defs>
<linearGradient id="paint0_linear_396_1321" x1="165" y1="0" x2="165" y2="78" gradientUnits="userSpaceOnUse">
<stop stop-color="#368FFE"/>
<stop offset="1" stop-color="#4842DE"/>
</linearGradient>
</defs>
</svg>
