<svg width="105" height="105" viewBox="0 0 105 105" fill="none" xmlns="http://www.w3.org/2000/svg">
<circle cx="52.1278" cy="52.1278" r="38.1602" transform="rotate(-30 52.1278 52.1278)" fill="url(#paint0_linear_172_2357)"/>
<path d="M48.6667 60C49.2569 60 49.7521 59.8 50.1521 59.4C50.5521 59 50.7514 58.5056 50.75 57.9167V53.75H54.9167C55.5069 53.75 56.0021 53.55 56.4021 53.15C56.8021 52.75 57.0014 52.2556 57 51.6667C57 51.0764 56.8 50.5813 56.4 50.1813C56 49.7813 55.5056 49.5819 54.9167 49.5833H50.75V45.4167C50.75 44.8264 50.55 44.3313 50.15 43.9313C49.75 43.5313 49.2556 43.3319 48.6667 43.3333C48.0764 43.3333 47.5813 43.5333 47.1813 43.9333C46.7813 44.3333 46.5819 44.8278 46.5833 45.4167V49.5833H42.4167C41.8264 49.5833 41.3313 49.7833 40.9313 50.1833C40.5313 50.5833 40.3319 51.0778 40.3333 51.6667C40.3333 52.2569 40.5333 52.7521 40.9333 53.1521C41.3333 53.5521 41.8278 53.7514 42.4167 53.75H46.5833V57.9167C46.5833 58.5069 46.7833 59.0021 47.1833 59.4021C47.5833 59.8021 48.0778 60.0014 48.6667 60ZM36.1667 68.3333C35.0208 68.3333 34.0396 67.925 33.2229 67.1083C32.4063 66.2917 31.9986 65.3111 32 64.1667V39.1667C32 38.0208 32.4083 37.0396 33.225 36.2229C34.0417 35.4063 35.0222 34.9986 36.1667 35H61.1667C62.3125 35 63.2938 35.4083 64.1104 36.225C64.9271 37.0417 65.3347 38.0222 65.3333 39.1667V48.5417L71.8958 41.9792C72.2083 41.6667 72.5813 41.5882 73.0146 41.7438C73.4479 41.8993 73.6653 42.2208 73.6667 42.7083V60.625C73.6667 61.1111 73.4493 61.4326 73.0146 61.5896C72.5799 61.7465 72.2069 61.6681 71.8958 61.3542L65.3333 54.7917V64.1667C65.3333 65.3125 64.925 66.2938 64.1083 67.1104C63.2917 67.9271 62.3111 68.3347 61.1667 68.3333H36.1667ZM36.1667 64.1667H61.1667V39.1667H36.1667V64.1667Z" fill="#F8F8F8"/>
<defs>
<linearGradient id="paint0_linear_172_2357" x1="52.1278" y1="13.9676" x2="52.1278" y2="90.2879" gradientUnits="userSpaceOnUse">
<stop stop-color="#3493FF"/>
<stop offset="1" stop-color="#483BDB"/>
</linearGradient>
</defs>
</svg>
