<svg width="330" height="100" viewBox="0 0 330 100" fill="none" xmlns="http://www.w3.org/2000/svg">
<rect width="330" height="100" rx="10" fill="url(#paint0_linear_84_2940)"/>
<path d="M111.808 40.512H114.784V49.272H117.568V51.72H114.784V62.04H111.808V40.512ZM97.528 55.992C99.088 55.992 100.888 55.992 102.784 55.944V54.048C100.528 53.616 99.04 52.152 99.04 50.16C99.04 47.76 101.2 46.128 104.272 46.128C107.344 46.128 109.504 47.76 109.504 50.16C109.504 52.152 108.016 53.616 105.76 54.048V55.824C107.44 55.728 109.12 55.584 110.704 55.368L110.92 57.504C106.384 58.368 101.512 58.392 97.888 58.392L97.528 55.992ZM97.912 45.24V42.888H102.784V40.608H105.76V42.888H110.584V45.24H97.912ZM101.848 50.16C101.848 51.288 102.808 51.936 104.272 51.936C105.736 51.936 106.696 51.288 106.696 50.16C106.696 49.032 105.736 48.36 104.272 48.36C102.808 48.36 101.848 49.032 101.848 50.16ZM123.497 41.664H126.497V43.872C126.497 46.488 127.985 49.008 131.345 50.064L129.809 52.392C127.529 51.6 125.945 50.136 125.033 48.24C124.121 50.424 122.441 52.152 119.993 52.992L118.409 50.64C121.961 49.44 123.497 46.56 123.497 43.608V41.664ZM121.361 57.888C121.361 55.296 124.145 53.76 128.609 53.76C133.073 53.76 135.881 55.296 135.881 57.888C135.881 60.48 133.073 62.04 128.609 62.04C124.145 62.04 121.361 60.48 121.361 57.888ZM124.313 57.888C124.313 59.112 125.849 59.712 128.609 59.712C131.417 59.712 132.929 59.112 132.929 57.888C132.929 56.664 131.417 56.064 128.609 56.064C125.849 56.064 124.313 56.664 124.313 57.888ZM132.641 53.256V40.512H135.641V45.552H138.521V48.024H135.641V53.256H132.641ZM149.297 53.904C153.953 53.904 156.929 55.44 156.929 57.984C156.929 60.48 153.953 62.016 149.297 62.016C144.689 62.016 141.713 60.48 141.713 57.984C141.713 55.44 144.689 53.904 149.297 53.904ZM139.745 52.512V50.136H146.993V46.368H149.969V50.136H159.113V52.512H139.745ZM141.929 43.824V41.472H156.785V43.248C156.785 44.952 156.785 46.752 156.209 48.984L153.257 48.696C153.761 46.752 153.833 45.288 153.833 43.824H141.929ZM144.689 57.984C144.689 59.136 146.345 59.76 149.297 59.76C152.273 59.76 153.977 59.136 153.977 57.984C153.977 56.76 152.273 56.16 149.297 56.16C146.345 56.16 144.689 56.76 144.689 57.984ZM160.674 52.488H180.162V54.912H175.578V62.016H172.554V54.912H168.162V62.016H165.138V54.912H160.674V52.488ZM162.642 46.056C162.642 43.104 165.786 41.232 170.37 41.232C174.954 41.232 178.098 43.104 178.098 46.056C178.098 48.96 174.954 50.832 170.37 50.832C165.786 50.832 162.642 48.96 162.642 46.056ZM165.69 46.056C165.69 47.592 167.514 48.456 170.37 48.456C173.226 48.456 175.05 47.592 175.05 46.056C175.05 44.496 173.226 43.608 170.37 43.608C167.514 43.608 165.69 44.496 165.69 46.056ZM192.486 42.168H195.51V45.384C195.51 49.368 197.286 53.304 200.91 54.864L199.158 57.288C196.71 56.136 195.006 53.976 194.046 51.312C193.086 54.216 191.334 56.544 188.742 57.768L186.942 55.32C190.638 53.688 192.486 49.56 192.486 45.384V42.168ZM202.038 62.064V40.464H205.038V62.064H202.038ZM208.662 41.784H220.278V44.16H216.03C216.054 46.704 217.566 49.272 220.974 50.4L219.462 52.728C217.11 51.96 215.478 50.424 214.542 48.48C213.606 50.592 211.902 52.272 209.406 53.088L207.87 50.784C211.398 49.632 212.982 46.872 213.006 44.16H208.662V41.784ZM210.75 56.808V54.408H225.078V62.04H222.078V56.808H210.75ZM222.078 53.472V40.512H225.078V45.744H227.958V48.216H225.078V53.472H222.078ZM243.007 40.512H245.959V48.96H249.103V51.432H245.959V62.04H243.007V40.512ZM229.039 46.104V43.728H233.815V40.848H236.839V43.728H241.567V46.104H229.039ZM229.927 52.464C229.927 49.464 232.231 47.352 235.327 47.352C238.447 47.352 240.775 49.464 240.775 52.464C240.775 55.464 238.447 57.576 235.327 57.576C232.231 57.576 229.927 55.464 229.927 52.464ZM232.759 52.464C232.759 54.12 233.863 55.152 235.327 55.152C236.839 55.152 237.943 54.12 237.943 52.464C237.943 50.808 236.839 49.776 235.327 49.776C233.863 49.776 232.759 50.808 232.759 52.464ZM265.063 40.488H268.039V62.016H265.063V40.488ZM250.231 55.992C255.727 53.352 258.151 49.896 258.607 45.12H251.335V42.72H261.655C261.655 49.296 259.375 54.672 251.791 58.344L250.231 55.992Z" fill="white"/>
<path d="M75.0745 55.2083L74.4678 55.8123C74.4678 55.8123 73.0238 57.247 69.0838 53.3296C65.1438 49.4123 66.5878 47.9776 66.5878 47.9776L66.9692 47.5963C67.9118 46.6603 68.0012 45.1563 67.1785 44.0576L65.4985 41.8136C64.4798 40.4536 62.5132 40.2736 61.3465 41.4336L59.2532 43.5136C58.6758 44.0896 58.2892 44.8336 58.3358 45.6603C58.4558 47.7763 59.4132 52.327 64.7518 57.6363C70.4145 63.2656 75.7278 63.4896 77.8998 63.287C78.5878 63.223 79.1852 62.8736 79.6665 62.3936L81.5598 60.511C82.8398 59.2403 82.4798 57.0603 80.8425 56.171L78.2958 54.7856C77.2212 54.2016 75.9145 54.3736 75.0745 55.2083Z" fill="#F8F8F8"/>
<defs>
<linearGradient id="paint0_linear_84_2940" x1="165" y1="0" x2="165" y2="100" gradientUnits="userSpaceOnUse">
<stop stop-color="#3690FE"/>
<stop offset="1" stop-color="#464AE1"/>
</linearGradient>
</defs>
</svg>
