<svg width="346" height="62" viewBox="0 0 346 62" fill="none" xmlns="http://www.w3.org/2000/svg">
<rect x="0.5" y="0.5" width="344.895" height="61" rx="9.28947" fill="white" stroke="#0057FF"/>
<path d="M149.738 35.822H164.822V37.766H149.738V35.822ZM156.056 32.672H158.45V36.614H156.056V32.672ZM151.43 24.014H163.13V29.558H153.842V32.366H151.466V27.686H160.754V25.904H151.43V24.014ZM151.466 31.412H163.508V33.338H151.466V31.412ZM167.827 24.464H178.393V26.354H167.827V24.464ZM166.297 35.48H181.363V37.424H166.297V35.48ZM177.133 24.464H179.509V26.444C179.509 28.784 179.509 31.052 178.915 34.472L176.521 34.274C177.133 31.07 177.133 28.694 177.133 26.444V24.464ZM194.285 22.952H196.697V34.922H194.285V22.952ZM185.591 37.406H197.111V39.314H185.591V37.406ZM185.591 33.716H187.985V38.18H185.591V33.716ZM187.625 23.996C190.181 23.996 192.143 25.76 192.143 28.226C192.143 30.674 190.181 32.456 187.625 32.456C185.069 32.456 183.089 30.674 183.089 28.226C183.089 25.76 185.069 23.996 187.625 23.996ZM187.625 26.066C186.383 26.066 185.429 26.858 185.429 28.226C185.429 29.576 186.383 30.368 187.625 30.368C188.849 30.368 189.803 29.576 189.803 28.226C189.803 26.858 188.849 26.066 187.625 26.066Z" fill="black"/>
</svg>
