<svg width="346" height="62" viewBox="0 0 346 62" fill="none" xmlns="http://www.w3.org/2000/svg">
<rect x="0.5" y="0.5" width="344.895" height="61" rx="9.28947" fill="white" stroke="#0057FF"/>
<path d="M106.648 27.236H110.536V29.162H106.648V27.236ZM109.276 22.952H111.67V35.102H109.276V22.952ZM100.672 37.406H112.048V39.314H100.672V37.406ZM100.672 34.076H103.066V38.54H100.672V34.076ZM101.572 25.13H103.516V26.174C103.516 29.306 102.04 32.204 98.836 33.266L97.63 31.358C100.384 30.458 101.572 28.28 101.572 26.174V25.13ZM102.076 25.13H104.002V26.174C104.002 28.118 105.136 30.188 107.764 31.07L106.594 32.942C103.498 31.916 102.076 29.144 102.076 26.174V25.13ZM98.278 24.068H107.242V25.958H98.278V24.068ZM118.131 32.798H120.525V35.498H118.131V32.798ZM125.133 22.934H127.545V39.602H125.133V22.934ZM126.699 29.702H129.633V31.682H126.699V29.702ZM114.387 36.83L114.099 34.904C116.979 34.904 120.939 34.886 124.305 34.418L124.485 36.146C120.975 36.83 117.195 36.83 114.387 36.83ZM114.405 24.77H124.215V26.642H114.405V24.77ZM119.337 27.308C121.713 27.308 123.405 28.568 123.405 30.422C123.405 32.294 121.713 33.554 119.337 33.554C116.943 33.554 115.269 32.294 115.269 30.422C115.269 28.568 116.943 27.308 119.337 27.308ZM119.337 29.108C118.239 29.108 117.537 29.576 117.537 30.422C117.537 31.286 118.239 31.754 119.337 31.754C120.417 31.754 121.137 31.286 121.137 30.422C121.137 29.576 120.417 29.108 119.337 29.108ZM118.131 23.024H120.525V26.174H118.131V23.024ZM138.721 27.362H143.005V29.27H138.721V27.362ZM142.393 22.952H144.787V35.246H142.393V22.952ZM133.753 37.406H145.147V39.314H133.753V37.406ZM133.753 34.04H136.165V38.504H133.753V34.04ZM131.539 24.032H133.915V26.57H137.083V24.032H139.423V32.636H131.539V24.032ZM133.915 28.388V30.746H137.083V28.388H133.915ZM148.044 25.004H161.796V26.912H148.044V25.004ZM147.414 36.002H162.498V37.928H147.414V36.002ZM153.732 33.806H156.108V36.758H153.732V33.806ZM154.902 27.632C158.376 27.632 160.554 28.838 160.554 30.89C160.554 32.942 158.376 34.148 154.902 34.148C151.428 34.148 149.25 32.942 149.25 30.89C149.25 28.838 151.428 27.632 154.902 27.632ZM154.902 29.486C152.814 29.486 151.698 29.936 151.698 30.89C151.698 31.844 152.814 32.276 154.902 32.276C156.99 32.276 158.106 31.844 158.106 30.89C158.106 29.936 156.99 29.486 154.902 29.486ZM153.732 23.114H156.108V26.192H153.732V23.114ZM163.972 35.822H179.056V37.766H163.972V35.822ZM170.29 32.672H172.684V36.614H170.29V32.672ZM165.664 24.014H177.364V29.558H168.076V32.366H165.7V27.686H174.988V25.904H165.664V24.014ZM165.7 31.412H177.742V33.338H165.7V31.412ZM188.909 33.068H191.303V35.768H188.909V33.068ZM196.199 22.934H198.593V39.602H196.199V22.934ZM185.057 36.83L184.769 34.904C187.793 34.886 191.825 34.886 195.335 34.418L195.497 36.146C191.879 36.812 188.009 36.83 185.057 36.83ZM185.093 24.77H195.119V26.642H185.093V24.77ZM190.097 27.308C192.563 27.308 194.273 28.568 194.273 30.422C194.273 32.294 192.563 33.554 190.097 33.554C187.667 33.554 185.957 32.294 185.957 30.422C185.957 28.568 187.667 27.308 190.097 27.308ZM190.097 29.108C189.017 29.108 188.243 29.576 188.243 30.422C188.243 31.286 189.017 31.754 190.097 31.754C191.213 31.754 191.987 31.286 191.987 30.422C191.987 29.576 191.213 29.108 190.097 29.108ZM188.909 23.006H191.303V25.85H188.909V23.006ZM205.576 31.484H207.97V35.138H205.576V31.484ZM212.884 22.934H215.278V35.552H212.884V22.934ZM203.272 37.406H215.638V39.314H203.272V37.406ZM203.272 34.364H205.666V37.91H203.272V34.364ZM201.472 32.204L201.184 30.296C204.226 30.296 208.294 30.26 211.786 29.81L211.93 31.52C208.384 32.114 204.478 32.204 201.472 32.204ZM209.734 32.618H213.406V34.256H209.734V32.618ZM206.548 23.51C208.978 23.51 210.688 24.716 210.688 26.48C210.688 28.262 208.978 29.45 206.548 29.45C204.1 29.45 202.39 28.262 202.39 26.48C202.39 24.716 204.1 23.51 206.548 23.51ZM206.548 25.256C205.432 25.256 204.658 25.67 204.658 26.48C204.658 27.29 205.432 27.704 206.548 27.704C207.646 27.704 208.42 27.29 208.42 26.48C208.42 25.67 207.646 25.256 206.548 25.256ZM228.452 22.916H230.864V39.584H228.452V22.916ZM230.234 29.288H233.168V31.25H230.234V29.288ZM224.078 24.644H226.418C226.418 29.648 224.51 33.932 218.966 36.722L217.634 34.904C222.008 32.636 224.078 29.576 224.078 25.058V24.644ZM218.552 24.644H225.302V26.57H218.552V24.644ZM245.803 22.934H248.215V31.898H245.803V22.934ZM237.127 32.618H239.485V34.166H245.839V32.618H248.215V39.422H237.127V32.618ZM239.485 36.002V37.514H245.839V36.002H239.485ZM239.143 23.618C241.735 23.618 243.661 25.256 243.661 27.56C243.661 29.864 241.735 31.502 239.143 31.502C236.551 31.502 234.607 29.864 234.607 27.56C234.607 25.256 236.551 23.618 239.143 23.618ZM239.143 25.598C237.865 25.598 236.947 26.336 236.947 27.56C236.947 28.802 237.865 29.522 239.143 29.522C240.403 29.522 241.321 28.802 241.321 27.56C241.321 26.336 240.403 25.598 239.143 25.598Z" fill="black"/>
</svg>
