<svg width="330" height="78" viewBox="0 0 330 78" fill="none" xmlns="http://www.w3.org/2000/svg">
<rect width="330" height="78" rx="10" fill="url(#paint0_linear_172_2710)"/>
<path d="M127.048 30.168H130.072V33.384C130.072 37.368 131.848 41.304 135.472 42.864L133.72 45.288C131.272 44.136 129.568 41.976 128.608 39.312C127.648 42.216 125.896 44.544 123.304 45.768L121.504 43.32C125.2 41.688 127.048 37.56 127.048 33.384V30.168ZM136.6 50.064V28.464H139.6V50.064H136.6ZM143.225 29.784H154.841V32.16H150.593C150.617 34.704 152.129 37.272 155.537 38.4L154.025 40.728C151.673 39.96 150.041 38.424 149.105 36.48C148.169 38.592 146.465 40.272 143.969 41.088L142.433 38.784C145.961 37.632 147.545 34.872 147.569 32.16H143.225V29.784ZM145.313 44.808V42.408H159.641V50.04H156.641V44.808H145.313ZM156.641 41.472V28.512H159.641V33.744H162.521V36.216H159.641V41.472H156.641ZM177.569 28.512H180.521V36.96H183.665V39.432H180.521V50.04H177.569V28.512ZM163.601 34.104V31.728H168.377V28.848H171.401V31.728H176.129V34.104H163.601ZM164.489 40.464C164.489 37.464 166.793 35.352 169.889 35.352C173.009 35.352 175.337 37.464 175.337 40.464C175.337 43.464 173.009 45.576 169.889 45.576C166.793 45.576 164.489 43.464 164.489 40.464ZM167.321 40.464C167.321 42.12 168.425 43.152 169.889 43.152C171.401 43.152 172.505 42.12 172.505 40.464C172.505 38.808 171.401 37.776 169.889 37.776C168.425 37.776 167.321 38.808 167.321 40.464ZM199.626 28.488H202.602V50.016H199.626V28.488ZM184.794 43.992C190.29 41.352 192.714 37.896 193.17 33.12H185.898V30.72H196.218C196.218 37.296 193.938 42.672 186.354 46.344L184.794 43.992Z" fill="white"/>
<defs>
<linearGradient id="paint0_linear_172_2710" x1="165" y1="0" x2="165" y2="78" gradientUnits="userSpaceOnUse">
<stop stop-color="#378AFC"/>
<stop offset="1" stop-color="#4745DF"/>
</linearGradient>
</defs>
</svg>
