<svg width="192" height="25" viewBox="0 0 192 25" fill="none" xmlns="http://www.w3.org/2000/svg">
<path d="M16.55 0.211998H20.034V24.366H16.55V0.211998ZM7.06 1.902C10.7 1.902 13.378 5.23 13.378 10.482C13.378 15.786 10.7 19.114 7.06 19.114C3.42 19.114 0.742 15.786 0.742 10.482C0.742 5.23 3.42 1.902 7.06 1.902ZM7.06 5.048C5.266 5.048 4.044 6.946 4.044 10.482C4.044 14.07 5.266 15.994 7.06 15.994C8.854 15.994 10.05 14.07 10.05 10.482C10.05 6.946 8.854 5.048 7.06 5.048ZM30.0015 18.724H51.7895V21.532H30.0015V18.724ZM39.1275 13.394H42.5855V19.374H39.1275V13.394ZM32.2635 2.006H49.3975V13.836H32.2635V2.006ZM46.0175 4.762H35.6695V11.106H46.0175V4.762ZM70.4295 0.263999H73.9135V13.862H70.4295V0.263999ZM57.8975 14.954H73.9135V24.054H57.8975V14.954ZM70.5075 17.658H61.2775V21.324H70.5075V17.658ZM60.8095 1.356C64.5535 1.356 67.3355 3.748 67.3355 7.128C67.3355 10.482 64.5535 12.9 60.8095 12.9C57.0655 12.9 54.2575 10.482 54.2575 7.128C54.2575 3.748 57.0655 1.356 60.8095 1.356ZM60.8095 4.216C58.9895 4.216 57.6375 5.282 57.6375 7.128C57.6375 8.948 58.9895 10.014 60.8095 10.014C62.6295 10.014 63.9555 8.948 63.9555 7.128C63.9555 5.282 62.6295 4.216 60.8095 4.216ZM94.3215 0.211998H97.8055V24.366H94.3215V0.211998ZM84.8315 1.902C88.4715 1.902 91.1495 5.23 91.1495 10.482C91.1495 15.786 88.4715 19.114 84.8315 19.114C81.1915 19.114 78.5135 15.786 78.5135 10.482C78.5135 5.23 81.1915 1.902 84.8315 1.902ZM84.8315 5.048C83.0375 5.048 81.8155 6.946 81.8155 10.482C81.8155 14.07 83.0375 15.994 84.8315 15.994C86.6255 15.994 87.8215 14.07 87.8215 10.482C87.8215 6.946 86.6255 5.048 84.8315 5.048ZM108.449 1.772H119.915V12.38H108.449V1.772ZM116.509 4.502H111.855V9.65H116.509V4.502ZM123.243 0.238H126.701V13.706H123.243V0.238ZM125.739 5.464H129.899V8.272H125.739V5.464ZM117.107 16.124H120.019V16.696C120.019 20.44 116.925 23.482 111.101 24.236L109.853 21.61C114.871 21.012 117.107 18.776 117.107 16.696V16.124ZM117.861 16.124H120.799V16.696C120.799 18.698 123.087 21.012 128.027 21.662L126.805 24.288C120.981 23.534 117.861 20.336 117.861 16.696V16.124ZM110.867 14.85H127.013V17.554H110.867V14.85ZM149.631 9.338H153.869V12.172H149.631V9.338ZM147.057 0.211998H150.541V24.288H147.057V0.211998ZM132.393 2.526H135.851V17.476H132.393V2.526ZM132.393 15.552H134.473C137.905 15.552 141.623 15.318 145.497 14.538L145.861 17.372C141.883 18.204 138.009 18.412 134.473 18.412H132.393V15.552ZM160.393 12.458H163.825V19.218H160.393V12.458ZM169.129 12.458H172.587V19.218H169.129V12.458ZM155.609 18.724H177.397V21.532H155.609V18.724ZM166.477 1.408C171.651 1.408 175.473 3.956 175.473 7.882C175.473 11.808 171.651 14.33 166.477 14.33C161.277 14.33 157.481 11.808 157.481 7.882C157.481 3.956 161.277 1.408 166.477 1.408ZM166.477 4.112C163.123 4.112 160.887 5.49 160.887 7.882C160.887 10.248 163.123 11.652 166.477 11.652C169.831 11.652 172.067 10.248 172.067 7.882C172.067 5.49 169.831 4.112 166.477 4.112ZM183.41 16.331V16.017C183.416 14.9399 183.511 14.0812 183.696 13.4411C183.887 12.8009 184.164 12.2839 184.527 11.8899C184.89 11.496 185.327 11.139 185.838 10.8189C186.22 10.5727 186.561 10.3172 186.863 10.0526C187.165 9.78788 187.405 9.4955 187.583 9.17543C187.762 8.84919 187.851 8.48603 187.851 8.08594C187.851 7.66122 187.749 7.28883 187.546 6.96875C187.343 6.64867 187.069 6.40246 186.724 6.23011C186.386 6.05776 186.01 5.97159 185.598 5.97159C185.198 5.97159 184.819 6.06084 184.462 6.23935C184.105 6.41169 183.813 6.67022 183.585 7.01491C183.357 7.35346 183.234 7.77509 183.216 8.27983H179.449C179.48 7.04877 179.775 6.03314 180.335 5.23295C180.895 4.42661 181.637 3.82647 182.56 3.43253C183.484 3.03243 184.502 2.83239 185.616 2.83239C186.841 2.83239 187.925 3.03551 188.866 3.44176C189.808 3.84186 190.547 4.42353 191.082 5.18679C191.618 5.95005 191.886 6.87026 191.886 7.94744C191.886 8.66761 191.766 9.30776 191.526 9.8679C191.292 10.4219 190.962 10.9143 190.538 11.3452C190.113 11.7699 189.611 12.1546 189.033 12.4993C188.546 12.7886 188.146 13.0902 187.832 13.4041C187.525 13.718 187.294 14.0812 187.14 14.4936C186.992 14.906 186.915 15.4138 186.909 16.017V16.331H183.41ZM185.238 22.2401C184.622 22.2401 184.096 22.0246 183.659 21.5938C183.228 21.1567 183.016 20.6335 183.022 20.0241C183.016 19.4209 183.228 18.9039 183.659 18.473C184.096 18.0421 184.622 17.8267 185.238 17.8267C185.823 17.8267 186.337 18.0421 186.78 18.473C187.223 18.9039 187.448 19.4209 187.454 20.0241C187.448 20.4304 187.34 20.8028 187.131 21.1413C186.928 21.4737 186.66 21.7415 186.327 21.9446C185.995 22.1416 185.632 22.2401 185.238 22.2401Z" fill="black"/>
</svg>
