<svg width="227" height="25" viewBox="0 0 227 25" fill="none" xmlns="http://www.w3.org/2000/svg">
<path d="M0.066 18.724H21.854V21.532H0.066V18.724ZM9.192 13.394H12.65V19.374H9.192V13.394ZM2.328 2.006H19.462V13.836H2.328V2.006ZM16.082 4.762H5.734V11.106H16.082V4.762ZM40.494 0.263999H43.978V13.862H40.494V0.263999ZM27.962 14.954H43.978V24.054H27.962V14.954ZM40.572 17.658H31.342V21.324H40.572V17.658ZM30.874 1.356C34.618 1.356 37.4 3.748 37.4 7.128C37.4 10.482 34.618 12.9 30.874 12.9C27.13 12.9 24.322 10.482 24.322 7.128C24.322 3.748 27.13 1.356 30.874 1.356ZM30.874 4.216C29.054 4.216 27.702 5.282 27.702 7.128C27.702 8.948 29.054 10.014 30.874 10.014C32.694 10.014 34.02 8.948 34.02 7.128C34.02 5.282 32.694 4.216 30.874 4.216ZM64.3859 0.211998H67.8699V24.366H64.3859V0.211998ZM54.8959 1.902C58.5359 1.902 61.2139 5.23 61.2139 10.482C61.2139 15.786 58.5359 19.114 54.8959 19.114C51.2559 19.114 48.5779 15.786 48.5779 10.482C48.5779 5.23 51.2559 1.902 54.8959 1.902ZM54.8959 5.048C53.1019 5.048 51.8799 6.946 51.8799 10.482C51.8799 14.07 53.1019 15.994 54.8959 15.994C56.6899 15.994 57.8859 14.07 57.8859 10.482C57.8859 6.946 56.6899 5.048 54.8959 5.048ZM82.1535 1.694H84.8575V4.476C84.8575 8.558 83.2195 12.64 79.2935 14.304L77.4735 11.626C80.8275 10.144 82.1535 7.18 82.1535 4.476V1.694ZM82.7775 1.694H85.4815V4.476C85.4815 7.05 86.7815 9.65 89.9535 10.898L88.1075 13.524C84.3635 12.042 82.7775 8.402 82.7775 4.476V1.694ZM95.0495 0.263999H98.3255V14.954H95.0495V0.263999ZM92.1635 6.088H95.9855V8.87H92.1635V6.088ZM89.9535 0.705998H93.1775V14.2H89.9535V0.705998ZM90.1615 15.292C95.2055 15.292 98.4555 16.982 98.4555 19.816C98.4555 22.624 95.2055 24.314 90.1615 24.314C85.0915 24.314 81.8935 22.624 81.8935 19.816C81.8935 16.982 85.0915 15.292 90.1615 15.292ZM90.1615 17.892C87.0675 17.892 85.3255 18.542 85.3255 19.816C85.3255 21.09 87.0675 21.714 90.1615 21.714C93.2555 21.714 94.9715 21.09 94.9715 19.816C94.9715 18.542 93.2555 17.892 90.1615 17.892ZM107.319 1.486H110.205V3.644C110.205 8.48 108.047 12.718 103.315 14.304L101.521 11.522C105.629 10.196 107.319 6.946 107.319 3.644V1.486ZM108.047 1.486H110.829V3.488C110.829 6.686 112.389 9.65 116.211 10.872L114.417 13.576C109.971 12.042 108.047 8.168 108.047 3.488V1.486ZM118.421 0.238H121.879V14.33H118.421V0.238ZM113.715 14.954C118.811 14.954 121.957 16.696 121.957 19.634C121.957 22.598 118.811 24.314 113.715 24.314C108.619 24.314 105.473 22.598 105.473 19.634C105.473 16.696 108.619 14.954 113.715 14.954ZM113.715 17.632C110.595 17.632 108.931 18.282 108.931 19.634C108.931 20.986 110.595 21.662 113.715 21.662C116.861 21.662 118.525 20.986 118.525 19.634C118.525 18.282 116.861 17.632 113.715 17.632ZM114.027 4.606H118.915V7.414H114.027V4.606ZM127.285 9.988H139.869V12.744H127.285V9.988ZM131.809 12.224H135.293V17.294H131.809V12.224ZM127.285 2.37H139.713V5.1H130.743V10.846H127.285V2.37ZM142.287 0.211998H145.745V24.366H142.287V0.211998ZM126.167 19.608L125.751 16.826C130.353 16.826 136.021 16.8 140.961 16.254L141.221 18.776C136.021 19.582 130.639 19.634 126.167 19.608ZM155.259 14.642H157.885V15.552C157.885 19.244 156.273 22.624 152.503 24.002L150.813 21.48C153.959 20.388 155.259 17.944 155.259 15.552V14.642ZM156.143 14.642H158.639V15.552C158.639 17.944 159.783 20.466 162.773 21.714L161.343 24.236C157.521 22.806 156.143 19.14 156.143 15.552V14.642ZM164.047 14.642H166.517V15.552C166.517 18.906 165.113 22.728 161.343 24.236L159.913 21.714C162.877 20.336 164.047 17.71 164.047 15.552V14.642ZM164.853 14.642H167.453V15.552C167.453 18.1 168.727 20.466 171.951 21.48L170.209 24.002C166.413 22.676 164.853 19.4 164.853 15.552V14.642ZM161.291 5.802H166.985V8.61H161.291V5.802ZM156.221 1.46C159.809 1.46 162.565 3.878 162.565 7.232C162.565 10.586 159.809 13.004 156.221 13.004C152.607 13.004 149.877 10.586 149.877 7.232C149.877 3.878 152.607 1.46 156.221 1.46ZM156.221 4.32C154.453 4.32 153.179 5.412 153.179 7.232C153.179 9.052 154.453 10.144 156.221 10.144C157.963 10.144 159.263 9.052 159.263 7.232C159.263 5.412 157.963 4.32 156.221 4.32ZM166.257 0.238H169.715V13.706H166.257V0.238ZM180.087 1.902C183.675 1.902 186.301 5.23 186.301 10.482C186.301 15.786 183.675 19.114 180.087 19.114C176.473 19.114 173.873 15.786 173.873 10.482C173.873 5.23 176.473 1.902 180.087 1.902ZM180.087 5.048C178.345 5.048 177.175 6.946 177.175 10.482C177.175 14.07 178.345 15.994 180.087 15.994C181.855 15.994 182.999 14.07 182.999 10.482C182.999 6.946 181.855 5.048 180.087 5.048ZM190.253 0.211998H193.685V24.366H190.253V0.211998ZM185.287 8.896H191.709V11.678H185.287V8.896ZM202.211 12.458H205.643V19.218H202.211V12.458ZM210.947 12.458H214.405V19.218H210.947V12.458ZM197.427 18.724H219.215V21.532H197.427V18.724ZM208.295 1.408C213.469 1.408 217.291 3.956 217.291 7.882C217.291 11.808 213.469 14.33 208.295 14.33C203.095 14.33 199.299 11.808 199.299 7.882C199.299 3.956 203.095 1.408 208.295 1.408ZM208.295 4.112C204.941 4.112 202.705 5.49 202.705 7.882C202.705 10.248 204.941 11.652 208.295 11.652C211.649 11.652 213.885 10.248 213.885 7.882C213.885 5.49 211.649 4.112 208.295 4.112ZM226.548 3.09091L226.188 16.331H222.809L222.44 3.09091H226.548ZM224.499 22.2401C223.889 22.2401 223.366 22.0246 222.929 21.5938C222.492 21.1567 222.277 20.6335 222.283 20.0241C222.277 19.4209 222.492 18.9039 222.929 18.473C223.366 18.0421 223.889 17.8267 224.499 17.8267C225.084 17.8267 225.597 18.0421 226.041 18.473C226.484 18.9039 226.709 19.4209 226.715 20.0241C226.709 20.4304 226.601 20.8028 226.392 21.1413C226.188 21.4737 225.921 21.7415 225.588 21.9446C225.256 22.1416 224.893 22.2401 224.499 22.2401Z" fill="black"/>
</svg>
