<svg width="179" height="56" viewBox="0 0 179 56" fill="none" xmlns="http://www.w3.org/2000/svg">
<path d="M1.066 18.724H22.854V21.532H1.066V18.724ZM10.192 13.394H13.65V19.374H10.192V13.394ZM3.328 2.006H20.462V13.836H3.328V2.006ZM17.082 4.762H6.734V11.106H17.082V4.762ZM41.494 0.263999H44.978V13.862H41.494V0.263999ZM28.962 14.954H44.978V24.054H28.962V14.954ZM41.572 17.658H32.342V21.324H41.572V17.658ZM31.874 1.356C35.618 1.356 38.4 3.748 38.4 7.128C38.4 10.482 35.618 12.9 31.874 12.9C28.13 12.9 25.322 10.482 25.322 7.128C25.322 3.748 28.13 1.356 31.874 1.356ZM31.874 4.216C30.054 4.216 28.702 5.282 28.702 7.128C28.702 8.948 30.054 10.014 31.874 10.014C33.694 10.014 35.02 8.948 35.02 7.128C35.02 5.282 33.694 4.216 31.874 4.216ZM72.2875 0.238H75.5635V24.314H72.2875V0.238ZM69.0635 9.494H73.0675V12.276H69.0635V9.494ZM66.9055 0.653999H70.1035V23.17H66.9055V0.653999ZM55.5695 16.046H57.2595C60.2235 16.046 62.6935 15.942 65.5535 15.422L65.8135 18.23C62.9015 18.802 60.3535 18.88 57.2595 18.88H55.5695V16.046ZM55.5695 3.02H64.4615V5.802H59.0015V17.398H55.5695V3.02ZM84.1675 13.342H87.6255V19.816H84.1675V13.342ZM91.7335 13.368H95.1655V19.842H91.7335V13.368ZM78.8375 18.88H100.625V21.688H78.8375V18.88ZM80.5015 2.136H98.8315V4.892H80.5015V2.136ZM80.6055 11.652H98.7535V14.382H80.6055V11.652ZM83.7775 4.424H87.2355V12.042H83.7775V4.424ZM92.1235 4.424H95.5555V12.042H92.1235V4.424ZM114.155 2.084H116.963V5.594C116.963 11.548 114.883 17.138 110.333 19.374L108.253 16.592C112.309 14.694 114.155 10.066 114.155 5.594V2.084ZM114.857 2.084H117.613V5.594C117.613 9.91 119.329 14.304 123.177 16.176L121.097 18.932C116.755 16.722 114.857 11.366 114.857 5.594V2.084ZM124.139 0.238H127.623V24.314H124.139V0.238ZM126.843 9.494H131.107V12.38H126.843V9.494ZM138.515 2.916H141.375V4.944C141.375 9.494 139.165 13.602 134.537 15.11L132.769 12.406C136.773 11.106 138.515 7.986 138.515 4.944V2.916ZM139.217 2.916H142.051V4.944C142.051 7.804 143.767 10.742 147.693 11.99L145.925 14.668C141.401 13.238 139.217 9.312 139.217 4.944V2.916ZM133.679 1.954H146.783V4.684H133.679V1.954ZM149.201 0.263999H152.685V17.632H149.201V0.263999ZM136.643 21.142H153.283V23.898H136.643V21.142ZM136.643 16.072H140.101V22.52H136.643V16.072ZM167.477 0.575998C172.963 0.575998 176.187 2.032 176.187 4.684C176.187 7.336 172.963 8.792 167.477 8.792C161.965 8.792 158.767 7.336 158.767 4.684C158.767 2.032 161.965 0.575998 167.477 0.575998ZM167.477 3.098C163.993 3.098 162.355 3.618 162.355 4.684C162.355 5.802 163.993 6.27 167.477 6.27C170.961 6.27 172.599 5.802 172.599 4.684C172.599 3.618 170.961 3.098 167.477 3.098ZM156.583 9.91H178.345V12.64H156.583V9.91ZM159.079 13.992H175.719V20.18H162.511V22.312H159.105V17.788H172.313V16.566H159.079V13.992ZM159.105 21.558H176.343V24.158H159.105V21.558ZM13.338 34.748H19.266V37.504H13.338V34.748ZM17.732 31.238H21.19V43.458H17.732V31.238ZM5.278 44.472H21.19V50.946H8.736V53.962H5.33V48.45H17.758V47.124H5.278V44.472ZM5.33 52.376H21.866V55.054H5.33V52.376ZM6.552 32.018H9.36V33.734C9.36 38.284 7.228 42.21 2.626 43.666L0.858 40.936C4.862 39.74 6.552 36.802 6.552 33.734V32.018ZM7.228 32.018H10.036V33.734C10.036 36.594 11.648 39.376 15.444 40.52L13.676 43.198C9.282 41.768 7.228 38.05 7.228 33.734V32.018ZM38.01 37.062H42.586V39.87H38.01V37.062ZM41.65 31.238H45.108V45.538H41.65V31.238ZM36.944 46.058C42.04 46.058 45.186 47.8 45.186 50.712C45.186 53.65 42.04 55.34 36.944 55.34C31.848 55.34 28.702 53.65 28.702 50.712C28.702 47.8 31.848 46.058 36.944 46.058ZM36.944 48.684C33.824 48.684 32.16 49.334 32.16 50.712C32.16 52.064 33.824 52.714 36.944 52.714C40.09 52.714 41.754 52.064 41.754 50.712C41.754 49.334 40.09 48.684 36.944 48.684ZM30.522 33.656H33.33V35.164C33.33 39.766 31.198 43.978 26.596 45.538L24.828 42.808C28.806 41.456 30.522 38.258 30.522 35.164V33.656ZM31.25 33.656H34.032V35.164C34.032 37.998 35.67 40.936 39.466 42.21L37.776 44.94C33.304 43.458 31.25 39.454 31.25 35.164V33.656ZM25.764 32.694H38.712V35.45H25.764V32.694ZM48.8499 34.852H60.3679V37.608H48.8499V34.852ZM54.6479 38.674C57.7159 38.674 59.9259 41.04 59.9259 44.42C59.9259 47.774 57.7159 50.14 54.6479 50.14C51.6059 50.14 49.3699 47.774 49.3699 44.42C49.3699 41.04 51.6059 38.674 54.6479 38.674ZM54.6479 41.56C53.3479 41.56 52.4379 42.6 52.4379 44.42C52.4379 46.24 53.3479 47.254 54.6479 47.254C55.9479 47.254 56.8839 46.24 56.8839 44.42C56.8839 42.6 55.9479 41.56 54.6479 41.56ZM66.2699 31.238H69.5719V55.314H66.2699V31.238ZM63.3839 41.014H67.3619V43.796H63.3839V41.014ZM61.2259 31.68H64.4499V54.3H61.2259V31.68ZM52.9579 31.888H56.3639V36.594H52.9579V31.888ZM81.7119 33.916H84.7019V34.618C84.7019 38.856 81.2439 42.314 75.1339 43.146L73.8599 40.442C79.1639 39.792 81.7119 37.088 81.7119 34.618V33.916ZM82.6999 33.916H85.6899V34.618C85.6899 37.088 88.2379 39.792 93.5419 40.442L92.2939 43.146C86.1579 42.314 82.6999 38.856 82.6999 34.618V33.916ZM81.8939 46.5H85.3259V55.34H81.8939V46.5ZM72.8199 44.524H94.5819V47.28H72.8199V44.524ZM74.7439 32.46H92.6059V35.19H74.7439V32.46ZM106.202 39.324H110.18V42.132H106.202V39.324ZM101.054 33.318H103.706V37.374C103.706 42.834 102.198 48.164 98.3499 50.53L96.2699 47.93C99.8059 45.746 101.054 41.456 101.054 37.374V33.318ZM101.808 33.318H104.408V37.218C104.408 41.144 105.422 45.148 108.698 47.28L106.826 49.984C103.004 47.618 101.808 42.418 101.808 37.218V33.318ZM114.106 31.238H117.408V55.314H114.106V31.238ZM109.218 31.602H112.442V54.222H109.218V31.602ZM125.44 43.458H128.872V50.218H125.44V43.458ZM134.176 43.458H137.634V50.218H134.176V43.458ZM120.656 49.724H142.444V52.532H120.656V49.724ZM131.524 32.408C136.698 32.408 140.52 34.956 140.52 38.882C140.52 42.808 136.698 45.33 131.524 45.33C126.324 45.33 122.528 42.808 122.528 38.882C122.528 34.956 126.324 32.408 131.524 32.408ZM131.524 35.112C128.17 35.112 125.934 36.49 125.934 38.882C125.934 41.248 128.17 42.652 131.524 42.652C134.878 42.652 137.114 41.248 137.114 38.882C137.114 36.49 134.878 35.112 131.524 35.112ZM147.376 53.2401C146.767 53.2401 146.244 53.0246 145.807 52.5938C145.376 52.1567 145.161 51.6335 145.161 51.0241C145.161 50.4209 145.376 49.9039 145.807 49.473C146.244 49.0421 146.767 48.8267 147.376 48.8267C147.967 48.8267 148.484 49.0421 148.928 49.473C149.371 49.9039 149.592 50.4209 149.592 51.0241C149.592 51.4304 149.488 51.8028 149.278 52.1413C149.075 52.4737 148.808 52.7415 148.475 52.9446C148.143 53.1416 147.777 53.2401 147.376 53.2401Z" fill="black"/>
</svg>
