<svg width="252" height="59" viewBox="0 0 252 59" fill="none" xmlns="http://www.w3.org/2000/svg">
<path d="M1.04 13.706H22.854V16.488H1.04V13.706ZM10.14 15.5H13.572V24.34H10.14V15.5ZM11.882 1.044C17.03 1.044 20.592 3.176 20.592 6.478C20.592 9.754 17.03 11.86 11.882 11.86C6.76 11.86 3.198 9.754 3.198 6.478C3.198 3.176 6.76 1.044 11.882 1.044ZM11.882 3.8C8.736 3.8 6.734 4.736 6.734 6.478C6.734 8.194 8.736 9.13 11.882 9.13C15.054 9.13 17.03 8.194 17.03 6.478C17.03 4.736 15.054 3.8 11.882 3.8ZM41.546 0.211998H45.004V24.366H41.546V0.211998ZM26.258 15.942H28.39C32.654 15.942 36.06 15.786 39.882 15.136L40.22 17.918C36.32 18.62 32.784 18.75 28.39 18.75H26.258V15.942ZM26.232 2.266H37.594V11.574H29.768V16.982H26.258V8.844H34.058V5.022H26.232V2.266ZM70.2855 0.211998H73.7695V24.288H70.2855V0.211998ZM72.8595 9.416H77.0975V12.25H72.8595V9.416ZM63.9675 2.708H67.3475C67.3475 9.936 64.5915 16.124 56.5835 20.154L54.6595 17.528C60.9775 14.252 63.9675 9.832 63.9675 3.306V2.708ZM55.9855 2.708H65.7355V5.49H55.9855V2.708ZM87.3135 2.448H90.3815V3.046C90.3815 6.712 87.1315 9.728 80.9435 10.326L79.7215 7.648C84.9995 7.128 87.3135 4.97 87.3135 3.046V2.448ZM89.0035 2.448H92.0715V3.046C92.0715 4.996 94.3855 7.154 99.6635 7.648L98.4415 10.326C92.2795 9.728 89.0035 6.738 89.0035 3.046V2.448ZM80.7875 1.122H98.6235V3.852H80.7875V1.122ZM78.8115 11.938H100.599V14.694H78.8115V11.938ZM87.9375 8.844H91.3695V13.16H87.9375V8.844ZM81.2295 16.436H97.9475V24.314H94.4895V19.166H81.2295V16.436ZM112.349 9.104H116.301V11.886H112.349V9.104ZM120.123 0.238H123.425V24.314H120.123V0.238ZM115.209 0.602H118.459V23.222H115.209V0.602ZM108.137 1.928C111.335 1.928 113.389 5.23 113.389 10.664C113.389 16.124 111.335 19.426 108.137 19.426C104.965 19.426 102.937 16.124 102.937 10.664C102.937 5.23 104.965 1.928 108.137 1.928ZM108.137 5.178C106.837 5.178 106.083 6.998 106.083 10.664C106.083 14.356 106.837 16.15 108.137 16.15C109.489 16.15 110.243 14.356 110.243 10.664C110.243 6.998 109.489 5.178 108.137 5.178ZM150.059 0.238H153.335V24.314H150.059V0.238ZM146.835 9.494H150.839V12.276H146.835V9.494ZM144.677 0.653999H147.875V23.17H144.677V0.653999ZM133.341 16.046H135.031C137.995 16.046 140.465 15.942 143.325 15.422L143.585 18.23C140.673 18.802 138.125 18.88 135.031 18.88H133.341V16.046ZM133.341 3.02H142.233V5.802H136.773V17.398H133.341V3.02ZM156.557 3.852H168.075V6.608H156.557V3.852ZM162.355 7.674C165.423 7.674 167.633 10.04 167.633 13.42C167.633 16.774 165.423 19.14 162.355 19.14C159.313 19.14 157.077 16.774 157.077 13.42C157.077 10.04 159.313 7.674 162.355 7.674ZM162.355 10.56C161.055 10.56 160.145 11.6 160.145 13.42C160.145 15.24 161.055 16.254 162.355 16.254C163.655 16.254 164.591 15.24 164.591 13.42C164.591 11.6 163.655 10.56 162.355 10.56ZM173.977 0.238H177.279V24.314H173.977V0.238ZM171.091 10.014H175.069V12.796H171.091V10.014ZM168.933 0.679999H172.157V23.3H168.933V0.679999ZM160.665 0.887999H164.071V5.594H160.665V0.887999ZM16.51 34.238H19.994V51.476H16.51V34.238ZM19.006 40.946H23.192V43.78H19.006V40.946ZM9.802 36.032H13.494C13.494 42.584 9.49 47.082 2.314 49.162L0.858 46.406C6.76 44.794 9.802 41.57 9.802 37.748V36.032ZM1.898 36.032H11.674V38.814H1.898V36.032ZM4.42 55.142H20.8V57.898H4.42V55.142ZM4.42 49.734H7.904V56.364H4.42V49.734ZM40.454 34.238H43.912V51.632H40.454V34.238ZM42.924 40.79H47.11V43.624H42.924V40.79ZM25.868 44.924H27.87C33.096 44.924 35.696 44.82 38.582 44.196L38.92 46.926C35.982 47.576 33.226 47.706 27.87 47.706H25.868V44.924ZM25.868 36.136H36.632V38.918H29.3V46.406H25.868V36.136ZM28.39 55.142H44.77V57.898H28.39V55.142ZM28.39 49.812H31.848V56.546H28.39V49.812ZM64.3199 34.238H67.7519V58.314H64.3199V34.238ZM66.9719 43.624H71.2359V46.51H66.9719V43.624ZM48.7719 37.8H62.7859V40.556H48.7719V37.8ZM55.8179 41.908C59.3279 41.908 61.9279 44.3 61.9279 47.654C61.9279 51.008 59.3279 53.4 55.8179 53.4C52.3079 53.4 49.7079 51.008 49.7079 47.654C49.7079 44.3 52.3079 41.908 55.8179 41.908ZM55.8179 44.716C54.1799 44.716 53.0099 45.808 53.0099 47.654C53.0099 49.5 54.1799 50.592 55.8179 50.592C57.4559 50.592 58.6259 49.5 58.6259 47.654C58.6259 45.808 57.4559 44.716 55.8179 44.716ZM54.0759 34.628H57.5339V38.84H54.0759V34.628ZM90.2399 34.238H93.5419V58.314H90.2399V34.238ZM80.6979 43.468H85.8459V46.198H80.6979V43.468ZM85.1699 34.758H88.3939V57.248H85.1699V34.758ZM79.9179 37.072H83.2459C83.2459 43.936 81.1919 49.396 74.4319 53.322L72.4819 50.904C77.9679 47.602 79.9179 43.598 79.9179 37.774V37.072ZM73.8339 37.072H81.0099V39.828H73.8339V37.072ZM102.755 52.672H124.543V55.506H102.755V52.672ZM111.803 47.316H115.235V53.426H111.803V47.316ZM111.673 35.564H114.689V37.306C114.689 42.428 110.971 46.952 104.679 48.096L103.249 45.21C108.735 44.326 111.673 40.634 111.673 37.306V35.564ZM112.349 35.564H115.365V37.306C115.365 40.712 118.303 44.326 123.815 45.21L122.385 48.096C116.067 46.926 112.349 42.506 112.349 37.306V35.564ZM143.963 34.238H147.265V58.314H143.963V34.238ZM140.921 43.312H144.899V46.068H140.921V43.312ZM133.745 37.176H137.047C137.047 43.962 135.071 49.448 128.337 53.374L126.335 50.982C131.821 47.732 133.745 43.676 133.745 37.904V37.176ZM127.557 37.176H134.759V39.958H127.557V37.176ZM138.633 34.862H141.857V57.274H138.633V34.862ZM150.539 37.852H162.057V40.608H150.539V37.852ZM156.337 41.674C159.405 41.674 161.615 44.04 161.615 47.42C161.615 50.774 159.405 53.14 156.337 53.14C153.295 53.14 151.059 50.774 151.059 47.42C151.059 44.04 153.295 41.674 156.337 41.674ZM156.337 44.56C155.037 44.56 154.127 45.6 154.127 47.42C154.127 49.24 155.037 50.254 156.337 50.254C157.637 50.254 158.573 49.24 158.573 47.42C158.573 45.6 157.637 44.56 156.337 44.56ZM167.959 34.238H171.261V58.314H167.959V34.238ZM165.073 44.014H169.051V46.796H165.073V44.014ZM162.915 34.68H166.139V57.3H162.915V34.68ZM154.647 34.888H158.053V39.594H154.647V34.888ZM183.401 36.916H186.391V37.618C186.391 41.856 182.933 45.314 176.823 46.146L175.549 43.442C180.853 42.792 183.401 40.088 183.401 37.618V36.916ZM184.389 36.916H187.379V37.618C187.379 40.088 189.927 42.792 195.231 43.442L193.983 46.146C187.847 45.314 184.389 41.856 184.389 37.618V36.916ZM183.583 49.5H187.015V58.34H183.583V49.5ZM174.509 47.524H196.271V50.28H174.509V47.524ZM176.433 35.46H194.295V38.19H176.433V35.46ZM207.891 42.324H211.869V45.132H207.891V42.324ZM202.743 36.318H205.395V40.374C205.395 45.834 203.887 51.164 200.039 53.53L197.959 50.93C201.495 48.746 202.743 44.456 202.743 40.374V36.318ZM203.497 36.318H206.097V40.218C206.097 44.144 207.111 48.148 210.387 50.28L208.515 52.984C204.693 50.618 203.497 45.418 203.497 40.218V36.318ZM215.795 34.238H219.097V58.314H215.795V34.238ZM210.907 34.602H214.131V57.222H210.907V34.602ZM227.129 46.458H230.561V53.218H227.129V46.458ZM235.865 46.458H239.323V53.218H235.865V46.458ZM222.345 52.724H244.133V55.532H222.345V52.724ZM233.213 35.408C238.387 35.408 242.209 37.956 242.209 41.882C242.209 45.808 238.387 48.33 233.213 48.33C228.013 48.33 224.217 45.808 224.217 41.882C224.217 37.956 228.013 35.408 233.213 35.408ZM233.213 38.112C229.859 38.112 227.623 39.49 227.623 41.882C227.623 44.248 229.859 45.652 233.213 45.652C236.567 45.652 238.803 44.248 238.803 41.882C238.803 39.49 236.567 38.112 233.213 38.112ZM249.066 56.2401C248.456 56.2401 247.933 56.0246 247.496 55.5938C247.065 55.1567 246.85 54.6335 246.85 54.0241C246.85 53.4209 247.065 52.9039 247.496 52.473C247.933 52.0421 248.456 51.8267 249.066 51.8267C249.657 51.8267 250.174 52.0421 250.617 52.473C251.06 52.9039 251.282 53.4209 251.282 54.0241C251.282 54.4304 251.177 54.8028 250.968 55.1413C250.765 55.4737 250.497 55.7415 250.165 55.9446C249.832 56.1416 249.466 56.2401 249.066 56.2401Z" fill="black"/>
</svg>
