<svg width="227" height="25" viewBox="0 0 227 25" fill="none" xmlns="http://www.w3.org/2000/svg">
<path d="M16.55 0.211998H20.034V24.366H16.55V0.211998ZM7.06 1.902C10.7 1.902 13.378 5.23 13.378 10.482C13.378 15.786 10.7 19.114 7.06 19.114C3.42 19.114 0.742 15.786 0.742 10.482C0.742 5.23 3.42 1.902 7.06 1.902ZM7.06 5.048C5.266 5.048 4.044 6.946 4.044 10.482C4.044 14.07 5.266 15.994 7.06 15.994C8.854 15.994 10.05 14.07 10.05 10.482C10.05 6.946 8.854 5.048 7.06 5.048ZM23.958 12.38H45.772V15.11H23.958V12.38ZM26.636 0.679999H43.12V7.128H30.094V9.754H26.662V4.684H39.714V3.306H26.636V0.679999ZM26.662 8.48H43.588V11.106H26.662V8.48ZM26.714 16.566H43.25V24.054H26.714V16.566ZM39.844 19.27H30.094V21.324H39.844V19.27ZM58.7699 0.575998C64.2559 0.575998 67.4799 2.032 67.4799 4.684C67.4799 7.336 64.2559 8.792 58.7699 8.792C53.2579 8.792 50.0599 7.336 50.0599 4.684C50.0599 2.032 53.2579 0.575998 58.7699 0.575998ZM58.7699 3.098C55.2859 3.098 53.6479 3.618 53.6479 4.684C53.6479 5.802 55.2859 6.27 58.7699 6.27C62.2539 6.27 63.8919 5.802 63.8919 4.684C63.8919 3.618 62.2539 3.098 58.7699 3.098ZM47.8759 9.91H69.6379V12.64H47.8759V9.91ZM50.3719 13.992H67.0119V20.18H53.8039V22.312H50.3979V17.788H63.6059V16.566H50.3719V13.992ZM50.3979 21.558H67.6359V24.158H50.3979V21.558ZM94.3475 0.238H97.8315V13.186H94.3475V0.238ZM81.8155 14.226H85.2215V16.462H94.3995V14.226H97.8315V24.054H81.8155V14.226ZM85.2215 19.114V21.298H94.3995V19.114H85.2215ZM84.7275 1.226C88.4715 1.226 91.2535 3.592 91.2535 6.92C91.2535 10.248 88.4715 12.614 84.7275 12.614C80.9835 12.614 78.1755 10.248 78.1755 6.92C78.1755 3.592 80.9835 1.226 84.7275 1.226ZM84.7275 4.086C82.8815 4.086 81.5555 5.152 81.5555 6.92C81.5555 8.714 82.8815 9.754 84.7275 9.754C86.5475 9.754 87.8735 8.714 87.8735 6.92C87.8735 5.152 86.5475 4.086 84.7275 4.086ZM102.639 11.704H104.485C108.957 11.704 111.297 11.626 114.027 11.132L114.365 13.862C111.557 14.382 109.087 14.46 104.485 14.46H102.639V11.704ZM102.613 1.616H113.195V9.208H106.071V13.524H102.639V6.634H109.763V4.346H102.613V1.616ZM118.421 0.263999H121.879V15.084H118.421V0.263999ZM114.573 3.566H119.045V6.322H114.573V3.566ZM114.573 8.688H119.045V11.444H114.573V8.688ZM105.395 16.176H121.879V24.34H118.421V18.932H105.395V16.176ZM125.621 3.852H137.139V6.608H125.621V3.852ZM131.419 7.674C134.487 7.674 136.697 10.04 136.697 13.42C136.697 16.774 134.487 19.14 131.419 19.14C128.377 19.14 126.141 16.774 126.141 13.42C126.141 10.04 128.377 7.674 131.419 7.674ZM131.419 10.56C130.119 10.56 129.209 11.6 129.209 13.42C129.209 15.24 130.119 16.254 131.419 16.254C132.719 16.254 133.655 15.24 133.655 13.42C133.655 11.6 132.719 10.56 131.419 10.56ZM143.041 0.238H146.343V24.314H143.041V0.238ZM140.155 10.014H144.133V12.796H140.155V10.014ZM137.997 0.679999H141.221V23.3H137.997V0.679999ZM129.729 0.887999H133.135V5.594H129.729V0.887999ZM158.483 2.916H161.473V3.618C161.473 7.856 158.015 11.314 151.905 12.146L150.631 9.442C155.935 8.792 158.483 6.088 158.483 3.618V2.916ZM159.471 2.916H162.461V3.618C162.461 6.088 165.009 8.792 170.313 9.442L169.065 12.146C162.929 11.314 159.471 7.856 159.471 3.618V2.916ZM158.665 15.5H162.097V24.34H158.665V15.5ZM149.591 13.524H171.353V16.28H149.591V13.524ZM151.515 1.46H169.377V4.19H151.515V1.46ZM182.973 8.324H186.951V11.132H182.973V8.324ZM177.825 2.318H180.477V6.374C180.477 11.834 178.969 17.164 175.121 19.53L173.041 16.93C176.577 14.746 177.825 10.456 177.825 6.374V2.318ZM178.579 2.318H181.179V6.218C181.179 10.144 182.193 14.148 185.469 16.28L183.597 18.984C179.775 16.618 178.579 11.418 178.579 6.218V2.318ZM190.877 0.238H194.179V24.314H190.877V0.238ZM185.989 0.602H189.213V23.222H185.989V0.602ZM202.211 12.458H205.643V19.218H202.211V12.458ZM210.947 12.458H214.405V19.218H210.947V12.458ZM197.427 18.724H219.215V21.532H197.427V18.724ZM208.295 1.408C213.469 1.408 217.291 3.956 217.291 7.882C217.291 11.808 213.469 14.33 208.295 14.33C203.095 14.33 199.299 11.808 199.299 7.882C199.299 3.956 203.095 1.408 208.295 1.408ZM208.295 4.112C204.941 4.112 202.705 5.49 202.705 7.882C202.705 10.248 204.941 11.652 208.295 11.652C211.649 11.652 213.885 10.248 213.885 7.882C213.885 5.49 211.649 4.112 208.295 4.112ZM224.148 22.2401C223.539 22.2401 223.015 22.0246 222.578 21.5938C222.147 21.1567 221.932 20.6335 221.932 20.0241C221.932 19.4209 222.147 18.9039 222.578 18.473C223.015 18.0421 223.539 17.8267 224.148 17.8267C224.739 17.8267 225.256 18.0421 225.699 18.473C226.142 18.9039 226.364 19.4209 226.364 20.0241C226.364 20.4304 226.259 20.8028 226.05 21.1413C225.847 21.4737 225.579 21.7415 225.247 21.9446C224.914 22.1416 224.548 22.2401 224.148 22.2401Z" fill="black"/>
</svg>
