<svg width="305" height="25" viewBox="0 0 305 25" fill="none" xmlns="http://www.w3.org/2000/svg">
<path d="M0.066 18.724H21.854V21.532H0.066V18.724ZM9.192 13.394H12.65V19.374H9.192V13.394ZM2.328 2.006H19.462V13.836H2.328V2.006ZM16.082 4.762H5.734V11.106H16.082V4.762ZM40.494 0.263999H43.978V13.862H40.494V0.263999ZM27.962 14.954H43.978V24.054H27.962V14.954ZM40.572 17.658H31.342V21.324H40.572V17.658ZM30.874 1.356C34.618 1.356 37.4 3.748 37.4 7.128C37.4 10.482 34.618 12.9 30.874 12.9C27.13 12.9 24.322 10.482 24.322 7.128C24.322 3.748 27.13 1.356 30.874 1.356ZM30.874 4.216C29.054 4.216 27.702 5.282 27.702 7.128C27.702 8.948 29.054 10.014 30.874 10.014C32.694 10.014 34.02 8.948 34.02 7.128C34.02 5.282 32.694 4.216 30.874 4.216ZM55.6239 1.824C59.4199 1.824 62.2539 4.294 62.2539 7.752C62.2539 11.236 59.4199 13.706 55.6239 13.706C51.8539 13.706 48.9679 11.236 48.9679 7.752C48.9679 4.294 51.8539 1.824 55.6239 1.824ZM55.6239 4.788C53.7779 4.788 52.3739 5.88 52.3739 7.752C52.3739 9.65 53.7779 10.742 55.6239 10.742C57.4699 10.742 58.8739 9.65 58.8739 7.752C58.8739 5.88 57.4699 4.788 55.6239 4.788ZM64.5159 0.211998H67.9739V24.366H64.5159V0.211998ZM48.3959 19.478L47.9799 16.696C52.2179 16.696 58.1199 16.644 63.1899 15.89L63.4499 18.386C58.2239 19.426 52.5559 19.478 48.3959 19.478ZM94.3215 0.211998H97.8055V24.366H94.3215V0.211998ZM84.8315 1.902C88.4715 1.902 91.1495 5.23 91.1495 10.482C91.1495 15.786 88.4715 19.114 84.8315 19.114C81.1915 19.114 78.5135 15.786 78.5135 10.482C78.5135 5.23 81.1915 1.902 84.8315 1.902ZM84.8315 5.048C83.0375 5.048 81.8155 6.946 81.8155 10.482C81.8155 14.07 83.0375 15.994 84.8315 15.994C86.6255 15.994 87.8215 14.07 87.8215 10.482C87.8215 6.946 86.6255 5.048 84.8315 5.048ZM101.729 12.38H123.543V15.11H101.729V12.38ZM104.407 0.679999H120.891V7.128H107.865V9.754H104.433V4.684H117.485V3.306H104.407V0.679999ZM104.433 8.48H121.359V11.106H104.433V8.48ZM104.485 16.566H121.021V24.054H104.485V16.566ZM117.615 19.27H107.865V21.324H117.615V19.27ZM136.541 0.575998C142.027 0.575998 145.251 2.032 145.251 4.684C145.251 7.336 142.027 8.792 136.541 8.792C131.029 8.792 127.831 7.336 127.831 4.684C127.831 2.032 131.029 0.575998 136.541 0.575998ZM136.541 3.098C133.057 3.098 131.419 3.618 131.419 4.684C131.419 5.802 133.057 6.27 136.541 6.27C140.025 6.27 141.663 5.802 141.663 4.684C141.663 3.618 140.025 3.098 136.541 3.098ZM125.647 9.91H147.409V12.64H125.647V9.91ZM128.143 13.992H144.783V20.18H131.575V22.312H128.169V17.788H141.377V16.566H128.143V13.992ZM128.169 21.558H145.407V24.158H128.169V21.558ZM172.119 0.238H175.603V13.186H172.119V0.238ZM159.587 14.226H162.993V16.462H172.171V14.226H175.603V24.054H159.587V14.226ZM162.993 19.114V21.298H172.171V19.114H162.993ZM162.499 1.226C166.243 1.226 169.025 3.592 169.025 6.92C169.025 10.248 166.243 12.614 162.499 12.614C158.755 12.614 155.947 10.248 155.947 6.92C155.947 3.592 158.755 1.226 162.499 1.226ZM162.499 4.086C160.653 4.086 159.327 5.152 159.327 6.92C159.327 8.714 160.653 9.754 162.499 9.754C164.319 9.754 165.645 8.714 165.645 6.92C165.645 5.152 164.319 4.086 162.499 4.086ZM180.411 11.704H182.257C186.729 11.704 189.069 11.626 191.799 11.132L192.137 13.862C189.329 14.382 186.859 14.46 182.257 14.46H180.411V11.704ZM180.385 1.616H190.967V9.208H183.843V13.524H180.411V6.634H187.535V4.346H180.385V1.616ZM196.193 0.263999H199.651V15.084H196.193V0.263999ZM192.345 3.566H196.817V6.322H192.345V3.566ZM192.345 8.688H196.817V11.444H192.345V8.688ZM183.167 16.176H199.651V24.34H196.193V18.932H183.167V16.176ZM203.393 3.852H214.911V6.608H203.393V3.852ZM209.191 7.674C212.259 7.674 214.469 10.04 214.469 13.42C214.469 16.774 212.259 19.14 209.191 19.14C206.149 19.14 203.913 16.774 203.913 13.42C203.913 10.04 206.149 7.674 209.191 7.674ZM209.191 10.56C207.891 10.56 206.981 11.6 206.981 13.42C206.981 15.24 207.891 16.254 209.191 16.254C210.491 16.254 211.427 15.24 211.427 13.42C211.427 11.6 210.491 10.56 209.191 10.56ZM220.813 0.238H224.115V24.314H220.813V0.238ZM217.927 10.014H221.905V12.796H217.927V10.014ZM215.769 0.679999H218.993V23.3H215.769V0.679999ZM207.501 0.887999H210.907V5.594H207.501V0.887999ZM236.255 2.916H239.245V3.618C239.245 7.856 235.787 11.314 229.677 12.146L228.403 9.442C233.707 8.792 236.255 6.088 236.255 3.618V2.916ZM237.243 2.916H240.233V3.618C240.233 6.088 242.781 8.792 248.085 9.442L246.837 12.146C240.701 11.314 237.243 7.856 237.243 3.618V2.916ZM236.437 15.5H239.869V24.34H236.437V15.5ZM227.363 13.524H249.125V16.28H227.363V13.524ZM229.287 1.46H247.149V4.19H229.287V1.46ZM260.745 8.324H264.723V11.132H260.745V8.324ZM255.597 2.318H258.249V6.374C258.249 11.834 256.741 17.164 252.893 19.53L250.813 16.93C254.349 14.746 255.597 10.456 255.597 6.374V2.318ZM256.351 2.318H258.951V6.218C258.951 10.144 259.965 14.148 263.241 16.28L261.369 18.984C257.547 16.618 256.351 11.418 256.351 6.218V2.318ZM268.649 0.238H271.951V24.314H268.649V0.238ZM263.761 0.602H266.985V23.222H263.761V0.602ZM279.983 12.458H283.415V19.218H279.983V12.458ZM288.719 12.458H292.177V19.218H288.719V12.458ZM275.199 18.724H296.987V21.532H275.199V18.724ZM286.067 1.408C291.241 1.408 295.063 3.956 295.063 7.882C295.063 11.808 291.241 14.33 286.067 14.33C280.867 14.33 277.071 11.808 277.071 7.882C277.071 3.956 280.867 1.408 286.067 1.408ZM286.067 4.112C282.713 4.112 280.477 5.49 280.477 7.882C280.477 10.248 282.713 11.652 286.067 11.652C289.421 11.652 291.657 10.248 291.657 7.882C291.657 5.49 289.421 4.112 286.067 4.112ZM301.919 22.2401C301.31 22.2401 300.787 22.0246 300.35 21.5938C299.919 21.1567 299.703 20.6335 299.703 20.0241C299.703 19.4209 299.919 18.9039 300.35 18.473C300.787 18.0421 301.31 17.8267 301.919 17.8267C302.51 17.8267 303.027 18.0421 303.471 18.473C303.914 18.9039 304.135 19.4209 304.135 20.0241C304.135 20.4304 304.031 20.8028 303.821 21.1413C303.618 21.4737 303.35 21.7415 303.018 21.9446C302.686 22.1416 302.319 22.2401 301.919 22.2401Z" fill="black"/>
</svg>
