<svg width="328" height="24" viewBox="0 0 328 24" fill="none" xmlns="http://www.w3.org/2000/svg">
<path d="M1.248 1.952H12.864V4.352H8.616C8.64 6.872 10.128 9.296 13.512 10.304L12.096 12.656C9.72 11.936 8.112 10.496 7.176 8.648C6.216 10.808 4.512 12.536 1.968 13.376L0.48 11.024C3.984 9.872 5.568 7.088 5.592 4.352H1.248V1.952ZM3.384 17.84C3.384 15.248 6.168 13.688 10.632 13.688C15.096 13.688 17.904 15.248 17.904 17.84C17.904 20.456 15.096 22.04 10.632 22.04C6.168 22.04 3.384 20.456 3.384 17.84ZM6.336 17.84C6.336 19.088 7.872 19.712 10.632 19.712C13.44 19.712 14.952 19.088 14.952 17.84C14.952 16.592 13.44 16.016 10.632 16.016C7.872 16.016 6.336 16.592 6.336 17.84ZM14.664 13.28V0.511999H17.664V5.504H20.544V7.952H17.664V13.28H14.664ZM21.7206 17.048H29.8566V12.224H32.8326V17.048H41.2086V19.496H21.7206V17.048ZM22.2246 10.4C27.0006 9.608 29.7606 6.32 29.7606 3.296V1.712H32.9286V3.296C32.9286 6.392 35.7126 9.608 40.5366 10.4L39.2886 12.872C35.5206 12.176 32.7606 10.136 31.3686 7.448C29.9526 10.136 27.1926 12.176 23.4486 12.872L22.2246 10.4ZM46.6331 17.648L44.8331 23.6H42.7211L43.6811 17.648H46.6331ZM60.8214 2.168H63.8454V5.384C63.8454 9.368 65.6214 13.304 69.2454 14.864L67.4934 17.288C65.0454 16.136 63.3414 13.976 62.3814 11.312C61.4214 14.216 59.6694 16.544 57.0774 17.768L55.2774 15.32C58.9734 13.688 60.8214 9.56 60.8214 5.384V2.168ZM70.3734 22.064V0.464H73.3734V22.064H70.3734ZM90.414 0.511999H93.39V6.56H96.27V9.008H93.39V15.944H90.414V0.511999ZM76.35 11.48C81.15 10.112 83.91 7.568 84.342 4.496H77.286V2.12H87.582C87.582 7.952 83.982 11.96 77.598 13.832L76.35 11.48ZM79.542 21.632V14.36H82.518V19.232H94.134V21.632H79.542ZM103.026 10.376H122.466V12.8H103.026V10.376ZM105.234 18.08C105.234 15.56 108.042 14.12 112.674 14.12C117.33 14.12 120.138 15.56 120.138 18.08C120.138 20.6 117.33 22.016 112.674 22.016C108.042 22.016 105.234 20.6 105.234 18.08ZM105.378 8.84V1.088H120.138V3.488H108.354V6.488H120.258V8.84H105.378ZM108.234 18.08C108.234 19.208 109.77 19.736 112.674 19.736C115.602 19.736 117.114 19.208 117.114 18.08C117.114 16.928 115.602 16.376 112.674 16.376C109.77 16.376 108.234 16.928 108.234 18.08ZM130.134 2.744H138.606V8.36H140.766V0.847999H143.574V21.032H140.766V10.76H138.606V16.616H130.134V2.744ZM132.918 14.288H135.822V5.072H132.918V14.288ZM145.134 22.016V0.487999H147.99V22.016H145.134ZM150.486 17.096H158.718V12.656H152.55V2.12H167.814V12.656H161.67V17.096H169.974V19.52H150.486V17.096ZM155.502 10.28H164.886V4.472H155.502V10.28ZM171.463 10.184H190.951V12.344H171.463V10.184ZM173.671 15.512V13.52H188.623V18.536H176.647V19.832H189.223V21.848H173.695V16.664H185.695V15.512H173.671ZM173.863 2.888V0.895998H188.575V5.912H176.839V7.112H188.959V9.128H173.887V4.04H185.623V2.888H173.863ZM198.475 1.784H210.091V4.16H205.843C205.867 6.704 207.379 9.272 210.787 10.4L209.275 12.728C206.923 11.96 205.291 10.424 204.355 8.48C203.419 10.592 201.715 12.272 199.219 13.088L197.683 10.784C201.211 9.632 202.795 6.872 202.819 4.16H198.475V1.784ZM200.563 16.808V14.408H214.891V22.04H211.891V16.808H200.563ZM211.891 13.472V0.511999H214.891V5.744H217.771V8.216H214.891V13.472H211.891ZM224.011 1.64H227.035V3.464C227.035 6.344 228.499 8.984 231.883 10.064L230.323 12.416C228.043 11.624 226.507 10.136 225.595 8.216C224.635 10.424 222.907 12.176 220.339 13.064L218.803 10.664C222.427 9.464 224.011 6.56 224.011 3.584V1.64ZM222.331 17.84C222.331 15.224 225.139 13.664 229.675 13.664C234.211 13.664 237.019 15.224 237.019 17.84C237.019 20.48 234.211 22.04 229.675 22.04C225.139 22.04 222.331 20.48 222.331 17.84ZM225.283 17.84C225.283 19.088 226.819 19.712 229.675 19.712C232.531 19.712 234.043 19.088 234.043 17.84C234.043 16.592 232.531 15.992 229.675 15.992C226.819 15.992 225.283 16.592 225.283 17.84ZM229.963 6.896V4.472H233.947V0.511999H236.947V13.112H233.947V6.896H229.963ZM239.924 3.776H243.644V1.088H246.596V3.776H250.244V6.152H239.924V3.776ZM240.404 12.248C240.404 9.272 242.396 7.16 245.108 7.16C247.868 7.16 249.836 9.272 249.836 12.248C249.836 15.272 247.868 17.336 245.108 17.336C242.396 17.336 240.404 15.272 240.404 12.248ZM243.044 12.248C243.044 13.928 243.908 14.888 245.108 14.888C246.332 14.888 247.172 13.928 247.172 12.248C247.172 10.64 246.332 9.656 245.108 9.656C243.908 9.656 243.044 10.64 243.044 12.248ZM251.036 21.08V0.92H253.82V9.272H255.572V0.487999H258.38V22.016H255.572V11.672H253.82V21.08H251.036ZM260.9 12.392H280.364V14.792H272.036V22.016H269.06V14.792H260.9V12.392ZM261.86 8.792C266.204 8.24 268.604 6.104 268.916 3.968H262.628V1.616H278.588V3.968H272.372C272.684 6.104 275.06 8.24 279.428 8.792L278.324 11.12C274.604 10.592 271.916 8.96 270.644 6.752C269.372 8.96 266.684 10.592 262.964 11.12L261.86 8.792ZM290.349 7.784H293.133V0.847999H295.917V21.032H293.133V10.208H290.349V7.784ZM281.517 15.464C284.661 13.544 285.837 9.728 285.837 6.056V2.384H288.741V5.912C288.741 9.392 289.701 13.016 292.629 14.888L291.021 17.24C289.173 16.088 287.997 14.216 287.301 12.008C286.557 14.456 285.285 16.496 283.317 17.696L281.517 15.464ZM297.525 22.016V0.487999H300.357V22.016H297.525ZM302.853 17.096H307.197V11.768C305.541 10.76 304.557 9.248 304.557 7.352C304.557 3.848 307.941 1.592 312.573 1.592C317.205 1.592 320.613 3.848 320.613 7.352C320.613 9.224 319.629 10.76 317.973 11.768V17.096H322.341V19.52H302.853V17.096ZM307.509 7.352C307.509 9.488 309.549 10.784 312.573 10.784C315.621 10.784 317.637 9.488 317.637 7.352C317.637 5.192 315.621 3.92 312.573 3.92C309.549 3.92 307.509 5.192 307.509 7.352ZM310.149 17.096H315.021V12.848C314.253 13.016 313.437 13.088 312.573 13.088C311.709 13.088 310.917 13.016 310.149 12.872V17.096ZM324.31 17.648H327.334V20.576H324.31V17.648Z" fill="#282828"/>
</svg>
