<svg width="32" height="13" viewBox="0 0 32 13" fill="none" xmlns="http://www.w3.org/2000/svg">
<path d="M4.656 1.592H6.336C6.336 4.544 4.452 6.548 1.14 7.4L0.54 6.152C3.264 5.468 4.656 4.052 4.656 2.384V1.592ZM1.176 1.592H5.688V2.84H1.176V1.592ZM8.112 0.956H9.72V7.148H8.112V0.956ZM2.364 7.616H9.72V11.948H2.364V7.616ZM8.148 8.876H3.936V10.688H8.148V8.876ZM11.5311 9.464H21.5871V10.772H11.5311V9.464ZM15.7071 6.992H17.2911V9.812H15.7071V6.992ZM15.6471 1.568H17.0391V2.372C17.0391 4.736 15.3231 6.824 12.4191 7.352L11.7591 6.02C14.2911 5.612 15.6471 3.908 15.6471 2.372V1.568ZM15.9591 1.568H17.3511V2.372C17.3511 3.944 18.7071 5.612 21.2511 6.02L20.5911 7.352C17.6751 6.812 15.9591 4.772 15.9591 2.372V1.568ZM27.4781 2.408H30.7661V3.68H27.4781V2.408ZM27.4781 4.868H30.7661V6.152H27.4781V4.868ZM25.6301 1.544C27.2861 1.544 28.5581 2.696 28.5581 4.268C28.5581 5.84 27.2861 6.992 25.6301 6.992C23.9621 6.992 22.6901 5.84 22.6901 4.268C22.6901 2.696 23.9621 1.544 25.6301 1.544ZM25.6301 2.9C24.8141 2.9 24.2141 3.392 24.2141 4.268C24.2141 5.132 24.8141 5.648 25.6301 5.648C26.4461 5.648 27.0461 5.132 27.0461 4.268C27.0461 3.392 26.4461 2.9 25.6301 2.9ZM30.2621 0.956H31.8581V7.46H30.2621V0.956ZM28.0901 7.688C30.4301 7.688 31.8941 8.504 31.8941 9.884C31.8941 11.264 30.4301 12.068 28.0901 12.068C25.7501 12.068 24.2861 11.264 24.2861 9.884C24.2861 8.504 25.7501 7.688 28.0901 7.688ZM28.0901 8.924C26.6381 8.924 25.8581 9.236 25.8581 9.884C25.8581 10.532 26.6381 10.844 28.0901 10.844C29.5541 10.844 30.3221 10.532 30.3221 9.884C30.3221 9.236 29.5541 8.924 28.0901 8.924Z" fill="black"/>
</svg>
