<svg width="72" height="19" viewBox="0 0 72 19" fill="none" xmlns="http://www.w3.org/2000/svg">
<path d="M5.5 11.52H8.16V14.52H5.5V11.52ZM13.6 0.26H16.26V18.78H13.6V0.26ZM1.22 15.7L0.9 13.56C4.26 13.54 8.74 13.54 12.64 13.02L12.82 14.94C8.8 15.68 4.5 15.7 1.22 15.7ZM1.26 2.3H12.4V4.38H1.26V2.3ZM6.82 5.12C9.56 5.12 11.46 6.52 11.46 8.58C11.46 10.66 9.56 12.06 6.82 12.06C4.12 12.06 2.22 10.66 2.22 8.58C2.22 6.52 4.12 5.12 6.82 5.12ZM6.82 7.12C5.62 7.12 4.76 7.64 4.76 8.58C4.76 9.54 5.62 10.06 6.82 10.06C8.06 10.06 8.92 9.54 8.92 8.58C8.92 7.64 8.06 7.12 6.82 7.12ZM5.5 0.339999H8.16V3.5H5.5V0.339999ZM24.0184 9.76H26.6784V13.82H24.0184V9.76ZM32.1384 0.26H34.7984V14.28H32.1384V0.26ZM21.4584 16.34H35.1984V18.46H21.4584V16.34ZM21.4584 12.96H24.1184V16.9H21.4584V12.96ZM19.4584 10.56L19.1384 8.44C22.5184 8.44 27.0384 8.4 30.9184 7.9L31.0784 9.8C27.1384 10.46 22.7984 10.56 19.4584 10.56ZM28.6384 11.02H32.7184V12.84H28.6384V11.02ZM25.0984 0.899999C27.7984 0.899999 29.6984 2.24 29.6984 4.2C29.6984 6.18 27.7984 7.5 25.0984 7.5C22.3784 7.5 20.4784 6.18 20.4784 4.2C20.4784 2.24 22.3784 0.899999 25.0984 0.899999ZM25.0984 2.84C23.8584 2.84 22.9984 3.3 22.9984 4.2C22.9984 5.1 23.8584 5.56 25.0984 5.56C26.3184 5.56 27.1784 5.1 27.1784 4.2C27.1784 3.3 26.3184 2.84 25.0984 2.84ZM49.4369 0.239999H52.1169V18.76H49.4369V0.239999ZM51.4169 7.32H54.6769V9.5H51.4169V7.32ZM44.5769 2.16H47.1769C47.1769 7.72 45.0569 12.48 38.8969 15.58L37.4169 13.56C42.2769 11.04 44.5769 7.64 44.5769 2.62V2.16ZM38.4369 2.16H45.9369V4.3H38.4369V2.16ZM68.7153 0.26H71.3953V10.22H68.7153V0.26ZM59.0753 11.02H61.6953V12.74H68.7553V11.02H71.3953V18.58H59.0753V11.02ZM61.6953 14.78V16.46H68.7553V14.78H61.6953ZM61.3153 1.02C64.1953 1.02 66.3353 2.84 66.3353 5.4C66.3353 7.96 64.1953 9.78 61.3153 9.78C58.4353 9.78 56.2753 7.96 56.2753 5.4C56.2753 2.84 58.4353 1.02 61.3153 1.02ZM61.3153 3.22C59.8953 3.22 58.8753 4.04 58.8753 5.4C58.8753 6.78 59.8953 7.58 61.3153 7.58C62.7153 7.58 63.7353 6.78 63.7353 5.4C63.7353 4.04 62.7153 3.22 61.3153 3.22Z" fill="black"/>
</svg>
