<svg width="32" height="13" viewBox="0 0 32 13" fill="none" xmlns="http://www.w3.org/2000/svg">
<path d="M7.632 0.956H9.228V7.616H7.632V0.956ZM8.784 3.656H10.704V4.964H8.784V3.656ZM1.812 8.108H9.228V12.068H7.632V9.38H1.812V8.108ZM0.804 1.652H2.388V3.116H4.56V1.652H6.144V7.052H0.804V1.652ZM2.388 4.34V5.804H4.56V4.34H2.388ZM11.5311 9.464H21.5871V10.772H11.5311V9.464ZM15.7071 6.992H17.2911V9.812H15.7071V6.992ZM15.6471 1.568H17.0391V2.372C17.0391 4.736 15.3231 6.824 12.4191 7.352L11.7591 6.02C14.2911 5.612 15.6471 3.908 15.6471 2.372V1.568ZM15.9591 1.568H17.3511V2.372C17.3511 3.944 18.7071 5.612 21.2511 6.02L20.5911 7.352C17.6751 6.812 15.9591 4.772 15.9591 2.372V1.568ZM28.5821 3.644H30.6941V4.94H28.5821V3.644ZM30.2621 0.956H31.8581V7.556H30.2621V0.956ZM28.0901 7.796C30.4421 7.796 31.8941 8.6 31.8941 9.944C31.8941 11.3 30.4421 12.08 28.0901 12.08C25.7381 12.08 24.2861 11.3 24.2861 9.944C24.2861 8.6 25.7381 7.796 28.0901 7.796ZM28.0901 9.008C26.6501 9.008 25.8821 9.308 25.8821 9.944C25.8821 10.568 26.6501 10.868 28.0901 10.868C29.5421 10.868 30.3101 10.568 30.3101 9.944C30.3101 9.308 29.5421 9.008 28.0901 9.008ZM25.1261 2.072H26.4221V2.768C26.4221 4.892 25.4381 6.836 23.3141 7.556L22.4981 6.296C24.3341 5.672 25.1261 4.196 25.1261 2.768V2.072ZM25.4621 2.072H26.7461V2.768C26.7461 4.076 27.5021 5.432 29.2541 6.02L28.4741 7.28C26.4101 6.596 25.4621 4.748 25.4621 2.768V2.072ZM22.9301 1.628H28.9061V2.9H22.9301V1.628Z" fill="black"/>
</svg>
