<svg width="156" height="60" viewBox="0 0 156 60" fill="none" xmlns="http://www.w3.org/2000/svg">
<path d="M12.61 1.084C13.8753 1.084 15.054 1.188 16.146 1.396C17.238 1.58667 18.174 1.90733 18.954 2.358C19.7513 2.79133 20.3753 3.36333 20.826 4.074C21.2767 4.78467 21.502 5.66 21.502 6.7C21.502 7.74 21.2593 8.624 20.774 9.352C20.306 10.0627 19.6647 10.6433 18.85 11.094C18.0527 11.5273 17.1167 11.8393 16.042 12.03C14.9673 12.2207 13.8233 12.316 12.61 12.316C11.3967 12.316 10.2527 12.2207 9.178 12.03C8.10333 11.8393 7.15867 11.5273 6.344 11.094C5.54667 10.6433 4.90533 10.0627 4.42 9.352C3.952 8.624 3.718 7.74 3.718 6.7C3.718 5.66 3.94333 4.78467 4.394 4.074C4.84467 3.36333 5.46 2.79133 6.24 2.358C7.03733 1.90733 7.97333 1.58667 9.048 1.396C10.14 1.188 11.3273 1.084 12.61 1.084ZM2.86 17.49C2.27067 17.49 1.81133 17.3427 1.482 17.048C1.15267 16.7533 0.988 16.3113 0.988 15.722C0.988 15.1327 1.15267 14.6907 1.482 14.396C1.81133 14.1013 2.27067 13.954 2.86 13.954H22.36C22.9493 13.954 23.4087 14.1013 23.738 14.396C24.0673 14.6907 24.232 15.1327 24.232 15.722C24.232 16.3113 24.0673 16.7533 23.738 17.048C23.4087 17.3427 22.9493 17.49 22.36 17.49H14.69V22.872C14.69 23.4267 14.508 23.8773 14.144 24.224C13.78 24.588 13.2687 24.77 12.61 24.77C11.9513 24.77 11.44 24.588 11.076 24.224C10.712 23.8773 10.53 23.4267 10.53 22.872V17.49H2.86ZM12.61 4.516C11.986 4.516 11.3793 4.55067 10.79 4.62C10.218 4.68933 9.70667 4.81067 9.256 4.984C8.80533 5.14 8.44133 5.35667 8.164 5.634C7.904 5.91133 7.774 6.26667 7.774 6.7C7.774 7.116 7.904 7.47133 8.164 7.766C8.44133 8.04333 8.80533 8.26867 9.256 8.442C9.70667 8.598 10.218 8.71067 10.79 8.78C11.3793 8.84933 11.986 8.884 12.61 8.884C13.234 8.884 13.832 8.84933 14.404 8.78C14.9933 8.71067 15.5133 8.598 15.964 8.442C16.4147 8.26867 16.77 8.04333 17.03 7.766C17.3073 7.47133 17.446 7.116 17.446 6.7C17.446 6.26667 17.3073 5.91133 17.03 5.634C16.77 5.35667 16.4147 5.14 15.964 4.984C15.5133 4.81067 14.9933 4.68933 14.404 4.62C13.832 4.55067 13.234 4.516 12.61 4.516ZM43.4649 2.54C43.4649 1.93333 43.6556 1.46533 44.0369 1.136C44.4356 0.806665 44.9382 0.641999 45.5449 0.641999C46.1516 0.641999 46.6456 0.806665 47.0269 1.136C47.4256 1.46533 47.6249 1.93333 47.6249 2.54V22.872C47.6249 23.4787 47.4256 23.9467 47.0269 24.276C46.6456 24.6053 46.1516 24.77 45.5449 24.77C44.9382 24.77 44.4356 24.6053 44.0369 24.276C43.6556 23.9467 43.4649 23.4787 43.4649 22.872V2.54ZM37.0169 1.786C38.7156 1.786 39.5649 2.62667 39.5649 4.308V9.17C39.5649 10.8513 38.7156 11.692 37.0169 11.692H31.8429C31.6002 11.692 31.4789 11.8133 31.4789 12.056V15.436C31.4789 15.6787 31.6002 15.8 31.8429 15.8H32.6489C33.3076 15.8 33.9142 15.7913 34.4689 15.774C35.0409 15.7567 35.5956 15.7307 36.1329 15.696C36.6702 15.644 37.1989 15.592 37.7189 15.54C38.2389 15.488 38.7762 15.4187 39.3309 15.332C39.8336 15.2627 40.2582 15.3233 40.6049 15.514C40.9689 15.6873 41.1942 16.0427 41.2809 16.58C41.3849 17.1173 41.2982 17.5593 41.0209 17.906C40.7436 18.2527 40.3536 18.4693 39.8509 18.556C38.6029 18.7467 37.3809 18.8853 36.1849 18.972C34.9889 19.0587 33.6889 19.102 32.2849 19.102H29.9969C28.2809 19.102 27.4229 18.2613 27.4229 16.58V10.964C27.4229 10.1147 27.6569 9.482 28.1249 9.066C28.5929 8.65 29.2516 8.442 30.1009 8.442H35.1709C35.3096 8.442 35.4049 8.416 35.4569 8.364C35.5089 8.312 35.5349 8.208 35.5349 8.052V5.478C35.5349 5.218 35.4136 5.088 35.1709 5.088H29.1909C28.6882 5.088 28.2636 4.94933 27.9169 4.672C27.5876 4.39467 27.4229 3.98733 27.4229 3.45C27.4229 2.89533 27.5876 2.47933 27.9169 2.202C28.2636 1.92467 28.6882 1.786 29.1909 1.786H37.0169ZM74.3917 2.54C74.3917 1.93333 74.5824 1.46533 74.9637 1.136C75.3624 0.806665 75.865 0.641999 76.4717 0.641999C77.0784 0.641999 77.5724 0.806665 77.9537 1.136C78.3524 1.46533 78.5517 1.93333 78.5517 2.54V8.702H80.3977C80.9524 8.702 81.3944 8.84933 81.7237 9.144C82.0704 9.43867 82.2437 9.88933 82.2437 10.496C82.2437 11.0853 82.0704 11.5273 81.7237 11.822C81.3944 12.1167 80.9524 12.264 80.3977 12.264H78.5517V22.872C78.5517 23.4787 78.3524 23.9467 77.9537 24.276C77.5724 24.6053 77.0784 24.77 76.4717 24.77C75.865 24.77 75.3624 24.6053 74.9637 24.276C74.5824 23.9467 74.3917 23.4787 74.3917 22.872V2.54ZM61.0797 5.348C60.525 5.348 60.0917 5.20067 59.7797 4.906C59.485 4.594 59.3377 4.16067 59.3377 3.606C59.3377 3.05133 59.485 2.62667 59.7797 2.332C60.0917 2.02 60.525 1.864 61.0797 1.864H68.6717C70.405 1.864 71.2717 2.70467 71.2717 4.386V5.816C71.2717 7.28933 71.029 8.676 70.5437 9.976C70.0757 11.276 69.4084 12.4807 68.5417 13.59C67.6924 14.6993 66.6697 15.7047 65.4737 16.606C64.2777 17.5073 62.969 18.296 61.5477 18.972C61.0624 19.1973 60.5597 19.2667 60.0397 19.18C59.537 19.0933 59.1384 18.7727 58.8437 18.218C58.601 17.7673 58.5404 17.2907 58.6617 16.788C58.8004 16.268 59.147 15.8607 59.7017 15.566C60.811 14.9767 61.8164 14.37 62.7177 13.746C63.6364 13.1047 64.4164 12.42 65.0577 11.692C65.7164 10.964 66.219 10.184 66.5657 9.352C66.9297 8.52 67.1117 7.61867 67.1117 6.648V5.946C67.1117 5.70333 67.077 5.54733 67.0077 5.478C66.9384 5.39133 66.7737 5.348 66.5137 5.348H61.0797ZM102.049 0.953999C102.621 0.953999 103.071 1.084 103.401 1.344C103.747 1.58667 103.921 1.994 103.921 2.566C103.921 3.138 103.747 3.554 103.401 3.814C103.071 4.05667 102.621 4.178 102.049 4.178H97.0826C97.1692 4.542 97.4032 4.88867 97.7846 5.218C98.1659 5.53 98.6339 5.82467 99.1886 6.102C99.7606 6.37933 100.376 6.63933 101.035 6.882C101.711 7.10733 102.387 7.324 103.063 7.532C103.583 7.688 103.938 7.95667 104.129 8.338C104.337 8.702 104.371 9.08333 104.233 9.482C103.938 10.4007 103.201 10.7473 102.023 10.522C101.381 10.4007 100.731 10.2273 100.073 10.002C99.4139 9.75933 98.7726 9.49933 98.1486 9.222C97.5419 8.94467 96.9612 8.65 96.4066 8.338C95.8692 8.026 95.4012 7.714 95.0026 7.402C94.6039 7.714 94.1272 8.026 93.5726 8.338C93.0352 8.65 92.4546 8.94467 91.8306 9.222C91.2239 9.49933 90.5912 9.75933 89.9326 10.002C89.2739 10.2273 88.6239 10.4007 87.9826 10.522C86.8039 10.7473 86.0672 10.4007 85.7726 9.482C85.6339 9.08333 85.6599 8.702 85.8506 8.338C86.0586 7.95667 86.4226 7.688 86.9426 7.532C87.6012 7.324 88.2686 7.10733 88.9446 6.882C89.6206 6.63933 90.2359 6.37933 90.7906 6.102C91.3452 5.82467 91.8132 5.53 92.1946 5.218C92.5759 4.88867 92.8099 4.542 92.8966 4.178H87.9566C87.3846 4.178 86.9252 4.05667 86.5786 3.814C86.2492 3.554 86.0846 3.138 86.0846 2.566C86.0846 1.994 86.2492 1.58667 86.5786 1.344C86.9252 1.084 87.3846 0.953999 87.9566 0.953999H102.049ZM85.2786 15.228C84.6892 15.228 84.2212 15.1153 83.8746 14.89C83.5452 14.6647 83.3806 14.2573 83.3806 13.668C83.3806 13.0787 83.5452 12.6713 83.8746 12.446C84.2212 12.2033 84.6892 12.082 85.2786 12.082H93.0006V10.548C93.0006 9.95867 93.1826 9.54267 93.5466 9.3C93.9279 9.05733 94.4132 8.936 95.0026 8.936C95.5919 8.936 96.0686 9.05733 96.4326 9.3C96.8139 9.54267 97.0046 9.95867 97.0046 10.548V12.082H104.727C105.316 12.082 105.775 12.2033 106.105 12.446C106.451 12.6713 106.625 13.0787 106.625 13.668C106.625 14.2573 106.451 14.6647 106.105 14.89C105.775 15.1153 105.316 15.228 104.727 15.228H85.2786ZM87.7226 19.778C87.1332 19.778 86.6739 19.6567 86.3446 19.414C86.0152 19.1713 85.8506 18.7553 85.8506 18.166C85.8506 17.5767 86.0152 17.1607 86.3446 16.918C86.6739 16.658 87.1332 16.528 87.7226 16.528H101.737C102.603 16.528 103.201 16.684 103.531 16.996C103.86 17.308 104.025 17.8887 104.025 18.738V23.002C104.025 23.47 103.851 23.8773 103.505 24.224C103.175 24.588 102.655 24.77 101.945 24.77C101.234 24.77 100.705 24.588 100.359 24.224C100.029 23.8773 99.8646 23.47 99.8646 23.002V20.09C99.8646 19.9687 99.8472 19.8907 99.8126 19.856C99.7952 19.804 99.7172 19.778 99.5786 19.778H87.7226ZM121.905 10.964C121.905 12.6453 121.047 13.486 119.331 13.486H111.999C110.283 13.486 109.425 12.6453 109.425 10.964V3.71C109.425 2.02867 110.283 1.188 111.999 1.188H119.331C121.047 1.188 121.905 2.02867 121.905 3.71V10.964ZM114.443 15.462C115.05 15.462 115.553 15.6353 115.951 15.982C116.35 16.3287 116.549 16.814 116.549 17.438V20.61C116.549 20.8007 116.575 20.922 116.627 20.974C116.679 21.026 116.801 21.052 116.991 21.052H127.807C128.362 21.052 128.795 21.1993 129.107 21.494C129.419 21.7887 129.575 22.2133 129.575 22.768C129.575 23.3227 129.419 23.7473 129.107 24.042C128.795 24.3367 128.362 24.484 127.807 24.484H114.703C113.854 24.484 113.247 24.3107 112.883 23.964C112.519 23.6173 112.337 23.028 112.337 22.196V17.438C112.337 16.814 112.537 16.3287 112.935 15.982C113.334 15.6353 113.837 15.462 114.443 15.462ZM124.765 2.514C124.765 1.90733 124.956 1.448 125.337 1.136C125.736 0.806665 126.239 0.641999 126.845 0.641999C127.452 0.641999 127.946 0.806665 128.327 1.136C128.726 1.448 128.925 1.90733 128.925 2.514V6.102H130.719C131.274 6.102 131.725 6.24067 132.071 6.518C132.418 6.79533 132.591 7.22867 132.591 7.818C132.591 8.40733 132.418 8.84067 132.071 9.118C131.725 9.39533 131.274 9.534 130.719 9.534H128.925V15.41C128.925 16.0167 128.726 16.4847 128.327 16.814C127.946 17.1433 127.452 17.308 126.845 17.308C126.239 17.308 125.736 17.1433 125.337 16.814C124.956 16.4847 124.765 16.0167 124.765 15.41V2.514ZM117.901 4.776C117.901 4.53333 117.78 4.412 117.537 4.412H113.793C113.551 4.412 113.429 4.53333 113.429 4.776V9.872C113.429 10.1147 113.551 10.236 113.793 10.236H117.537C117.78 10.236 117.901 10.1147 117.901 9.872V4.776ZM151.174 2.566C151.174 1.942 151.348 1.46533 151.694 1.136C152.058 0.806665 152.544 0.641999 153.15 0.641999C153.774 0.641999 154.26 0.806665 154.606 1.136C154.97 1.46533 155.152 1.942 155.152 2.566V22.846C155.152 23.47 154.97 23.9467 154.606 24.276C154.26 24.6053 153.774 24.77 153.15 24.77C152.544 24.77 152.058 24.6053 151.694 24.276C151.348 23.9467 151.174 23.47 151.174 22.846V2.566ZM141.84 16.684C142.967 16.684 144.042 16.658 145.064 16.606C146.087 16.5367 147.162 16.4327 148.288 16.294C148.791 16.2247 149.207 16.3113 149.536 16.554C149.866 16.7793 150.074 17.1173 150.16 17.568C150.247 17.984 150.195 18.4 150.004 18.816C149.814 19.2147 149.493 19.4747 149.042 19.596C148.522 19.7347 147.942 19.8387 147.3 19.908C146.676 19.9773 146.035 20.038 145.376 20.09C144.718 20.1247 144.059 20.1507 143.4 20.168C142.759 20.168 142.161 20.168 141.606 20.168H135.834C135.28 20.168 134.838 20.0207 134.508 19.726C134.179 19.414 134.014 18.9807 134.014 18.426C134.014 17.8713 134.179 17.4467 134.508 17.152C134.838 16.84 135.28 16.684 135.834 16.684H141.84ZM139.318 7.402C139.318 8.19933 139.57 8.84067 140.072 9.326C140.575 9.81133 141.225 10.054 142.022 10.054C142.82 10.054 143.47 9.81133 143.972 9.326C144.475 8.84067 144.726 8.19933 144.726 7.402C144.726 6.60467 144.475 5.96333 143.972 5.478C143.47 4.99267 142.82 4.75 142.022 4.75C141.225 4.75 140.575 4.99267 140.072 5.478C139.57 5.96333 139.318 6.60467 139.318 7.402ZM135.236 7.402C135.236 6.44867 135.41 5.59933 135.756 4.854C136.103 4.09133 136.58 3.45 137.186 2.93C137.81 2.41 138.53 2.02 139.344 1.76C140.176 1.48267 141.069 1.344 142.022 1.344C142.976 1.344 143.86 1.48267 144.674 1.76C145.506 2.02 146.226 2.41 146.832 2.93C147.456 3.45 147.942 4.09133 148.288 4.854C148.635 5.59933 148.808 6.44867 148.808 7.402C148.808 8.35533 148.635 9.21333 148.288 9.976C147.942 10.7213 147.456 11.354 146.832 11.874C146.226 12.394 145.506 12.7927 144.674 13.07C143.86 13.33 142.976 13.46 142.022 13.46C141.069 13.46 140.176 13.33 139.344 13.07C138.53 12.7927 137.81 12.394 137.186 11.874C136.58 11.354 136.103 10.7213 135.756 9.976C135.41 9.21333 135.236 8.35533 135.236 7.402ZM21.918 56.872C21.918 57.4787 21.7447 57.9467 21.398 58.276C21.0513 58.6053 20.5747 58.77 19.968 58.77C19.3613 58.77 18.8847 58.6053 18.538 58.276C18.1913 57.9467 18.018 57.4787 18.018 56.872V36.462C18.018 35.8553 18.1913 35.4047 18.538 35.11C18.8847 34.798 19.3613 34.642 19.968 34.642C20.5747 34.642 21.0513 34.8067 21.398 35.136C21.7447 35.4653 21.918 35.9333 21.918 36.54V41.948H23.634C24.1887 41.948 24.6307 42.0953 24.96 42.39C25.3067 42.6847 25.48 43.1353 25.48 43.742C25.48 44.3313 25.3067 44.7733 24.96 45.068C24.6307 45.3627 24.1887 45.51 23.634 45.51H21.918V56.872ZM13.39 39.296C13.1993 39.296 13.0867 39.3133 13.052 39.348C13.0173 39.3827 13 39.4953 13 39.686V48.5C13 48.6733 13.0173 48.7773 13.052 48.812C13.104 48.8467 13.2167 48.864 13.39 48.864H13.78C14.1093 48.864 14.4127 48.8467 14.69 48.812C14.9847 48.76 15.314 48.7167 15.678 48.682C16.146 48.63 16.5273 48.6993 16.822 48.89C17.134 49.0807 17.3333 49.436 17.42 49.956C17.576 51.0653 17.1513 51.7413 16.146 51.984C15.9207 52.036 15.6607 52.088 15.366 52.14C15.0713 52.1747 14.768 52.2093 14.456 52.244C14.1613 52.2787 13.8667 52.3047 13.572 52.322C13.2773 52.3393 13.0173 52.348 12.792 52.348H11.648C10.764 52.348 10.1313 52.14 9.75 51.724C9.36867 51.2907 9.178 50.6493 9.178 49.8V38.178C9.178 37.346 9.334 36.7567 9.646 36.41C9.958 36.046 10.53 35.864 11.362 35.864H14.664C15.2187 35.864 15.6693 36.0113 16.016 36.306C16.3627 36.6007 16.536 37.0253 16.536 37.58C16.536 38.1347 16.3627 38.5593 16.016 38.854C15.6693 39.1487 15.2187 39.296 14.664 39.296H13.39ZM7.514 52.166C7.08067 52.2527 6.63867 52.322 6.188 52.374C5.75467 52.426 5.252 52.452 4.68 52.452H3.77C2.886 52.452 2.25333 52.2613 1.872 51.88C1.49067 51.4987 1.3 50.8833 1.3 50.034V38.282C1.3 37.4327 1.49067 36.8173 1.872 36.436C2.25333 36.0547 2.886 35.864 3.77 35.864H6.734C7.28867 35.864 7.71333 36.0113 8.008 36.306C8.32 36.6007 8.476 37.0253 8.476 37.58C8.476 38.1347 8.32 38.5593 8.008 38.854C7.71333 39.1487 7.28867 39.296 6.734 39.296H5.382C5.20867 39.296 5.10467 39.322 5.07 39.374C5.03533 39.4087 5.018 39.5127 5.018 39.686V48.604C5.018 48.7773 5.03533 48.89 5.07 48.942C5.10467 48.9767 5.20867 48.994 5.382 48.994H5.798C6.04067 48.994 6.25733 48.994 6.448 48.994C6.63867 48.9767 6.838 48.9507 7.046 48.916C7.514 48.8467 7.89533 48.89 8.19 49.046C8.502 49.1847 8.70133 49.514 8.788 50.034C8.87467 50.5887 8.80533 51.0567 8.58 51.438C8.372 51.8193 8.01667 52.062 7.514 52.166ZM35.7882 40.96C36.2909 40.8907 36.6982 40.934 37.0102 41.09C37.3395 41.246 37.5389 41.584 37.6082 42.104C37.6775 42.6067 37.5822 43.014 37.3222 43.326C37.0795 43.638 36.6982 43.8373 36.1782 43.924C35.6235 44.0107 35.0949 44.08 34.5922 44.132C34.0895 44.1667 33.5609 44.184 33.0062 44.184H31.1862C30.3369 44.184 29.7302 44.0193 29.3662 43.69C29.0022 43.3433 28.8202 42.7453 28.8202 41.896V37.112C28.8202 36.332 28.9935 35.7773 29.3402 35.448C29.6869 35.1187 30.2502 34.954 31.0302 34.954H35.4762C35.9962 34.954 36.4122 35.084 36.7242 35.344C37.0535 35.5867 37.2182 35.968 37.2182 36.488C37.2182 37.008 37.0535 37.398 36.7242 37.658C36.4122 37.9007 35.9962 38.022 35.4762 38.022H32.8502C32.6769 38.022 32.5642 38.0393 32.5122 38.074C32.4775 38.1087 32.4602 38.2127 32.4602 38.386V40.7C32.4602 40.8733 32.4775 40.986 32.5122 41.038C32.5642 41.0727 32.6769 41.09 32.8502 41.09H33.9942C34.3235 41.09 34.6182 41.0813 34.8782 41.064C35.1555 41.0293 35.4589 40.9947 35.7882 40.96ZM40.4942 44.184C39.6449 44.184 39.0382 44.0193 38.6742 43.69C38.3102 43.3433 38.1282 42.7453 38.1282 41.896V37.112C38.1282 36.332 38.3015 35.7773 38.6482 35.448C38.9949 35.1187 39.5582 34.954 40.3382 34.954H45.3822C45.9022 34.954 46.3182 35.084 46.6302 35.344C46.9595 35.5867 47.1242 35.968 47.1242 36.488C47.1242 37.008 46.9595 37.398 46.6302 37.658C46.3182 37.9007 45.9022 38.022 45.3822 38.022H42.1582C41.9849 38.022 41.8722 38.0393 41.8202 38.074C41.7855 38.1087 41.7682 38.2127 41.7682 38.386V40.674C41.7682 40.8473 41.7855 40.96 41.8202 41.012C41.8722 41.0467 41.9849 41.064 42.1582 41.064H45.6422C46.1622 41.064 46.5782 41.194 46.8902 41.454C47.2195 41.714 47.3842 42.104 47.3842 42.624C47.3842 43.144 47.2195 43.534 46.8902 43.794C46.5782 44.054 46.1622 44.184 45.6422 44.184H40.4942ZM38.1022 55.52C37.6862 55.9187 37.1922 56.2913 36.6202 56.638C36.0482 57.002 35.4242 57.3227 34.7482 57.6C34.0895 57.8947 33.4049 58.1373 32.6942 58.328C32.0009 58.536 31.3162 58.6747 30.6402 58.744C30.1029 58.8133 29.6349 58.77 29.2362 58.614C28.8375 58.458 28.5775 58.1287 28.4562 57.626C28.3869 57.366 28.3695 57.1233 28.4042 56.898C28.4562 56.69 28.5429 56.4993 28.6642 56.326C28.7855 56.1527 28.9329 56.0053 29.1062 55.884C29.2969 55.7627 29.4962 55.6847 29.7042 55.65C30.4322 55.494 31.1689 55.2947 31.9142 55.052C32.6769 54.8267 33.3615 54.558 33.9682 54.246C34.5922 53.9167 35.0949 53.5527 35.4762 53.154C35.8575 52.7553 36.0482 52.3307 36.0482 51.88V51.464C36.0482 50.944 36.2215 50.5453 36.5682 50.268C36.9322 49.9733 37.4435 49.826 38.1022 49.826C38.7609 49.826 39.2635 49.9733 39.6102 50.268C39.9742 50.5453 40.1562 50.944 40.1562 51.464V51.88C40.1562 52.3307 40.3469 52.7553 40.7282 53.154C41.1095 53.5527 41.6035 53.9167 42.2102 54.246C42.8342 54.558 43.5189 54.8267 44.2642 55.052C45.0269 55.2947 45.7722 55.494 46.5002 55.65C46.9335 55.7367 47.2802 55.962 47.5402 56.326C47.8002 56.69 47.8695 57.1233 47.7482 57.626C47.6269 58.1287 47.3669 58.458 46.9682 58.614C46.5695 58.77 46.1015 58.8133 45.5642 58.744C44.8882 58.6747 44.1949 58.536 43.4842 58.328C42.7909 58.1373 42.1062 57.8947 41.4302 57.6C40.7715 57.3227 40.1562 57.002 39.5842 56.638C39.0122 56.2913 38.5182 55.9187 38.1022 55.52ZM28.3782 48.994C27.7889 48.994 27.3209 48.89 26.9742 48.682C26.6449 48.4567 26.4802 48.0493 26.4802 47.46C26.4802 46.8707 26.6449 46.4633 26.9742 46.238C27.3209 46.0127 27.7889 45.9 28.3782 45.9H47.8262C48.4155 45.9 48.8749 46.0127 49.2042 46.238C49.5509 46.4633 49.7242 46.8707 49.7242 47.46C49.7242 48.0493 49.5509 48.4567 49.2042 48.682C48.8749 48.89 48.4155 48.994 47.8262 48.994H28.3782ZM52.8631 45.042C52.8631 44.262 53.0191 43.586 53.3311 43.014C53.6604 42.4247 54.1111 41.948 54.6831 41.584C55.2551 41.2027 55.9224 40.9167 56.6851 40.726C57.4651 40.5353 58.3057 40.44 59.2071 40.44C60.1084 40.44 60.9404 40.5353 61.7031 40.726C62.4831 40.9167 63.1591 41.2027 63.7311 41.584C64.3031 41.948 64.7451 42.4247 65.0571 43.014C65.3864 43.586 65.5511 44.262 65.5511 45.042C65.5511 45.822 65.3864 46.5067 65.0571 47.096C64.7451 47.668 64.3031 48.1447 63.7311 48.526C63.1591 48.89 62.4831 49.1673 61.7031 49.358C60.9404 49.5487 60.1084 49.644 59.2071 49.644C58.3057 49.644 57.4651 49.5487 56.6851 49.358C55.9224 49.1673 55.2551 48.89 54.6831 48.526C54.1111 48.1447 53.6604 47.668 53.3311 47.096C53.0191 46.5067 52.8631 45.822 52.8631 45.042ZM67.8651 36.514C67.8651 35.9073 68.0557 35.448 68.4371 35.136C68.8357 34.8067 69.3384 34.642 69.9451 34.642C70.5517 34.642 71.0457 34.8067 71.4271 35.136C71.8257 35.448 72.0251 35.9073 72.0251 36.514V41.402H73.8191C74.3737 41.402 74.8244 41.5407 75.1711 41.818C75.5177 42.0953 75.6911 42.5287 75.6911 43.118C75.6911 43.7073 75.5177 44.1407 75.1711 44.418C74.8244 44.6953 74.3737 44.834 73.8191 44.834H72.0251V50.19C72.0251 50.7967 71.8257 51.2647 71.4271 51.594C71.0457 51.9233 70.5517 52.088 69.9451 52.088C69.3384 52.088 68.8357 51.9233 68.4371 51.594C68.0557 51.2647 67.8651 50.7967 67.8651 50.19V36.514ZM59.6491 54.61C59.6491 54.8007 59.6751 54.922 59.7271 54.974C59.7791 55.026 59.9004 55.052 60.0911 55.052H70.9071C71.4617 55.052 71.8951 55.1993 72.2071 55.494C72.5191 55.7887 72.6751 56.2133 72.6751 56.768C72.6751 57.3227 72.5191 57.7473 72.2071 58.042C71.8951 58.3367 71.4617 58.484 70.9071 58.484H57.7771C56.9277 58.484 56.3211 58.3107 55.9571 57.964C55.6104 57.6173 55.4371 57.028 55.4371 56.196V52.738C55.4371 52.114 55.6277 51.6287 56.0091 51.282C56.4077 50.9353 56.9191 50.762 57.5431 50.762C58.1671 50.762 58.6697 50.9353 59.0511 51.282C59.4497 51.6287 59.6491 52.114 59.6491 52.738V54.61ZM53.4871 39.712C52.8977 39.712 52.4297 39.5993 52.0831 39.374C51.7537 39.1313 51.5891 38.7153 51.5891 38.126C51.5891 37.5367 51.7537 37.1293 52.0831 36.904C52.4297 36.6613 52.8977 36.54 53.4871 36.54H57.2571V35.526C57.2571 34.9367 57.4304 34.4947 57.7771 34.2C58.1411 33.888 58.6177 33.732 59.2071 33.732C59.7964 33.732 60.2644 33.888 60.6111 34.2C60.9751 34.4947 61.1571 34.9367 61.1571 35.526V36.54H64.6671C65.2564 36.54 65.7157 36.6613 66.0451 36.904C66.3917 37.1293 66.5651 37.5367 66.5651 38.126C66.5651 38.7153 66.3917 39.1313 66.0451 39.374C65.7157 39.5993 65.2564 39.712 64.6671 39.712H53.4871ZM61.5731 45.042C61.5731 44.7647 61.5037 44.522 61.3651 44.314C61.2264 44.106 61.0444 43.9413 60.8191 43.82C60.6111 43.6813 60.3597 43.586 60.0651 43.534C59.7877 43.4647 59.5017 43.43 59.2071 43.43C58.9124 43.43 58.6177 43.4647 58.3231 43.534C58.0457 43.586 57.7944 43.6813 57.5691 43.82C57.3611 43.9413 57.1877 44.106 57.0491 44.314C56.9104 44.522 56.8411 44.7647 56.8411 45.042C56.8411 45.3193 56.9104 45.562 57.0491 45.77C57.1877 45.978 57.3611 46.1513 57.5691 46.29C57.7944 46.4113 58.0457 46.5067 58.3231 46.576C58.6177 46.628 58.9124 46.654 59.2071 46.654C59.5017 46.654 59.7877 46.628 60.0651 46.576C60.3597 46.5067 60.6111 46.4113 60.8191 46.29C61.0444 46.1513 61.2264 45.978 61.3651 45.77C61.5037 45.562 61.5731 45.3193 61.5731 45.042ZM95.5358 49.436C96.8358 49.436 98.0318 49.5313 99.1238 49.722C100.216 49.8953 101.152 50.1813 101.932 50.58C102.712 50.9613 103.318 51.4553 103.752 52.062C104.202 52.6513 104.428 53.3707 104.428 54.22C104.428 55.0693 104.202 55.7973 103.752 56.404C103.301 57.0107 102.677 57.5047 101.88 57.886C101.082 58.2847 100.138 58.5707 99.0458 58.744C97.9711 58.9347 96.8011 59.03 95.5358 59.03C94.2704 59.03 93.0918 58.9347 91.9998 58.744C90.9251 58.5707 89.9891 58.2847 89.1918 57.886C88.3944 57.5047 87.7704 57.0107 87.3198 56.404C86.8691 55.7973 86.6438 55.0693 86.6438 54.22C86.6438 53.3707 86.8604 52.6513 87.2938 52.062C87.7444 51.4553 88.3598 50.9613 89.1398 50.58C89.9198 50.1813 90.8558 49.8953 91.9478 49.722C93.0398 49.5313 94.2358 49.436 95.5358 49.436ZM105.26 44.886C105.849 44.886 106.308 45.0073 106.638 45.25C106.984 45.4927 107.158 45.9087 107.158 46.498C107.158 47.0873 106.984 47.5033 106.638 47.746C106.308 47.9887 105.849 48.11 105.26 48.11H85.8118C85.2224 48.11 84.7544 47.9887 84.4078 47.746C84.0784 47.5033 83.9138 47.0873 83.9138 46.498C83.9138 45.9087 84.0784 45.4927 84.4078 45.25C84.7544 45.0073 85.2224 44.886 85.8118 44.886H91.8178V42.26C91.8178 41.636 92.0084 41.168 92.3898 40.856C92.7711 40.544 93.2738 40.388 93.8978 40.388C94.5218 40.388 95.0244 40.544 95.4058 40.856C95.7871 41.168 95.9778 41.636 95.9778 42.26V44.886H105.26ZM88.9318 38.178C88.3424 38.178 87.8744 38.0567 87.5278 37.814C87.1984 37.5713 87.0338 37.1553 87.0338 36.566C87.0338 35.9767 87.1984 35.5607 87.5278 35.318C87.8744 35.0753 88.3424 34.954 88.9318 34.954H101.542C102.426 34.954 103.058 35.1447 103.44 35.526C103.838 35.9073 104.038 36.4533 104.038 37.164V38.568C104.038 38.776 104.029 39.0273 104.012 39.322C103.994 39.5993 103.968 39.894 103.934 40.206C103.916 40.518 103.89 40.8213 103.856 41.116C103.821 41.4107 103.786 41.6707 103.752 41.896C103.665 42.364 103.422 42.754 103.024 43.066C102.625 43.378 102.096 43.4993 101.438 43.43C100.779 43.3607 100.328 43.1527 100.086 42.806C99.8431 42.442 99.7478 42.026 99.7998 41.558C99.8344 41.2113 99.8691 40.83 99.9038 40.414C99.9558 39.998 99.9818 39.6427 99.9818 39.348V38.594C99.9818 38.4033 99.9471 38.2907 99.8778 38.256C99.8258 38.204 99.7044 38.178 99.5138 38.178H88.9318ZM95.5358 52.634C94.1318 52.634 92.9791 52.764 92.0778 53.024C91.1938 53.2667 90.7518 53.6653 90.7518 54.22C90.7518 54.7747 91.1938 55.1733 92.0778 55.416C92.9791 55.676 94.1318 55.806 95.5358 55.806C96.9398 55.806 98.0838 55.676 98.9678 55.416C99.8691 55.1733 100.32 54.7747 100.32 54.22C100.32 53.6653 99.8691 53.2667 98.9678 53.024C98.0838 52.764 96.9398 52.634 95.5358 52.634ZM122.309 38.672C122.309 39.92 122.057 41.1073 121.555 42.234C121.069 43.3433 120.376 44.3573 119.475 45.276C118.591 46.1773 117.525 46.9573 116.277 47.616C115.046 48.2747 113.685 48.7687 112.195 49.098C111.675 49.2193 111.198 49.1933 110.765 49.02C110.331 48.8293 110.045 48.4653 109.907 47.928C109.751 47.3907 109.794 46.94 110.037 46.576C110.279 46.212 110.669 45.9607 111.207 45.822C112.229 45.562 113.174 45.2067 114.041 44.756C114.925 44.288 115.679 43.7593 116.303 43.17C116.944 42.5807 117.447 41.948 117.811 41.272C118.175 40.596 118.357 39.9113 118.357 39.218V38.932C118.357 38.7413 118.322 38.6113 118.253 38.542C118.201 38.4553 118.079 38.412 117.889 38.412H112.013C111.458 38.412 111.016 38.282 110.687 38.022C110.375 37.762 110.219 37.3547 110.219 36.8C110.219 36.2453 110.375 35.838 110.687 35.578C111.016 35.318 111.458 35.188 112.013 35.188H119.995C120.792 35.188 121.373 35.37 121.737 35.734C122.118 36.0807 122.309 36.5747 122.309 37.216V38.672ZM114.977 49.462C115.583 49.462 116.086 49.6353 116.485 49.982C116.883 50.3287 117.083 50.814 117.083 51.438V54.61C117.083 54.8007 117.109 54.922 117.161 54.974C117.213 55.026 117.334 55.052 117.525 55.052H128.341C128.895 55.052 129.329 55.1993 129.641 55.494C129.953 55.7887 130.109 56.2133 130.109 56.768C130.109 57.3227 129.953 57.7473 129.641 58.042C129.329 58.3367 128.895 58.484 128.341 58.484H115.237C114.387 58.484 113.781 58.3107 113.417 57.964C113.053 57.6173 112.871 57.028 112.871 56.196V51.438C112.871 50.814 113.07 50.3287 113.469 49.982C113.867 49.6353 114.37 49.462 114.977 49.462ZM125.299 36.514C125.299 35.9073 125.489 35.448 125.871 35.136C126.269 34.8067 126.772 34.642 127.379 34.642C127.985 34.642 128.479 34.8067 128.861 35.136C129.259 35.448 129.459 35.9073 129.459 36.514V40.102H131.253C131.807 40.102 132.258 40.2407 132.605 40.518C132.951 40.7953 133.125 41.2287 133.125 41.818C133.125 42.4073 132.951 42.8407 132.605 43.118C132.258 43.3953 131.807 43.534 131.253 43.534H129.459V49.41C129.459 50.0167 129.259 50.4847 128.861 50.814C128.479 51.1433 127.985 51.308 127.379 51.308C126.772 51.308 126.269 51.1433 125.871 50.814C125.489 50.4847 125.299 50.0167 125.299 49.41V36.514ZM135.25 53.544C135.388 52.92 135.674 52.478 136.108 52.218C136.541 51.9407 137.07 51.88 137.694 52.036C138.942 52.348 139.418 53.1367 139.124 54.402L138.448 57.288C138.309 57.912 138.023 58.354 137.59 58.614C137.156 58.874 136.619 58.926 135.978 58.77C135.354 58.614 134.938 58.328 134.73 57.912C134.522 57.5133 134.487 57.002 134.626 56.378L135.25 53.544Z" fill="#415DE9"/>
</svg>
