<svg width="34" height="19" viewBox="0 0 34 19" fill="none" xmlns="http://www.w3.org/2000/svg">
<path d="M13.52 0.759999H15.88V9.92H13.52V6.32H12.04V9.78H9.72V1.1H12.04V4.36H13.52V0.759999ZM0.7 5.54C0.7 3.16 2.4 1.56 4.8 1.56C7.18 1.56 8.88 3.16 8.88 5.54C8.88 7.88 7.18 9.52 4.8 9.52C2.4 9.52 0.7 7.88 0.7 5.54ZM2.94 5.54C2.94 6.78 3.68 7.56 4.8 7.56C5.88 7.56 6.64 6.78 6.64 5.54C6.64 4.24 5.88 3.5 4.8 3.5C3.68 3.5 2.94 4.24 2.94 5.54ZM3.74 12.54V10.6H15.88V15.38H6.26V16.54H16.48V18.48H3.76V13.56H13.42V12.54H3.74ZM18.8805 1.78H21.3405V4.2H24.8805V1.78H27.3205V5.02H30.6005V0.759999H33.0805V11.14H30.6005V7H27.3205V10.34H18.8805V1.78ZM21.1605 18.48V11.88H33.0805V18.48H21.1605ZM21.3405 8.4H24.8805V6.1H21.3405V8.4ZM23.6005 16.52H30.6605V13.82H23.6005V16.52Z" fill="black"/>
</svg>
