<svg width="24" height="24" viewBox="0 0 24 24" fill="none" xmlns="http://www.w3.org/2000/svg">
<path d="M15.125 21.1004L6.7 12.7004C6.6 12.6004 6.529 12.4921 6.487 12.3754C6.445 12.2587 6.42434 12.1337 6.425 12.0004C6.425 11.8671 6.44567 11.7421 6.487 11.6254C6.52834 11.5087 6.59934 11.4004 6.7 11.3004L15.125 2.87539C15.3583 2.64206 15.65 2.52539 16 2.52539C16.35 2.52539 16.65 2.65039 16.9 2.90039C17.15 3.15039 17.275 3.44206 17.275 3.77539C17.275 4.10872 17.15 4.40039 16.9 4.65039L9.55 12.0004L16.9 19.3504C17.1333 19.5837 17.25 19.8714 17.25 20.2134C17.25 20.5554 17.125 20.8511 16.875 21.1004C16.625 21.3504 16.3333 21.4754 16 21.4754C15.6667 21.4754 15.375 21.3504 15.125 21.1004Z" fill="#1A1E27"/>
</svg>
