<svg width="375" height="64" viewBox="0 0 375 64" fill="none" xmlns="http://www.w3.org/2000/svg">
<rect x="0.5" y="0.5" width="374" height="63" fill="white"/>
<path d="M174.49 27.37H176.36V27.634C176.36 30.582 174.358 32.958 170.75 33.772L169.804 31.968C172.796 31.352 174.49 29.592 174.49 27.634V27.37ZM174.93 27.37H176.8V27.634C176.8 29.482 178.472 31.088 181.398 31.704L180.474 33.486C176.932 32.716 174.93 30.45 174.93 27.634V27.37ZM170.288 25.874H180.98V27.656H170.288V25.874ZM174.468 23.762H176.8V27.128H174.468V23.762ZM174.49 35.18H176.8V43.232H174.49V35.18ZM183.334 23.718H185.622V43.826H183.334V23.718ZM169.298 36.83L169.012 34.916C172.752 34.916 177.724 34.894 182.036 34.322L182.19 35.994C177.746 36.764 172.972 36.83 169.298 36.83ZM189.69 39.426H207.906V41.318H189.69V39.426ZM197.544 34.74H199.832V39.998H197.544V34.74ZM197.478 24.95H199.48V26.468C199.48 30.758 195.806 34.256 191.23 35.158L190.262 33.244C194.266 32.562 197.478 29.548 197.478 26.468V24.95ZM197.896 24.95H199.92V26.468C199.92 29.592 203.132 32.562 207.136 33.244L206.168 35.158C201.57 34.256 197.896 30.78 197.896 26.468V24.95Z" fill="#0085FF"/>
<rect x="0.5" y="0.5" width="374" height="63" stroke="black"/>
</svg>
