<svg width="307" height="26" viewBox="0 0 307 26" fill="none" xmlns="http://www.w3.org/2000/svg">
<line y1="25.75" x2="307" y2="25.75" stroke="#868686" stroke-width="0.5"/>
<path d="M1.184 4.304H6.592V5.504H2.624V9.504C4.384 9.488 5.68 9.408 7.184 9.088L7.312 10.304C5.616 10.624 4.192 10.688 2.096 10.688H1.184V4.304ZM2.336 16.032C4.96 15.632 7.056 14.064 7.056 12.272V11.776H8.512V12.272C8.512 14.064 10.608 15.632 13.216 16.032L12.624 17.168C10.496 16.8 8.64 15.728 7.776 14.224C6.912 15.728 5.072 16.8 2.944 17.168L2.336 16.032ZM8.016 11.216V3.376H9.408V6.736H11.104V3.104H12.512V12.432H11.104V7.936H9.408V11.216H8.016ZM16.1924 3.696H25.7604V4.624C25.7604 5.552 25.7604 6.752 25.4564 8.288H27.3604V9.472H14.5764V8.288H23.9844C24.2884 6.864 24.3204 5.776 24.3204 4.88H16.1924V3.696ZM16.0644 11.936V10.768H25.7764V14.448H17.5524V15.92H26.1284V17.072H16.1124V13.344H24.3204V11.936H16.0644ZM34.9288 3.36C38.0808 3.36 39.9368 4.208 39.9368 5.776C39.9368 7.36 38.0808 8.24 34.9288 8.24C31.7928 8.24 29.9528 7.36 29.9528 5.776C29.9528 4.208 31.7928 3.36 34.9288 3.36ZM28.5608 10.272V9.104H41.3288V10.272H28.5608ZM30.0807 12.48V11.392H39.7128V14.672H31.5688V15.952H40.1128V17.088H30.1288V13.616H38.2568V12.48H30.0807ZM31.4568 5.776C31.4568 6.656 32.7208 7.12 34.9288 7.12C37.1688 7.12 38.4168 6.656 38.4168 5.776C38.4168 4.928 37.1688 4.448 34.9288 4.448C32.7208 4.448 31.4568 4.928 31.4568 5.776ZM56.3606 3.12H57.8486V10.688H56.3606V3.12ZM46.5366 7.024C46.5366 5.12 48.1206 3.776 50.2486 3.776C52.3926 3.776 53.9766 5.12 53.9766 7.024C53.9766 8.976 52.3926 10.32 50.2486 10.32C48.1206 10.32 46.5366 8.976 46.5366 7.024ZM47.9766 7.024C47.9766 8.256 48.9366 9.072 50.2486 9.072C51.5926 9.072 52.5366 8.256 52.5366 7.024C52.5366 5.808 51.5926 4.992 50.2486 4.992C48.9366 4.992 47.9766 5.808 47.9766 7.024ZM48.6966 17.04V11.376H50.1366V13.008H56.3926V11.376H57.8486V17.04H48.6966ZM50.1366 15.872H56.3926V14.16H50.1366V15.872ZM60.777 3.952H66.889V8.064H62.265V10.048C64.729 10.048 66.041 9.984 67.625 9.696L67.769 10.88C66.057 11.2 64.633 11.248 61.817 11.248H60.793V6.928H65.433V5.152H60.777V3.952ZM62.393 13.712V12.544H71.897V17.264H70.409V13.712H62.393ZM67.801 9.312V8.128H70.409V6.368H67.801V5.184H70.409V3.12H71.897V11.808H70.409V9.312H67.801ZM83.6414 3.12H85.0974V8.848H87.3374V10.08H85.0974V17.248H83.6414V3.12ZM74.1214 6.528V5.328H77.5614V3.312H79.0654V5.328H82.4254V6.528H74.1214ZM74.8734 10.864C74.8734 8.944 76.3294 7.6 78.3134 7.6C80.3294 7.6 81.8014 8.944 81.8014 10.864C81.8014 12.8 80.3294 14.144 78.3134 14.144C76.3294 14.144 74.8734 12.8 74.8734 10.864ZM76.2654 10.864C76.2654 12.096 77.1454 12.928 78.3134 12.928C79.5134 12.928 80.4094 12.096 80.4094 10.864C80.4094 9.664 79.5134 8.816 78.3134 8.816C77.1454 8.816 76.2654 9.664 76.2654 10.864ZM93.7538 8.096H95.9458V3.408H97.3218V16.544H95.9458V9.296H93.7538V8.096ZM88.0098 13.152C89.9938 11.968 91.0338 9.456 91.0338 7.04V4.416H92.4738V6.976C92.4738 9.232 93.4178 11.648 95.2738 12.8L94.4578 13.952C93.1458 13.152 92.2498 11.728 91.7698 10.08C91.2578 11.872 90.2978 13.408 88.9378 14.256L88.0098 13.152ZM98.8258 17.232V3.104H100.234V17.232H98.8258ZM102.17 14.272H105.226V10.544C104.074 9.904 103.386 8.896 103.386 7.648C103.386 5.408 105.546 3.968 108.538 3.968C111.562 3.968 113.722 5.408 113.722 7.648C113.722 8.896 113.034 9.904 111.882 10.544V14.272H114.954V15.488H102.17V14.272ZM104.81 7.648C104.81 9.168 106.362 10.144 108.538 10.144C110.73 10.144 112.266 9.168 112.266 7.648C112.266 6.112 110.73 5.12 108.538 5.12C106.362 5.12 104.81 6.112 104.81 7.648ZM106.682 14.272H110.426V11.088C109.85 11.216 109.21 11.296 108.538 11.296C107.866 11.296 107.242 11.232 106.682 11.088V14.272ZM116.507 14.672H118.123V16.24H116.507V14.672Z" fill="#747474"/>
</svg>
