<svg width="370" height="158" viewBox="0 0 370 158" fill="none" xmlns="http://www.w3.org/2000/svg">
<g filter="url(#filter0_d_84_3798)">
<path d="M8 26C8 14.9543 16.9543 6 28 6H338C349.046 6 358 14.9543 358 26V124C358 135.046 349.046 144 338 144H28C16.9543 144 8 135.046 8 124V26Z" fill="white"/>
</g>
<circle cx="325.174" cy="25.1739" r="2.17391" fill="#878787"/>
<circle cx="333" cy="25.1739" r="2.17391" fill="#878787"/>
<circle cx="340.826" cy="25.1739" r="2.17391" fill="#878787"/>
<path d="M35.602 27.046V28.67L30.73 37.056L29.26 36.3L33.614 28.684H28.602V27.046H35.602ZM45.4431 25.632H47.1791V32.912H45.4431V32.506H43.2031V31.456H45.4431V25.632ZM36.6511 30.056C39.0731 30.056 42.0271 30.056 44.6871 29.804L44.7711 30.868C43.6791 31.036 42.5591 31.134 41.4531 31.19V32.926H39.7031V31.26C38.6951 31.288 37.7291 31.288 36.8331 31.288L36.6511 30.056ZM37.5051 27.704C37.5051 26.542 38.7511 25.814 40.6411 25.814C42.5031 25.814 43.7631 26.542 43.7631 27.704C43.7631 28.852 42.5031 29.566 40.6411 29.566C38.7511 29.566 37.5051 28.852 37.5051 27.704ZM38.4571 34.466V33.304H47.1791V36.202H40.1791V36.888H47.4871V38.092H38.4711V35.096H45.4571V34.466H38.4571ZM39.1291 27.704C39.1291 28.18 39.7031 28.432 40.6411 28.432C41.5511 28.432 42.1391 28.18 42.1391 27.704C42.1391 27.228 41.5511 26.962 40.6411 26.962C39.7031 26.962 39.1291 27.228 39.1291 27.704ZM55.936 26.892V37H54.298V28.726L52.828 29.454L52.156 27.998L54.298 26.892H55.936ZM57.6424 36.86V35.334L61.8984 31.344C62.0384 31.204 62.2064 31.008 62.2764 30.854C62.6544 30.028 62.3604 29.006 61.4504 28.614C60.5544 28.222 59.4204 28.586 59.1264 29.524L57.5864 29.216C58.1884 27.046 60.4564 26.472 62.0664 27.186C63.7184 27.844 64.4744 29.804 63.7324 31.512C63.5784 31.834 63.3264 32.226 62.9764 32.52L60.0504 35.25H64.1104V36.86H57.6424ZM68.685 25.996C70.603 25.996 72.017 27.186 72.017 28.866C72.017 30.518 70.603 31.722 68.685 31.722C66.767 31.722 65.339 30.518 65.339 28.866C65.339 27.186 66.767 25.996 68.685 25.996ZM67.033 28.866C67.033 29.776 67.733 30.322 68.685 30.322C69.623 30.322 70.351 29.776 70.351 28.866C70.351 27.956 69.623 27.424 68.685 27.424C67.733 27.424 67.033 27.956 67.033 28.866ZM67.215 33.794V32.436H75.559V35.838H68.951V36.678H75.881V38.036H67.243V34.578H73.851V33.794H67.215ZM73.809 31.932V25.632H75.559V31.932H73.809ZM81.6279 31.946C81.6279 29.818 82.2579 27.83 83.3499 26.094H85.0999C83.8679 27.802 83.1399 29.804 83.1399 31.946C83.1399 34.088 83.8679 36.09 85.0999 37.798H83.3499C82.2579 36.062 81.6279 34.074 81.6279 31.946ZM91.2038 25.996H93.0518V26.598C93.0518 28.082 94.5638 29.734 97.3778 30.112L96.7058 31.498C94.5358 31.162 92.9398 30.154 92.1278 28.782C91.3298 30.154 89.7338 31.162 87.5638 31.498L86.8778 30.112C89.7058 29.734 91.2038 28.096 91.2038 26.598V25.996ZM86.4438 33.878V32.45H97.7978V33.878H92.9398V38.19H91.2038V33.878H86.4438ZM102.628 31.946C102.628 34.074 101.998 36.062 100.906 37.798H99.1561C100.388 36.09 101.116 34.088 101.116 31.946C101.116 29.804 100.388 27.802 99.1561 26.094H100.906C101.998 27.83 102.628 29.818 102.628 31.946Z" fill="black"/>
<path d="M26.798 110.612H33.434V111.662H30.788V111.998C30.788 113.58 31.88 115.022 33.728 115.61L33.098 116.618C31.712 116.17 30.704 115.246 30.172 114.056C29.64 115.414 28.562 116.492 27.106 117.01L26.434 115.974C28.338 115.33 29.5 113.734 29.5 112.012V111.662H26.798V110.612ZM28.086 119.754C28.086 118.298 29.64 117.444 32.174 117.444C34.694 117.444 36.262 118.298 36.262 119.754C36.262 121.196 34.694 122.064 32.174 122.064C29.64 122.064 28.086 121.196 28.086 119.754ZM29.346 119.754C29.346 120.566 30.41 121.042 32.174 121.042C33.938 121.042 34.988 120.566 34.988 119.754C34.988 118.914 33.938 118.466 32.174 118.466C30.41 118.466 29.346 118.914 29.346 119.754ZM34.848 117.136V109.73H36.15V112.782H37.914V113.86H36.15V117.136H34.848ZM38.7543 119.46H43.6543V116.52H44.9283V119.46H49.9403V120.524H38.7543V119.46ZM39.1603 115.666C41.4843 115.26 43.6123 113.426 43.6123 111.466V110.514H44.9703V111.466C44.9703 113.44 47.1123 115.26 49.4643 115.666L48.9043 116.744C46.9163 116.338 45.1103 115.092 44.2983 113.384C43.4863 115.078 41.6663 116.324 39.6923 116.744L39.1603 115.666ZM55.0712 113.314H56.3872V114.588H55.0712V113.314ZM55.0712 118.9V117.626H56.3872V118.9H55.0712ZM61.7703 110.556H68.4063V111.606H65.7603V111.886C65.7603 113.468 66.8523 114.938 68.7143 115.554L68.0843 116.604C66.6983 116.128 65.6623 115.162 65.1303 113.944C64.5983 115.302 63.5343 116.352 62.0643 116.87L61.4063 115.834C63.3103 115.19 64.4583 113.608 64.4583 111.886V111.606H61.7703V110.556ZM63.3103 121.91V117.5H71.1363V121.91H63.3103ZM64.5703 120.888H69.8483V118.522H64.5703V120.888ZM69.8343 116.968V109.73H71.1363V112.726H72.9003V113.79H71.1363V116.968H69.8343ZM82.6027 109.73H83.8907V116.072H82.6027V109.73ZM73.8107 114.98C75.7147 114.336 76.8767 112.712 76.8767 110.99V110.066H78.1927V110.99C78.1927 112.656 79.3827 114.168 81.2587 114.77L80.6147 115.792C79.1727 115.302 78.1087 114.322 77.5487 113.048C77.0167 114.406 75.9107 115.498 74.4407 116.002L73.8107 114.98ZM75.8547 117.696V116.688H83.8907V119.754H77.1427V120.93H84.2967V121.952H75.8827V118.802H82.6307V117.696H75.8547ZM95.5595 112.236H98.1355V109.73H99.4235V117.038H98.1355V113.3H95.5595V112.236ZM89.2175 115.778C91.1215 115.092 92.2415 113.454 92.2415 111.62V110.346H93.5155V111.676C93.5155 113.328 94.6635 114.896 96.4695 115.54L95.7835 116.534C94.4395 116.044 93.4315 115.05 92.8995 113.818C92.3675 115.19 91.3175 116.268 89.8755 116.8L89.2175 115.778ZM91.1355 118.732V117.682H99.4235V122.092H98.1355V118.732H91.1355ZM101.44 116.506H106.382V114.952H107.656V116.506H112.612V117.542H101.44V116.506ZM102.056 114.56C104.478 114.336 106.172 113.356 106.312 112.054H102.574V111.032H106.382V109.73H107.656V111.032H111.478V112.054H107.74C107.88 113.356 109.56 114.336 111.982 114.56L111.562 115.554C109.476 115.344 107.782 114.574 107.012 113.37C106.256 114.574 104.562 115.344 102.476 115.554L102.056 114.56ZM102.868 121.826V118.438H104.142V120.762H111.352V121.826H102.868ZM114.208 111.48H118.618V109.912H119.892V111.48H124.274V112.516H114.208V111.48ZM113.676 120.692V119.642H118.618V118.004C116.476 117.864 115.174 117.01 115.174 115.624C115.174 114.154 116.728 113.272 119.248 113.272C121.74 113.272 123.322 114.154 123.322 115.624C123.322 116.996 122.006 117.85 119.892 118.004V119.642H124.862V120.692H113.676ZM116.49 115.624C116.49 116.506 117.512 116.982 119.248 116.982C120.984 116.982 122.006 116.506 122.006 115.624C122.006 114.784 120.984 114.28 119.248 114.28C117.512 114.28 116.49 114.784 116.49 115.624ZM130.827 110.15H132.171V110.808C132.171 112.446 134.187 114 136.567 114.35L136.049 115.372C134.061 115.05 132.311 114 131.513 112.544C130.715 114.014 128.965 115.05 126.963 115.372L126.445 114.35C128.853 114 130.827 112.474 130.827 110.808V110.15ZM125.913 117.668V116.604H137.085V117.668H132.101V122.092H130.827V117.668H125.913ZM150.293 109.73H151.595V116.66H150.293V115.232H147.227C146.653 115.834 145.785 116.198 144.777 116.198C142.915 116.198 141.571 115.008 141.571 113.3C141.571 111.606 142.915 110.416 144.777 110.416C145.785 110.416 146.639 110.766 147.213 111.368H150.293V109.73ZM142.803 113.3C142.803 114.392 143.629 115.134 144.777 115.134C145.883 115.134 146.709 114.392 146.709 113.3C146.709 112.222 145.883 111.494 144.777 111.494C143.629 111.494 142.803 112.222 142.803 113.3ZM143.223 121.896V120.846H145.057V118.256H143.349V117.22H151.693V118.256H149.985V120.846H151.833V121.896H143.223ZM146.317 120.846H148.711V118.256H146.317V120.846ZM147.829 112.404C147.927 112.684 147.969 112.978 147.969 113.3C147.969 113.608 147.927 113.902 147.843 114.182H150.293V112.404H147.829ZM160.17 110.654C161.836 110.654 163.068 112.068 163.25 114.378H165.784V109.702H167.072V122.106H165.784V115.414H163.264C163.138 117.808 161.878 119.32 160.17 119.32C158.364 119.32 157.062 117.626 157.062 114.98C157.062 112.32 158.364 110.654 160.17 110.654ZM158.28 114.98C158.28 116.954 159.05 118.172 160.17 118.172C161.276 118.172 162.032 116.954 162.032 114.98C162.032 113.02 161.276 111.816 160.17 111.816C159.05 111.816 158.28 113.02 158.28 114.98ZM177.923 109.716H179.211V122.106H177.923V109.716ZM169.859 119.054V110.864H175.739V111.942H171.147V117.99C173.471 117.99 174.997 117.906 176.705 117.57L176.845 118.662C174.997 118.984 173.401 119.054 170.881 119.054H169.859ZM184.643 110.654C186.309 110.654 187.541 112.068 187.723 114.378H190.257V109.702H191.545V122.106H190.257V115.414H187.737C187.611 117.808 186.351 119.32 184.643 119.32C182.837 119.32 181.535 117.626 181.535 114.98C181.535 112.32 182.837 110.654 184.643 110.654ZM182.753 114.98C182.753 116.954 183.523 118.172 184.643 118.172C185.749 118.172 186.505 116.954 186.505 114.98C186.505 113.02 185.749 111.816 184.643 111.816C183.523 111.816 182.753 113.02 182.753 114.98ZM202.395 109.716H203.683V122.106H202.395V109.716ZM194.331 119.054V110.864H200.211V111.942H195.619V117.99C197.943 117.99 199.469 117.906 201.177 117.57L201.317 118.662C199.469 118.984 197.873 119.054 195.353 119.054H194.331Z" fill="#202020"/>
<path d="M47.245 58.51H51.62V70.62H56.03V74.19H51.62V89.94H47.245V58.51ZM26.84 81.155C34.19 77.375 38.075 72.3 38.88 65.3H28.52V61.765H43.29C43.29 71.18 39.65 79.23 29.255 84.48L26.84 81.155ZM60.2658 59.735H83.4708V63.165H74.9658C75.6658 65.475 78.8858 67.75 84.8008 68.275L83.2608 71.67C77.4158 71.11 73.4958 68.835 71.8508 65.72C70.2058 68.835 66.2508 71.11 60.4408 71.67L58.9008 68.275C64.7808 67.715 68.0358 65.475 68.7708 63.165H60.2658V59.735ZM57.6408 77.34V73.875H69.6458V69.78H73.9508V73.875H86.0958V77.34H57.6408ZM60.8258 83.115V79.65H82.6308V89.975H78.2558V83.115H60.8258ZM96.333 82.765H108.338V76.29H99.343V60.925H121.603V76.29H112.643V82.765H124.753V86.3H96.333V82.765ZM103.648 72.825H117.333V64.355H103.648V72.825ZM148.624 58.58H152.999V76.36H148.624V58.58ZM127.414 67.54C127.414 63.165 131.089 60.05 135.919 60.05C140.784 60.05 144.459 63.165 144.459 67.54C144.459 71.88 140.784 75.03 135.919 75.03C131.089 75.03 127.414 71.88 127.414 67.54ZM131.684 67.54C131.684 69.99 133.504 71.46 135.919 71.46C138.404 71.46 140.189 69.99 140.189 67.54C140.189 65.09 138.404 63.62 135.919 63.62C133.504 63.62 131.684 65.09 131.684 67.54ZM132.174 89.59V77.795H152.999V89.59H132.174ZM136.444 86.16H148.729V81.19H136.444V86.16Z" fill="#0057FF"/>
<defs>
<filter id="filter0_d_84_3798" x="0" y="0" width="370" height="158" filterUnits="userSpaceOnUse" color-interpolation-filters="sRGB">
<feFlood flood-opacity="0" result="BackgroundImageFix"/>
<feColorMatrix in="SourceAlpha" type="matrix" values="0 0 0 0 0 0 0 0 0 0 0 0 0 0 0 0 0 0 127 0" result="hardAlpha"/>
<feOffset dx="2" dy="4"/>
<feGaussianBlur stdDeviation="5"/>
<feComposite in2="hardAlpha" operator="out"/>
<feColorMatrix type="matrix" values="0 0 0 0 0 0 0 0 0 0 0 0 0 0 0 0 0 0 0.15 0"/>
<feBlend mode="normal" in2="BackgroundImageFix" result="effect1_dropShadow_84_3798"/>
<feBlend mode="normal" in="SourceGraphic" in2="effect1_dropShadow_84_3798" result="shape"/>
</filter>
</defs>
</svg>
