<svg width="390" height="65" viewBox="0 0 390 65" fill="none" xmlns="http://www.w3.org/2000/svg">
<rect x="0.25" y="0.25" width="389.5" height="64.5" fill="white" fill-opacity="0.8"/>
<path d="M180.742 24.752H182.634V26.71C182.634 30.538 180.654 33.794 177.046 35.07L175.88 33.222C179.048 32.144 180.742 29.548 180.742 26.71V24.752ZM181.204 24.752H183.052V26.908C183.052 29.482 184.768 31.924 187.782 32.914L186.638 34.74C183.162 33.53 181.204 30.45 181.204 26.908V24.752ZM189.388 23.718H191.698V35.884H189.388V23.718ZM191.06 28.844H194.536V30.758H191.06V28.844ZM178.476 36.808H191.698V43.826H189.388V38.678H178.476V36.808ZM211.628 23.718H213.828V43.826H211.628V23.718ZM204.61 30.78H208.24V32.672H204.61V30.78ZM207.58 24.114H209.736V42.836H207.58V24.114ZM200.54 26.908H202.3V29.24C202.3 33.684 200.804 37.996 197.746 39.932L196.36 38.216C199.22 36.456 200.54 32.826 200.54 29.24V26.908ZM201.046 26.908H202.784V29.24C202.784 32.672 204.06 36.104 206.876 37.754L205.512 39.448C202.454 37.622 201.046 33.552 201.046 29.24V26.908ZM196.998 25.918H206.084V27.788H196.998V25.918Z" fill="#0085FF"/>
<rect x="0.25" y="0.25" width="389.5" height="64.5" stroke="#AAAAAA" stroke-width="0.5"/>
</svg>
