<svg width="375" height="65" viewBox="0 0 375 65" fill="none" xmlns="http://www.w3.org/2000/svg">
<rect x="0.5" y="0.5" width="374" height="64" fill="white"/>
<path d="M173.742 24.752H175.634V26.71C175.634 30.538 173.654 33.794 170.046 35.07L168.88 33.222C172.048 32.144 173.742 29.548 173.742 26.71V24.752ZM174.204 24.752H176.052V26.908C176.052 29.482 177.768 31.924 180.782 32.914L179.638 34.74C176.162 33.53 174.204 30.45 174.204 26.908V24.752ZM182.388 23.718H184.698V35.884H182.388V23.718ZM184.06 28.844H187.536V30.758H184.06V28.844ZM171.476 36.808H184.698V43.826H182.388V38.678H171.476V36.808ZM204.628 23.718H206.828V43.826H204.628V23.718ZM197.61 30.78H201.24V32.672H197.61V30.78ZM200.58 24.114H202.736V42.836H200.58V24.114ZM193.54 26.908H195.3V29.24C195.3 33.684 193.804 37.996 190.746 39.932L189.36 38.216C192.22 36.456 193.54 32.826 193.54 29.24V26.908ZM194.046 26.908H195.784V29.24C195.784 32.672 197.06 36.104 199.876 37.754L198.512 39.448C195.454 37.622 194.046 33.552 194.046 29.24V26.908ZM189.998 25.918H199.084V27.788H189.998V25.918Z" fill="#0085FF"/>
<rect x="0.5" y="0.5" width="374" height="64" stroke="black"/>
</svg>
