<svg width="287" height="16" viewBox="0 0 287 16" fill="none" xmlns="http://www.w3.org/2000/svg">
<path d="M10.576 0.768H11.92V15.248H10.576V0.768ZM11.552 6.64H14.224V7.744H11.552V6.64ZM6.88 2.336H8.176C8.176 6.448 6.288 10.16 1.616 12.512L0.88 11.488C4.88 9.456 6.88 6.368 6.88 2.544V2.336ZM1.552 2.336H7.568V3.424H1.552V2.336ZM21.1828 1.936H22.3668V2.368C22.3668 4.704 19.7108 6.304 16.7188 6.672L16.2388 5.632C18.8307 5.328 21.1828 4.016 21.1828 2.368V1.936ZM21.7428 1.936H22.9108V2.368C22.9108 4.016 25.2628 5.344 27.8548 5.632L27.3748 6.672C24.3828 6.304 21.7428 4.704 21.7428 2.368V1.936ZM16.7028 1.376H27.4068V2.448H16.7028V1.376ZM15.5028 8.032H28.6228V9.12H15.5028V8.032ZM21.3748 5.872H22.6868V8.56H21.3748V5.872ZM16.9588 10.56H26.9588V15.248H25.6308V11.632H16.9588V10.56ZM30.2375 6.816H43.3095V7.904H30.2375V6.816ZM31.9655 4.576H41.7575V5.648H31.9655V4.576ZM31.9655 1.248H41.5975V2.336H33.2775V5.44H31.9655V1.248ZM31.8055 9.152H41.6295V12.56H33.1495V14.384H31.8375V11.568H40.3175V10.192H31.8055V9.152ZM31.8375 14.032H42.0615V15.088H31.8375V14.032ZM50.8123 6.4H53.5483V7.504H50.8123V6.4ZM55.9643 0.783999H57.2443V15.248H55.9643V0.783999ZM53.1003 1.088H54.3643V14.528H53.1003V1.088ZM48.2043 1.984C50.0763 1.984 51.2923 3.92 51.2923 7.024C51.2923 10.128 50.0763 12.064 48.2043 12.064C46.3323 12.064 45.1323 10.128 45.1323 7.024C45.1323 3.92 46.3323 1.984 48.2043 1.984ZM48.2043 3.216C47.0683 3.216 46.3483 4.688 46.3483 7.024C46.3483 9.36 47.0683 10.832 48.2043 10.832C49.3563 10.832 50.0763 9.36 50.0763 7.024C50.0763 4.688 49.3563 3.216 48.2043 3.216ZM70.683 0.783999H71.963V15.248H70.683V0.783999ZM64.411 6.688H68.059V7.76H64.411V6.688ZM67.675 1.152H68.923V14.512H67.675V1.152ZM64.587 2.608H65.867C65.867 6.4 64.347 9.808 60.443 12.128L59.659 11.184C63.067 9.136 64.587 6.256 64.587 2.848V2.608ZM60.299 2.608H65.083V3.696H60.299V2.608ZM78.8938 12.304H91.9978V13.408H78.8938V12.304ZM84.7498 8.848H86.0778V12.624H84.7498V8.848ZM80.4298 1.808H81.7418V4.384H89.1178V1.808H90.4298V9.2H80.4298V1.808ZM81.7418 5.456V8.112H89.1178V5.456H81.7418ZM100.125 4H104.493V5.104H100.125V4ZM100.125 8.576H104.493V9.68H100.125V8.576ZM97.4685 1.888C99.5645 1.888 101.069 3.856 101.069 6.928C101.069 10.016 99.5645 11.984 97.4685 11.984C95.3565 11.984 93.8685 10.016 93.8685 6.928C93.8685 3.856 95.3565 1.888 97.4685 1.888ZM97.4685 3.088C96.0765 3.088 95.1165 4.592 95.1165 6.928C95.1165 9.28 96.0765 10.816 97.4685 10.816C98.8605 10.816 99.8205 9.28 99.8205 6.928C99.8205 4.592 98.8605 3.088 97.4685 3.088ZM104.205 0.768H105.517V15.264H104.205V0.768ZM114.187 7.584H115.515V9.808H114.187V7.584ZM108.315 6.816H121.387V7.888H108.315V6.816ZM109.899 9.312H119.723V12.64H111.243V14.336H109.931V11.68H118.411V10.32H109.899V9.312ZM109.931 14.064H120.155V15.088H109.931V14.064ZM114.091 1.68H115.259V2.128C115.259 4.352 112.539 5.808 109.451 6.112L109.019 5.088C111.691 4.864 114.091 3.68 114.091 2.128V1.68ZM114.475 1.68H115.627V2.128C115.627 3.68 118.027 4.864 120.699 5.088L120.267 6.112C117.195 5.808 114.475 4.352 114.475 2.128V1.68ZM109.515 1.264H120.219V2.336H109.515V1.264ZM138.542 0.783999H139.822V15.248H138.542V0.783999ZM136.094 6.576H138.878V7.68H136.094V6.576ZM135.262 1.104H136.51V14.512H135.262V1.104ZM128.062 10.576H129.006C131.118 10.576 132.558 10.496 134.238 10.144L134.366 11.248C132.638 11.616 131.182 11.68 129.006 11.68H128.062V10.576ZM128.062 2.544H133.438V3.632H129.374V11.072H128.062V2.544ZM145.885 8.624H147.213V12.752H145.885V8.624ZM150.349 8.624H151.661V12.752H150.349V8.624ZM142.269 12.4H155.373V13.504H142.269V12.4ZM143.405 2.112H154.141V3.2H143.405V2.112ZM143.437 7.904H154.125V8.976H143.437V7.904ZM145.661 2.992H146.989V8.128H145.661V2.992ZM150.589 2.992H151.901V8.128H150.589V2.992ZM165.024 2.032H166.112V4.624C166.112 7.824 164.384 10.944 162.096 12.16L161.28 11.104C163.376 10.048 165.024 7.264 165.024 4.624V2.032ZM165.264 2.032H166.336V4.624C166.336 7.168 167.952 9.808 170 10.832L169.184 11.888C166.944 10.688 165.264 7.728 165.264 4.624V2.032ZM171.264 0.783999H172.608V15.248H171.264V0.783999ZM172.288 6.64H174.976V7.76H172.288V6.64ZM180.046 2.368H181.15V3.84C181.15 6.496 179.518 8.72 177.086 9.6L176.398 8.544C178.574 7.776 180.046 5.904 180.046 3.84V2.368ZM180.302 2.368H181.406V3.84C181.406 5.792 182.91 7.552 185.054 8.272L184.366 9.312C181.966 8.496 180.302 6.384 180.302 3.84V2.368ZM176.75 1.984H184.67V3.056H176.75V1.984ZM186.718 0.799999H188.062V11.376H186.718V0.799999ZM178.766 13.84H188.494V14.928H178.766V13.84ZM178.766 10.384H180.078V14.32H178.766V10.384ZM197.453 1.024C200.637 1.024 202.541 1.92 202.541 3.536C202.541 5.152 200.637 6.048 197.453 6.048C194.253 6.048 192.365 5.152 192.365 3.536C192.365 1.92 194.253 1.024 197.453 1.024ZM197.453 2.032C195.085 2.032 193.725 2.576 193.725 3.536C193.725 4.496 195.085 5.04 197.453 5.04C199.805 5.04 201.165 4.496 201.165 3.536C201.165 2.576 199.805 2.032 197.453 2.032ZM190.909 7.008H203.981V8.08H190.909V7.008ZM192.493 9.312H202.317V12.576H193.837V14.336H192.525V11.616H201.005V10.336H192.493V9.312ZM192.525 14.048H202.749V15.088H192.525V14.048ZM216 5.568H217.312V7.52H216V5.568ZM216.672 0.959999C219.856 0.959999 221.76 1.84 221.76 3.456C221.76 5.072 219.856 5.968 216.672 5.968C213.472 5.968 211.584 5.072 211.584 3.456C211.584 1.84 213.472 0.959999 216.672 0.959999ZM216.672 1.968C214.304 1.968 212.944 2.512 212.944 3.456C212.944 4.416 214.304 4.96 216.672 4.96C219.024 4.96 220.384 4.416 220.384 3.456C220.384 2.512 219.024 1.968 216.672 1.968ZM210.128 7.04H223.2V8.128H210.128V7.04ZM211.712 9.312H221.536V12.592H213.056V14.352H211.744V11.616H220.224V10.352H211.712V9.312ZM211.744 14.048H221.968V15.088H211.744V14.048ZM235.423 0.768H236.751V15.264H235.423V0.768ZM232.575 4.08H235.775V5.168H232.575V4.08ZM225.391 10.784H226.463C228.703 10.784 230.543 10.72 232.751 10.368L232.878 11.472C230.607 11.824 228.751 11.904 226.463 11.904H225.391V10.784ZM225.359 2.08H231.679V7.264H226.703V11.04H225.391V6.176H230.367V3.184H225.359V2.08ZM232.479 8.032H235.679V9.12H232.479V8.032ZM245.373 2.208H246.525V2.816C246.525 5.408 243.773 7.312 240.861 7.808L240.349 6.752C242.893 6.384 245.373 4.72 245.373 2.816V2.208ZM245.709 2.208H246.845V2.816C246.845 4.72 249.341 6.384 251.869 6.752L251.373 7.808C248.445 7.312 245.709 5.408 245.709 2.816V2.208ZM245.421 9.728H246.733V15.248H245.421V9.728ZM239.581 9.024H252.653V10.112H239.581V9.024ZM240.797 1.68H251.389V2.752H240.797V1.68ZM259.996 5.952H262.764V7.056H259.996V5.952ZM257.292 2.144H258.332V4.896C258.332 7.92 257.068 10.848 254.956 12.144L254.124 11.136C256.108 9.968 257.292 7.376 257.292 4.896V2.144ZM257.548 2.144H258.572V4.848C258.572 7.168 259.66 9.632 261.564 10.784L260.796 11.824C258.716 10.544 257.548 7.664 257.548 4.848V2.144ZM265.308 0.783999H266.588V15.248H265.308V0.783999ZM262.38 1.088H263.628V14.528H262.38V1.088ZM272.219 8.224H273.531V12.56H272.219V8.224ZM277.563 8.224H278.891V12.56H277.563V8.224ZM269.019 12.304H282.123V13.408H269.019V12.304ZM275.547 1.696C278.603 1.696 280.795 3.152 280.795 5.424C280.795 7.68 278.603 9.136 275.547 9.136C272.475 9.136 270.283 7.68 270.283 5.424C270.283 3.152 272.475 1.696 275.547 1.696ZM275.547 2.752C273.227 2.752 271.563 3.808 271.563 5.424C271.563 7.024 273.227 8.08 275.547 8.08C277.867 8.08 279.515 7.024 279.515 5.424C279.515 3.808 277.867 2.752 275.547 2.752ZM285.142 14.0909C284.862 14.0909 284.621 13.9905 284.42 13.7898C284.22 13.589 284.119 13.3485 284.119 13.0682C284.119 12.7879 284.22 12.5473 284.42 12.3466C284.621 12.1458 284.862 12.0455 285.142 12.0455C285.422 12.0455 285.663 12.1458 285.864 12.3466C286.064 12.5473 286.165 12.7879 286.165 13.0682C286.165 13.2538 286.117 13.4242 286.023 13.5795C285.932 13.7348 285.809 13.8598 285.653 13.9545C285.502 14.0455 285.331 14.0909 285.142 14.0909Z" fill="#404040"/>
</svg>
