<svg width="189" height="16" viewBox="0 0 189 16" fill="none" xmlns="http://www.w3.org/2000/svg">
<path d="M0.8 12.32H13.904V13.424H0.8V12.32ZM6.672 9.056H8V12.912H6.672V9.056ZM6.672 3.808H7.84V4.128C7.84 7.088 5.152 9.008 2.016 9.552L1.504 8.496C4.336 8.048 6.672 6.368 6.672 4.128V3.808ZM6.848 3.808H8V4.128C8 6.368 10.336 8.048 13.168 8.496L12.656 9.552C9.52 9.008 6.848 7.088 6.848 4.128V3.808ZM2 3.056H12.656V4.16H2V3.056ZM6.672 1.088H8V3.456H6.672V1.088ZM26.5108 0.783999H27.7908V15.248H26.5108V0.783999ZM24.0628 6.576H26.8468V7.68H24.0628V6.576ZM23.2308 1.104H24.4788V14.512H23.2308V1.104ZM16.0308 10.576H16.9748C19.0868 10.576 20.5268 10.496 22.2068 10.144L22.3348 11.248C20.6068 11.616 19.1508 11.68 16.9748 11.68H16.0308V10.576ZM16.0308 2.544H21.4068V3.632H17.3428V11.072H16.0308V2.544ZM36.2895 2.192H45.4735V3.28H36.2895V2.192ZM34.7215 12.192H47.7935V13.28H34.7215V12.192ZM44.9295 2.192H46.2255V3.568C46.2255 5.328 46.2255 7.312 45.6335 10.272L44.3055 10.112C44.9295 7.312 44.9295 5.28 44.9295 3.568V2.192ZM45.2175 5.664V6.672L36.0975 7.184L35.8895 6.032L45.2175 5.664ZM39.8095 8.448H41.1375V12.592H39.8095V8.448ZM51.1043 7.712H61.0403V8.8H51.1043V7.712ZM49.4563 12.192H62.5603V13.296H49.4563V12.192ZM51.1043 2.112H60.8963V3.216H52.4323V8.192H51.1043V2.112ZM64.159 7.504H77.279V8.512H64.159V7.504ZM65.711 9.68H75.631V12.768H67.071V14.464H65.759V11.856H74.335V10.624H65.711V9.68ZM65.759 14.112H76.095V15.072H65.759V14.112ZM65.823 1.2H75.583V4.208H67.167V5.776H65.855V3.312H74.287V2.144H65.823V1.2ZM65.855 5.456H75.855V6.416H65.855V5.456ZM83.9858 1.376H85.2978V3.456H89.3778V1.376H90.6737V7.696H83.9858V1.376ZM85.2978 4.496V6.624H89.3778V4.496H85.2978ZM93.2818 0.783999H94.6098V8.24H93.2818V0.783999ZM94.0338 3.888H96.7378V4.992H94.0338V3.888ZM85.4258 8.944H94.6098V12.448H86.7698V14.624H85.4578V11.456H93.3138V10H85.4258V8.944ZM85.4578 14.032H95.1378V15.088H85.4578V14.032ZM99.8085 9.056H101.121V10.96H108.193V9.056H109.521V15.056H99.8085V9.056ZM101.121 12.016V13.984H108.193V12.016H101.121ZM99.7765 1.44H109.089V2.528H99.7765V1.44ZM98.1125 6.672H111.217V7.776H98.1125V6.672ZM108.225 1.44H109.521V2.496C109.521 3.68 109.521 5.04 109.073 6.976L107.745 6.992C108.225 5.056 108.225 3.68 108.225 2.496V1.44ZM112.799 3.248H119.967V4.336H112.799V3.248ZM116.383 5.296C118.191 5.296 119.503 6.656 119.503 8.608C119.503 10.544 118.191 11.904 116.383 11.904C114.591 11.904 113.279 10.544 113.279 8.608C113.279 6.656 114.591 5.296 116.383 5.296ZM116.383 6.432C115.279 6.432 114.479 7.328 114.479 8.608C114.479 9.888 115.279 10.784 116.383 10.784C117.503 10.784 118.319 9.888 118.319 8.608C118.319 7.328 117.503 6.432 116.383 6.432ZM123.791 0.783999H125.071V15.248H123.791V0.783999ZM121.487 6.864H124.223V7.968H121.487V6.864ZM120.703 1.104H121.951V14.544H120.703V1.104ZM115.743 1.2H117.055V3.92H115.743V1.2ZM129.198 7.712H139.134V8.8H129.198V7.712ZM127.55 12.192H140.654V13.296H127.55V12.192ZM129.198 2.112H138.99V3.216H130.526V8.192H129.198V2.112ZM142.989 6.784H144.157C146.973 6.784 148.813 6.72 151.053 6.368L151.181 7.408C148.893 7.776 147.021 7.84 144.157 7.84H142.989V6.784ZM142.957 1.472H149.565V5.056H144.285V7.296H142.989V4.08H148.269V2.496H142.957V1.472ZM144.765 9.04H154.125V12.464H146.125V14.512H144.797V11.488H152.781V10.08H144.765V9.04ZM144.797 14.048H154.605V15.088H144.797V14.048ZM152.781 0.783999H154.125V8.384H152.781V0.783999ZM167.996 0.783999H169.276V15.248H167.996V0.783999ZM161.724 6.688H165.372V7.76H161.724V6.688ZM164.988 1.152H166.236V14.512H164.988V1.152ZM161.9 2.608H163.18C163.18 6.4 161.66 9.808 157.756 12.128L156.972 11.184C160.38 9.136 161.9 6.256 161.9 2.848V2.608ZM157.612 2.608H162.396V3.696H157.612V2.608ZM174.906 8.224H176.218V12.56H174.906V8.224ZM180.25 8.224H181.578V12.56H180.25V8.224ZM171.706 12.304H184.81V13.408H171.706V12.304ZM178.234 1.696C181.29 1.696 183.482 3.152 183.482 5.424C183.482 7.68 181.29 9.136 178.234 9.136C175.162 9.136 172.97 7.68 172.97 5.424C172.97 3.152 175.162 1.696 178.234 1.696ZM178.234 2.752C175.914 2.752 174.25 3.808 174.25 5.424C174.25 7.024 175.914 8.08 178.234 8.08C180.554 8.08 182.202 7.024 182.202 5.424C182.202 3.808 180.554 2.752 178.234 2.752ZM188.625 2.36364L188.511 10.7273H187.193L187.08 2.36364H188.625ZM187.852 14.0909C187.572 14.0909 187.331 13.9905 187.131 13.7898C186.93 13.589 186.83 13.3485 186.83 13.0682C186.83 12.7879 186.93 12.5473 187.131 12.3466C187.331 12.1458 187.572 12.0455 187.852 12.0455C188.133 12.0455 188.373 12.1458 188.574 12.3466C188.775 12.5473 188.875 12.7879 188.875 13.0682C188.875 13.2538 188.828 13.4242 188.733 13.5795C188.642 13.7348 188.519 13.8598 188.364 13.9545C188.212 14.0455 188.042 14.0909 187.852 14.0909Z" fill="#404040"/>
</svg>
