<svg width="318" height="242" viewBox="0 0 318 242" fill="none" xmlns="http://www.w3.org/2000/svg">
<rect width="318" height="242" rx="16" fill="#878787"/>
<path d="M170.875 110.312H166.76L164.737 107.278C164.629 107.116 164.482 106.983 164.31 106.891C164.138 106.798 163.945 106.75 163.75 106.75H154.25C154.055 106.75 153.862 106.798 153.69 106.891C153.518 106.983 153.371 107.116 153.263 107.278L151.238 110.312H147.125C146.18 110.312 145.274 110.688 144.606 111.356C143.938 112.024 143.562 112.93 143.562 113.875V130.5C143.562 131.445 143.938 132.351 144.606 133.019C145.274 133.687 146.18 134.062 147.125 134.062H170.875C171.82 134.062 172.726 133.687 173.394 133.019C174.062 132.351 174.438 131.445 174.438 130.5V113.875C174.438 112.93 174.062 112.024 173.394 111.356C172.726 110.688 171.82 110.312 170.875 110.312ZM172.062 130.5C172.062 130.815 171.937 131.117 171.715 131.34C171.492 131.562 171.19 131.688 170.875 131.688H147.125C146.81 131.688 146.508 131.562 146.285 131.34C146.063 131.117 145.938 130.815 145.938 130.5V113.875C145.938 113.56 146.063 113.258 146.285 113.035C146.508 112.813 146.81 112.688 147.125 112.688H151.875C152.071 112.688 152.263 112.639 152.436 112.547C152.608 112.455 152.755 112.322 152.864 112.159L154.885 109.125H163.113L165.136 112.159C165.245 112.322 165.392 112.455 165.564 112.547C165.737 112.639 165.929 112.688 166.125 112.688H170.875C171.19 112.688 171.492 112.813 171.715 113.035C171.937 113.258 172.062 113.56 172.062 113.875V130.5ZM159 115.062C157.708 115.062 156.445 115.446 155.371 116.163C154.297 116.881 153.46 117.901 152.966 119.094C152.472 120.288 152.342 121.601 152.594 122.868C152.846 124.135 153.468 125.299 154.382 126.212C155.295 127.125 156.459 127.747 157.726 128C158.993 128.252 160.306 128.122 161.499 127.628C162.693 127.134 163.713 126.296 164.431 125.222C165.148 124.148 165.531 122.886 165.531 121.594C165.529 119.862 164.841 118.202 163.616 116.978C162.392 115.753 160.732 115.064 159 115.062ZM159 125.75C158.178 125.75 157.374 125.506 156.691 125.05C156.007 124.593 155.475 123.944 155.16 123.184C154.846 122.425 154.763 121.589 154.924 120.783C155.084 119.977 155.48 119.236 156.061 118.655C156.642 118.074 157.383 117.678 158.189 117.517C158.995 117.357 159.831 117.439 160.591 117.754C161.35 118.068 161.999 118.601 162.456 119.285C162.912 119.968 163.156 120.772 163.156 121.594C163.156 122.696 162.718 123.753 161.939 124.533C161.159 125.312 160.102 125.75 159 125.75Z" fill="#F8F8F8"/>
</svg>
