<svg width="332" height="242" viewBox="0 0 332 242" fill="none" xmlns="http://www.w3.org/2000/svg">
<rect width="332" height="242" rx="8" fill="#878787"/>
<path d="M182.398 107.312H178.102L175.99 104.278C175.876 104.116 175.723 103.983 175.543 103.891C175.364 103.798 175.163 103.75 174.959 103.75H165.041C164.837 103.75 164.636 103.798 164.456 103.891C164.277 103.983 164.123 104.116 164.01 104.278L161.896 107.312H157.602C156.616 107.312 155.67 107.688 154.972 108.356C154.275 109.024 153.883 109.93 153.883 110.875V127.5C153.883 128.445 154.275 129.351 154.972 130.019C155.67 130.687 156.616 131.062 157.602 131.062H182.398C183.384 131.062 184.33 130.687 185.028 130.019C185.725 129.351 186.117 128.445 186.117 127.5V110.875C186.117 109.93 185.725 109.024 185.028 108.356C184.33 107.688 183.384 107.312 182.398 107.312ZM183.638 127.5C183.638 127.815 183.507 128.117 183.274 128.34C183.042 128.562 182.727 128.688 182.398 128.688H157.602C157.273 128.688 156.958 128.562 156.725 128.34C156.493 128.117 156.362 127.815 156.362 127.5V110.875C156.362 110.56 156.493 110.258 156.725 110.035C156.958 109.813 157.273 109.688 157.602 109.688H162.561C162.765 109.688 162.966 109.639 163.147 109.547C163.327 109.455 163.48 109.322 163.593 109.159L165.704 106.125H174.294L176.407 109.159C176.52 109.322 176.673 109.455 176.853 109.547C177.033 109.639 177.234 109.688 177.439 109.688H182.398C182.727 109.688 183.042 109.813 183.274 110.035C183.507 110.258 183.638 110.56 183.638 110.875V127.5ZM170 112.062C168.651 112.062 167.333 112.446 166.212 113.163C165.09 113.881 164.216 114.901 163.7 116.094C163.184 117.288 163.049 118.601 163.312 119.868C163.575 121.135 164.225 122.299 165.178 123.212C166.132 124.125 167.347 124.747 168.67 125C169.992 125.252 171.363 125.122 172.609 124.628C173.855 124.134 174.92 123.296 175.67 122.222C176.419 121.148 176.819 119.886 176.819 118.594C176.817 116.862 176.098 115.202 174.819 113.978C173.541 112.753 171.808 112.064 170 112.062ZM170 122.75C169.142 122.75 168.303 122.506 167.589 122.05C166.876 121.593 166.319 120.944 165.991 120.184C165.663 119.425 165.577 118.589 165.744 117.783C165.912 116.977 166.325 116.236 166.932 115.655C167.539 115.074 168.312 114.678 169.153 114.517C169.995 114.357 170.868 114.439 171.661 114.754C172.453 115.068 173.131 115.601 173.608 116.285C174.085 116.968 174.339 117.772 174.339 118.594C174.339 119.696 173.882 120.753 173.068 121.533C172.254 122.312 171.151 122.75 170 122.75Z" fill="#F8F8F8"/>
</svg>
