<svg width="346" height="62" viewBox="0 0 346 62" fill="none" xmlns="http://www.w3.org/2000/svg">
<rect width="345.895" height="62" rx="9.78947" fill="#F9E000"/>
<path d="M108.02 24.536H110.36C110.36 29.684 109.136 33.968 102.926 37.118L101.648 35.3C106.832 32.69 108.02 29.504 108.02 24.824V24.536ZM102.674 24.536H109.442V26.426H102.674V24.536ZM108.074 28.622V30.458L102.098 31.034L101.81 28.982L108.074 28.622ZM112.376 22.916H114.788V39.584H112.376V22.916ZM114.158 29.288H117.092V31.25H114.158V29.288ZM124.579 24.536H126.919C126.919 29.684 125.695 33.968 119.485 37.118L118.207 35.3C123.391 32.69 124.579 29.504 124.579 24.824V24.536ZM119.233 24.536H126.001V26.426H119.233V24.536ZM124.633 28.622V30.458L118.657 31.034L118.369 28.982L124.633 28.622ZM128.935 22.916H131.347V39.584H128.935V22.916ZM130.717 29.288H133.651V31.25H130.717V29.288ZM141.173 32.312H143.567V36.11H141.173V32.312ZM142.379 23.78C145.943 23.78 148.607 25.598 148.607 28.37C148.607 31.178 145.943 32.978 142.379 32.978C138.815 32.978 136.151 31.178 136.151 28.37C136.151 25.598 138.815 23.78 142.379 23.78ZM142.379 25.67C140.093 25.67 138.509 26.678 138.509 28.37C138.509 30.098 140.093 31.088 142.379 31.088C144.665 31.088 146.249 30.098 146.249 28.37C146.249 26.678 144.665 25.67 142.379 25.67ZM134.855 35.732H149.939V37.676H134.855V35.732ZM161.988 27.326H165.372V29.234H161.988V27.326ZM161.898 31.484H165.3V33.392H161.898V31.484ZM167.64 22.934H169.926V39.602H167.64V22.934ZM164.202 23.294H166.434V38.864H164.202V23.294ZM160.44 24.896H162.744C162.744 29.63 161.322 33.41 156.678 36.146L155.328 34.472C159.09 32.186 160.44 29.414 160.44 25.382V24.896ZM156.282 24.896H161.25V26.804H156.282V24.896ZM181.156 26.966H184.324V28.91H181.156V26.966ZM183.676 22.934H186.07V32.834H183.676V22.934ZM180.418 33.194C183.946 33.194 186.124 34.4 186.124 36.416C186.124 38.45 183.946 39.62 180.418 39.62C176.89 39.62 174.712 38.45 174.712 36.416C174.712 34.4 176.89 33.194 180.418 33.194ZM180.418 35.012C178.258 35.012 177.106 35.462 177.106 36.416C177.106 37.352 178.258 37.802 180.418 37.802C182.596 37.802 183.748 37.352 183.748 36.416C183.748 35.462 182.596 35.012 180.418 35.012ZM175.972 24.608H177.916V25.652C177.916 28.838 176.44 31.754 173.254 32.834L172.03 30.944C174.784 30.008 175.972 27.794 175.972 25.652V24.608ZM176.476 24.608H178.402V25.652C178.402 27.614 179.536 29.648 182.164 30.53L180.994 32.42C177.898 31.394 176.476 28.622 176.476 25.652V24.608ZM172.678 23.942H181.642V25.85H172.678V23.942ZM196.221 23.762C199.731 23.762 202.449 25.688 202.449 28.586C202.449 31.502 199.731 33.41 196.221 33.41C192.711 33.41 189.993 31.502 189.993 28.586C189.993 25.688 192.711 23.762 196.221 23.762ZM196.221 25.706C193.953 25.706 192.333 26.786 192.333 28.586C192.333 30.368 193.953 31.448 196.221 31.448C198.489 31.448 200.109 30.368 200.109 28.586C200.109 26.786 198.489 25.706 196.221 25.706ZM188.697 35.642H203.781V37.604H188.697V35.642ZM205.256 35.822H220.34V37.766H205.256V35.822ZM211.574 32.672H213.968V36.614H211.574V32.672ZM206.948 24.014H218.648V29.558H209.36V32.366H206.984V27.686H216.272V25.904H206.948V24.014ZM206.984 31.412H219.026V33.338H206.984V31.412ZM225.98 35.822H241.064V37.766H225.98V35.822ZM232.298 32.672H234.692V36.614H232.298V32.672ZM227.672 24.014H239.372V29.558H230.084V32.366H227.708V27.686H236.996V25.904H227.672V24.014ZM227.708 31.412H239.75V33.338H227.708V31.412ZM244.069 24.464H254.635V26.354H244.069V24.464ZM242.539 35.48H257.605V37.424H242.539V35.48ZM253.375 24.464H255.751V26.444C255.751 28.784 255.751 31.052 255.157 34.472L252.763 34.274C253.375 31.07 253.375 28.694 253.375 26.444V24.464ZM270.527 22.952H272.939V34.922H270.527V22.952ZM261.833 37.406H273.353V39.314H261.833V37.406ZM261.833 33.716H264.227V38.18H261.833V33.716ZM263.867 23.996C266.423 23.996 268.385 25.76 268.385 28.226C268.385 30.674 266.423 32.456 263.867 32.456C261.311 32.456 259.331 30.674 259.331 28.226C259.331 25.76 261.311 23.996 263.867 23.996ZM263.867 26.066C262.625 26.066 261.671 26.858 261.671 28.226C261.671 29.576 262.625 30.368 263.867 30.368C265.091 30.368 266.045 29.576 266.045 28.226C266.045 26.858 265.091 26.066 263.867 26.066Z" fill="#3B1C1C"/>
</svg>
