<svg width="54" height="19" viewBox="0 0 54 19" fill="none" xmlns="http://www.w3.org/2000/svg">
<path d="M0.82 14.58H17.58V16.74H0.82V14.58ZM7.84 11.08H10.5V15.46H7.84V11.08ZM2.7 1.46H15.7V7.62H5.38V10.74H2.74V5.54H13.06V3.56H2.7V1.46ZM2.74 9.68H16.12V11.82H2.74V9.68ZM20.9184 1.96H32.6584V4.06H20.9184V1.96ZM19.2184 14.2H35.9584V16.36H19.2184V14.2ZM31.2584 1.96H33.8984V4.16C33.8984 6.76 33.8984 9.28 33.2384 13.08L30.5784 12.86C31.2584 9.3 31.2584 6.66 31.2584 4.16V1.96ZM50.3169 0.279999H52.9969V13.58H50.3169V0.279999ZM40.6569 16.34H53.4569V18.46H40.6569V16.34ZM40.6569 12.24H43.3169V17.2H40.6569V12.24ZM42.9169 1.44C45.7569 1.44 47.9369 3.4 47.9369 6.14C47.9369 8.86 45.7569 10.84 42.9169 10.84C40.0769 10.84 37.8769 8.86 37.8769 6.14C37.8769 3.4 40.0769 1.44 42.9169 1.44ZM42.9169 3.74C41.5369 3.74 40.4769 4.62 40.4769 6.14C40.4769 7.64 41.5369 8.52 42.9169 8.52C44.2769 8.52 45.3369 7.64 45.3369 6.14C45.3369 4.62 44.2769 3.74 42.9169 3.74Z" fill="black"/>
</svg>
