<svg width="41" height="28" viewBox="0 0 41 28" fill="none" xmlns="http://www.w3.org/2000/svg">
<path d="M7.88 22.03C10.31 22.03 11.99 20.44 11.99 18.76C11.99 17.14 10.31 15.55 7.88 15.55C5.48 15.55 3.77 17.14 3.77 18.76C3.77 20.44 5.45 22.03 7.88 22.03ZM0.29 18.88C0.29 16.66 1.61 14.77 3.62 13.66C2.03 12.61 0.89 10.99 0.89 9.07C0.89 5.68 4.25 3.22 7.88 3.22C11.54 3.22 14.87 5.68 14.87 9.07C14.87 10.99 13.79 12.61 12.14 13.66C14.12 14.77 15.47 16.66 15.47 18.88C15.47 22.57 11.87 25.24 7.88 25.24C3.89 25.24 0.29 22.57 0.29 18.88ZM4.49 9.1C4.49 10.45 5.87 11.74 7.88 11.74C9.89 11.74 11.27 10.45 11.27 9.1C11.27 7.78 9.89 6.46 7.88 6.46C5.87 6.46 4.49 7.78 4.49 9.1ZM36.5246 0.639999H40.2446V16.24H36.5246V15.37H31.7246V13.12H36.5246V0.639999ZM17.6846 10.12C22.8746 10.12 29.2046 10.12 34.9046 9.58L35.0846 11.86C32.7446 12.22 30.3446 12.43 27.9746 12.55V16.27H24.2246V12.7C22.0646 12.76 19.9946 12.76 18.0746 12.76L17.6846 10.12ZM19.5146 5.08C19.5146 2.59 22.1846 1.03 26.2346 1.03C30.2246 1.03 32.9246 2.59 32.9246 5.08C32.9246 7.54 30.2246 9.07 26.2346 9.07C22.1846 9.07 19.5146 7.54 19.5146 5.08ZM21.5546 19.57V17.08H40.2446V23.29H25.2446V24.76H40.9046V27.34H21.5846V20.92H36.5546V19.57H21.5546ZM22.9946 5.08C22.9946 6.1 24.2246 6.64 26.2346 6.64C28.1846 6.64 29.4446 6.1 29.4446 5.08C29.4446 4.06 28.1846 3.49 26.2346 3.49C24.2246 3.49 22.9946 4.06 22.9946 5.08Z" fill="#0057FF"/>
</svg>
