<svg width="330" height="78" viewBox="0 0 330 78" fill="none" xmlns="http://www.w3.org/2000/svg">
<rect width="330" height="78" rx="10" fill="url(#paint0_linear_84_3029)"/>
<path d="M92.544 28.464H95.544V36.504H98.688V38.976H95.544V50.064H92.544V28.464ZM79.536 44.856V30.48H89.592V32.904H82.536V42.408C85.632 42.36 88.224 42.192 91.032 41.712L91.32 44.184C88.08 44.76 85.128 44.856 81.36 44.856H79.536ZM109.441 28.92C114.169 28.92 117.193 30.504 117.193 33.096C117.193 35.688 114.169 37.272 109.441 37.272C104.713 37.272 101.689 35.688 101.689 33.096C101.689 30.504 104.713 28.92 109.441 28.92ZM99.6966 40.92V38.568H119.185V40.92H99.6966ZM102.001 49.776V42.456H116.857V49.776H102.001ZM104.761 33.096C104.761 34.344 106.465 34.968 109.441 34.968C112.441 34.968 114.121 34.344 114.121 33.096C114.121 31.848 112.441 31.224 109.441 31.224C106.465 31.224 104.761 31.848 104.761 33.096ZM104.905 47.424H113.905V44.832H104.905V47.424ZM130.417 29.616C134.953 29.616 138.457 32.088 138.457 35.784C138.457 39.528 134.953 42 130.417 42C125.905 42 122.401 39.528 122.401 35.784C122.401 32.088 125.905 29.616 130.417 29.616ZM120.697 47.424V44.976H140.185V47.424H120.697ZM125.329 35.784C125.329 38.136 127.441 39.576 130.417 39.576C133.393 39.576 135.529 38.136 135.529 35.784C135.529 33.456 133.393 32.016 130.417 32.016C127.441 32.016 125.329 33.456 125.329 35.784ZM141.674 45.216H149.906V41.904H143.954V34.704H156.002V32.28H143.906V29.904H158.954V37.032H146.906V39.528H159.458V41.904H152.858V45.216H161.162V47.616H141.674V45.216ZM171.902 41.712H186.158V49.776H171.902V41.712ZM169.382 39.96V29.664H172.358V37.488C175.046 37.44 177.782 37.2 180.614 36.648L180.926 39.12C177.566 39.792 174.35 39.96 171.158 39.96H169.382ZM174.83 47.424H183.23V44.04H174.83V47.424ZM177.878 34.536V32.136H183.158V28.488H186.158V40.8H183.158V34.536H177.878ZM195.062 30C197.942 30 200.126 32.376 200.534 36.288H204.23V28.464H207.206V50.064H204.23V38.688H200.558C200.246 42.816 198.014 45.36 195.062 45.36C191.846 45.36 189.518 42.384 189.518 37.656C189.518 32.952 191.846 30 195.062 30ZM192.35 37.656C192.35 40.896 193.454 42.648 195.062 42.648C196.646 42.648 197.726 40.896 197.726 37.656C197.726 34.44 196.646 32.712 195.062 32.712C193.454 32.712 192.35 34.44 192.35 37.656ZM223.959 28.464H226.959V36.768H229.983V39.216H226.959V50.016H223.959V28.464ZM209.967 43.992C215.007 41.4 217.671 37.92 218.223 33.12H211.119V30.696H221.247C221.247 37.152 218.751 42.672 211.623 46.272L209.967 43.992ZM246.063 28.488H249.039V50.016H246.063V28.488ZM231.231 43.992C236.727 41.352 239.151 37.896 239.607 33.12H232.335V30.72H242.655C242.655 37.296 240.375 42.672 232.791 46.344L231.231 43.992Z" fill="white"/>
<defs>
<linearGradient id="paint0_linear_84_3029" x1="165" y1="0" x2="165" y2="78" gradientUnits="userSpaceOnUse">
<stop stop-color="#378AFC"/>
<stop offset="1" stop-color="#4745DF"/>
</linearGradient>
</defs>
</svg>
