<svg width="276" height="25" viewBox="0 0 276 25" fill="none" xmlns="http://www.w3.org/2000/svg">
<path d="M13.936 6.452H19.552V9.234H13.936V6.452ZM17.732 0.263999H21.19V17.814H17.732V0.263999ZM5.304 21.142H21.736V23.898H5.304V21.142ZM5.304 16.332H8.762V22.78H5.304V16.332ZM6.604 3.41H9.412V4.918C9.412 9.442 7.28 13.628 2.652 15.162L0.91 12.406C4.888 11.106 6.604 7.96 6.604 4.918V3.41ZM7.332 3.41H10.114V4.918C10.114 7.726 11.752 10.716 15.548 11.99L13.858 14.694C9.386 13.212 7.332 9.208 7.332 4.918V3.41ZM1.846 1.876H14.794V4.606H1.846V1.876ZM30.522 14.486H33.98V18.386H30.522V14.486ZM40.636 0.238H44.12V24.314H40.636V0.238ZM42.898 10.014H47.136V12.874H42.898V10.014ZM25.114 20.31L24.698 17.528C28.858 17.528 34.578 17.502 39.44 16.826L39.7 19.322C34.63 20.31 29.17 20.31 25.114 20.31ZM25.14 2.89H39.31V5.594H25.14V2.89ZM32.264 6.556C35.696 6.556 38.14 8.376 38.14 11.054C38.14 13.758 35.696 15.578 32.264 15.578C28.806 15.578 26.388 13.758 26.388 11.054C26.388 8.376 28.806 6.556 32.264 6.556ZM32.264 9.156C30.678 9.156 29.664 9.832 29.664 11.054C29.664 12.302 30.678 12.978 32.264 12.978C33.824 12.978 34.864 12.302 34.864 11.054C34.864 9.832 33.824 9.156 32.264 9.156ZM30.522 0.368H33.98V4.918H30.522V0.368ZM60.2639 6.634H66.4519V9.39H60.2639V6.634ZM65.5679 0.263999H69.0259V18.022H65.5679V0.263999ZM53.0879 21.142H69.5459V23.898H53.0879V21.142ZM53.0879 16.28H56.5719V22.728H53.0879V16.28ZM49.8899 1.824H53.3219V5.49H57.8979V1.824H61.2779V14.252H49.8899V1.824ZM53.3219 8.116V11.522H57.8979V8.116H53.3219ZM73.7299 3.228H93.5939V5.984H73.7299V3.228ZM72.8199 19.114H94.6079V21.896H72.8199V19.114ZM81.9459 15.942H85.3779V20.206H81.9459V15.942ZM83.6359 7.024C88.6539 7.024 91.7999 8.766 91.7999 11.73C91.7999 14.694 88.6539 16.436 83.6359 16.436C78.6179 16.436 75.4719 14.694 75.4719 11.73C75.4719 8.766 78.6179 7.024 83.6359 7.024ZM83.6359 9.702C80.6199 9.702 79.0079 10.352 79.0079 11.73C79.0079 13.108 80.6199 13.732 83.6359 13.732C86.6519 13.732 88.2639 13.108 88.2639 11.73C88.2639 10.352 86.6519 9.702 83.6359 9.702ZM81.9459 0.497999H85.3779V4.944H81.9459V0.497999ZM96.7119 11.028H118.526V13.55H96.7119V11.028ZM99.1559 14.746H115.926V20.466H102.64V22.52H99.2079V18.282H112.52V17.086H99.1559V14.746ZM99.2079 21.792H116.602V24.132H99.2079V21.792ZM99.3899 0.653999H115.874V6.322H102.848V8.298H99.4159V4.164H112.468V2.968H99.3899V0.653999ZM99.4159 7.57H116.316V9.91H99.4159V7.57ZM143.183 0.238H146.667V13.186H143.183V0.238ZM130.651 14.226H134.057V16.462H143.235V14.226H146.667V24.054H130.651V14.226ZM134.057 19.114V21.298H143.235V19.114H134.057ZM133.563 1.226C137.307 1.226 140.089 3.592 140.089 6.92C140.089 10.248 137.307 12.614 133.563 12.614C129.819 12.614 127.011 10.248 127.011 6.92C127.011 3.592 129.819 1.226 133.563 1.226ZM133.563 4.086C131.717 4.086 130.391 5.152 130.391 6.92C130.391 8.714 131.717 9.754 133.563 9.754C135.383 9.754 136.709 8.714 136.709 6.92C136.709 5.152 135.383 4.086 133.563 4.086ZM151.475 11.704H153.321C157.793 11.704 160.133 11.626 162.863 11.132L163.201 13.862C160.393 14.382 157.923 14.46 153.321 14.46H151.475V11.704ZM151.449 1.616H162.031V9.208H154.907V13.524H151.475V6.634H158.599V4.346H151.449V1.616ZM167.257 0.263999H170.715V15.084H167.257V0.263999ZM163.409 3.566H167.881V6.322H163.409V3.566ZM163.409 8.688H167.881V11.444H163.409V8.688ZM154.231 16.176H170.715V24.34H167.257V18.932H154.231V16.176ZM174.457 3.852H185.975V6.608H174.457V3.852ZM180.255 7.674C183.323 7.674 185.533 10.04 185.533 13.42C185.533 16.774 183.323 19.14 180.255 19.14C177.213 19.14 174.977 16.774 174.977 13.42C174.977 10.04 177.213 7.674 180.255 7.674ZM180.255 10.56C178.955 10.56 178.045 11.6 178.045 13.42C178.045 15.24 178.955 16.254 180.255 16.254C181.555 16.254 182.491 15.24 182.491 13.42C182.491 11.6 181.555 10.56 180.255 10.56ZM191.877 0.238H195.179V24.314H191.877V0.238ZM188.991 10.014H192.969V12.796H188.991V10.014ZM186.833 0.679999H190.057V23.3H186.833V0.679999ZM178.565 0.887999H181.971V5.594H178.565V0.887999ZM207.319 2.916H210.309V3.618C210.309 7.856 206.851 11.314 200.741 12.146L199.467 9.442C204.771 8.792 207.319 6.088 207.319 3.618V2.916ZM208.307 2.916H211.297V3.618C211.297 6.088 213.845 8.792 219.149 9.442L217.901 12.146C211.765 11.314 208.307 7.856 208.307 3.618V2.916ZM207.501 15.5H210.933V24.34H207.501V15.5ZM198.427 13.524H220.189V16.28H198.427V13.524ZM200.351 1.46H218.213V4.19H200.351V1.46ZM231.809 8.324H235.787V11.132H231.809V8.324ZM226.661 2.318H229.313V6.374C229.313 11.834 227.805 17.164 223.957 19.53L221.877 16.93C225.413 14.746 226.661 10.456 226.661 6.374V2.318ZM227.415 2.318H230.015V6.218C230.015 10.144 231.029 14.148 234.305 16.28L232.433 18.984C228.611 16.618 227.415 11.418 227.415 6.218V2.318ZM239.713 0.238H243.015V24.314H239.713V0.238ZM234.825 0.602H238.049V23.222H234.825V0.602ZM251.047 12.458H254.479V19.218H251.047V12.458ZM259.783 12.458H263.241V19.218H259.783V12.458ZM246.263 18.724H268.051V21.532H246.263V18.724ZM257.131 1.408C262.305 1.408 266.127 3.956 266.127 7.882C266.127 11.808 262.305 14.33 257.131 14.33C251.931 14.33 248.135 11.808 248.135 7.882C248.135 3.956 251.931 1.408 257.131 1.408ZM257.131 4.112C253.777 4.112 251.541 5.49 251.541 7.882C251.541 10.248 253.777 11.652 257.131 11.652C260.485 11.652 262.721 10.248 262.721 7.882C262.721 5.49 260.485 4.112 257.131 4.112ZM272.984 22.2401C272.374 22.2401 271.851 22.0246 271.414 21.5938C270.983 21.1567 270.768 20.6335 270.768 20.0241C270.768 19.4209 270.983 18.9039 271.414 18.473C271.851 18.0421 272.374 17.8267 272.984 17.8267C273.575 17.8267 274.092 18.0421 274.535 18.473C274.978 18.9039 275.2 19.4209 275.2 20.0241C275.2 20.4304 275.095 20.8028 274.886 21.1413C274.683 21.4737 274.415 21.7415 274.083 21.9446C273.75 22.1416 273.384 22.2401 272.984 22.2401Z" fill="black"/>
</svg>
