<svg width="24" height="24" viewBox="0 0 24 24" fill="none" xmlns="http://www.w3.org/2000/svg">
<path d="M15.1248 21.1004L6.69982 12.7004C6.59982 12.6004 6.52882 12.4921 6.48682 12.3754C6.44482 12.2587 6.42415 12.1337 6.42482 12.0004C6.42482 11.8671 6.44549 11.7421 6.48682 11.6254C6.52815 11.5087 6.59915 11.4004 6.69982 11.3004L15.1248 2.87539C15.3582 2.64206 15.6498 2.52539 15.9998 2.52539C16.3498 2.52539 16.6498 2.65039 16.8998 2.90039C17.1498 3.15039 17.2748 3.44206 17.2748 3.77539C17.2748 4.10872 17.1498 4.40039 16.8998 4.65039L9.54982 12.0004L16.8998 19.3504C17.1332 19.5837 17.2498 19.8714 17.2498 20.2134C17.2498 20.5554 17.1248 20.8511 16.8748 21.1004C16.6248 21.3504 16.3332 21.4754 15.9998 21.4754C15.6665 21.4754 15.3748 21.3504 15.1248 21.1004Z" fill="#1A1E27"/>
</svg>
