<svg width="122" height="122" viewBox="0 0 122 122" fill="none" xmlns="http://www.w3.org/2000/svg">
<circle cx="61" cy="61.0002" r="44.6551" transform="rotate(-30 61 61.0002)" fill="url(#paint0_linear_172_2438)"/>
<path d="M72.4752 47.92C72.4016 47.6588 72.2772 47.4147 72.1091 47.2017C71.941 46.9887 71.7325 46.811 71.4955 46.6788L60.6759 40.6974C60.4379 40.5671 60.1765 40.485 59.9067 40.4559C59.6369 40.4269 59.364 40.4513 59.1037 40.5279C58.8425 40.6015 58.5985 40.7259 58.3855 40.894C58.1725 41.0621 57.9947 41.2706 57.8625 41.5076L53.8702 48.7292L38.4512 76.6204C38.3209 76.8584 38.2388 77.1198 38.2098 77.3896C38.1807 77.6594 38.2051 77.9323 38.2817 78.1926L40.7009 86.5931C40.8522 87.1186 41.2061 87.5624 41.6846 87.8269C42.1632 88.0915 42.7272 88.1551 43.2527 88.0038L51.6532 85.5847C51.9348 85.5199 52.1996 85.3967 52.4305 85.223C52.6614 85.0493 52.8532 84.8291 52.9935 84.5765L68.2936 56.7195L72.3342 49.5912C72.4598 49.3471 72.5435 49.0837 72.5818 48.8119C72.5555 48.6484 72.5095 48.4888 72.4449 48.3364C72.4276 48.2415 72.4009 48.1486 72.365 48.059L72.4752 47.92ZM49.6998 81.8561L44.0928 83.4707L42.4782 77.8638L56.4865 52.5243L63.7081 56.5166L49.6998 81.8561ZM65.6972 52.9186L58.4756 48.9263L60.4845 45.3225L67.6806 49.3007L65.6972 52.9186Z" fill="white"/>
<path d="M81.5093 36.6855L81.5093 47.7765" stroke="white" stroke-width="3.5" stroke-linecap="round"/>
<path d="M81.5093 36.6855L81.5093 47.7765" stroke="white" stroke-width="3.5" stroke-linecap="round"/>
<path d="M86.6279 42.6572H75.537" stroke="white" stroke-width="3.5" stroke-linecap="round"/>
<path d="M86.6279 42.6572H75.537" stroke="white" stroke-width="3.5" stroke-linecap="round"/>
<defs>
<linearGradient id="paint0_linear_172_2438" x1="61" y1="16.3451" x2="61" y2="105.655" gradientUnits="userSpaceOnUse">
<stop stop-color="#3493FF"/>
<stop offset="1" stop-color="#483BDB"/>
</linearGradient>
</defs>
</svg>
