<svg width="35" height="19" viewBox="0 0 35 19" fill="none" xmlns="http://www.w3.org/2000/svg">
<path d="M0.8 8.78H1.94C4.58 8.78 6.38 8.7 8.54 8.24L8.68 9.6C6.46 10.06 4.64 10.12 1.94 10.12H0.8V8.78ZM0.8 2.04H7.68V3.4H2.42V9.44H0.8V2.04ZM13.64 0.479999H15.22V12.42H13.64V0.479999ZM10.68 5.2H14.1V6.58H10.68V5.2ZM9.66 0.82H11.22V10.86H9.66V0.82ZM8.4 11.62H9.8V12.3C9.8 15.52 6.54 17.82 2.96 18.48L2.28 17.18C5.46 16.68 8.4 14.68 8.4 12.3V11.62ZM8.62 11.62H10.04V12.3C10.04 14.68 12.98 16.68 16.16 17.18L15.48 18.48C11.9 17.82 8.62 15.52 8.62 12.3V11.62ZM20.4784 1.24H32.1184V2.58H20.4784V1.24ZM18.3984 7.2H34.7784V8.56H18.3984V7.2ZM31.0384 1.24H32.6584V2.4C32.6584 3.7 32.6584 5.38 32.1784 7.62L30.5584 7.44C31.0384 5.24 31.0384 3.68 31.0384 2.4V1.24ZM20.3184 10.34H32.7184V14.94H22.0184V17.46H20.3584V13.66H31.0784V11.68H20.3184V10.34ZM20.3584 17.02H33.1784V18.36H20.3584V17.02Z" fill="black"/>
</svg>
