<svg width="51" height="19" viewBox="0 0 51 19" fill="none" xmlns="http://www.w3.org/2000/svg">
<path d="M2.62 1.48H14.94V2.68C14.94 3.84 14.94 5.28 14.6 7.08H16.86V9.06H0.62V7.08H12.1C12.42 5.62 12.48 4.44 12.5 3.44H2.62V1.48ZM2.44 12.26V10.32H14.9V15.32H4.94V16.62H15.36V18.54H2.48V13.5H12.42V12.26H2.44ZM21.3805 2.06H23.8805V4.12C23.8805 5.82 24.5205 7.78 26.2005 9C27.8605 7.78 28.5205 5.86 28.5205 4.12V2.06H31.0205V4.12C31.0205 6.28 31.9605 8.48 34.4005 9.5L33.1205 11.34C31.4605 10.62 30.3805 9.36 29.7605 7.8C29.1405 9.44 28.0205 10.86 26.2005 11.6C24.4005 10.86 23.2605 9.44 22.6405 7.82C22.0205 9.36 20.9405 10.62 19.3005 11.34L18.0205 9.5C20.4205 8.44 21.3805 6.18 21.3805 4.12V2.06ZM18.0805 16.48V14.44H34.3405V16.48H18.0805ZM48.0409 0.74H50.5209V18.68H48.0409V0.74ZM35.6809 13.66C40.2609 11.46 42.2809 8.58 42.6609 4.6H36.6009V2.6H45.2009C45.2009 8.08 43.3009 12.56 36.9809 15.62L35.6809 13.66Z" fill="black"/>
</svg>
