<svg width="330" height="78" viewBox="0 0 330 78" fill="none" xmlns="http://www.w3.org/2000/svg">
<rect width="330" height="78" rx="10" fill="url(#paint0_linear_116_1184)"/>
<path d="M113.144 29.376H127.928V30.816C127.928 32.208 127.928 33.936 127.52 36.096H130.232V38.472H110.744V36.096H124.52C124.904 34.344 124.976 32.928 125 31.728H113.144V29.376ZM112.928 42.312V39.984H127.88V45.984H115.928V47.544H128.432V49.848H112.976V43.8H124.904V42.312H112.928ZM137.276 38.376H156.716V40.8H137.276V38.376ZM139.484 46.08C139.484 43.56 142.292 42.12 146.924 42.12C151.58 42.12 154.388 43.56 154.388 46.08C154.388 48.6 151.58 50.016 146.924 50.016C142.292 50.016 139.484 48.6 139.484 46.08ZM139.628 36.84V29.088H154.388V31.488H142.604V34.488H154.508V36.84H139.628ZM142.484 46.08C142.484 47.208 144.02 47.736 146.924 47.736C149.852 47.736 151.364 47.208 151.364 46.08C151.364 44.928 149.852 44.376 146.924 44.376C144.02 44.376 142.484 44.928 142.484 46.08ZM158.228 40.056H166.484V38.448H160.652V32.592H172.388V31.2H160.628V28.92H175.34V34.704H163.604V36.168H175.724V38.448H169.436V40.056H177.716V42.432H158.228V40.056ZM160.388 46.032V43.68H175.46V49.944H172.484V46.032H160.388ZM193.077 28.512H196.029V36.96H199.173V39.432H196.029V50.04H193.077V28.512ZM179.109 34.104V31.728H183.885V28.848H186.909V31.728H191.637V34.104H179.109ZM179.997 40.464C179.997 37.464 182.301 35.352 185.397 35.352C188.517 35.352 190.845 37.464 190.845 40.464C190.845 43.464 188.517 45.576 185.397 45.576C182.301 45.576 179.997 43.464 179.997 40.464ZM182.829 40.464C182.829 42.12 183.933 43.152 185.397 43.152C186.909 43.152 188.013 42.12 188.013 40.464C188.013 38.808 186.909 37.776 185.397 37.776C183.933 37.776 182.829 38.808 182.829 40.464ZM215.134 28.488H218.11V50.016H215.134V28.488ZM200.302 43.992C205.798 41.352 208.222 37.896 208.678 33.12H201.406V30.72H211.726C211.726 37.296 209.446 42.672 201.862 46.344L200.302 43.992Z" fill="white"/>
<defs>
<linearGradient id="paint0_linear_116_1184" x1="165" y1="0" x2="165" y2="78" gradientUnits="userSpaceOnUse">
<stop stop-color="#368FFE"/>
<stop offset="1" stop-color="#4842DE"/>
</linearGradient>
</defs>
</svg>
