<svg width="274" height="25" viewBox="0 0 274 25" fill="none" xmlns="http://www.w3.org/2000/svg">
<path d="M15.55 0.211998H19.034V24.366H15.55V0.211998ZM0.236 2.136H3.668V7.986H8.634V2.136H12.066V18.75H0.236V2.136ZM3.668 10.664V15.968H8.634V10.664H3.668ZM24.18 1.434H35.854V11.626H24.18V1.434ZM32.474 4.138H27.56V8.922H32.474V4.138ZM39.494 0.238H42.978V12.38H39.494V0.238ZM26.91 13.42H42.978V19.972H30.342V22.416H26.936V17.502H39.546V16.072H26.91V13.42ZM26.936 21.48H43.576V24.158H26.936V21.48ZM58.2639 6.634H64.4519V9.39H58.2639V6.634ZM63.5679 0.263999H67.0259V18.022H63.5679V0.263999ZM51.0879 21.142H67.5459V23.898H51.0879V21.142ZM51.0879 16.28H54.5719V22.728H51.0879V16.28ZM47.8899 1.824H51.3219V5.49H55.8979V1.824H59.2779V14.252H47.8899V1.824ZM51.3219 8.116V11.522H55.8979V8.116H51.3219ZM71.7299 3.228H91.5939V5.984H71.7299V3.228ZM70.8199 19.114H92.6079V21.896H70.8199V19.114ZM79.9459 15.942H83.3779V20.206H79.9459V15.942ZM81.6359 7.024C86.6539 7.024 89.7999 8.766 89.7999 11.73C89.7999 14.694 86.6539 16.436 81.6359 16.436C76.6179 16.436 73.4719 14.694 73.4719 11.73C73.4719 8.766 76.6179 7.024 81.6359 7.024ZM81.6359 9.702C78.6199 9.702 77.0079 10.352 77.0079 11.73C77.0079 13.108 78.6199 13.732 81.6359 13.732C84.6519 13.732 86.2639 13.108 86.2639 11.73C86.2639 10.352 84.6519 9.702 81.6359 9.702ZM79.9459 0.497999H83.3779V4.944H79.9459V0.497999ZM94.7119 11.028H116.526V13.55H94.7119V11.028ZM97.1559 14.746H113.926V20.466H100.64V22.52H97.2079V18.282H110.52V17.086H97.1559V14.746ZM97.2079 21.792H114.602V24.132H97.2079V21.792ZM97.3899 0.653999H113.874V6.322H100.848V8.298H97.4159V4.164H110.468V2.968H97.3899V0.653999ZM97.4159 7.57H114.316V9.91H97.4159V7.57ZM141.183 0.238H144.667V13.186H141.183V0.238ZM128.651 14.226H132.057V16.462H141.235V14.226H144.667V24.054H128.651V14.226ZM132.057 19.114V21.298H141.235V19.114H132.057ZM131.563 1.226C135.307 1.226 138.089 3.592 138.089 6.92C138.089 10.248 135.307 12.614 131.563 12.614C127.819 12.614 125.011 10.248 125.011 6.92C125.011 3.592 127.819 1.226 131.563 1.226ZM131.563 4.086C129.717 4.086 128.391 5.152 128.391 6.92C128.391 8.714 129.717 9.754 131.563 9.754C133.383 9.754 134.709 8.714 134.709 6.92C134.709 5.152 133.383 4.086 131.563 4.086ZM149.475 11.704H151.321C155.793 11.704 158.133 11.626 160.863 11.132L161.201 13.862C158.393 14.382 155.923 14.46 151.321 14.46H149.475V11.704ZM149.449 1.616H160.031V9.208H152.907V13.524H149.475V6.634H156.599V4.346H149.449V1.616ZM165.257 0.263999H168.715V15.084H165.257V0.263999ZM161.409 3.566H165.881V6.322H161.409V3.566ZM161.409 8.688H165.881V11.444H161.409V8.688ZM152.231 16.176H168.715V24.34H165.257V18.932H152.231V16.176ZM172.457 3.852H183.975V6.608H172.457V3.852ZM178.255 7.674C181.323 7.674 183.533 10.04 183.533 13.42C183.533 16.774 181.323 19.14 178.255 19.14C175.213 19.14 172.977 16.774 172.977 13.42C172.977 10.04 175.213 7.674 178.255 7.674ZM178.255 10.56C176.955 10.56 176.045 11.6 176.045 13.42C176.045 15.24 176.955 16.254 178.255 16.254C179.555 16.254 180.491 15.24 180.491 13.42C180.491 11.6 179.555 10.56 178.255 10.56ZM189.877 0.238H193.179V24.314H189.877V0.238ZM186.991 10.014H190.969V12.796H186.991V10.014ZM184.833 0.679999H188.057V23.3H184.833V0.679999ZM176.565 0.887999H179.971V5.594H176.565V0.887999ZM205.319 2.916H208.309V3.618C208.309 7.856 204.851 11.314 198.741 12.146L197.467 9.442C202.771 8.792 205.319 6.088 205.319 3.618V2.916ZM206.307 2.916H209.297V3.618C209.297 6.088 211.845 8.792 217.149 9.442L215.901 12.146C209.765 11.314 206.307 7.856 206.307 3.618V2.916ZM205.501 15.5H208.933V24.34H205.501V15.5ZM196.427 13.524H218.189V16.28H196.427V13.524ZM198.351 1.46H216.213V4.19H198.351V1.46ZM229.809 8.324H233.787V11.132H229.809V8.324ZM224.661 2.318H227.313V6.374C227.313 11.834 225.805 17.164 221.957 19.53L219.877 16.93C223.413 14.746 224.661 10.456 224.661 6.374V2.318ZM225.415 2.318H228.015V6.218C228.015 10.144 229.029 14.148 232.305 16.28L230.433 18.984C226.611 16.618 225.415 11.418 225.415 6.218V2.318ZM237.713 0.238H241.015V24.314H237.713V0.238ZM232.825 0.602H236.049V23.222H232.825V0.602ZM249.047 12.458H252.479V19.218H249.047V12.458ZM257.783 12.458H261.241V19.218H257.783V12.458ZM244.263 18.724H266.051V21.532H244.263V18.724ZM255.131 1.408C260.305 1.408 264.127 3.956 264.127 7.882C264.127 11.808 260.305 14.33 255.131 14.33C249.931 14.33 246.135 11.808 246.135 7.882C246.135 3.956 249.931 1.408 255.131 1.408ZM255.131 4.112C251.777 4.112 249.541 5.49 249.541 7.882C249.541 10.248 251.777 11.652 255.131 11.652C258.485 11.652 260.721 10.248 260.721 7.882C260.721 5.49 258.485 4.112 255.131 4.112ZM270.984 22.2401C270.374 22.2401 269.851 22.0246 269.414 21.5938C268.983 21.1567 268.768 20.6335 268.768 20.0241C268.768 19.4209 268.983 18.9039 269.414 18.473C269.851 18.0421 270.374 17.8267 270.984 17.8267C271.575 17.8267 272.092 18.0421 272.535 18.473C272.978 18.9039 273.2 19.4209 273.2 20.0241C273.2 20.4304 273.095 20.8028 272.886 21.1413C272.683 21.4737 272.415 21.7415 272.083 21.9446C271.75 22.1416 271.384 22.2401 270.984 22.2401Z" fill="black"/>
</svg>
