<svg width="375" height="65" viewBox="0 0 375 65" fill="none" xmlns="http://www.w3.org/2000/svg">
<rect x="0.5" y="0.5" width="374" height="64" fill="white"/>
<path d="M176.888 24.378H178.912V25.412C178.912 29.262 175.37 32.254 170.728 33.002L169.826 31.132C173.896 30.56 176.888 28.052 176.888 25.412V24.378ZM177.306 24.378H179.308V25.412C179.308 28.008 182.322 30.56 186.392 31.132L185.49 33.002C180.848 32.254 177.306 29.24 177.306 25.412V24.378ZM176.888 36.302H179.176V43.826H176.888V36.302ZM169.012 34.85H187.184V36.742H169.012V34.85ZM200.492 28.778H204.694V30.67H200.492V28.778ZM204.034 23.718H206.344V35.686H204.034V23.718ZM199.634 36.214C203.836 36.214 206.41 37.644 206.41 40.02C206.41 42.44 203.836 43.826 199.634 43.826C195.432 43.826 192.858 42.44 192.858 40.02C192.858 37.644 195.432 36.214 199.634 36.214ZM199.634 37.996C196.796 37.996 195.146 38.7 195.146 40.02C195.146 41.34 196.796 42.044 199.634 42.044C202.494 42.044 204.122 41.34 204.122 40.02C204.122 38.7 202.494 37.996 199.634 37.996ZM194.596 25.742H196.466V27.216C196.466 30.978 194.42 34.3 190.856 35.576L189.668 33.75C192.814 32.65 194.596 29.966 194.596 27.216V25.742ZM195.058 25.742H196.906V27.194C196.906 29.702 198.622 32.188 201.636 33.222L200.492 35.048C197.016 33.838 195.058 30.67 195.058 27.194V25.742ZM190.328 25.082H201.108V26.93H190.328V25.082Z" fill="#0085FF"/>
<rect x="0.5" y="0.5" width="374" height="64" stroke="black"/>
</svg>
