<svg width="390" height="65" viewBox="0 0 390 65" fill="none" xmlns="http://www.w3.org/2000/svg">
<rect x="0.25" y="0.25" width="389.5" height="64.5" fill="white" fill-opacity="0.8"/>
<path d="M183.888 24.378H185.912V25.412C185.912 29.262 182.37 32.254 177.728 33.002L176.826 31.132C180.896 30.56 183.888 28.052 183.888 25.412V24.378ZM184.306 24.378H186.308V25.412C186.308 28.008 189.322 30.56 193.392 31.132L192.49 33.002C187.848 32.254 184.306 29.24 184.306 25.412V24.378ZM183.888 36.302H186.176V43.826H183.888V36.302ZM176.012 34.85H194.184V36.742H176.012V34.85ZM207.492 28.778H211.694V30.67H207.492V28.778ZM211.034 23.718H213.344V35.686H211.034V23.718ZM206.634 36.214C210.836 36.214 213.41 37.644 213.41 40.02C213.41 42.44 210.836 43.826 206.634 43.826C202.432 43.826 199.858 42.44 199.858 40.02C199.858 37.644 202.432 36.214 206.634 36.214ZM206.634 37.996C203.796 37.996 202.146 38.7 202.146 40.02C202.146 41.34 203.796 42.044 206.634 42.044C209.494 42.044 211.122 41.34 211.122 40.02C211.122 38.7 209.494 37.996 206.634 37.996ZM201.596 25.742H203.466V27.216C203.466 30.978 201.42 34.3 197.856 35.576L196.668 33.75C199.814 32.65 201.596 29.966 201.596 27.216V25.742ZM202.058 25.742H203.906V27.194C203.906 29.702 205.622 32.188 208.636 33.222L207.492 35.048C204.016 33.838 202.058 30.67 202.058 27.194V25.742ZM197.328 25.082H208.108V26.93H197.328V25.082Z" fill="#0085FF"/>
<rect x="0.25" y="0.25" width="389.5" height="64.5" stroke="#AAAAAA" stroke-width="0.5"/>
</svg>
