<svg width="112" height="19" viewBox="0 0 112 19" fill="none" xmlns="http://www.w3.org/2000/svg">
<path d="M5.02 0.799999C7.84 0.799999 9.96 2.56 9.96 5.04C9.96 7.5 7.84 9.26 5.02 9.26C2.2 9.26 0.08 7.5 0.08 5.04C0.08 2.56 2.2 0.799999 5.02 0.799999ZM5.02 2.96C3.66 2.96 2.64 3.72 2.64 5.04C2.64 6.36 3.66 7.12 5.02 7.12C6.38 7.12 7.38 6.36 7.38 5.04C7.38 3.72 6.38 2.96 5.02 2.96ZM12.52 0.26H15.2V9.52H12.52V0.26ZM2.84 10.28H15.2V15.36H5.48V17.6H2.88V13.44H12.56V12.34H2.84V10.28ZM2.88 16.52H15.66V18.58H2.88V16.52ZM28.2384 4.74H31.7584V6.9H28.2384V4.74ZM31.0384 0.26H33.6984V11.26H31.0384V0.26ZM27.4184 11.66C31.3384 11.66 33.7584 13 33.7584 15.24C33.7584 17.5 31.3384 18.8 27.4184 18.8C23.4984 18.8 21.0784 17.5 21.0784 15.24C21.0784 13 23.4984 11.66 27.4184 11.66ZM27.4184 13.68C25.0184 13.68 23.7384 14.18 23.7384 15.24C23.7384 16.28 25.0184 16.78 27.4184 16.78C29.8384 16.78 31.1184 16.28 31.1184 15.24C31.1184 14.18 29.8384 13.68 27.4184 13.68ZM22.4784 2.12H24.6384V3.28C24.6384 6.82 22.9984 10.06 19.4584 11.26L18.0984 9.16C21.1584 8.12 22.4784 5.66 22.4784 3.28V2.12ZM23.0384 2.12H25.1784V3.28C25.1784 5.46 26.4384 7.72 29.3584 8.7L28.0584 10.8C24.6184 9.66 23.0384 6.58 23.0384 3.28V2.12ZM18.8184 1.38H28.7784V3.5H18.8184V1.38ZM41.2458 8.72H58.0058V10.88H41.2458V8.72ZM43.2658 5.34H56.1058V7.44H43.2658V5.34ZM43.2658 0.759999H56.0058V2.88H45.9058V6.38H43.2658V0.759999ZM49.5658 11.98C53.5658 11.98 55.9858 13.2 55.9858 15.38C55.9858 17.56 53.5658 18.78 49.5658 18.78C45.5658 18.78 43.1258 17.56 43.1258 15.38C43.1258 13.2 45.5658 11.98 49.5658 11.98ZM49.5658 13.98C47.0858 13.98 45.8258 14.44 45.8258 15.38C45.8258 16.34 47.0858 16.76 49.5658 16.76C52.0458 16.76 53.3058 16.34 53.3058 15.38C53.3058 14.44 52.0458 13.98 49.5658 13.98ZM59.6242 10.18H76.4042V12.3H59.6242V10.18ZM61.6842 0.619999H74.3642V5.64H64.3442V7.64H61.7042V3.76H71.7442V2.64H61.6842V0.619999ZM61.7042 6.84H74.7242V8.86H61.7042V6.84ZM66.6842 7.82H69.3442V11.34H66.6842V7.82ZM61.4842 13.34H74.4842V18.72H71.8242V15.44H61.4842V13.34ZM89.9027 0.26H92.5427V18.78H89.9027V0.26ZM91.9427 7.48H95.2227V9.7H91.9427V7.48ZM77.9427 3H88.7227V5.12H77.9427V3ZM83.3627 6.16C86.0627 6.16 88.0627 8 88.0627 10.58C88.0627 13.16 86.0627 15 83.3627 15C80.6627 15 78.6627 13.16 78.6627 10.58C78.6627 8 80.6627 6.16 83.3627 6.16ZM83.3627 8.32C82.1027 8.32 81.2027 9.16 81.2027 10.58C81.2027 12 82.1027 12.84 83.3627 12.84C84.6227 12.84 85.5227 12 85.5227 10.58C85.5227 9.16 84.6227 8.32 83.3627 8.32ZM82.0227 0.559999H84.6827V3.8H82.0227V0.559999ZM109.181 0.26H111.861V18.78H109.181V0.26ZM103.721 2.18H106.361C106.361 7.84 104.441 12.48 97.8611 15.66L96.4811 13.54C101.801 10.98 103.721 7.62 103.721 2.66V2.18ZM97.4611 2.18H104.981V4.28H97.4611V2.18Z" fill="black"/>
</svg>
