<svg width="272" height="17" viewBox="0 0 272 17" fill="none" xmlns="http://www.w3.org/2000/svg">
<path d="M0.666 13.056H7.002V9.366H2.304V1.788H13.356V9.366H8.64V13.056H15.048V14.424H0.666V13.056ZM3.942 8.016H11.736V3.12H3.942V8.016ZM27.7924 0.509999H29.4664V9.582H27.7924V0.509999ZM16.7404 5.046C16.7404 2.868 18.5224 1.32 20.9164 1.32C23.3284 1.32 25.1104 2.868 25.1104 5.046C25.1104 7.242 23.3284 8.79 20.9164 8.79C18.5224 8.79 16.7404 7.242 16.7404 5.046ZM18.3604 5.046C18.3604 6.468 19.4584 7.422 20.9164 7.422C22.4284 7.422 23.4904 6.468 23.4904 5.046C23.4904 3.642 22.4284 2.706 20.9164 2.706C19.4584 2.706 18.3604 3.642 18.3604 5.046ZM19.1344 16.17V10.392H29.4664V16.17H19.1344ZM20.7724 14.856H27.8464V11.706H20.7724V14.856ZM44.0828 0.491999H45.6848V16.386H44.0828V0.491999ZM32.3288 7.35C32.3288 3.912 33.6608 1.77 35.7128 1.77C37.6208 1.77 38.9168 3.606 39.0968 6.594H40.9328V0.833999H42.4808V15.612H40.9328V7.962H39.0968C38.9528 11.058 37.6568 12.966 35.7128 12.966C33.6608 12.966 32.3288 10.806 32.3288 7.35ZM33.8408 7.35C33.8408 9.906 34.5608 11.4 35.7128 11.4C36.8828 11.4 37.6028 9.906 37.6028 7.35C37.6028 4.83 36.8828 3.336 35.7128 3.336C34.5608 3.336 33.8408 4.83 33.8408 7.35ZM55.8817 10.248H57.4657V11.04C57.4657 12.372 58.1317 13.83 59.5717 14.694C61.0297 13.758 61.7137 12.228 61.7137 11.04V10.248H63.3517V11.04C63.3517 12.66 64.4317 14.262 66.4837 14.946L65.6557 16.152C64.1077 15.612 63.0457 14.55 62.5057 13.236C62.0197 14.514 61.0657 15.702 59.6077 16.314C58.0957 15.72 57.1417 14.604 56.6557 13.326C56.0977 14.568 55.0537 15.612 53.5597 16.152L52.7497 14.946C54.7657 14.208 55.8817 12.552 55.8817 11.04V10.248ZM52.3357 5.136C52.3357 2.958 54.1177 1.41 56.5117 1.41C58.9237 1.41 60.7057 2.958 60.7057 5.136C60.7057 7.332 58.9237 8.862 56.5117 8.862C54.1177 8.862 52.3357 7.332 52.3357 5.136ZM53.9557 5.136C53.9557 6.558 55.0357 7.494 56.5117 7.494C58.0237 7.494 59.0857 6.558 59.0857 5.136C59.0857 3.732 58.0237 2.796 56.5117 2.796C55.0357 2.796 53.9557 3.732 53.9557 5.136ZM63.3877 9.582V0.509999H65.0617V9.582H63.3877ZM69.6521 1.086H71.2721V5.154H80.4881V6.504H69.6521V1.086ZM67.7441 9.852V8.502H82.1261V9.852H67.7441ZM69.5261 16.008V11.364H71.1641V14.676H80.5961V16.008H69.5261ZM91.441 1.824H93.079V4.56C93.079 7.386 94.717 10.248 97.003 11.418L96.013 12.732C94.303 11.832 92.971 10.05 92.269 7.926C91.567 10.194 90.163 12.102 88.381 13.038L87.373 11.688C89.785 10.5 91.441 7.494 91.441 4.56V1.824ZM98.227 16.404V0.509999H99.883V6.846H102.403V8.25H99.883V16.404H98.227ZM114.067 0.509999H115.723V4.488H118.009V5.874H115.723V9.978H114.067V0.509999ZM103.969 2.706V1.356H111.133V5.82H105.625V7.854C108.379 7.854 110.341 7.764 112.645 7.35L112.789 8.7C110.359 9.132 108.271 9.204 105.265 9.204H104.005V4.578H109.513V2.706H103.969ZM105.625 16.17V10.716H115.723V16.17H105.625ZM107.245 14.856H114.085V12.048H107.245V14.856ZM119.108 7.026H133.454V8.358H119.108V7.026ZM120.8 10.896V9.618H131.636V13.47H122.474V14.91H132.086V16.206H120.854V12.246H129.998V10.896H120.8ZM120.962 5.838V0.977999H131.6V2.292H122.618V4.506H131.726V5.838H120.962ZM146.774 0.491999H148.376V16.386H146.774V0.491999ZM135.02 7.35C135.02 3.912 136.352 1.77 138.404 1.77C140.312 1.77 141.608 3.606 141.788 6.594H143.624V0.833999H145.172V15.612H143.624V7.962H141.788C141.644 11.058 140.348 12.966 138.404 12.966C136.352 12.966 135.02 10.806 135.02 7.35ZM136.532 7.35C136.532 9.906 137.252 11.4 138.404 11.4C139.574 11.4 140.294 9.906 140.294 7.35C140.294 4.83 139.574 3.336 138.404 3.336C137.252 3.336 136.532 4.83 136.532 7.35ZM162.525 0.491999H164.109V16.386H162.525V0.491999ZM150.519 11.832C153.903 9.816 155.505 7.098 155.775 3.822H151.257V2.49H157.413C157.413 4.038 157.197 5.514 156.711 6.9H159.231V0.887999H160.779V15.594H159.231V8.232H156.135C155.199 10.068 153.705 11.688 151.491 13.002L150.519 11.832ZM181.146 0.509999H182.802V3.84H185.07V5.19H182.802V8.556H181.146V0.509999ZM170.67 4.614C170.67 2.508 172.434 1.05 174.81 1.05C177.204 1.05 178.932 2.508 178.932 4.614C178.932 6.684 177.204 8.142 174.81 8.142C172.434 8.142 170.67 6.684 170.67 4.614ZM172.272 4.614C172.272 5.91 173.352 6.792 174.81 6.792C176.268 6.792 177.33 5.91 177.33 4.614C177.33 3.282 176.268 2.4 174.81 2.4C173.352 2.4 172.272 3.282 172.272 4.614ZM172.614 10.572V9.276H182.802V13.272H174.27V14.856H183.324V16.17H172.65V12.048H181.164V10.572H172.614ZM197.562 0.509999H199.218V9.924H197.562V0.509999ZM186.978 2.796V1.446H194.196V5.892H188.616V7.872C191.388 7.872 193.422 7.764 195.816 7.404L195.996 8.736C193.44 9.15 191.298 9.222 188.31 9.222H186.996V4.614H192.576V2.796H186.978ZM188.904 16.17V10.752H199.218V16.17H188.904ZM190.524 14.856H197.616V12.066H190.524V14.856ZM213.276 0.473999H214.95V16.422H213.276V0.473999ZM202.458 7.26C202.458 3.84 204.168 1.698 206.526 1.698C208.884 1.698 210.612 3.84 210.612 7.26C210.612 10.662 208.884 12.84 206.526 12.84C204.168 12.84 202.458 10.662 202.458 7.26ZM204.06 7.26C204.06 9.798 205.068 11.364 206.526 11.364C208.002 11.364 209.01 9.798 209.01 7.26C209.01 4.74 208.002 3.192 206.526 3.192C205.068 3.192 204.06 4.74 204.06 7.26ZM232.491 0.491999H234.147V4.182H236.415V5.55H234.147V9.096H232.491V0.491999ZM221.799 7.944C225.597 7.044 227.739 5.172 227.991 2.778H222.519V1.428H229.845C229.845 5.478 227.073 8.16 222.393 9.294L221.799 7.944ZM224.013 16.17V9.798H225.687V11.67H232.491V9.798H234.147V16.17H224.013ZM225.687 14.856H232.491V12.984H225.687V14.856ZM248.944 0.491999H250.6V16.386H248.944V0.491999ZM238.486 12.336V2.04H240.124V10.896C242.428 10.878 244.822 10.698 247.396 10.194L247.594 11.58C244.84 12.156 242.284 12.336 239.818 12.336H238.486ZM263.83 0.473999H265.504V6.666H268.006V8.07H265.504V16.422H263.83V0.473999ZM253.894 12.48V2.022H261.274V3.372H255.532V11.112C258.214 11.094 260.212 10.968 262.462 10.554L262.624 11.958C260.194 12.39 258.088 12.48 255.154 12.48H253.894ZM269.375 13.506H271.193V15.27H269.375V13.506Z" fill="#494949"/>
</svg>
