<svg width="293" height="25" viewBox="0 0 293 25" fill="none" xmlns="http://www.w3.org/2000/svg">
<path d="M16.042 0.887999H19.266V10.378H22.282V13.03H19.266V24.21H16.042V0.887999ZM0.572 17.658C2.262 17.658 4.212 17.658 6.266 17.606V15.552C3.822 15.084 2.21 13.498 2.21 11.34C2.21 8.74 4.55 6.972 7.878 6.972C11.206 6.972 13.546 8.74 13.546 11.34C13.546 13.498 11.934 15.084 9.49 15.552V17.476C11.31 17.372 13.13 17.216 14.846 16.982L15.08 19.296C10.166 20.232 4.888 20.258 0.962 20.258L0.572 17.658ZM0.988 6.01V3.462H6.266V0.991999H9.49V3.462H14.716V6.01H0.988ZM5.252 11.34C5.252 12.562 6.292 13.264 7.878 13.264C9.464 13.264 10.504 12.562 10.504 11.34C10.504 10.118 9.464 9.39 7.878 9.39C6.292 9.39 5.252 10.118 5.252 11.34ZM28.7046 2.136H31.9546V4.528C31.9546 7.362 33.5666 10.092 37.2066 11.236L35.5426 13.758C33.0726 12.9 31.3566 11.314 30.3686 9.26C29.3806 11.626 27.5606 13.498 24.9086 14.408L23.1926 11.86C27.0406 10.56 28.7046 7.44 28.7046 4.242V2.136ZM26.3906 19.712C26.3906 16.904 29.4066 15.24 34.2426 15.24C39.0786 15.24 42.1206 16.904 42.1206 19.712C42.1206 22.52 39.0786 24.21 34.2426 24.21C29.4066 24.21 26.3906 22.52 26.3906 19.712ZM29.5886 19.712C29.5886 21.038 31.2526 21.688 34.2426 21.688C37.2846 21.688 38.9226 21.038 38.9226 19.712C38.9226 18.386 37.2846 17.736 34.2426 17.736C31.2526 17.736 29.5886 18.386 29.5886 19.712ZM38.6106 14.694V0.887999H41.8606V6.348H44.9806V9.026H41.8606V14.694H38.6106ZM56.6552 15.396C61.6992 15.396 64.9232 17.06 64.9232 19.816C64.9232 22.52 61.6992 24.184 56.6552 24.184C51.6632 24.184 48.4392 22.52 48.4392 19.816C48.4392 17.06 51.6632 15.396 56.6552 15.396ZM46.3072 13.888V11.314H54.1592V7.232H57.3832V11.314H67.2892V13.888H46.3072ZM48.6732 4.476V1.928H64.7672V3.852C64.7672 5.698 64.7672 7.648 64.1432 10.066L60.9452 9.754C61.4912 7.648 61.5692 6.062 61.5692 4.476H48.6732ZM51.6632 19.816C51.6632 21.064 53.4572 21.74 56.6552 21.74C59.8792 21.74 61.7252 21.064 61.7252 19.816C61.7252 18.49 59.8792 17.84 56.6552 17.84C53.4572 17.84 51.6632 18.49 51.6632 19.816ZM68.9798 13.862H90.0918V16.488H85.1258V24.184H81.8498V16.488H77.0918V24.184H73.8158V16.488H68.9798V13.862ZM71.1118 6.894C71.1118 3.696 74.5178 1.668 79.4838 1.668C84.4498 1.668 87.8558 3.696 87.8558 6.894C87.8558 10.04 84.4498 12.068 79.4838 12.068C74.5178 12.068 71.1118 10.04 71.1118 6.894ZM74.4138 6.894C74.4138 8.558 76.3898 9.494 79.4838 9.494C82.5778 9.494 84.5538 8.558 84.5538 6.894C84.5538 5.204 82.5778 4.242 79.4838 4.242C76.3898 4.242 74.4138 5.204 74.4138 6.894ZM91.7044 11.366H112.816V13.706H91.7044V11.366ZM94.0964 17.138V14.98H110.294V20.414H97.3204V21.818H110.944V24.002H94.1224V18.386H107.122V17.138H94.0964ZM94.3044 3.462V1.304H110.242V6.738H97.5284V8.038H110.658V10.222H94.3304V4.71H107.044V3.462H94.3044ZM126.167 2.682H129.443V6.166C129.443 10.482 131.367 14.746 135.293 16.436L133.395 19.062C130.743 17.814 128.897 15.474 127.857 12.588C126.817 15.734 124.919 18.256 122.111 19.582L120.161 16.93C124.165 15.162 126.167 10.69 126.167 6.166V2.682ZM136.515 24.236V0.836H139.765V24.236H136.515ZM143.692 2.266H156.276V4.84H151.674C151.7 7.596 153.338 10.378 157.03 11.6L155.392 14.122C152.844 13.29 151.076 11.626 150.062 9.52C149.048 11.808 147.202 13.628 144.498 14.512L142.834 12.016C146.656 10.768 148.372 7.778 148.398 4.84H143.692V2.266ZM145.954 18.542V15.942H161.476V24.21H158.226V18.542H145.954ZM158.226 14.928V0.887999H161.476V6.556H164.596V9.234H161.476V14.928H158.226ZM180.898 0.887999H184.096V10.04H187.502V12.718H184.096V24.21H180.898V0.887999ZM165.766 6.946V4.372H170.94V1.252H174.216V4.372H179.338V6.946H165.766ZM166.728 13.836C166.728 10.586 169.224 8.298 172.578 8.298C175.958 8.298 178.48 10.586 178.48 13.836C178.48 17.086 175.958 19.374 172.578 19.374C169.224 19.374 166.728 17.086 166.728 13.836ZM169.796 13.836C169.796 15.63 170.992 16.748 172.578 16.748C174.216 16.748 175.412 15.63 175.412 13.836C175.412 12.042 174.216 10.924 172.578 10.924C170.992 10.924 169.796 12.042 169.796 13.836ZM194.341 2.682H197.617V6.166C197.617 10.482 199.541 14.746 203.467 16.436L201.569 19.062C198.917 17.814 197.071 15.474 196.031 12.588C194.991 15.734 193.093 18.256 190.285 19.582L188.335 16.93C192.339 15.162 194.341 10.69 194.341 6.166V2.682ZM204.689 24.236V0.836H207.939V24.236H204.689ZM221.512 2.5C221.512 4.138 221.304 5.646 220.862 6.998H223.358V1.304H226.374V13.836H223.358V9.572H219.692C218.288 11.782 216.078 13.524 212.906 14.824L211.346 12.458C215.636 10.742 217.742 8.35 218.184 5.074H212.542V2.5H221.512ZM212.386 21.636C215.402 20.596 216.754 18.23 216.754 15.968V14.876H219.874V15.968C219.874 17.814 220.654 19.79 222.526 21.116C224.45 19.712 225.23 17.684 225.23 15.968V14.876H228.428V15.968C228.428 18.386 229.728 20.674 232.77 21.636L231.21 24.028C229 23.248 227.544 21.818 226.764 19.998C226.01 21.792 224.658 23.378 222.578 24.236C220.42 23.43 219.068 21.896 218.314 20.076C217.482 21.818 216.052 23.248 213.946 24.028L212.386 21.636ZM228.09 14.148V0.861999H231.132V14.148H228.09ZM240.44 2.5C243.56 2.5 245.926 5.074 246.368 9.312H250.372V0.836H253.596V24.236H250.372V11.912H246.394C246.056 16.384 243.638 19.14 240.44 19.14C236.956 19.14 234.434 15.916 234.434 10.794C234.434 5.698 236.956 2.5 240.44 2.5ZM237.502 10.794C237.502 14.304 238.698 16.202 240.44 16.202C242.156 16.202 243.326 14.304 243.326 10.794C243.326 7.31 242.156 5.438 240.44 5.438C238.698 5.438 237.502 7.31 237.502 10.794ZM256.769 18.854H261.475V13.082C259.681 11.99 258.615 10.352 258.615 8.298C258.615 4.502 262.281 2.058 267.299 2.058C272.317 2.058 276.009 4.502 276.009 8.298C276.009 10.326 274.943 11.99 273.149 13.082V18.854H277.881V21.48H256.769V18.854ZM261.813 8.298C261.813 10.612 264.023 12.016 267.299 12.016C270.601 12.016 272.785 10.612 272.785 8.298C272.785 5.958 270.601 4.58 267.299 4.58C264.023 4.58 261.813 5.958 261.813 8.298ZM264.673 18.854H269.951V14.252C269.119 14.434 268.235 14.512 267.299 14.512C266.363 14.512 265.505 14.434 264.673 14.278V18.854ZM283.862 19.348H287.164V22.52H283.862V19.348ZM279.884 4.45C280.56 3.774 282.302 1.616 285.551 1.616C288.75 1.616 292.104 4.164 292.104 7.856C292.104 10.586 289.946 12.692 288.568 13.68C287.346 14.59 287.086 14.85 287.086 16.852H283.862C283.862 13.446 285.136 12.198 286.644 11.08C287.762 10.248 288.88 9.156 288.88 7.856C288.88 5.958 287.398 4.84 285.551 4.84C283.862 4.84 282.952 5.958 282.172 6.738L279.884 4.45Z" fill="black"/>
</svg>
