<svg width="164" height="23" viewBox="0 0 164 23" fill="none" xmlns="http://www.w3.org/2000/svg">
<path d="M5.648 2C8.528 2 10.712 4.376 11.12 8.288H14.816V0.464H17.792V22.064H14.816V10.688H11.144C10.832 14.816 8.6 17.36 5.648 17.36C2.432 17.36 0.104 14.384 0.104 9.656C0.104 4.952 2.432 2 5.648 2ZM2.936 9.656C2.936 12.896 4.04 14.648 5.648 14.648C7.232 14.648 8.312 12.896 8.312 9.656C8.312 6.44 7.232 4.712 5.648 4.712C4.04 4.712 2.936 6.44 2.936 9.656ZM24.0566 14.768H27.0566V19.232H39.4406V21.632H24.0566V14.768ZM21.0566 13.04V2.144H26.6726V4.52H24.0086V10.64C24.9446 10.592 25.8326 10.52 26.8166 10.304L27.0566 12.68C25.3526 13.04 24.0086 13.04 22.1126 13.04H21.0566ZM27.7046 13.04V2.144H33.6806V4.52H30.6326V10.64C32.1686 10.616 33.1046 10.52 34.2086 10.28L34.4486 12.632C32.9366 13.016 31.6406 13.04 28.8566 13.04H27.7046ZM33.0086 8.576V6.2H35.9366V0.511999H38.9126V16.088H35.9366V8.576H33.0086ZM53.3004 1.136C56.5884 1.136 59.0124 3.176 59.0124 6.056C59.0124 8.888 56.5884 10.952 53.3004 10.952C50.0124 10.952 47.5644 8.888 47.5644 6.056C47.5644 3.176 50.0124 1.136 53.3004 1.136ZM50.4684 6.056C50.4684 7.616 51.6684 8.552 53.3004 8.552C54.9084 8.552 56.1564 7.616 56.1564 6.056C56.1564 4.496 54.9084 3.584 53.3004 3.584C51.6684 3.584 50.4684 4.496 50.4684 6.056ZM50.7804 14.504V12.176H65.0844V18.008H53.7564V19.448H65.6364V21.776H50.8284V15.848H62.1564V14.504H50.7804ZM62.0844 11.312V0.511999H65.0844V11.312H62.0844ZM79.8689 5.72H83.2049V0.511999H86.2049V13.304H83.2049V8.144H79.8689V5.72ZM68.1329 10.928C71.5889 9.752 73.1969 6.944 73.2449 4.208H68.9489V1.832H80.4929V4.208H76.2689C76.3409 6.704 77.8769 9.272 81.1649 10.376L79.7249 12.728C77.3729 11.936 75.7409 10.376 74.8289 8.456C73.8929 10.64 72.1889 12.416 69.6449 13.28L68.1329 10.928ZM71.5889 17.912C71.5889 15.32 74.3969 13.784 78.9329 13.784C83.4689 13.784 86.2769 15.32 86.2769 17.912C86.2769 20.528 83.4689 22.064 78.9329 22.064C74.3969 22.064 71.5889 20.528 71.5889 17.912ZM74.5409 17.912C74.5409 19.136 76.0769 19.76 78.9329 19.76C81.7889 19.76 83.3009 19.136 83.3009 17.912C83.3009 16.664 81.7889 16.04 78.9329 16.04C76.0769 16.04 74.5409 16.664 74.5409 17.912ZM104.038 0.511999H107.038V15.992H104.038V0.511999ZM89.5175 7.328C89.5175 4.16 92.0615 1.904 95.3495 1.904C98.6375 1.904 101.206 4.16 101.206 7.328C101.206 10.496 98.6375 12.8 95.3495 12.8C92.0615 12.8 89.5175 10.496 89.5175 7.328ZM92.4455 7.328C92.4455 9.104 93.7175 10.184 95.3495 10.184C97.0055 10.184 98.2775 9.104 98.2775 7.328C98.2775 5.552 97.0055 4.448 95.3495 4.448C93.7175 4.448 92.4455 5.552 92.4455 7.328ZM92.7815 21.632V14.456H95.7335V19.232H107.59V21.632H92.7815ZM123.982 0.464H126.982V8.768H130.006V11.216H126.982V22.016H123.982V0.464ZM109.99 15.992C115.03 13.4 117.694 9.92 118.246 5.12H111.142V2.696H121.27C121.27 9.152 118.774 14.672 111.646 18.272L109.99 15.992ZM131.135 17.096H135.479V11.768C133.823 10.76 132.839 9.248 132.839 7.352C132.839 3.848 136.223 1.592 140.855 1.592C145.487 1.592 148.895 3.848 148.895 7.352C148.895 9.224 147.911 10.76 146.255 11.768V17.096H150.623V19.52H131.135V17.096ZM135.791 7.352C135.791 9.488 137.831 10.784 140.855 10.784C143.903 10.784 145.919 9.488 145.919 7.352C145.919 5.192 143.903 3.92 140.855 3.92C137.831 3.92 135.791 5.192 135.791 7.352ZM138.431 17.096H143.303V12.848C142.535 13.016 141.719 13.088 140.855 13.088C139.991 13.088 139.199 13.016 138.431 12.872V17.096ZM156.143 17.552H159.191V20.48H156.143V17.552ZM152.471 3.8C153.095 3.176 154.703 1.184 157.703 1.184C160.655 1.184 163.751 3.536 163.751 6.944C163.751 9.464 161.759 11.408 160.487 12.32C159.359 13.16 159.119 13.4 159.119 15.248H156.143C156.143 12.104 157.319 10.952 158.711 9.92C159.743 9.152 160.775 8.144 160.775 6.944C160.775 5.192 159.407 4.16 157.703 4.16C156.143 4.16 155.303 5.192 154.583 5.912L152.471 3.8Z" fill="#282828"/>
</svg>
