<svg width="305" height="25" viewBox="0 0 305 25" fill="none" xmlns="http://www.w3.org/2000/svg">
<path d="M0.066 18.698H21.854V21.532H0.066V18.698ZM1.73 2.318H20.06V5.074H1.73V2.318ZM1.834 12.276H19.982V15.058H1.834V12.276ZM5.006 4.866H8.464V12.536H5.006V4.866ZM13.352 4.866H16.784V12.536H13.352V4.866ZM23.984 18.854H45.772V21.662H23.984V18.854ZM33.11 14.304H36.568V19.998H33.11V14.304ZM26.428 1.798H43.328V9.806H29.912V13.862H26.48V7.102H39.896V4.528H26.428V1.798ZM26.48 12.484H43.874V15.266H26.48V12.484ZM64.4639 0.238H67.9479V12.562H64.4639V0.238ZM51.6459 13.524H67.9479V20.024H55.1039V22.936H51.6979V17.554H64.5159V16.176H51.6459V13.524ZM51.6979 21.48H68.5979V24.158H51.6979V21.48ZM48.9159 1.694H61.8899V4.346H48.9159V1.694ZM48.6299 12.146L48.2919 9.416C52.5039 9.416 58.1199 9.338 62.7739 8.766L62.9559 11.236C58.1979 12.016 52.7899 12.12 48.6299 12.146ZM50.8139 2.89H54.1159V10.768H50.8139V2.89ZM56.6379 2.89H59.9919V10.768H56.6379V2.89ZM83.2195 2.084H86.0275V5.594C86.0275 11.548 83.9475 17.138 79.3975 19.374L77.3175 16.592C81.3735 14.694 83.2195 10.066 83.2195 5.594V2.084ZM83.9215 2.084H86.6775V5.594C86.6775 9.91 88.3935 14.304 92.2415 16.176L90.1615 18.932C85.8195 16.722 83.9215 11.366 83.9215 5.594V2.084ZM93.2035 0.238H96.6875V24.314H93.2035V0.238ZM95.9075 9.494H100.171V12.38H95.9075V9.494ZM107.579 2.916H110.439V4.944C110.439 9.494 108.229 13.602 103.601 15.11L101.833 12.406C105.837 11.106 107.579 7.986 107.579 4.944V2.916ZM108.281 2.916H111.115V4.944C111.115 7.804 112.831 10.742 116.757 11.99L114.989 14.668C110.465 13.238 108.281 9.312 108.281 4.944V2.916ZM102.743 1.954H115.847V4.684H102.743V1.954ZM118.265 0.263999H121.749V17.632H118.265V0.263999ZM105.707 21.142H122.347V23.898H105.707V21.142ZM105.707 16.072H109.165V22.52H105.707V16.072ZM136.541 0.575998C142.027 0.575998 145.251 2.032 145.251 4.684C145.251 7.336 142.027 8.792 136.541 8.792C131.029 8.792 127.831 7.336 127.831 4.684C127.831 2.032 131.029 0.575998 136.541 0.575998ZM136.541 3.098C133.057 3.098 131.419 3.618 131.419 4.684C131.419 5.802 133.057 6.27 136.541 6.27C140.025 6.27 141.663 5.802 141.663 4.684C141.663 3.618 140.025 3.098 136.541 3.098ZM125.647 9.91H147.409V12.64H125.647V9.91ZM128.143 13.992H144.783V20.18H131.575V22.312H128.169V17.788H141.377V16.566H128.143V13.992ZM128.169 21.558H145.407V24.158H128.169V21.558ZM167.881 3.748H173.809V6.504H167.881V3.748ZM172.275 0.238H175.733V12.458H172.275V0.238ZM159.821 13.472H175.733V19.946H163.279V22.962H159.873V17.45H172.301V16.124H159.821V13.472ZM159.873 21.376H176.409V24.054H159.873V21.376ZM161.095 1.018H163.903V2.734C163.903 7.284 161.771 11.21 157.169 12.666L155.401 9.936C159.405 8.74 161.095 5.802 161.095 2.734V1.018ZM161.771 1.018H164.579V2.734C164.579 5.594 166.191 8.376 169.987 9.52L168.219 12.198C163.825 10.768 161.771 7.05 161.771 2.734V1.018ZM192.553 6.062H197.129V8.87H192.553V6.062ZM196.193 0.238H199.651V14.538H196.193V0.238ZM191.487 15.058C196.583 15.058 199.729 16.8 199.729 19.712C199.729 22.65 196.583 24.34 191.487 24.34C186.391 24.34 183.245 22.65 183.245 19.712C183.245 16.8 186.391 15.058 191.487 15.058ZM191.487 17.684C188.367 17.684 186.703 18.334 186.703 19.712C186.703 21.064 188.367 21.714 191.487 21.714C194.633 21.714 196.297 21.064 196.297 19.712C196.297 18.334 194.633 17.684 191.487 17.684ZM185.065 2.656H187.873V4.164C187.873 8.766 185.741 12.978 181.139 14.538L179.371 11.808C183.349 10.456 185.065 7.258 185.065 4.164V2.656ZM185.793 2.656H188.575V4.164C188.575 6.998 190.213 9.936 194.009 11.21L192.319 13.94C187.847 12.458 185.793 8.454 185.793 4.164V2.656ZM180.307 1.694H193.255V4.45H180.307V1.694ZM203.393 3.852H214.911V6.608H203.393V3.852ZM209.191 7.674C212.259 7.674 214.469 10.04 214.469 13.42C214.469 16.774 212.259 19.14 209.191 19.14C206.149 19.14 203.913 16.774 203.913 13.42C203.913 10.04 206.149 7.674 209.191 7.674ZM209.191 10.56C207.891 10.56 206.981 11.6 206.981 13.42C206.981 15.24 207.891 16.254 209.191 16.254C210.491 16.254 211.427 15.24 211.427 13.42C211.427 11.6 210.491 10.56 209.191 10.56ZM220.813 0.238H224.115V24.314H220.813V0.238ZM217.927 10.014H221.905V12.796H217.927V10.014ZM215.769 0.679999H218.993V23.3H215.769V0.679999ZM207.501 0.887999H210.907V5.594H207.501V0.887999ZM236.255 2.916H239.245V3.618C239.245 7.856 235.787 11.314 229.677 12.146L228.403 9.442C233.707 8.792 236.255 6.088 236.255 3.618V2.916ZM237.243 2.916H240.233V3.618C240.233 6.088 242.781 8.792 248.085 9.442L246.837 12.146C240.701 11.314 237.243 7.856 237.243 3.618V2.916ZM236.437 15.5H239.869V24.34H236.437V15.5ZM227.363 13.524H249.125V16.28H227.363V13.524ZM229.287 1.46H247.149V4.19H229.287V1.46ZM260.745 8.324H264.723V11.132H260.745V8.324ZM255.597 2.318H258.249V6.374C258.249 11.834 256.741 17.164 252.893 19.53L250.813 16.93C254.349 14.746 255.597 10.456 255.597 6.374V2.318ZM256.351 2.318H258.951V6.218C258.951 10.144 259.965 14.148 263.241 16.28L261.369 18.984C257.547 16.618 256.351 11.418 256.351 6.218V2.318ZM268.649 0.238H271.951V24.314H268.649V0.238ZM263.761 0.602H266.985V23.222H263.761V0.602ZM279.983 12.458H283.415V19.218H279.983V12.458ZM288.719 12.458H292.177V19.218H288.719V12.458ZM275.199 18.724H296.987V21.532H275.199V18.724ZM286.067 1.408C291.241 1.408 295.063 3.956 295.063 7.882C295.063 11.808 291.241 14.33 286.067 14.33C280.867 14.33 277.071 11.808 277.071 7.882C277.071 3.956 280.867 1.408 286.067 1.408ZM286.067 4.112C282.713 4.112 280.477 5.49 280.477 7.882C280.477 10.248 282.713 11.652 286.067 11.652C289.421 11.652 291.657 10.248 291.657 7.882C291.657 5.49 289.421 4.112 286.067 4.112ZM301.919 22.2401C301.31 22.2401 300.787 22.0246 300.35 21.5938C299.919 21.1567 299.703 20.6335 299.703 20.0241C299.703 19.4209 299.919 18.9039 300.35 18.473C300.787 18.0421 301.31 17.8267 301.919 17.8267C302.51 17.8267 303.027 18.0421 303.471 18.473C303.914 18.9039 304.135 19.4209 304.135 20.0241C304.135 20.4304 304.031 20.8028 303.821 21.1413C303.618 21.4737 303.35 21.7415 303.018 21.9446C302.686 22.1416 302.319 22.2401 301.919 22.2401Z" fill="black"/>
</svg>
