<svg width="281" height="25" viewBox="0 0 281 25" fill="none" xmlns="http://www.w3.org/2000/svg">
<path d="M0.066 18.776H21.854V21.584H0.066V18.776ZM9.218 14.148H12.676V20.232H9.218V14.148ZM9.192 5.256H12.26V5.776C12.26 10.378 8.594 14.096 1.99 14.954L0.742 12.224C6.592 11.522 9.192 8.532 9.192 5.776V5.256ZM9.66 5.256H12.702V5.776C12.702 8.532 15.302 11.522 21.152 12.224L19.904 14.954C13.3 14.096 9.66 10.378 9.66 5.776V5.256ZM1.912 3.488H19.982V6.27H1.912V3.488ZM9.218 0.549999H12.676V4.632H9.218V0.549999ZM41.352 0.238H44.628V24.314H41.352V0.238ZM38.128 9.494H42.132V12.276H38.128V9.494ZM35.97 0.653999H39.168V23.17H35.97V0.653999ZM24.634 16.046H26.324C29.288 16.046 31.758 15.942 34.618 15.422L34.878 18.23C31.966 18.802 29.418 18.88 26.324 18.88H24.634V16.046ZM24.634 3.02H33.526V5.802H28.066V17.398H24.634V3.02ZM56.3635 2.24H71.5215V4.996H56.3635V2.24ZM53.8935 18.776H75.6555V21.558H53.8935V18.776ZM70.1435 2.24H73.5495V4.346C73.5495 7.258 73.5755 10.664 72.4575 15.89L69.0515 15.526C70.1435 10.638 70.1435 7.128 70.1435 4.346V2.24ZM70.7675 8.038V10.638L56.0775 11.444L55.6095 8.506L70.7675 8.038ZM61.6155 13.004H65.0735V19.79H61.6155V13.004ZM80.3595 11.34H97.2855V14.096H80.3595V11.34ZM77.8375 18.594H99.6255V21.428H77.8375V18.594ZM80.3595 2.214H97.1035V5.022H83.7915V12.484H80.3595V2.214ZM101.729 11.028H123.543V13.55H101.729V11.028ZM104.173 14.746H120.943V20.466H107.657V22.52H104.225V18.282H117.537V17.086H104.173V14.746ZM104.225 21.792H121.619V24.132H104.225V21.792ZM104.407 0.653999H120.891V6.322H107.865V8.298H104.433V4.164H117.485V2.968H104.407V0.653999ZM104.433 7.57H121.333V9.91H104.433V7.57ZM148.201 0.238H151.685V13.186H148.201V0.238ZM135.669 14.226H139.075V16.462H148.253V14.226H151.685V24.054H135.669V14.226ZM139.075 19.114V21.298H148.253V19.114H139.075ZM138.581 1.226C142.325 1.226 145.107 3.592 145.107 6.92C145.107 10.248 142.325 12.614 138.581 12.614C134.837 12.614 132.029 10.248 132.029 6.92C132.029 3.592 134.837 1.226 138.581 1.226ZM138.581 4.086C136.735 4.086 135.409 5.152 135.409 6.92C135.409 8.714 136.735 9.754 138.581 9.754C140.401 9.754 141.727 8.714 141.727 6.92C141.727 5.152 140.401 4.086 138.581 4.086ZM156.493 11.704H158.339C162.811 11.704 165.151 11.626 167.881 11.132L168.219 13.862C165.411 14.382 162.941 14.46 158.339 14.46H156.493V11.704ZM156.467 1.616H167.049V9.208H159.925V13.524H156.493V6.634H163.617V4.346H156.467V1.616ZM172.275 0.263999H175.733V15.084H172.275V0.263999ZM168.427 3.566H172.899V6.322H168.427V3.566ZM168.427 8.688H172.899V11.444H168.427V8.688ZM159.249 16.176H175.733V24.34H172.275V18.932H159.249V16.176ZM179.475 3.852H190.993V6.608H179.475V3.852ZM185.273 7.674C188.341 7.674 190.551 10.04 190.551 13.42C190.551 16.774 188.341 19.14 185.273 19.14C182.231 19.14 179.995 16.774 179.995 13.42C179.995 10.04 182.231 7.674 185.273 7.674ZM185.273 10.56C183.973 10.56 183.063 11.6 183.063 13.42C183.063 15.24 183.973 16.254 185.273 16.254C186.573 16.254 187.509 15.24 187.509 13.42C187.509 11.6 186.573 10.56 185.273 10.56ZM196.895 0.238H200.197V24.314H196.895V0.238ZM194.009 10.014H197.987V12.796H194.009V10.014ZM191.851 0.679999H195.075V23.3H191.851V0.679999ZM183.583 0.887999H186.989V5.594H183.583V0.887999ZM212.337 2.916H215.327V3.618C215.327 7.856 211.869 11.314 205.759 12.146L204.485 9.442C209.789 8.792 212.337 6.088 212.337 3.618V2.916ZM213.325 2.916H216.315V3.618C216.315 6.088 218.863 8.792 224.167 9.442L222.919 12.146C216.783 11.314 213.325 7.856 213.325 3.618V2.916ZM212.519 15.5H215.951V24.34H212.519V15.5ZM203.445 13.524H225.207V16.28H203.445V13.524ZM205.369 1.46H223.231V4.19H205.369V1.46ZM236.827 8.324H240.805V11.132H236.827V8.324ZM231.679 2.318H234.331V6.374C234.331 11.834 232.823 17.164 228.975 19.53L226.895 16.93C230.431 14.746 231.679 10.456 231.679 6.374V2.318ZM232.433 2.318H235.033V6.218C235.033 10.144 236.047 14.148 239.323 16.28L237.451 18.984C233.629 16.618 232.433 11.418 232.433 6.218V2.318ZM244.731 0.238H248.033V24.314H244.731V0.238ZM239.843 0.602H243.067V23.222H239.843V0.602ZM256.065 12.458H259.497V19.218H256.065V12.458ZM264.801 12.458H268.259V19.218H264.801V12.458ZM251.281 18.724H273.069V21.532H251.281V18.724ZM262.149 1.408C267.323 1.408 271.145 3.956 271.145 7.882C271.145 11.808 267.323 14.33 262.149 14.33C256.949 14.33 253.153 11.808 253.153 7.882C253.153 3.956 256.949 1.408 262.149 1.408ZM262.149 4.112C258.795 4.112 256.559 5.49 256.559 7.882C256.559 10.248 258.795 11.652 262.149 11.652C265.503 11.652 267.739 10.248 267.739 7.882C267.739 5.49 265.503 4.112 262.149 4.112ZM278.001 22.2401C277.392 22.2401 276.869 22.0246 276.432 21.5938C276.001 21.1567 275.786 20.6335 275.786 20.0241C275.786 19.4209 276.001 18.9039 276.432 18.473C276.869 18.0421 277.392 17.8267 278.001 17.8267C278.592 17.8267 279.109 18.0421 279.553 18.473C279.996 18.9039 280.217 19.4209 280.217 20.0241C280.217 20.4304 280.113 20.8028 279.903 21.1413C279.7 21.4737 279.433 21.7415 279.1 21.9446C278.768 22.1416 278.402 22.2401 278.001 22.2401Z" fill="black"/>
</svg>
