<svg width="330" height="25" viewBox="0 0 330 25" fill="none" xmlns="http://www.w3.org/2000/svg">
<path d="M16.432 0.211998H19.916V24.288H16.432V0.211998ZM19.006 9.416H23.244V12.25H19.006V9.416ZM10.114 2.708H13.494C13.494 9.936 10.738 16.124 2.73 20.154L0.806 17.528C7.124 14.252 10.114 9.832 10.114 3.306V2.708ZM2.132 2.708H11.882V5.49H2.132V2.708ZM33.46 2.448H36.528V3.046C36.528 6.712 33.278 9.728 27.09 10.326L25.868 7.648C31.146 7.128 33.46 4.97 33.46 3.046V2.448ZM35.15 2.448H38.218V3.046C38.218 4.996 40.532 7.154 45.81 7.648L44.588 10.326C38.426 9.728 35.15 6.738 35.15 3.046V2.448ZM26.934 1.122H44.77V3.852H26.934V1.122ZM24.958 11.938H46.746V14.694H24.958V11.938ZM34.084 8.844H37.516V13.16H34.084V8.844ZM27.376 16.436H44.094V24.314H40.636V19.166H27.376V16.436ZM48.9019 9.572H70.6899V12.302H48.9019V9.572ZM51.5799 5.568H68.1159V8.272H51.5799V5.568ZM51.5799 0.679999H67.9079V3.436H55.0119V7.908H51.5799V0.679999ZM51.3719 13.654H68.0119V20.024H54.8039V22.104H51.3979V17.58H64.6059V16.254H51.3719V13.654ZM51.3979 21.48H68.6359V24.132H51.3979V21.48ZM83.6879 0.575998C89.1739 0.575998 92.3979 2.032 92.3979 4.684C92.3979 7.336 89.1739 8.792 83.6879 8.792C78.1759 8.792 74.9779 7.336 74.9779 4.684C74.9779 2.032 78.1759 0.575998 83.6879 0.575998ZM83.6879 3.098C80.2039 3.098 78.5659 3.618 78.5659 4.684C78.5659 5.802 80.2039 6.27 83.6879 6.27C87.1719 6.27 88.8099 5.802 88.8099 4.684C88.8099 3.618 87.1719 3.098 83.6879 3.098ZM72.7939 9.91H94.5559V12.64H72.7939V9.91ZM75.2899 13.992H91.9299V20.18H78.7219V22.312H75.3159V17.788H88.5239V16.566H75.2899V13.992ZM75.3159 21.558H92.5539V24.158H75.3159V21.558ZM102.755 18.724H124.543V21.532H102.755V18.724ZM111.881 13.394H115.339V19.374H111.881V13.394ZM105.017 2.006H122.151V13.836H105.017V2.006ZM118.771 4.762H108.423V11.106H118.771V4.762ZM143.183 0.263999H146.667V13.862H143.183V0.263999ZM130.651 14.954H146.667V24.054H130.651V14.954ZM143.261 17.658H134.031V21.324H143.261V17.658ZM133.563 1.356C137.307 1.356 140.089 3.748 140.089 7.128C140.089 10.482 137.307 12.9 133.563 12.9C129.819 12.9 127.011 10.482 127.011 7.128C127.011 3.748 129.819 1.356 133.563 1.356ZM133.563 4.216C131.743 4.216 130.391 5.282 130.391 7.128C130.391 8.948 131.743 10.014 133.563 10.014C135.383 10.014 136.709 8.948 136.709 7.128C136.709 5.282 135.383 4.216 133.563 4.216ZM160.185 9.104H164.137V11.886H160.185V9.104ZM167.959 0.238H171.261V24.314H167.959V0.238ZM163.045 0.602H166.295V23.222H163.045V0.602ZM155.973 1.928C159.171 1.928 161.225 5.23 161.225 10.664C161.225 16.124 159.171 19.426 155.973 19.426C152.801 19.426 150.773 16.124 150.773 10.664C150.773 5.23 152.801 1.928 155.973 1.928ZM155.973 5.178C154.673 5.178 153.919 6.998 153.919 10.664C153.919 14.356 154.673 16.15 155.973 16.15C157.325 16.15 158.079 14.356 158.079 10.664C158.079 6.998 157.325 5.178 155.973 5.178ZM180.527 18.776H202.315V21.584H180.527V18.776ZM189.679 14.148H193.137V20.232H189.679V14.148ZM189.653 5.256H192.721V5.776C192.721 10.378 189.055 14.096 182.451 14.954L181.203 12.224C187.053 11.522 189.653 8.532 189.653 5.776V5.256ZM190.121 5.256H193.163V5.776C193.163 8.532 195.763 11.522 201.613 12.224L200.365 14.954C193.761 14.096 190.121 10.378 190.121 5.776V5.256ZM182.373 3.488H200.443V6.27H182.373V3.488ZM189.679 0.549999H193.137V4.632H189.679V0.549999ZM221.813 0.238H225.089V24.314H221.813V0.238ZM218.589 9.494H222.593V12.276H218.589V9.494ZM216.431 0.653999H219.629V23.17H216.431V0.653999ZM205.095 16.046H206.785C209.749 16.046 212.219 15.942 215.079 15.422L215.339 18.23C212.427 18.802 209.879 18.88 206.785 18.88H205.095V16.046ZM205.095 3.02H213.987V5.802H208.527V17.398H205.095V3.02ZM228.311 3.852H239.829V6.608H228.311V3.852ZM234.109 7.674C237.177 7.674 239.387 10.04 239.387 13.42C239.387 16.774 237.177 19.14 234.109 19.14C231.067 19.14 228.831 16.774 228.831 13.42C228.831 10.04 231.067 7.674 234.109 7.674ZM234.109 10.56C232.809 10.56 231.899 11.6 231.899 13.42C231.899 15.24 232.809 16.254 234.109 16.254C235.409 16.254 236.345 15.24 236.345 13.42C236.345 11.6 235.409 10.56 234.109 10.56ZM245.731 0.238H249.033V24.314H245.731V0.238ZM242.845 10.014H246.823V12.796H242.845V10.014ZM240.687 0.679999H243.911V23.3H240.687V0.679999ZM232.419 0.887999H235.825V5.594H232.419V0.887999ZM252.281 18.724H274.069V21.532H252.281V18.724ZM261.407 13.576H264.865V19.4H261.407V13.576ZM254.569 1.772H258.001V5.464H268.271V1.772H271.703V14.304H254.569V1.772ZM258.001 8.168V11.548H268.271V8.168H258.001ZM285.663 8.324H289.641V11.132H285.663V8.324ZM280.515 2.318H283.167V6.374C283.167 11.834 281.659 17.164 277.811 19.53L275.731 16.93C279.267 14.746 280.515 10.456 280.515 6.374V2.318ZM281.269 2.318H283.869V6.218C283.869 10.144 284.883 14.148 288.159 16.28L286.287 18.984C282.465 16.618 281.269 11.418 281.269 6.218V2.318ZM293.567 0.238H296.869V24.314H293.567V0.238ZM288.679 0.602H291.903V23.222H288.679V0.602ZM304.901 12.458H308.333V19.218H304.901V12.458ZM313.637 12.458H317.095V19.218H313.637V12.458ZM300.117 18.724H321.905V21.532H300.117V18.724ZM310.985 1.408C316.159 1.408 319.981 3.956 319.981 7.882C319.981 11.808 316.159 14.33 310.985 14.33C305.785 14.33 301.989 11.808 301.989 7.882C301.989 3.956 305.785 1.408 310.985 1.408ZM310.985 4.112C307.631 4.112 305.395 5.49 305.395 7.882C305.395 10.248 307.631 11.652 310.985 11.652C314.339 11.652 316.575 10.248 316.575 7.882C316.575 5.49 314.339 4.112 310.985 4.112ZM326.837 22.2401C326.228 22.2401 325.705 22.0246 325.268 21.5938C324.837 21.1567 324.621 20.6335 324.621 20.0241C324.621 19.4209 324.837 18.9039 325.268 18.473C325.705 18.0421 326.228 17.8267 326.837 17.8267C327.428 17.8267 327.945 18.0421 328.388 18.473C328.832 18.9039 329.053 19.4209 329.053 20.0241C329.053 20.4304 328.949 20.8028 328.739 21.1413C328.536 21.4737 328.268 21.7415 327.936 21.9446C327.604 22.1416 327.237 22.2401 326.837 22.2401Z" fill="black"/>
</svg>
