<svg width="44" height="13" viewBox="0 0 44 13" fill="none" xmlns="http://www.w3.org/2000/svg">
<path d="M0.658 11.86V10.334L4.914 6.344C5.054 6.204 5.222 6.008 5.292 5.854C5.67 5.028 5.376 4.006 4.466 3.614C3.57 3.222 2.436 3.586 2.142 4.524L0.602 4.216C1.204 2.046 3.472 1.472 5.082 2.186C6.734 2.844 7.49 4.804 6.748 6.512C6.594 6.834 6.342 7.226 5.992 7.52L3.066 10.25H7.126V11.86H0.658ZM13.6746 9.55C14.0666 8.906 14.0946 8.136 14.0946 6.932C14.0946 5.742 14.0666 4.986 13.6746 4.342C13.4646 3.964 13.0306 3.446 12.0366 3.446C11.0426 3.446 10.6086 3.95 10.4126 4.328C10.0066 4.986 9.97861 5.742 9.97861 6.932C9.97861 8.122 10.0066 8.892 10.4126 9.536C10.6086 9.928 11.0426 10.432 12.0366 10.432C13.0306 10.432 13.4646 9.928 13.6746 9.55ZM8.32661 6.932C8.32661 5.602 8.34061 4.44 8.98461 3.404C9.37661 2.718 10.2866 1.794 12.0366 1.794C13.7866 1.794 14.6966 2.732 15.1026 3.404C15.7606 4.44 15.7606 5.616 15.7606 6.932C15.7606 8.276 15.7606 9.452 15.1026 10.488C14.6966 11.174 13.7866 12.098 12.0366 12.098C10.2866 12.098 9.37661 11.16 8.98461 10.488C8.34061 9.438 8.32661 8.262 8.32661 6.932ZM17.0096 11.86V10.334L21.2656 6.344C21.4056 6.204 21.5736 6.008 21.6436 5.854C22.0216 5.028 21.7276 4.006 20.8176 3.614C19.9216 3.222 18.7876 3.586 18.4936 4.524L16.9536 4.216C17.5556 2.046 19.8236 1.472 21.4336 2.186C23.0856 2.844 23.8416 4.804 23.0996 6.512C22.9456 6.834 22.6936 7.226 22.3436 7.52L19.4176 10.25H23.4776V11.86H17.0096ZM30.1102 6.764C30.9922 7.282 31.7342 8.122 31.7342 9.144C31.7342 10.838 30.3342 12.07 28.1922 12.07C26.0642 12.07 24.6782 10.838 24.6782 9.018H26.2462C26.2462 9.76 26.8902 10.516 28.1922 10.516C29.5082 10.516 30.1802 9.774 30.1802 9.018C30.1802 8.262 29.6342 7.52 28.2202 7.52H27.5062V6.036H28.2482C29.4102 6.036 30.0262 5.364 30.0262 4.678C30.0262 4.034 29.4382 3.376 28.2902 3.376C27.1282 3.376 26.5542 4.02 26.5542 4.692H24.9862C24.9862 2.984 26.3302 1.822 28.2902 1.822C30.2222 1.822 31.5662 2.984 31.5662 4.566C31.5662 5.49 30.9222 6.274 30.1102 6.764ZM41.4903 0.631999H43.2403V9.858H41.4903V5.756H38.4103V4.384H41.4903V3.418H38.4103V2.046H41.4903V0.631999ZM33.4403 8.234V1.43H35.1763V6.806C36.7163 6.778 38.1303 6.68 39.6703 6.414L39.8383 7.814C37.9903 8.164 36.3103 8.234 34.4343 8.234H33.4403ZM34.9803 12.952V9.046H36.7163V11.552H43.5203V12.952H34.9803Z" fill="black"/>
</svg>
